<?xml version="1.0" encoding="UTF-8" standalone="no"?>
<!-- Created with Inkscape (http://www.inkscape.org/) -->

<svg
   xmlns:dc="http://purl.org/dc/elements/1.1/"
   xmlns:cc="http://creativecommons.org/ns#"
   xmlns:rdf="http://www.w3.org/1999/02/22-rdf-syntax-ns#"
   xmlns:svg="http://www.w3.org/2000/svg"
   xmlns="http://www.w3.org/2000/svg"
   xmlns:sodipodi="http://sodipodi.sourceforge.net/DTD/sodipodi-0.dtd"
   xmlns:inkscape="http://www.inkscape.org/namespaces/inkscape"
   id="svg2"
   version="1.1"
   inkscape:version="0.91 r13725"
   xml:space="preserve"
   width="625.27039"
   height="651.90082"
   viewBox="0 0 625.27039 651.90082"
   sodipodi:docname="gas_evolution_good.svg"><metadata
     id="metadata8"><rdf:RDF><cc:Work
         rdf:about=""><dc:format>image/svg+xml</dc:format><dc:type
           rdf:resource="http://purl.org/dc/dcmitype/StillImage" /><dc:title /></cc:Work></rdf:RDF></metadata><defs
     id="defs6"><clipPath
       clipPathUnits="userSpaceOnUse"
       id="clipPath20"><path
         d="m 72,57.6 446.4,0 0,460.8 -446.4,0 0,-460.8 z"
         id="path22"
         inkscape:connector-curvature="0" /></clipPath><clipPath
       clipPathUnits="userSpaceOnUse"
       id="clipPath30"><path
         d="m 72,57.6 446.4,0 0,460.8 -446.4,0 0,-460.8 z"
         id="path32"
         inkscape:connector-curvature="0" /></clipPath><clipPath
       clipPathUnits="userSpaceOnUse"
       id="clipPath40"><path
         d="m 72,57.6 446.4,0 0,460.8 -446.4,0 0,-460.8 z"
         id="path42"
         inkscape:connector-curvature="0" /></clipPath><clipPath
       clipPathUnits="userSpaceOnUse"
       id="clipPath50"><path
         d="m 72,57.6 446.4,0 0,460.8 -446.4,0 0,-460.8 z"
         id="path52"
         inkscape:connector-curvature="0" /></clipPath><clipPath
       clipPathUnits="userSpaceOnUse"
       id="clipPath60"><path
         d="m 72,57.6 446.4,0 0,460.8 -446.4,0 0,-460.8 z"
         id="path62"
         inkscape:connector-curvature="0" /></clipPath><clipPath
       clipPathUnits="userSpaceOnUse"
       id="clipPath70"><path
         d="m 72,57.6 446.4,0 0,460.8 -446.4,0 0,-460.8 z"
         id="path72"
         inkscape:connector-curvature="0" /></clipPath><clipPath
       clipPathUnits="userSpaceOnUse"
       id="clipPath80"><path
         d="m 72,57.6 446.4,0 0,460.8 -446.4,0 0,-460.8 z"
         id="path82"
         inkscape:connector-curvature="0" /></clipPath><clipPath
       clipPathUnits="userSpaceOnUse"
       id="clipPath90"><path
         d="m 72,57.6 446.4,0 0,460.8 -446.4,0 0,-460.8 z"
         id="path92"
         inkscape:connector-curvature="0" /></clipPath><clipPath
       clipPathUnits="userSpaceOnUse"
       id="clipPath100"><path
         d="m 72,57.6 446.4,0 0,460.8 -446.4,0 0,-460.8 z"
         id="path102"
         inkscape:connector-curvature="0" /></clipPath><clipPath
       clipPathUnits="userSpaceOnUse"
       id="clipPath110"><path
         d="m 72,57.6 446.4,0 0,460.8 -446.4,0 0,-460.8 z"
         id="path112"
         inkscape:connector-curvature="0" /></clipPath><clipPath
       clipPathUnits="userSpaceOnUse"
       id="clipPath120"><path
         d="m 72,57.6 446.4,0 0,460.8 -446.4,0 0,-460.8 z"
         id="path122"
         inkscape:connector-curvature="0" /></clipPath><clipPath
       clipPathUnits="userSpaceOnUse"
       id="clipPath130"><path
         d="m 72,57.6 446.4,0 0,460.8 -446.4,0 0,-460.8 z"
         id="path132"
         inkscape:connector-curvature="0" /></clipPath><clipPath
       clipPathUnits="userSpaceOnUse"
       id="clipPath140"><path
         d="m 72,57.6 446.4,0 0,460.8 -446.4,0 0,-460.8 z"
         id="path142"
         inkscape:connector-curvature="0" /></clipPath><clipPath
       clipPathUnits="userSpaceOnUse"
       id="clipPath150"><path
         d="m 72,57.6 446.4,0 0,460.8 -446.4,0 0,-460.8 z"
         id="path152"
         inkscape:connector-curvature="0" /></clipPath><clipPath
       clipPathUnits="userSpaceOnUse"
       id="clipPath160"><path
         d="m 72,57.6 446.4,0 0,460.8 -446.4,0 0,-460.8 z"
         id="path162"
         inkscape:connector-curvature="0" /></clipPath><clipPath
       clipPathUnits="userSpaceOnUse"
       id="clipPath170"><path
         d="m 72,57.6 446.4,0 0,460.8 -446.4,0 0,-460.8 z"
         id="path172"
         inkscape:connector-curvature="0" /></clipPath><clipPath
       clipPathUnits="userSpaceOnUse"
       id="clipPath180"><path
         d="m 72,57.6 446.4,0 0,460.8 -446.4,0 0,-460.8 z"
         id="path182"
         inkscape:connector-curvature="0" /></clipPath><clipPath
       clipPathUnits="userSpaceOnUse"
       id="clipPath190"><path
         d="m 72,57.6 446.4,0 0,460.8 -446.4,0 0,-460.8 z"
         id="path192"
         inkscape:connector-curvature="0" /></clipPath><clipPath
       clipPathUnits="userSpaceOnUse"
       id="clipPath200"><path
         d="m 72,57.6 446.4,0 0,460.8 -446.4,0 0,-460.8 z"
         id="path202"
         inkscape:connector-curvature="0" /></clipPath><clipPath
       clipPathUnits="userSpaceOnUse"
       id="clipPath210"><path
         d="m 72,57.6 446.4,0 0,460.8 -446.4,0 0,-460.8 z"
         id="path212"
         inkscape:connector-curvature="0" /></clipPath><clipPath
       clipPathUnits="userSpaceOnUse"
       id="clipPath220"><path
         d="m 72,57.6 446.4,0 0,460.8 -446.4,0 0,-460.8 z"
         id="path222"
         inkscape:connector-curvature="0" /></clipPath><clipPath
       clipPathUnits="userSpaceOnUse"
       id="clipPath230"><path
         d="m 72,57.6 446.4,0 0,460.8 -446.4,0 0,-460.8 z"
         id="path232"
         inkscape:connector-curvature="0" /></clipPath></defs><sodipodi:namedview
     pagecolor="#ffffff"
     bordercolor="#666666"
     borderopacity="1"
     objecttolerance="10"
     gridtolerance="10"
     guidetolerance="10"
     inkscape:pageopacity="0"
     inkscape:pageshadow="2"
     inkscape:window-width="1403"
     inkscape:window-height="839"
     id="namedview4"
     showgrid="false"
     fit-margin-top="0"
     fit-margin-left="0"
     fit-margin-right="0"
     fit-margin-bottom="0"
     inkscape:zoom="0.65555556"
     inkscape:cx="295.69377"
     inkscape:cy="359.56627"
     inkscape:window-x="231"
     inkscape:window-y="38"
     inkscape:window-maximized="0"
     inkscape:current-layer="g10" /><g
     id="g10"
     inkscape:groupmode="layer"
     inkscape:label="gas_evolution_good"
     transform="matrix(1.25,0,0,-1.25,-23.354603,686.07879)"><path
       d="m 72,57.6 446.4,0 0,460.8 -446.4,0 0,-460.8 z"
       style="fill:#ffffff;fill-opacity:1;fill-rule:nonzero;stroke:none"
       id="path14"
       inkscape:connector-curvature="0" /><g
       id="g16"><g
         id="g18"
         clip-path="url(#clipPath20)"><path
           d="m 404.54545,465.7501 c 1.05801,0 2.07283,0.42035 2.82095,1.16847 0.74813,0.74813 1.16848,1.76294 1.16848,2.82095 0,1.05801 -0.42035,2.07282 -1.16848,2.82095 -0.74812,0.74812 -1.76294,1.16847 -2.82095,1.16847 -1.058,0 -2.07282,-0.42035 -2.82094,-1.16847 -0.74813,-0.74813 -1.16848,-1.76294 -1.16848,-2.82095 0,-1.05801 0.42035,-2.07282 1.16848,-2.82095 0.74812,-0.74812 1.76294,-1.16847 2.82094,-1.16847 z"
           style="fill:none;stroke:#808080;stroke-width:2;stroke-linecap:butt;stroke-linejoin:round;stroke-miterlimit:10;stroke-dasharray:none;stroke-opacity:1"
           id="path24"
           inkscape:connector-curvature="0" /></g></g><g
       id="g26"><g
         id="g28"
         clip-path="url(#clipPath30)"><path
           d="m 449.63636,427.78018 c 1.05801,0 2.07283,0.42035 2.82095,1.16847 0.74813,0.74813 1.16848,1.76294 1.16848,2.82095 0,1.05801 -0.42035,2.07282 -1.16848,2.82095 -0.74812,0.74812 -1.76294,1.16847 -2.82095,1.16847 -1.058,0 -2.07282,-0.42035 -2.82094,-1.16847 -0.74813,-0.74813 -1.16848,-1.76294 -1.16848,-2.82095 0,-1.05801 0.42035,-2.07282 1.16848,-2.82095 0.74812,-0.74812 1.76294,-1.16847 2.82094,-1.16847 z"
           style="fill:none;stroke:#808080;stroke-width:2;stroke-linecap:butt;stroke-linejoin:round;stroke-miterlimit:10;stroke-dasharray:none;stroke-opacity:1"
           id="path34"
           inkscape:connector-curvature="0" /></g></g><g
       id="g36"><g
         id="g38"
         clip-path="url(#clipPath40)"><path
           d="m 415.81818,392.50923 c 1.05801,0 2.07283,0.42035 2.82095,1.16847 0.74812,0.74813 1.16847,1.76294 1.16847,2.82095 0,1.05801 -0.42035,2.07283 -1.16847,2.82095 -0.74812,0.74812 -1.76294,1.16847 -2.82095,1.16847 -1.05801,0 -2.07282,-0.42035 -2.82095,-1.16847 -0.74812,-0.74812 -1.16847,-1.76294 -1.16847,-2.82095 0,-1.05801 0.42035,-2.07282 1.16847,-2.82095 0.74813,-0.74812 1.76294,-1.16847 2.82095,-1.16847 z"
           style="fill:none;stroke:#808080;stroke-width:2;stroke-linecap:butt;stroke-linejoin:round;stroke-miterlimit:10;stroke-dasharray:none;stroke-opacity:1"
           id="path44"
           inkscape:connector-curvature="0" /></g></g><g
       id="g46"><g
         id="g48"
         clip-path="url(#clipPath50)"><path
           d="m 466.54545,430.47915 c 1.05801,0 2.07283,0.42035 2.82095,1.16847 0.74813,0.74813 1.16848,1.76294 1.16848,2.82095 0,1.05801 -0.42035,2.07283 -1.16848,2.82095 -0.74812,0.74812 -1.76294,1.16847 -2.82095,1.16847 -1.058,0 -2.07282,-0.42035 -2.82094,-1.16847 -0.74813,-0.74812 -1.16848,-1.76294 -1.16848,-2.82095 0,-1.05801 0.42035,-2.07282 1.16848,-2.82095 0.74812,-0.74812 1.76294,-1.16847 2.82094,-1.16847 z"
           style="fill:none;stroke:#808080;stroke-width:2;stroke-linecap:butt;stroke-linejoin:round;stroke-miterlimit:10;stroke-dasharray:none;stroke-opacity:1"
           id="path54"
           inkscape:connector-curvature="0" /></g></g><g
       id="g56"><g
         id="g58"
         clip-path="url(#clipPath60)"><path
           d="m 427.09091,465.7501 c 1.05801,0 2.07282,0.42035 2.82095,1.16847 0.74812,0.74813 1.16847,1.76294 1.16847,2.82095 0,1.05801 -0.42035,2.07282 -1.16847,2.82095 -0.74813,0.74812 -1.76294,1.16847 -2.82095,1.16847 -1.05801,0 -2.07282,-0.42035 -2.82095,-1.16847 -0.74812,-0.74813 -1.16847,-1.76294 -1.16847,-2.82095 0,-1.05801 0.42035,-2.07282 1.16847,-2.82095 0.74813,-0.74812 1.76294,-1.16847 2.82095,-1.16847 z"
           style="fill:none;stroke:#808080;stroke-width:2;stroke-linecap:butt;stroke-linejoin:round;stroke-miterlimit:10;stroke-dasharray:none;stroke-opacity:1"
           id="path64"
           inkscape:connector-curvature="0" /></g></g><g
       id="g66"><g
         id="g68"
         clip-path="url(#clipPath70)"><path
           d="m 477.81818,465.7501 c 1.05801,0 2.07283,0.42035 2.82095,1.16847 0.74812,0.74813 1.16847,1.76294 1.16847,2.82095 0,1.05801 -0.42035,2.07282 -1.16847,2.82095 -0.74812,0.74812 -1.76294,1.16847 -2.82095,1.16847 -1.05801,0 -2.07282,-0.42035 -2.82095,-1.16847 -0.74812,-0.74813 -1.16847,-1.76294 -1.16847,-2.82095 0,-1.05801 0.42035,-2.07282 1.16847,-2.82095 0.74813,-0.74812 1.76294,-1.16847 2.82095,-1.16847 z"
           style="fill:none;stroke:#808080;stroke-width:2;stroke-linecap:butt;stroke-linejoin:round;stroke-miterlimit:10;stroke-dasharray:none;stroke-opacity:1"
           id="path74"
           inkscape:connector-curvature="0" /></g></g><g
       id="g76"><g
         id="g78"
         clip-path="url(#clipPath80)"><path
           d="m 415.81818,465.7501 c 1.05801,0 2.07283,0.42035 2.82095,1.16847 0.74812,0.74813 1.16847,1.76294 1.16847,2.82095 0,1.05801 -0.42035,2.07282 -1.16847,2.82095 -0.74812,0.74812 -1.76294,1.16847 -2.82095,1.16847 -1.05801,0 -2.07282,-0.42035 -2.82095,-1.16847 -0.74812,-0.74813 -1.16847,-1.76294 -1.16847,-2.82095 0,-1.05801 0.42035,-2.07282 1.16847,-2.82095 0.74813,-0.74812 1.76294,-1.16847 2.82095,-1.16847 z"
           style="fill:none;stroke:#808080;stroke-width:2;stroke-linecap:butt;stroke-linejoin:round;stroke-miterlimit:10;stroke-dasharray:none;stroke-opacity:1"
           id="path84"
           inkscape:connector-curvature="0" /></g></g><g
       id="g86"><g
         id="g88"
         clip-path="url(#clipPath90)"><path
           d="m 460.90909,465.7501 c 1.05801,0 2.07282,0.42035 2.82095,1.16847 0.74812,0.74813 1.16847,1.76294 1.16847,2.82095 0,1.05801 -0.42035,2.07282 -1.16847,2.82095 -0.74813,0.74812 -1.76294,1.16847 -2.82095,1.16847 -1.05801,0 -2.07282,-0.42035 -2.82095,-1.16847 -0.74812,-0.74813 -1.16847,-1.76294 -1.16847,-2.82095 0,-1.05801 0.42035,-2.07282 1.16847,-2.82095 0.74813,-0.74812 1.76294,-1.16847 2.82095,-1.16847 z"
           style="fill:none;stroke:#808080;stroke-width:2;stroke-linecap:butt;stroke-linejoin:round;stroke-miterlimit:10;stroke-dasharray:none;stroke-opacity:1"
           id="path94"
           inkscape:connector-curvature="0" /></g></g><g
       id="g96"><g
         id="g98"
         clip-path="url(#clipPath100)"><path
           d="m 438.36364,465.7501 c 1.058,0 2.07282,0.42035 2.82094,1.16847 0.74813,0.74813 1.16848,1.76294 1.16848,2.82095 0,1.05801 -0.42035,2.07282 -1.16848,2.82095 -0.74812,0.74812 -1.76294,1.16847 -2.82094,1.16847 -1.05801,0 -2.07283,-0.42035 -2.82095,-1.16847 -0.74813,-0.74813 -1.16848,-1.76294 -1.16848,-2.82095 0,-1.05801 0.42035,-2.07282 1.16848,-2.82095 0.74812,-0.74812 1.76294,-1.16847 2.82095,-1.16847 z"
           style="fill:none;stroke:#808080;stroke-width:2;stroke-linecap:butt;stroke-linejoin:round;stroke-miterlimit:10;stroke-dasharray:none;stroke-opacity:1"
           id="path104"
           inkscape:connector-curvature="0" /></g></g><g
       id="g106"><g
         id="g108"
         clip-path="url(#clipPath110)"><path
           d="m 427.09091,465.7501 c 1.05801,0 2.07282,0.42035 2.82095,1.16847 0.74812,0.74813 1.16847,1.76294 1.16847,2.82095 0,1.05801 -0.42035,2.07282 -1.16847,2.82095 -0.74813,0.74812 -1.76294,1.16847 -2.82095,1.16847 -1.05801,0 -2.07282,-0.42035 -2.82095,-1.16847 -0.74812,-0.74813 -1.16847,-1.76294 -1.16847,-2.82095 0,-1.05801 0.42035,-2.07282 1.16847,-2.82095 0.74813,-0.74812 1.76294,-1.16847 2.82095,-1.16847 z"
           style="fill:none;stroke:#808080;stroke-width:2;stroke-linecap:butt;stroke-linejoin:round;stroke-miterlimit:10;stroke-dasharray:none;stroke-opacity:1"
           id="path114"
           inkscape:connector-curvature="0" /></g></g><g
       id="g116"><g
         id="g118"
         clip-path="url(#clipPath120)"><path
           d="m 72,76.691602 446.4,0"
           style="fill:none;stroke:#404040;stroke-width:2;stroke-linecap:square;stroke-linejoin:round;stroke-miterlimit:10;stroke-dasharray:none;stroke-opacity:1"
           id="path124"
           inkscape:connector-curvature="0" /></g></g><g
       id="g126"><g
         id="g128"
         clip-path="url(#clipPath130)"><path
           d="m 72,469.7382 446.4,0"
           style="fill:none;stroke:#a0a0a0;stroke-width:2;stroke-linecap:square;stroke-linejoin:round;stroke-miterlimit:10;stroke-dasharray:2, 6;stroke-opacity:1;stroke-dashoffset:0"
           id="path134"
           inkscape:connector-curvature="0" /></g></g><g
       id="g136"><g
         id="g138"
         clip-path="url(#clipPath140)"><path
           d="m 92.495006,-1 2.050449,86.906286 5.636365,0 5.63636,26.779064 5.63637,0 5.63636,87.76265 5.63636,0 5.63637,5.34528 5.63636,150.04965 5.63636,0 5.63637,0 5.63636,0 5.63636,0 5.63637,0 5.63636,0 5.63637,0 5.63636,0 5.63636,0 5.63637,19.07712 5.63636,0 5.63636,0 5.63637,0 5.63636,5.04246 5.63636,16.53614 5.63637,10.95388 5.63636,0 5.63637,0 5.63636,3.09394 5.63636,0 5.63637,0 5.63636,0 5.63636,0 5.63637,0 5.63636,0 5.63636,21.22313 5.63637,8.45239 5.63636,0 5.63637,29.51753 5.63636,0 5.63636,0 5.63637,0 5.63636,0 5.63636,0 5.63637,0 5.63636,0 5.63636,0 5.63637,0 5.63636,0 5.63637,0 5.63636,0 5.63636,0 5.63637,0 5.63636,0 5.63636,0 5.63637,0 5.63636,0 5.63636,0"
           style="fill:none;stroke:#000000;stroke-width:0.5;stroke-linecap:square;stroke-linejoin:round;stroke-miterlimit:10;stroke-dasharray:none;stroke-opacity:1"
           id="path144"
           inkscape:connector-curvature="0" /></g></g><g
       id="g146"><g
         id="g148"
         clip-path="url(#clipPath150)"><path
           d="m 95.466648,-1 4.715172,98.189303 5.63636,89.316207 5.63637,0 5.63636,20.93348 5.63636,0 5.63637,97.8081 5.63636,0 5.63636,0 5.63637,0 5.63636,0 5.63636,0 5.63637,0 5.63636,47.14642 5.63637,0 5.63636,1.55355 5.63636,0 5.63637,0 5.63636,9.80846 5.63636,0 5.63637,0 5.63636,0 5.63636,0 5.63637,0 5.63636,0 5.63637,35.24462 5.63636,0 5.63636,0 5.63637,6.93833 5.63636,0 5.63636,0 5.63637,0 5.63636,0 5.63636,16.33865 5.63637,0 5.63636,0 5.63637,0 5.63636,0 5.63636,0 5.63637,0 5.63636,0 5.63636,0 5.63637,0 5.63636,0 5.63636,9.49248 5.63637,0 5.63636,0 5.63637,0 5.63636,0 5.63636,0 5.63637,0 5.63636,0 5.63636,0 5.63637,0 5.63636,0 5.63636,0 5.63637,0 5.63636,0 5.63637,0 5.63636,0 5.63636,0 5.63637,0 5.63636,0 5.63636,0"
           style="fill:none;stroke:#000000;stroke-width:0.5;stroke-linecap:square;stroke-linejoin:round;stroke-miterlimit:10;stroke-dasharray:none;stroke-opacity:1"
           id="path154"
           inkscape:connector-curvature="0" /></g></g><g
       id="g156"><g
         id="g158"
         clip-path="url(#clipPath160)"><path
           d="m 88.575223,-1 0.333868,16.2064 5.636364,0 5.636365,0 5.63636,33.296091 5.63637,68.132569 5.63636,34.71799 5.63636,46.72512 5.63637,0 5.63636,22.5792 5.63636,0 5.63637,0 5.63636,126.91749 5.63636,0 5.63637,0 5.63636,0 5.63637,0 5.63636,0 5.63636,0 5.63637,0 5.63636,0 5.63636,0 5.63637,0 5.63636,0 5.63636,13.88983 5.63637,21.89458 5.63636,0 5.63637,0 5.63636,0 5.63636,0 5.63637,0 5.63636,0 5.63636,0 5.63637,0 5.63636,0 5.63636,7.53079 5.63637,0 5.63636,0 5.63637,0 5.63636,0 5.63636,5.60859 5.63637,0 5.63636,0 5.63636,0 5.63637,0 5.63636,0 5.63636,0 5.63637,0 5.63636,0 5.63637,0 5.63636,0 5.63636,0 5.63637,0 5.63636,0 5.63636,0 5.63637,0 5.63636,0 5.63636,0 5.63637,0 5.63636,0"
           style="fill:none;stroke:#000000;stroke-width:0.5;stroke-linecap:square;stroke-linejoin:round;stroke-miterlimit:10;stroke-dasharray:none;stroke-opacity:1"
           id="path164"
           inkscape:connector-curvature="0" /></g></g><g
       id="g166"><g
         id="g168"
         clip-path="url(#clipPath170)"><path
           d="m 77.636364,-0.09216 5.636363,0 5.636364,32.506149 5.636364,104.364621 5.636365,86.40658 5.63636,0 5.63637,0 5.63636,10.46674 5.63636,0 5.63637,0 5.63636,0 5.63636,28.68809 5.63637,0 5.63636,20.10405 5.63636,0 5.63637,0 5.63636,0 5.63637,0 5.63636,0 5.63636,17.44457 5.63637,26.77906 5.63636,0 5.63636,0 5.63637,0 5.63636,0 5.63636,0 5.63637,0 5.63636,24.8832 5.63637,0 5.63636,16.19383 5.63636,0 5.63637,15.10108 5.63636,0 5.63636,0 5.63637,0 5.63636,0 5.63636,38.07524 5.63637,2.69897 5.63636,0 5.63637,0 5.63636,0 5.63636,0 5.63637,0 5.63636,0 5.63636,0 5.63637,10.65107 5.63636,0 5.63636,0 5.63637,0 5.63636,0 5.63637,0.19748 5.63636,0 5.63636,0 5.63637,0 5.63636,0 5.63636,0 5.63637,0 5.63636,0 5.63636,0 5.63637,0 5.63636,0 5.63637,0 5.63636,0 5.63636,0 5.63637,0 5.63636,0 5.63636,0 5.63637,0 5.63636,0 5.63636,0"
           style="fill:none;stroke:#000000;stroke-width:0.5;stroke-linecap:square;stroke-linejoin:round;stroke-miterlimit:10;stroke-dasharray:none;stroke-opacity:1"
           id="path174"
           inkscape:connector-curvature="0" /></g></g><g
       id="g176"><g
         id="g178"
         clip-path="url(#clipPath180)"><path
           d="m 101.40673,-1 4.41145,181.69943 5.63637,42.74907 5.63636,9.70313 5.63636,29.71502 5.63637,0 5.63636,6.14839 5.63636,0 5.63637,41.65632 5.63636,0 5.63636,0 5.63637,0 5.63636,23.94843 5.63637,0 5.63636,17.77372 5.63636,0 5.63637,0 5.63636,0 5.63636,3.15977 5.63637,0 5.63636,0 5.63636,11.90181 5.63637,0 5.63636,5.8719 5.63637,0 5.63636,6.63552 5.63636,0 5.63637,0 5.63636,5.41111 5.63636,0 5.63637,0 5.63636,14.66661 5.63636,0 5.63637,0 5.63636,0 5.63637,18.82697 5.63636,0 5.63636,0 5.63637,0 5.63636,50.87232 5.63636,0 5.63637,0 5.63636,0 5.63636,0 5.63637,0 5.63636,0 5.63637,0 5.63636,0 5.63636,0 5.63637,0 5.63636,0 5.63636,0 5.63637,0 5.63636,0 5.63636,0 5.63637,0 5.63636,0 5.63637,0 5.63636,0"
           style="fill:none;stroke:#000000;stroke-width:0.5;stroke-linecap:square;stroke-linejoin:round;stroke-miterlimit:10;stroke-dasharray:none;stroke-opacity:1"
           id="path184"
           inkscape:connector-curvature="0" /></g></g><g
       id="g186"><g
         id="g188"
         clip-path="url(#clipPath190)"><path
           d="m 89.183346,-1 5.362109,130.26098 5.636365,0 5.63636,0 5.63637,102.03429 5.63636,0 5.63636,0 5.63637,54.90103 5.63636,49.20027 5.63636,0 5.63637,0 5.63636,0 5.63636,0 5.63637,0 5.63636,0 5.63637,0 5.63636,0 5.63636,0 5.63637,0 5.63636,6.33271 5.63636,0 5.63637,0 5.63636,52.5312 5.63636,0 5.63637,0 5.63636,0 5.63637,0 5.63636,0 5.63636,0 5.63637,2.23817 5.63636,0 5.63636,0 5.63637,0 5.63636,8.34706 5.63636,0 5.63637,15.93052 5.63636,0 5.63637,0 5.63636,0 5.63636,10.99337 5.63637,0 5.63636,0 5.63636,0 5.63637,0 5.63636,0 5.63636,18.27401 5.63637,0 5.63636,0 5.63637,0 5.63636,0 5.63636,19.69591 5.63637,0 5.63636,0 5.63636,0 5.63637,0 5.63636,0 5.63636,0 5.63637,0 5.63636,0 5.63637,0 5.63636,0 5.63636,0 5.63637,0 5.63636,0 5.63636,0 5.63637,0 5.63636,0 5.63636,0 5.63637,0 5.63636,0"
           style="fill:none;stroke:#000000;stroke-width:0.5;stroke-linecap:square;stroke-linejoin:round;stroke-miterlimit:10;stroke-dasharray:none;stroke-opacity:1"
           id="path194"
           inkscape:connector-curvature="0" /></g></g><g
       id="g196"><g
         id="g198"
         clip-path="url(#clipPath200)"><path
           d="m 81.522615,-1 1.750112,188.62459 5.636364,0 5.636364,56.95488 5.636365,0 5.63636,28.01664 5.63637,0 5.63636,0 5.63636,6.21422 5.63637,0 5.63636,0 5.63636,61.97102 5.63637,0 5.63636,0 5.63636,0 5.63637,0 5.63636,49.60841 5.63637,0 5.63636,0 5.63636,5.77975 5.63637,0 5.63636,0 5.63636,0 5.63637,0 5.63636,0 5.63636,0 5.63637,0 5.63636,0 5.63637,14.07415 5.63636,0 5.63636,0 5.63637,0 5.63636,0 5.63636,0 5.63637,0 5.63636,10.58523 5.63636,0 5.63637,0 5.63636,0 5.63637,0 5.63636,31.74254 5.63636,17.16809 5.63637,0 5.63636,0 5.63636,0 5.63637,0 5.63636,0 5.63636,0 5.63637,0 5.63636,0 5.63637,0 5.63636,0 5.63636,0 5.63637,0 5.63636,0 5.63636,0 5.63637,0 5.63636,0 5.63636,0 5.63637,0 5.63636,0"
           style="fill:none;stroke:#000000;stroke-width:0.5;stroke-linecap:square;stroke-linejoin:round;stroke-miterlimit:10;stroke-dasharray:none;stroke-opacity:1"
           id="path204"
           inkscape:connector-curvature="0" /></g></g><g
       id="g206"><g
         id="g208"
         clip-path="url(#clipPath210)"><path
           d="m 97.619689,-1 2.562131,73.977554 5.63636,0 5.63637,177.289506 5.63636,0 5.63636,23.82995 5.63637,0 5.63636,23.71145 5.63636,0 5.63637,0 5.63636,38.57554 5.63636,30.80777 5.63637,0 5.63636,1.8827 5.63637,0 5.63636,0 5.63636,0.73728 5.63637,0 5.63636,14.81143 5.63636,0 5.63637,0 5.63636,0 5.63636,0 5.63637,0 5.63636,0 5.63637,0.75044 5.63636,0 5.63636,0 5.63637,0 5.63636,30.28115 5.63636,0 5.63637,11.19085 5.63636,23.19799 5.63636,0 5.63637,0 5.63636,0 5.63637,0 5.63636,2.52782 5.63636,0 5.63637,0 5.63636,0 5.63636,0 5.63637,0 5.63636,0 5.63636,0 5.63637,0 5.63636,17.16809 5.63637,0 5.63636,0 5.63636,0 5.63637,0 5.63636,0 5.63636,0 5.63637,0 5.63636,0 5.63636,0 5.63637,0 5.63636,0 5.63637,0 5.63636,0 5.63636,0 5.63637,0 5.63636,0 5.63636,0 5.63637,0 5.63636,0"
           style="fill:none;stroke:#000000;stroke-width:0.5;stroke-linecap:square;stroke-linejoin:round;stroke-miterlimit:10;stroke-dasharray:none;stroke-opacity:1"
           id="path214"
           inkscape:connector-curvature="0" /></g></g><g
       id="g216"><g
         id="g218"
         clip-path="url(#clipPath220)"><path
           d="m 102.9514,-1 2.86678,21.709669 5.63637,53.558125 5.63636,78.915296 5.63636,40.73472 5.63637,1.81686 5.63636,0 5.63636,12.38894 5.63637,41.18236 5.63636,0 5.63636,71.56882 5.63637,0 5.63636,40.9717 5.63637,0 5.63636,29.04357 5.63636,0 5.63637,0 5.63636,0 5.63636,0 5.63637,0 5.63636,0 5.63636,0 5.63637,0 5.63636,0 5.63637,0 5.63636,0 5.63636,0 5.63637,0 5.63636,0 5.63636,5.60859 5.63637,0 5.63636,0 5.63636,0 5.63637,0 5.63636,0 5.63637,0 5.63636,10.57207 5.63636,0 5.63637,0 5.63636,0 5.63636,11.79648 5.63637,50.87232 5.63636,0 5.63636,0 5.63637,0 5.63636,0 5.63637,0 5.63636,0 5.63636,0 5.63637,0 5.63636,0 5.63636,0 5.63637,0 5.63636,0 5.63636,0 5.63637,0 5.63636,0 5.63637,0 5.63636,0 5.63636,0 5.63637,0"
           style="fill:none;stroke:#000000;stroke-width:0.5;stroke-linecap:square;stroke-linejoin:round;stroke-miterlimit:10;stroke-dasharray:none;stroke-opacity:1"
           id="path224"
           inkscape:connector-curvature="0" /></g></g><g
       id="g226"><g
         id="g228"
         clip-path="url(#clipPath230)"><path
           d="m 85.197449,-1 3.711642,183.74011 5.636364,3.2651 5.636365,0 5.63636,9.65047 5.63637,30.33381 5.63636,37.94358 5.63636,24.9622 5.63637,82.66752 5.63636,0 5.63636,0 5.63637,0 5.63636,0 5.63636,0 5.63637,0 5.63636,0 5.63637,0 5.63636,0 5.63636,0 5.63637,0 5.63636,0 5.63636,0 5.63637,0 5.63636,0 5.63636,2.35666 5.63637,0 5.63636,0 5.63637,0 5.63636,0 5.63636,0 5.63637,0 L 258,403.2 l 5.63636,0 5.63637,0 5.63636,0 5.63636,9.66363 5.63637,39.7078 5.63636,0 5.63637,0 5.63636,0 5.63636,0 5.63637,0 5.63636,17.16809 5.63636,0 5.63637,0 5.63636,0 5.63636,0 5.63637,0 5.63636,0 5.63637,0 5.63636,0 5.63636,0 5.63637,0 5.63636,0 5.63636,0 5.63637,0 5.63636,0 5.63636,0 5.63637,0 5.63636,0 5.63637,0 5.63636,0"
           style="fill:none;stroke:#000000;stroke-width:0.5;stroke-linecap:square;stroke-linejoin:round;stroke-miterlimit:10;stroke-dasharray:none;stroke-opacity:1"
           id="path234"
           inkscape:connector-curvature="0" /></g></g><path
       d="m 72,57.6 0,4"
       style="fill:none;stroke:#000000;stroke-width:0.5;stroke-linecap:butt;stroke-linejoin:round;stroke-miterlimit:10;stroke-dasharray:none;stroke-opacity:1"
       id="path236"
       inkscape:connector-curvature="0" /><path
       d="m 72,518.4 0,-4"
       style="fill:none;stroke:#000000;stroke-width:0.5;stroke-linecap:butt;stroke-linejoin:round;stroke-miterlimit:10;stroke-dasharray:none;stroke-opacity:1"
       id="path238"
       inkscape:connector-curvature="0" /><text
       transform="matrix(1,0,0,-1,68.26401,43.430737)"
       style="font-variant:normal;font-size:14.94396019px;font-family:'URW Palladio L';-inkscape-font-specification:URWPalladioL-Roma;writing-mode:lr-tb;fill:#000000;fill-opacity:1;fill-rule:nonzero;stroke:none"
       id="text240"><tspan
         x="0"
         y="0"
         id="tspan242">0</tspan></text>
<path
       d="m 128.36364,57.6 0,4"
       style="fill:none;stroke:#000000;stroke-width:0.5;stroke-linecap:butt;stroke-linejoin:round;stroke-miterlimit:10;stroke-dasharray:none;stroke-opacity:1"
       id="path244"
       inkscape:connector-curvature="0" /><path
       d="m 128.36364,518.4 0,-4"
       style="fill:none;stroke:#000000;stroke-width:0.5;stroke-linecap:butt;stroke-linejoin:round;stroke-miterlimit:10;stroke-dasharray:none;stroke-opacity:1"
       id="path246"
       inkscape:connector-curvature="0" /><text
       transform="matrix(1,0,0,-1,120.89166,43.430737)"
       style="font-variant:normal;font-size:14.94396019px;font-family:'URW Palladio L';-inkscape-font-specification:URWPalladioL-Roma;writing-mode:lr-tb;fill:#000000;fill-opacity:1;fill-rule:nonzero;stroke:none"
       id="text248"><tspan
         x="0 7.4719801"
         y="0"
         sodipodi:role="line"
         id="tspan250">10</tspan></text>
<path
       d="m 184.72727,57.6 0,4"
       style="fill:none;stroke:#000000;stroke-width:0.5;stroke-linecap:butt;stroke-linejoin:round;stroke-miterlimit:10;stroke-dasharray:none;stroke-opacity:1"
       id="path252"
       inkscape:connector-curvature="0" /><path
       d="m 184.72727,518.4 0,-4"
       style="fill:none;stroke:#000000;stroke-width:0.5;stroke-linecap:butt;stroke-linejoin:round;stroke-miterlimit:10;stroke-dasharray:none;stroke-opacity:1"
       id="path254"
       inkscape:connector-curvature="0" /><text
       transform="matrix(1,0,0,-1,177.25529,43.430737)"
       style="font-variant:normal;font-size:14.94396019px;font-family:'URW Palladio L';-inkscape-font-specification:URWPalladioL-Roma;writing-mode:lr-tb;fill:#000000;fill-opacity:1;fill-rule:nonzero;stroke:none"
       id="text256"><tspan
         x="0 7.4719801"
         y="0"
         sodipodi:role="line"
         id="tspan258">20</tspan></text>
<path
       d="m 241.09091,57.6 0,4"
       style="fill:none;stroke:#000000;stroke-width:0.5;stroke-linecap:butt;stroke-linejoin:round;stroke-miterlimit:10;stroke-dasharray:none;stroke-opacity:1"
       id="path260"
       inkscape:connector-curvature="0" /><path
       d="m 241.09091,518.4 0,-4"
       style="fill:none;stroke:#000000;stroke-width:0.5;stroke-linecap:butt;stroke-linejoin:round;stroke-miterlimit:10;stroke-dasharray:none;stroke-opacity:1"
       id="path262"
       inkscape:connector-curvature="0" /><text
       transform="matrix(1,0,0,-1,233.61893,43.430737)"
       style="font-variant:normal;font-size:14.94396019px;font-family:'URW Palladio L';-inkscape-font-specification:URWPalladioL-Roma;writing-mode:lr-tb;fill:#000000;fill-opacity:1;fill-rule:nonzero;stroke:none"
       id="text264"><tspan
         x="0 7.4719801"
         y="0"
         sodipodi:role="line"
         id="tspan266">30</tspan></text>
<path
       d="m 297.45455,57.6 0,4"
       style="fill:none;stroke:#000000;stroke-width:0.5;stroke-linecap:butt;stroke-linejoin:round;stroke-miterlimit:10;stroke-dasharray:none;stroke-opacity:1"
       id="path268"
       inkscape:connector-curvature="0" /><path
       d="m 297.45455,518.4 0,-4"
       style="fill:none;stroke:#000000;stroke-width:0.5;stroke-linecap:butt;stroke-linejoin:round;stroke-miterlimit:10;stroke-dasharray:none;stroke-opacity:1"
       id="path270"
       inkscape:connector-curvature="0" /><text
       transform="matrix(1,0,0,-1,289.98257,43.430737)"
       style="font-variant:normal;font-size:14.94396019px;font-family:'URW Palladio L';-inkscape-font-specification:URWPalladioL-Roma;writing-mode:lr-tb;fill:#000000;fill-opacity:1;fill-rule:nonzero;stroke:none"
       id="text272"><tspan
         x="0 7.4719801"
         y="0"
         sodipodi:role="line"
         id="tspan274">40</tspan></text>
<path
       d="m 353.81818,57.6 0,4"
       style="fill:none;stroke:#000000;stroke-width:0.5;stroke-linecap:butt;stroke-linejoin:round;stroke-miterlimit:10;stroke-dasharray:none;stroke-opacity:1"
       id="path276"
       inkscape:connector-curvature="0" /><path
       d="m 353.81818,518.4 0,-4"
       style="fill:none;stroke:#000000;stroke-width:0.5;stroke-linecap:butt;stroke-linejoin:round;stroke-miterlimit:10;stroke-dasharray:none;stroke-opacity:1"
       id="path278"
       inkscape:connector-curvature="0" /><text
       transform="matrix(1,0,0,-1,346.3462,43.430737)"
       style="font-variant:normal;font-size:14.94396019px;font-family:'URW Palladio L';-inkscape-font-specification:URWPalladioL-Roma;writing-mode:lr-tb;fill:#000000;fill-opacity:1;fill-rule:nonzero;stroke:none"
       id="text280"><tspan
         x="0 7.4719801"
         y="0"
         sodipodi:role="line"
         id="tspan282">50</tspan></text>
<path
       d="m 410.18182,57.6 0,4"
       style="fill:none;stroke:#000000;stroke-width:0.5;stroke-linecap:butt;stroke-linejoin:round;stroke-miterlimit:10;stroke-dasharray:none;stroke-opacity:1"
       id="path284"
       inkscape:connector-curvature="0" /><path
       d="m 410.18182,518.4 0,-4"
       style="fill:none;stroke:#000000;stroke-width:0.5;stroke-linecap:butt;stroke-linejoin:round;stroke-miterlimit:10;stroke-dasharray:none;stroke-opacity:1"
       id="path286"
       inkscape:connector-curvature="0" /><text
       transform="matrix(1,0,0,-1,402.70984,43.430737)"
       style="font-variant:normal;font-size:14.94396019px;font-family:'URW Palladio L';-inkscape-font-specification:URWPalladioL-Roma;writing-mode:lr-tb;fill:#000000;fill-opacity:1;fill-rule:nonzero;stroke:none"
       id="text288"><tspan
         x="0 7.4719801"
         y="0"
         sodipodi:role="line"
         id="tspan290">60</tspan></text>
<path
       d="m 466.54545,57.6 0,4"
       style="fill:none;stroke:#000000;stroke-width:0.5;stroke-linecap:butt;stroke-linejoin:round;stroke-miterlimit:10;stroke-dasharray:none;stroke-opacity:1"
       id="path292"
       inkscape:connector-curvature="0" /><path
       d="m 466.54545,518.4 0,-4"
       style="fill:none;stroke:#000000;stroke-width:0.5;stroke-linecap:butt;stroke-linejoin:round;stroke-miterlimit:10;stroke-dasharray:none;stroke-opacity:1"
       id="path294"
       inkscape:connector-curvature="0" /><text
       transform="matrix(1,0,0,-1,459.07347,43.430737)"
       style="font-variant:normal;font-size:14.94396019px;font-family:'URW Palladio L';-inkscape-font-specification:URWPalladioL-Roma;writing-mode:lr-tb;fill:#000000;fill-opacity:1;fill-rule:nonzero;stroke:none"
       id="text296"><tspan
         x="0 7.4719801"
         y="0"
         sodipodi:role="line"
         id="tspan298">70</tspan></text>
<path
       d="m 72,57.6 4,0"
       style="fill:none;stroke:#000000;stroke-width:0.5;stroke-linecap:butt;stroke-linejoin:round;stroke-miterlimit:10;stroke-dasharray:none;stroke-opacity:1"
       id="path312"
       inkscape:connector-curvature="0" /><path
       d="m 518.4,57.6 -4,0"
       style="fill:none;stroke:#000000;stroke-width:0.5;stroke-linecap:butt;stroke-linejoin:round;stroke-miterlimit:10;stroke-dasharray:none;stroke-opacity:1"
       id="path314"
       inkscape:connector-curvature="0" /><text
       transform="matrix(1,0,0,-1,34.37609,52.563938)"
       style="font-variant:normal;font-size:14.94396019px;font-family:'URW Palladio L';-inkscape-font-specification:URWPalladioL-Roma;writing-mode:lr-tb;fill:#000000;fill-opacity:1;fill-rule:nonzero;stroke:none"
       id="text316"><tspan
         x="0 7.4719801 11.20797 18.679951 26.15193"
         y="0"
         sodipodi:role="line"
         id="tspan318">0.340</tspan></text>
<path
       d="m 72,123.42857 4,0"
       style="fill:none;stroke:#000000;stroke-width:0.5;stroke-linecap:butt;stroke-linejoin:round;stroke-miterlimit:10;stroke-dasharray:none;stroke-opacity:1"
       id="path320"
       inkscape:connector-curvature="0" /><path
       d="m 518.4,123.42857 -4,0"
       style="fill:none;stroke:#000000;stroke-width:0.5;stroke-linecap:butt;stroke-linejoin:round;stroke-miterlimit:10;stroke-dasharray:none;stroke-opacity:1"
       id="path322"
       inkscape:connector-curvature="0" /><text
       transform="matrix(1,0,0,-1,34.37609,118.39251)"
       style="font-variant:normal;font-size:14.94396019px;font-family:'URW Palladio L';-inkscape-font-specification:URWPalladioL-Roma;writing-mode:lr-tb;fill:#000000;fill-opacity:1;fill-rule:nonzero;stroke:none"
       id="text324"><tspan
         x="0 7.4719801 11.20797 18.679951 26.15193"
         y="0"
         sodipodi:role="line"
         id="tspan326">0.345</tspan></text>
<path
       d="m 72,189.25714 4,0"
       style="fill:none;stroke:#000000;stroke-width:0.5;stroke-linecap:butt;stroke-linejoin:round;stroke-miterlimit:10;stroke-dasharray:none;stroke-opacity:1"
       id="path328"
       inkscape:connector-curvature="0" /><path
       d="m 518.4,189.25714 -4,0"
       style="fill:none;stroke:#000000;stroke-width:0.5;stroke-linecap:butt;stroke-linejoin:round;stroke-miterlimit:10;stroke-dasharray:none;stroke-opacity:1"
       id="path330"
       inkscape:connector-curvature="0" /><text
       transform="matrix(1,0,0,-1,34.37609,184.22108)"
       style="font-variant:normal;font-size:14.94396019px;font-family:'URW Palladio L';-inkscape-font-specification:URWPalladioL-Roma;writing-mode:lr-tb;fill:#000000;fill-opacity:1;fill-rule:nonzero;stroke:none"
       id="text332"><tspan
         x="0 7.4719801 11.20797 18.679951 26.15193"
         y="0"
         sodipodi:role="line"
         id="tspan334">0.350</tspan></text>
<path
       d="m 72,255.08571 4,0"
       style="fill:none;stroke:#000000;stroke-width:0.5;stroke-linecap:butt;stroke-linejoin:round;stroke-miterlimit:10;stroke-dasharray:none;stroke-opacity:1"
       id="path336"
       inkscape:connector-curvature="0" /><path
       d="m 518.4,255.08571 -4,0"
       style="fill:none;stroke:#000000;stroke-width:0.5;stroke-linecap:butt;stroke-linejoin:round;stroke-miterlimit:10;stroke-dasharray:none;stroke-opacity:1"
       id="path338"
       inkscape:connector-curvature="0" /><text
       transform="matrix(1,0,0,-1,34.37609,250.04965)"
       style="font-variant:normal;font-size:14.94396019px;font-family:'URW Palladio L';-inkscape-font-specification:URWPalladioL-Roma;writing-mode:lr-tb;fill:#000000;fill-opacity:1;fill-rule:nonzero;stroke:none"
       id="text340"><tspan
         x="0 7.4719801 11.20797 18.679951 26.15193"
         y="0"
         sodipodi:role="line"
         id="tspan342">0.355</tspan></text>
<path
       d="m 72,320.91429 4,0"
       style="fill:none;stroke:#000000;stroke-width:0.5;stroke-linecap:butt;stroke-linejoin:round;stroke-miterlimit:10;stroke-dasharray:none;stroke-opacity:1"
       id="path344"
       inkscape:connector-curvature="0" /><path
       d="m 518.4,320.91429 -4,0"
       style="fill:none;stroke:#000000;stroke-width:0.5;stroke-linecap:butt;stroke-linejoin:round;stroke-miterlimit:10;stroke-dasharray:none;stroke-opacity:1"
       id="path346"
       inkscape:connector-curvature="0" /><text
       transform="matrix(1,0,0,-1,34.37609,315.87822)"
       style="font-variant:normal;font-size:14.94396019px;font-family:'URW Palladio L';-inkscape-font-specification:URWPalladioL-Roma;writing-mode:lr-tb;fill:#000000;fill-opacity:1;fill-rule:nonzero;stroke:none"
       id="text348"><tspan
         x="0 7.4719801 11.20797 18.679951 26.15193"
         y="0"
         sodipodi:role="line"
         id="tspan350">0.360</tspan></text>
<path
       d="m 72,386.74286 4,0"
       style="fill:none;stroke:#000000;stroke-width:0.5;stroke-linecap:butt;stroke-linejoin:round;stroke-miterlimit:10;stroke-dasharray:none;stroke-opacity:1"
       id="path352"
       inkscape:connector-curvature="0" /><path
       d="m 518.4,386.74286 -4,0"
       style="fill:none;stroke:#000000;stroke-width:0.5;stroke-linecap:butt;stroke-linejoin:round;stroke-miterlimit:10;stroke-dasharray:none;stroke-opacity:1"
       id="path354"
       inkscape:connector-curvature="0" /><text
       transform="matrix(1,0,0,-1,34.37609,381.7068)"
       style="font-variant:normal;font-size:14.94396019px;font-family:'URW Palladio L';-inkscape-font-specification:URWPalladioL-Roma;writing-mode:lr-tb;fill:#000000;fill-opacity:1;fill-rule:nonzero;stroke:none"
       id="text356"><tspan
         x="0 7.4719801 11.20797 18.679951 26.15193"
         y="0"
         sodipodi:role="line"
         id="tspan358">0.365</tspan></text>
<path
       d="m 72,452.57143 4,0"
       style="fill:none;stroke:#000000;stroke-width:0.5;stroke-linecap:butt;stroke-linejoin:round;stroke-miterlimit:10;stroke-dasharray:none;stroke-opacity:1"
       id="path360"
       inkscape:connector-curvature="0" /><path
       d="m 518.4,452.57143 -4,0"
       style="fill:none;stroke:#000000;stroke-width:0.5;stroke-linecap:butt;stroke-linejoin:round;stroke-miterlimit:10;stroke-dasharray:none;stroke-opacity:1"
       id="path362"
       inkscape:connector-curvature="0" /><text
       transform="matrix(1,0,0,-1,34.37609,447.53537)"
       style="font-variant:normal;font-size:14.94396019px;font-family:'URW Palladio L';-inkscape-font-specification:URWPalladioL-Roma;writing-mode:lr-tb;fill:#000000;fill-opacity:1;fill-rule:nonzero;stroke:none"
       id="text364"><tspan
         x="0 7.4719801 11.20797 18.679951 26.15193"
         y="0"
         sodipodi:role="line"
         id="tspan366">0.370</tspan></text>
<path
       d="m 72,518.4 4,0"
       style="fill:none;stroke:#000000;stroke-width:0.5;stroke-linecap:butt;stroke-linejoin:round;stroke-miterlimit:10;stroke-dasharray:none;stroke-opacity:1"
       id="path368"
       inkscape:connector-curvature="0" /><path
       d="m 518.4,518.4 -4,0"
       style="fill:none;stroke:#000000;stroke-width:0.5;stroke-linecap:butt;stroke-linejoin:round;stroke-miterlimit:10;stroke-dasharray:none;stroke-opacity:1"
       id="path370"
       inkscape:connector-curvature="0" /><text
       transform="matrix(1,0,0,-1,34.37609,513.36394)"
       style="font-variant:normal;font-size:14.94396019px;font-family:'URW Palladio L';-inkscape-font-specification:URWPalladioL-Roma;writing-mode:lr-tb;fill:#000000;fill-opacity:1;fill-rule:nonzero;stroke:none"
       id="text372"><tspan
         x="0 7.4719801 11.20797 18.679951 26.15193"
         y="0"
         sodipodi:role="line"
         id="tspan374">0.375</tspan></text>
<text
       transform="matrix(0,1,1,0,29.27895,265.35259)"
       style="font-variant:normal;font-size:14.94396019px;font-family:'URW Palladio L';-inkscape-font-specification:URWPalladioL-Roma;writing-mode:lr-tb;fill:#000000;fill-opacity:1;fill-rule:nonzero;stroke:none"
       id="text376"><tspan
         x="0 10.580324 20.547945 29.559153 37.38979"
         y="0"
         sodipodi:role="line"
         id="tspan378">CRPSS</tspan></text>
<path
       d="m 72,518.4 446.4,0"
       style="fill:none;stroke:#000000;stroke-width:1;stroke-linecap:square;stroke-linejoin:round;stroke-miterlimit:10;stroke-dasharray:none;stroke-opacity:1"
       id="path380"
       inkscape:connector-curvature="0" /><path
       d="m 518.4,57.572882 0,460.799998"
       style="fill:none;stroke:#000000;stroke-width:1;stroke-linecap:square;stroke-linejoin:round;stroke-miterlimit:10;stroke-dasharray:none;stroke-opacity:1"
       id="path382"
       inkscape:connector-curvature="0" /><path
       d="m 72,57.6 446.4,0"
       style="fill:none;stroke:#000000;stroke-width:1;stroke-linecap:square;stroke-linejoin:round;stroke-miterlimit:10;stroke-dasharray:none;stroke-opacity:1"
       id="path384"
       inkscape:connector-curvature="0" /><path
       d="m 72,57.6 0,460.8"
       style="fill:none;stroke:#000000;stroke-width:1;stroke-linecap:square;stroke-linejoin:round;stroke-miterlimit:10;stroke-dasharray:none;stroke-opacity:1"
       id="path386"
       inkscape:connector-curvature="0" /><text
       xml:space="preserve"
       style="font-style:normal;font-weight:normal;font-size:32px;line-height:125%;font-family:sans-serif;letter-spacing:0px;word-spacing:0px;fill:#000000;fill-opacity:1;stroke:none;stroke-width:1px;stroke-linecap:butt;stroke-linejoin:miter;stroke-opacity:1"
       x="167.10419"
       y="-532.80725"
       id="text3523"
       sodipodi:linespacing="125%"
       transform="scale(1,-1)"><tspan
         sodipodi:role="line"
         id="tspan3525"
         x="167.10419"
         y="-532.80725"
         style="font-style:normal;font-variant:normal;font-weight:normal;font-stretch:normal;font-size:18px;font-family:'URW Palladio L';-inkscape-font-specification:'URW Palladio L'">Evolution of the best individuals</tspan></text>
<text
       xml:space="preserve"
       style="font-style:normal;font-weight:normal;font-size:32px;line-height:125%;font-family:sans-serif;letter-spacing:0px;word-spacing:0px;fill:#000000;fill-opacity:1;stroke:none;stroke-width:1px;stroke-linecap:butt;stroke-linejoin:miter;stroke-opacity:1"
       x="245.629"
       y="-28.20528"
       id="text3527"
       sodipodi:linespacing="125%"
       transform="scale(1,-1)"><tspan
         sodipodi:role="line"
         id="tspan3529"
         x="245.629"
         y="-28.20528"
         style="font-style:normal;font-variant:normal;font-weight:normal;font-stretch:normal;font-size:15px;font-family:'URW Palladio L';-inkscape-font-specification:'URW Palladio L'">Generations</tspan></text>
</g></svg>