<?xml version="1.0" encoding="UTF-8" standalone="no"?>
<!-- Created with Inkscape (http://www.inkscape.org/) -->

<svg
   xmlns:dc="http://purl.org/dc/elements/1.1/"
   xmlns:cc="http://creativecommons.org/ns#"
   xmlns:rdf="http://www.w3.org/1999/02/22-rdf-syntax-ns#"
   xmlns:svg="http://www.w3.org/2000/svg"
   xmlns="http://www.w3.org/2000/svg"
   xmlns:sodipodi="http://sodipodi.sourceforge.net/DTD/sodipodi-0.dtd"
   xmlns:inkscape="http://www.inkscape.org/namespaces/inkscape"
   id="svg4136"
   version="1.1"
   inkscape:version="0.91 r13725"
   xml:space="preserve"
   width="609.20654"
   height="330.07489"
   viewBox="0 0 609.20655 330.0749"
   sodipodi:docname="scores_all_methods_2.svg"><metadata
     id="metadata4142"><rdf:RDF><cc:Work
         rdf:about=""><dc:format>image/svg+xml</dc:format><dc:type
           rdf:resource="http://purl.org/dc/dcmitype/StillImage" /><dc:title></dc:title></cc:Work></rdf:RDF></metadata><defs
     id="defs4140"><clipPath
       clipPathUnits="userSpaceOnUse"
       id="clipPath4164"><path
         d="m 53.558,281.68 519.28,0 0,280.29 -519.28,0 0,-280.29 z"
         id="path4166"
         inkscape:connector-curvature="0"
         style="clip-rule:evenodd" /></clipPath><clipPath
       clipPathUnits="userSpaceOnUse"
       id="clipPath4176"><path
         d="m 53.558,281.68 519.28,0 0,280.29 -519.28,0 0,-280.29 z"
         id="path4178"
         inkscape:connector-curvature="0"
         style="clip-rule:evenodd" /></clipPath><clipPath
       clipPathUnits="userSpaceOnUse"
       id="clipPath4188"><path
         d="m 53.558,281.68 519.28,0 0,280.29 -519.28,0 0,-280.29 z"
         id="path4190"
         inkscape:connector-curvature="0"
         style="clip-rule:evenodd" /></clipPath><clipPath
       clipPathUnits="userSpaceOnUse"
       id="clipPath4200"><path
         d="m 53.558,281.68 519.28,0 0,280.29 -519.28,0 0,-280.29 z"
         id="path4202"
         inkscape:connector-curvature="0"
         style="clip-rule:evenodd" /></clipPath><clipPath
       clipPathUnits="userSpaceOnUse"
       id="clipPath4212"><path
         d="m 53.558,281.68 519.28,0 0,280.29 -519.28,0 0,-280.29 z"
         id="path4214"
         inkscape:connector-curvature="0"
         style="clip-rule:evenodd" /></clipPath><clipPath
       clipPathUnits="userSpaceOnUse"
       id="clipPath4224"><path
         d="m 53.558,281.68 519.28,0 0,280.29 -519.28,0 0,-280.29 z"
         id="path4226"
         inkscape:connector-curvature="0"
         style="clip-rule:evenodd" /></clipPath><clipPath
       clipPathUnits="userSpaceOnUse"
       id="clipPath4236"><path
         d="m 53.558,281.68 519.28,0 0,280.29 -519.28,0 0,-280.29 z"
         id="path4238"
         inkscape:connector-curvature="0"
         style="clip-rule:evenodd" /></clipPath><clipPath
       clipPathUnits="userSpaceOnUse"
       id="clipPath4248"><path
         d="m 53.558,281.68 519.28,0 0,280.29 -519.28,0 0,-280.29 z"
         id="path4250"
         inkscape:connector-curvature="0"
         style="clip-rule:evenodd" /></clipPath><clipPath
       clipPathUnits="userSpaceOnUse"
       id="clipPath4260"><path
         d="m 53.558,281.68 519.28,0 0,280.29 -519.28,0 0,-280.29 z"
         id="path4262"
         inkscape:connector-curvature="0"
         style="clip-rule:evenodd" /></clipPath><clipPath
       clipPathUnits="userSpaceOnUse"
       id="clipPath4272"><path
         d="m 53.558,281.68 519.28,0 0,280.29 -519.28,0 0,-280.29 z"
         id="path4274"
         inkscape:connector-curvature="0"
         style="clip-rule:evenodd" /></clipPath><clipPath
       clipPathUnits="userSpaceOnUse"
       id="clipPath4284"><path
         d="m 53.558,281.68 519.28,0 0,280.29 -519.28,0 0,-280.29 z"
         id="path4286"
         inkscape:connector-curvature="0"
         style="clip-rule:evenodd" /></clipPath><clipPath
       clipPathUnits="userSpaceOnUse"
       id="clipPath4296"><path
         d="m 53.558,281.68 519.28,0 0,280.29 -519.28,0 0,-280.29 z"
         id="path4298"
         inkscape:connector-curvature="0"
         style="clip-rule:evenodd" /></clipPath><clipPath
       clipPathUnits="userSpaceOnUse"
       id="clipPath4308"><path
         d="m 53.558,281.68 519.28,0 0,280.29 -519.28,0 0,-280.29 z"
         id="path4310"
         inkscape:connector-curvature="0"
         style="clip-rule:evenodd" /></clipPath><clipPath
       clipPathUnits="userSpaceOnUse"
       id="clipPath4320"><path
         d="m 53.558,281.68 519.28,0 0,280.29 -519.28,0 0,-280.29 z"
         id="path4322"
         inkscape:connector-curvature="0"
         style="clip-rule:evenodd" /></clipPath><clipPath
       clipPathUnits="userSpaceOnUse"
       id="clipPath4332"><path
         d="m 53.558,281.68 519.28,0 0,280.29 -519.28,0 0,-280.29 z"
         id="path4334"
         inkscape:connector-curvature="0"
         style="clip-rule:evenodd" /></clipPath><clipPath
       clipPathUnits="userSpaceOnUse"
       id="clipPath4344"><path
         d="m 53.558,281.68 519.28,0 0,280.29 -519.28,0 0,-280.29 z"
         id="path4346"
         inkscape:connector-curvature="0"
         style="clip-rule:evenodd" /></clipPath><clipPath
       clipPathUnits="userSpaceOnUse"
       id="clipPath4356"><path
         d="m 53.558,281.68 519.28,0 0,280.29 -519.28,0 0,-280.29 z"
         id="path4358"
         inkscape:connector-curvature="0"
         style="clip-rule:evenodd" /></clipPath><clipPath
       clipPathUnits="userSpaceOnUse"
       id="clipPath4370"><path
         d="m 53.558,281.68 519.28,0 0,280.29 -519.28,0 0,-280.29 z"
         id="path4372"
         inkscape:connector-curvature="0"
         style="clip-rule:evenodd" /></clipPath><clipPath
       clipPathUnits="userSpaceOnUse"
       id="clipPath4384"><path
         d="m 53.558,281.68 519.28,0 0,280.29 -519.28,0 0,-280.29 z"
         id="path4386"
         inkscape:connector-curvature="0"
         style="clip-rule:evenodd" /></clipPath><clipPath
       clipPathUnits="userSpaceOnUse"
       id="clipPath4398"><path
         d="m 53.558,281.68 519.28,0 0,280.29 -519.28,0 0,-280.29 z"
         id="path4400"
         inkscape:connector-curvature="0"
         style="clip-rule:evenodd" /></clipPath><clipPath
       clipPathUnits="userSpaceOnUse"
       id="clipPath4412"><path
         d="m 53.558,281.68 519.28,0 0,280.29 -519.28,0 0,-280.29 z"
         id="path4414"
         inkscape:connector-curvature="0"
         style="clip-rule:evenodd" /></clipPath><clipPath
       clipPathUnits="userSpaceOnUse"
       id="clipPath4424"><path
         d="m 53.053,281.05 520.42,0 0,281.56 -520.42,0 0,-281.56 z"
         id="path4426"
         inkscape:connector-curvature="0"
         style="clip-rule:evenodd" /></clipPath></defs><sodipodi:namedview
     pagecolor="#ffffff"
     bordercolor="#666666"
     borderopacity="1"
     objecttolerance="10"
     gridtolerance="10"
     guidetolerance="10"
     inkscape:pageopacity="0"
     inkscape:pageshadow="2"
     inkscape:window-width="1405"
     inkscape:window-height="912"
     id="namedview4138"
     showgrid="false"
     fit-margin-top="0"
     fit-margin-left="0"
     fit-margin-right="0"
     fit-margin-bottom="0"
     inkscape:zoom="0.8420958"
     inkscape:cx="307.28776"
     inkscape:cy="193.26041"
     inkscape:window-x="242"
     inkscape:window-y="14"
     inkscape:window-maximized="0"
     inkscape:current-layer="g4144" /><g
     id="g4144"
     inkscape:groupmode="layer"
     inkscape:label="scores_all_methods_2"
     transform="matrix(1.25,0,0,-1.25,-84.293475,690.78952)"><path
       d="m 120.38,374.29 434.42,0 m -434.42,43.23 434.42,0 m -434.42,43.23 434.42,0 m -434.42,43.41 434.42,0 m -434.42,43.27 434.42,0"
       style="fill:none;stroke:#d9d9d9;stroke-width:1.02279997;stroke-linecap:butt;stroke-linejoin:round;stroke-miterlimit:10;stroke-dasharray:none;stroke-opacity:1"
       id="path4148"
       inkscape:connector-curvature="0" /><path
       d="m 126.31,504.33 7.92,0 0,-173.4 -7.92,0 0,173.4 z m 43.41,-23.77 7.92,0 0,-149.63 -7.92,0 0,149.63 z m 43.4,-19.12 7.92,0 0,-130.51 -7.92,0 0,130.51 z m 43.58,-19.46 7.75,0 0,-111.05 -7.75,0 0,111.05 z m 43.4,42.03 7.93,0 0,-153.08 -7.93,0 0,153.08 z m 43.41,26.69 7.92,0 0,-179.77 -7.92,0 0,179.77 z m 43.41,-86.64 7.92,0 0,-93.13 -7.92,0 0,93.13 z m 43.4,67.52 7.93,0 0,-160.65 -7.93,0 0,160.65 z m 43.58,-53.39 7.75,0 0,-107.26 -7.75,0 0,107.26 z m 43.41,59.25 7.92,0 0,-166.51 -7.92,0 0,166.51 z"
       style="fill:#ca4837;fill-opacity:1;fill-rule:nonzero;stroke:none"
       id="path4150"
       inkscape:connector-curvature="0" /><path
       d="m 134.23,526.55 7.93,0 0,-195.62 -7.93,0 0,195.62 z m 43.41,-29.11 7.92,0 0,-166.51 -7.92,0 0,166.51 z m 43.4,-17.4 7.93,0 0,-149.11 -7.93,0 0,149.11 z m 43.41,-20.49 7.92,0 0,-128.62 -7.92,0 0,128.62 z m 43.58,44.26 7.92,0 0,-172.88 -7.92,0 0,172.88 z m 43.4,15.85 7.93,0 0,-188.73 -7.93,0 0,188.73 z m 43.41,-82.51 7.92,0 0,-106.22 -7.92,0 0,106.22 z m 43.41,68.73 7.92,0 0,-174.95 -7.92,0 0,174.95 z m 43.4,-53.91 7.92,0 0,-121.04 -7.92,0 0,121.04 z m 43.58,52.53 7.92,0 0,-173.57 -7.92,0 0,173.57 z"
       style="fill:#ca8037;fill-opacity:1;fill-rule:nonzero;stroke:none"
       id="path4152"
       inkscape:connector-curvature="0" /><path
       d="m 142.16,534.82 7.92,0 0,-203.89 -7.92,0 0,203.89 z m 43.4,-21.53 7.92,0 0,-182.36 -7.92,0 0,182.36 z m 43.41,-15.16 7.92,0 0,-167.2 -7.92,0 0,167.2 z m 43.4,-24.98 7.93,0 0,-142.22 -7.93,0 0,142.22 z m 43.58,42.72 7.75,0 0,-184.94 -7.75,0 0,184.94 z m 43.41,18.6 7.92,0 0,-203.54 -7.92,0 0,203.54 z m 43.4,-86.12 7.93,0 0,-117.42 -7.93,0 0,117.42 z m 43.41,65.28 7.92,0 0,-182.7 -7.92,0 0,182.7 z m 43.4,-45.3 7.93,0 0,-137.4 -7.93,0 0,137.4 z m 43.58,60.46 7.75,0 0,-197.86 -7.75,0 0,197.86 z"
       style="fill:#299746;fill-opacity:1;fill-rule:nonzero;stroke:none"
       id="path4154"
       inkscape:connector-curvature="0" /><path
       d="m 150.08,539.64 7.75,0 0,-208.71 -7.75,0 0,208.71 z m 43.4,-16.54 7.93,0 0,-192.17 -7.93,0 0,192.17 z m 43.41,-24.45 7.92,0 0,-167.72 -7.92,0 0,167.72 z m 43.41,-17.92 7.92,0 0,-149.8 -7.92,0 0,149.8 z m 43.4,39.96 7.93,0 0,-189.76 -7.93,0 0,189.76 z m 43.58,20.85 7.75,0 0,-210.61 -7.75,0 0,210.61 z m 43.41,-81.13 7.92,0 0,-129.48 -7.92,0 0,129.48 z m 43.4,69.58 7.93,0 0,-199.06 -7.93,0 0,199.06 z m 43.41,-57.18 7.92,0 0,-141.88 -7.92,0 0,141.88 z m 43.4,59.6 7.93,0 0,-201.48 -7.93,0 0,201.48 z"
       style="fill:#246c7d;fill-opacity:1;fill-rule:nonzero;stroke:none"
       id="path4156"
       inkscape:connector-curvature="0" /><path
       d="m 120.38,330.93 434.42,0"
       style="fill:none;stroke:#d9d9d9;stroke-width:1.02279997;stroke-linecap:butt;stroke-linejoin:round;stroke-miterlimit:10;stroke-dasharray:none;stroke-opacity:1"
       id="path4158"
       inkscape:connector-curvature="0" /><g
       id="g4160"><g
         id="g4162"
         clip-path="url(#clipPath4164)"><text
           transform="matrix(1,0,0,-1,85.242,327.28)"
           style="font-variant:normal;font-weight:normal;font-size:12.23200035px;font-family:'Palatino Linotype';-inkscape-font-specification:PalatinoLinotype-Roman;writing-mode:lr-tb;fill:#595959;fill-opacity:1;fill-rule:nonzero;stroke:none"
           id="text4168"><tspan
             x="0 6.1771598 12.195304"
             y="0"
             sodipodi:role="line"
             id="tspan4170">20%</tspan></text>
</g></g><g
       id="g4172"><g
         id="g4174"
         clip-path="url(#clipPath4176)"><text
           transform="matrix(1,0,0,-1,85.242,370.59)"
           style="font-variant:normal;font-weight:normal;font-size:12.23200035px;font-family:'Palatino Linotype';-inkscape-font-specification:PalatinoLinotype-Roman;writing-mode:lr-tb;fill:#595959;fill-opacity:1;fill-rule:nonzero;stroke:none"
           id="text4180"><tspan
             x="0 6.1771598 12.195304"
             y="0"
             sodipodi:role="line"
             id="tspan4182">25%</tspan></text>
</g></g><g
       id="g4184"><g
         id="g4186"
         clip-path="url(#clipPath4188)"><text
           transform="matrix(1,0,0,-1,85.242,413.89)"
           style="font-variant:normal;font-weight:normal;font-size:12.23200035px;font-family:'Palatino Linotype';-inkscape-font-specification:PalatinoLinotype-Roman;writing-mode:lr-tb;fill:#595959;fill-opacity:1;fill-rule:nonzero;stroke:none"
           id="text4192"><tspan
             x="0 6.1771598 12.195304"
             y="0"
             sodipodi:role="line"
             id="tspan4194">30%</tspan></text>
</g></g><g
       id="g4196"><g
         id="g4198"
         clip-path="url(#clipPath4200)"><text
           transform="matrix(1,0,0,-1,85.242,457.2)"
           style="font-variant:normal;font-weight:normal;font-size:12.23200035px;font-family:'Palatino Linotype';-inkscape-font-specification:PalatinoLinotype-Roman;writing-mode:lr-tb;fill:#595959;fill-opacity:1;fill-rule:nonzero;stroke:none"
           id="text4204"><tspan
             x="0 6.1771598 12.195304"
             y="0"
             sodipodi:role="line"
             id="tspan4206">35%</tspan></text>
</g></g><g
       id="g4208"><g
         id="g4210"
         clip-path="url(#clipPath4212)"><text
           transform="matrix(1,0,0,-1,85.242,500.51)"
           style="font-variant:normal;font-weight:normal;font-size:12.23200035px;font-family:'Palatino Linotype';-inkscape-font-specification:PalatinoLinotype-Roman;writing-mode:lr-tb;fill:#595959;fill-opacity:1;fill-rule:nonzero;stroke:none"
           id="text4216"><tspan
             x="0 6.1771598 12.195304"
             y="0"
             sodipodi:role="line"
             id="tspan4218">40%</tspan></text>
</g></g><g
       id="g4220"><g
         id="g4222"
         clip-path="url(#clipPath4224)"><text
           transform="matrix(1,0,0,-1,85.242,543.81)"
           style="font-variant:normal;font-weight:normal;font-size:12.23200035px;font-family:'Palatino Linotype';-inkscape-font-specification:PalatinoLinotype-Roman;writing-mode:lr-tb;fill:#595959;fill-opacity:1;fill-rule:nonzero;stroke:none"
           id="text4228"><tspan
             x="0 6.1771598 12.195304"
             y="0"
             sodipodi:role="line"
             id="tspan4230">45%</tspan></text>
</g></g><g
       id="g4232"><g
         id="g4234"
         clip-path="url(#clipPath4236)"><text
           transform="matrix(1,0,0,-1,139.07,309.33)"
           style="font-variant:normal;font-weight:normal;font-size:12.23200035px;font-family:'Palatino Linotype';-inkscape-font-specification:PalatinoLinotype-Roman;writing-mode:lr-tb;fill:#595959;fill-opacity:1;fill-rule:nonzero;stroke:none"
           id="text4240"><tspan
             x="0"
             y="0"
             id="tspan4242">1</tspan></text>
</g></g><g
       id="g4244"><g
         id="g4246"
         clip-path="url(#clipPath4248)"><text
           transform="matrix(1,0,0,-1,182.53,309.33)"
           style="font-variant:normal;font-weight:normal;font-size:12.23200035px;font-family:'Palatino Linotype';-inkscape-font-specification:PalatinoLinotype-Roman;writing-mode:lr-tb;fill:#595959;fill-opacity:1;fill-rule:nonzero;stroke:none"
           id="text4252"><tspan
             x="0"
             y="0"
             id="tspan4254">2</tspan></text>
</g></g><g
       id="g4256"><g
         id="g4258"
         clip-path="url(#clipPath4260)"><text
           transform="matrix(1,0,0,-1,225.96,309.33)"
           style="font-variant:normal;font-weight:normal;font-size:12.23200035px;font-family:'Palatino Linotype';-inkscape-font-specification:PalatinoLinotype-Roman;writing-mode:lr-tb;fill:#595959;fill-opacity:1;fill-rule:nonzero;stroke:none"
           id="text4264"><tspan
             x="0"
             y="0"
             id="tspan4266">3</tspan></text>
</g></g><g
       id="g4268"><g
         id="g4270"
         clip-path="url(#clipPath4272)"><text
           transform="matrix(1,0,0,-1,269.41,309.33)"
           style="font-variant:normal;font-weight:normal;font-size:12.23200035px;font-family:'Palatino Linotype';-inkscape-font-specification:PalatinoLinotype-Roman;writing-mode:lr-tb;fill:#595959;fill-opacity:1;fill-rule:nonzero;stroke:none"
           id="text4276"><tspan
             x="0"
             y="0"
             id="tspan4278">4</tspan></text>
</g></g><g
       id="g4280"><g
         id="g4282"
         clip-path="url(#clipPath4284)"><text
           transform="matrix(1,0,0,-1,312.86,309.33)"
           style="font-variant:normal;font-weight:normal;font-size:12.23200035px;font-family:'Palatino Linotype';-inkscape-font-specification:PalatinoLinotype-Roman;writing-mode:lr-tb;fill:#595959;fill-opacity:1;fill-rule:nonzero;stroke:none"
           id="text4288"><tspan
             x="0"
             y="0"
             id="tspan4290">5</tspan></text>
</g></g><g
       id="g4292"><g
         id="g4294"
         clip-path="url(#clipPath4296)"><text
           transform="matrix(1,0,0,-1,356.32,309.33)"
           style="font-variant:normal;font-weight:normal;font-size:12.23200035px;font-family:'Palatino Linotype';-inkscape-font-specification:PalatinoLinotype-Roman;writing-mode:lr-tb;fill:#595959;fill-opacity:1;fill-rule:nonzero;stroke:none"
           id="text4300"><tspan
             x="0"
             y="0"
             id="tspan4302">6</tspan></text>
</g></g><g
       id="g4304"><g
         id="g4306"
         clip-path="url(#clipPath4308)"><text
           transform="matrix(1,0,0,-1,399.77,309.33)"
           style="font-variant:normal;font-weight:normal;font-size:12.23200035px;font-family:'Palatino Linotype';-inkscape-font-specification:PalatinoLinotype-Roman;writing-mode:lr-tb;fill:#595959;fill-opacity:1;fill-rule:nonzero;stroke:none"
           id="text4312"><tspan
             x="0"
             y="0"
             id="tspan4314">7</tspan></text>
</g></g><g
       id="g4316"><g
         id="g4318"
         clip-path="url(#clipPath4320)"><text
           transform="matrix(1,0,0,-1,443.22,309.33)"
           style="font-variant:normal;font-weight:normal;font-size:12.23200035px;font-family:'Palatino Linotype';-inkscape-font-specification:PalatinoLinotype-Roman;writing-mode:lr-tb;fill:#595959;fill-opacity:1;fill-rule:nonzero;stroke:none"
           id="text4324"><tspan
             x="0"
             y="0"
             id="tspan4326">8</tspan></text>
</g></g><g
       id="g4328"><g
         id="g4330"
         clip-path="url(#clipPath4332)"><text
           transform="matrix(1,0,0,-1,486.67,309.33)"
           style="font-variant:normal;font-weight:normal;font-size:12.23200035px;font-family:'Palatino Linotype';-inkscape-font-specification:PalatinoLinotype-Roman;writing-mode:lr-tb;fill:#595959;fill-opacity:1;fill-rule:nonzero;stroke:none"
           id="text4336"><tspan
             x="0"
             y="0"
             id="tspan4338">9</tspan></text>
</g></g><g
       id="g4340"><g
         id="g4342"
         clip-path="url(#clipPath4344)"><text
           transform="matrix(1,0,0,-1,527.05,309.33)"
           style="font-variant:normal;font-weight:normal;font-size:12.23200035px;font-family:'Palatino Linotype';-inkscape-font-specification:PalatinoLinotype-Roman;writing-mode:lr-tb;fill:#595959;fill-opacity:1;fill-rule:nonzero;stroke:none"
           id="text4348"><tspan
             x="0 6.2107"
             y="0"
             sodipodi:role="line"
             id="tspan4350">10</tspan></text>
</g></g><g
       id="g4352"><g
         id="g4354"
         clip-path="url(#clipPath4356)"><text
           transform="matrix(-4.4e-8,1,1,4.4e-8,77.032,418.44)"
           style="font-variant:normal;font-weight:normal;font-size:13.62100029px;font-family:'Palatino Linotype';-inkscape-font-specification:PalatinoLinotype-Roman;writing-mode:lr-tb;fill:#595959;fill-opacity:1;fill-rule:nonzero;stroke:none"
           id="text4360"><tspan
             x="0 9.6572886 18.756117 26.9832 34.06612"
             y="0"
             sodipodi:role="line"
             id="tspan4362">CRPSS</tspan></text>
</g></g><path
       d="m 127.1,291.93 7.4534,0 0,7.4534 -7.4534,0 0,-7.4534 z"
       style="fill:#ca4837;fill-opacity:1;fill-rule:evenodd;stroke:none"
       id="path4364"
       inkscape:connector-curvature="0" /><g
       id="g4366"><g
         id="g4368"
         clip-path="url(#clipPath4370)"><text
           transform="matrix(1,0,0,-1,137.79,292)"
           style="font-variant:normal;font-weight:normal;font-size:12.23200035px;font-family:'Palatino Linotype';-inkscape-font-specification:PalatinoLinotype-Roman;writing-mode:lr-tb;fill:#595959;fill-opacity:1;fill-rule:nonzero;stroke:none"
           id="text4374"><tspan
             x="0 7.3881278 16.195168 20.170568 26.372192 34.48201 38.616425 44.818047 56.389519"
             y="0"
             sodipodi:role="line"
             id="tspan4376">PC-2Z-2MI</tspan></text>
</g></g><path
       d="m 219.98,291.93 7.4534,0 0,7.4534 -7.4534,0 0,-7.4534 z"
       style="fill:#ca8037;fill-opacity:1;fill-rule:evenodd;stroke:none"
       id="path4378"
       inkscape:connector-curvature="0" /><g
       id="g4380"><g
         id="g4382"
         clip-path="url(#clipPath4384)"><text
           transform="matrix(1,0,0,-1,230.69,292)"
           style="font-variant:normal;font-weight:normal;font-size:12.23200035px;font-family:'Palatino Linotype';-inkscape-font-specification:PalatinoLinotype-Roman;writing-mode:lr-tb;fill:#595959;fill-opacity:1;fill-rule:nonzero;stroke:none"
           id="text4388"><tspan
             x="0 7.3881278 13.614216 21.026808 25.161224 31.362848 39.472664 43.607079 49.808704 61.380177"
             y="0"
             sodipodi:role="line"
             id="tspan4390">P2T-2Z-4MI</tspan></text>
</g></g><path
       d="m 317.82,291.93 7.4534,0 0,7.4534 -7.4534,0 0,-7.4534 z"
       style="fill:#299746;fill-opacity:1;fill-rule:evenodd;stroke:none"
       id="path4392"
       inkscape:connector-curvature="0" /><g
       id="g4394"><g
         id="g4396"
         clip-path="url(#clipPath4398)"><text
           transform="matrix(1,0,0,-1,328.57,292)"
           style="font-variant:normal;font-weight:normal;font-size:12.23200035px;font-family:'Palatino Linotype';-inkscape-font-specification:PalatinoLinotype-Roman;writing-mode:lr-tb;fill:#595959;fill-opacity:1;fill-rule:nonzero;stroke:none"
           id="text4402"><tspan
             x="0 7.3881278 16.182936 20.146105 26.323263 34.408615 38.518566 44.695728 56.2672"
             y="0"
             sodipodi:role="line"
             id="tspan4404">PC-4Z-2MI</tspan></text>
</g></g><path
       d="m 410.7,291.93 7.4534,0 0,7.4534 -7.4534,0 0,-7.4534 z"
       style="fill:#246c7d;fill-opacity:1;fill-rule:evenodd;stroke:none"
       id="path4406"
       inkscape:connector-curvature="0" /><g
       id="g4408"><g
         id="g4410"
         clip-path="url(#clipPath4412)"><text
           transform="matrix(1,0,0,-1,421.45,292)"
           style="font-variant:normal;font-weight:normal;font-size:12.23200035px;font-family:'Palatino Linotype';-inkscape-font-specification:PalatinoLinotype-Roman;writing-mode:lr-tb;fill:#595959;fill-opacity:1;fill-rule:nonzero;stroke:none"
           id="text4416"><tspan
             x="0 7.3881278 16.195168 20.170568 26.372192 34.48201 41.380856 48.108456 52.24287 58.28548 70.003738 74.125923 80.890213"
             y="0"
             sodipodi:role="line"
             id="tspan4418">PC-4Zgo-2MIgo</tspan></text>
</g></g></g></svg>