<?xml version="1.0" encoding="UTF-8" standalone="no"?>
<!-- Created with Inkscape (http://www.inkscape.org/) -->

<svg
   xmlns:dc="http://purl.org/dc/elements/1.1/"
   xmlns:cc="http://creativecommons.org/ns#"
   xmlns:rdf="http://www.w3.org/1999/02/22-rdf-syntax-ns#"
   xmlns:svg="http://www.w3.org/2000/svg"
   xmlns="http://www.w3.org/2000/svg"
   xmlns:sodipodi="http://sodipodi.sourceforge.net/DTD/sodipodi-0.dtd"
   xmlns:inkscape="http://www.inkscape.org/namespaces/inkscape"
   id="svg4136"
   version="1.1"
   inkscape:version="0.91 r13725"
   xml:space="preserve"
   width="616.37927"
   height="330.07489"
   viewBox="0 0 616.37927 330.0749"
   sodipodi:docname="scores_toutes_methodes_1.svg"><metadata
     id="metadata4142"><rdf:RDF><cc:Work
         rdf:about=""><dc:format>image/svg+xml</dc:format><dc:type
           rdf:resource="http://purl.org/dc/dcmitype/StillImage" /><dc:title></dc:title></cc:Work></rdf:RDF></metadata><defs
     id="defs4140"><clipPath
       clipPathUnits="userSpaceOnUse"
       id="clipPath4162"><path
         d="m 53.684,281.68 519.28,0 0,280.29 -519.28,0 0,-280.29 z"
         id="path4164"
         inkscape:connector-curvature="0"
         style="clip-rule:evenodd" /></clipPath><clipPath
       clipPathUnits="userSpaceOnUse"
       id="clipPath4174"><path
         d="m 53.684,281.68 519.28,0 0,280.29 -519.28,0 0,-280.29 z"
         id="path4176"
         inkscape:connector-curvature="0"
         style="clip-rule:evenodd" /></clipPath><clipPath
       clipPathUnits="userSpaceOnUse"
       id="clipPath4186"><path
         d="m 53.684,281.68 519.28,0 0,280.29 -519.28,0 0,-280.29 z"
         id="path4188"
         inkscape:connector-curvature="0"
         style="clip-rule:evenodd" /></clipPath><clipPath
       clipPathUnits="userSpaceOnUse"
       id="clipPath4198"><path
         d="m 53.684,281.68 519.28,0 0,280.29 -519.28,0 0,-280.29 z"
         id="path4200"
         inkscape:connector-curvature="0"
         style="clip-rule:evenodd" /></clipPath><clipPath
       clipPathUnits="userSpaceOnUse"
       id="clipPath4210"><path
         d="m 53.684,281.68 519.28,0 0,280.29 -519.28,0 0,-280.29 z"
         id="path4212"
         inkscape:connector-curvature="0"
         style="clip-rule:evenodd" /></clipPath><clipPath
       clipPathUnits="userSpaceOnUse"
       id="clipPath4222"><path
         d="m 53.684,281.68 519.28,0 0,280.29 -519.28,0 0,-280.29 z"
         id="path4224"
         inkscape:connector-curvature="0"
         style="clip-rule:evenodd" /></clipPath><clipPath
       clipPathUnits="userSpaceOnUse"
       id="clipPath4234"><path
         d="m 53.684,281.68 519.28,0 0,280.29 -519.28,0 0,-280.29 z"
         id="path4236"
         inkscape:connector-curvature="0"
         style="clip-rule:evenodd" /></clipPath><clipPath
       clipPathUnits="userSpaceOnUse"
       id="clipPath4246"><path
         d="m 53.684,281.68 519.28,0 0,280.29 -519.28,0 0,-280.29 z"
         id="path4248"
         inkscape:connector-curvature="0"
         style="clip-rule:evenodd" /></clipPath><clipPath
       clipPathUnits="userSpaceOnUse"
       id="clipPath4258"><path
         d="m 53.684,281.68 519.28,0 0,280.29 -519.28,0 0,-280.29 z"
         id="path4260"
         inkscape:connector-curvature="0"
         style="clip-rule:evenodd" /></clipPath><clipPath
       clipPathUnits="userSpaceOnUse"
       id="clipPath4270"><path
         d="m 53.684,281.68 519.28,0 0,280.29 -519.28,0 0,-280.29 z"
         id="path4272"
         inkscape:connector-curvature="0"
         style="clip-rule:evenodd" /></clipPath><clipPath
       clipPathUnits="userSpaceOnUse"
       id="clipPath4282"><path
         d="m 53.684,281.68 519.28,0 0,280.29 -519.28,0 0,-280.29 z"
         id="path4284"
         inkscape:connector-curvature="0"
         style="clip-rule:evenodd" /></clipPath><clipPath
       clipPathUnits="userSpaceOnUse"
       id="clipPath4294"><path
         d="m 53.684,281.68 519.28,0 0,280.29 -519.28,0 0,-280.29 z"
         id="path4296"
         inkscape:connector-curvature="0"
         style="clip-rule:evenodd" /></clipPath><clipPath
       clipPathUnits="userSpaceOnUse"
       id="clipPath4306"><path
         d="m 53.684,281.68 519.28,0 0,280.29 -519.28,0 0,-280.29 z"
         id="path4308"
         inkscape:connector-curvature="0"
         style="clip-rule:evenodd" /></clipPath><clipPath
       clipPathUnits="userSpaceOnUse"
       id="clipPath4318"><path
         d="m 53.684,281.68 519.28,0 0,280.29 -519.28,0 0,-280.29 z"
         id="path4320"
         inkscape:connector-curvature="0"
         style="clip-rule:evenodd" /></clipPath><clipPath
       clipPathUnits="userSpaceOnUse"
       id="clipPath4330"><path
         d="m 53.684,281.68 519.28,0 0,280.29 -519.28,0 0,-280.29 z"
         id="path4332"
         inkscape:connector-curvature="0"
         style="clip-rule:evenodd" /></clipPath><clipPath
       clipPathUnits="userSpaceOnUse"
       id="clipPath4342"><path
         d="m 53.684,281.68 519.28,0 0,280.29 -519.28,0 0,-280.29 z"
         id="path4344"
         inkscape:connector-curvature="0"
         style="clip-rule:evenodd" /></clipPath><clipPath
       clipPathUnits="userSpaceOnUse"
       id="clipPath4354"><path
         d="m 53.684,281.68 519.28,0 0,280.29 -519.28,0 0,-280.29 z"
         id="path4356"
         inkscape:connector-curvature="0"
         style="clip-rule:evenodd" /></clipPath><clipPath
       clipPathUnits="userSpaceOnUse"
       id="clipPath4368"><path
         d="m 53.684,281.68 519.28,0 0,280.29 -519.28,0 0,-280.29 z"
         id="path4370"
         inkscape:connector-curvature="0"
         style="clip-rule:evenodd" /></clipPath><clipPath
       clipPathUnits="userSpaceOnUse"
       id="clipPath4382"><path
         d="m 53.684,281.68 519.28,0 0,280.29 -519.28,0 0,-280.29 z"
         id="path4384"
         inkscape:connector-curvature="0"
         style="clip-rule:evenodd" /></clipPath><clipPath
       clipPathUnits="userSpaceOnUse"
       id="clipPath4396"><path
         d="m 53.684,281.68 519.28,0 0,280.29 -519.28,0 0,-280.29 z"
         id="path4398"
         inkscape:connector-curvature="0"
         style="clip-rule:evenodd" /></clipPath><clipPath
       clipPathUnits="userSpaceOnUse"
       id="clipPath4408"><path
         d="m 53.053,281.18 520.42,0 0,281.31 -520.42,0 0,-281.31 z"
         id="path4410"
         inkscape:connector-curvature="0"
         style="clip-rule:evenodd" /></clipPath></defs><sodipodi:namedview
     pagecolor="#ffffff"
     bordercolor="#666666"
     borderopacity="1"
     objecttolerance="10"
     gridtolerance="10"
     guidetolerance="10"
     inkscape:pageopacity="0"
     inkscape:pageshadow="2"
     inkscape:window-width="1763"
     inkscape:window-height="890"
     id="namedview4138"
     showgrid="false"
     fit-margin-top="0"
     fit-margin-left="0"
     fit-margin-right="0"
     fit-margin-bottom="0"
     inkscape:zoom="1.2151553"
     inkscape:cx="261.4062"
     inkscape:cy="180.76061"
     inkscape:window-x="0"
     inkscape:window-y="0"
     inkscape:window-maximized="0"
     inkscape:current-layer="g4144" /><g
     id="g4144"
     inkscape:groupmode="layer"
     inkscape:label="scores_toutes_methodes_1"
     transform="matrix(1.25,0,0,-1.25,-80.75822,690.81452)"><path
       d="m 117.53,376.4 440.18,0 m -440.18,42.71 440.18,0 m -440.18,42.72 440.18,0 m -440.18,42.89 440.18,0 m -440.18,42.73 440.18,0"
       style="fill:none;stroke:#d9d9d9;stroke-width:1.02279997;stroke-linecap:butt;stroke-linejoin:round;stroke-miterlimit:10;stroke-dasharray:none;stroke-opacity:1"
       id="path4148"
       inkscape:connector-curvature="0" /><path
       d="m 123.83,456.84 10.51,0 0,-123.29 -10.51,0 0,123.29 z m 43.92,-17.4 10.51,0 0,-105.89 -10.51,0 0,105.89 z m 44.1,-12.06 10.5,0 0,-93.83 -10.5,0 0,93.83 z m 44.09,-28.42 10.34,0 0,-65.41 -10.34,0 0,65.41 z m 43.92,51.85 10.51,0 0,-117.26 -10.51,0 0,117.26 z m 44.1,29.62 10.51,0 0,-146.88 -10.51,0 0,146.88 z m 43.92,-81.98 10.51,0 0,-64.9 -10.51,0 0,64.9 z m 44.1,76.13 10.5,0 0,-141.03 -10.5,0 0,141.03 z m 43.92,-75.1 10.51,0 0,-65.93 -10.51,0 0,65.93 z m 44.09,81.13 10.51,0 0,-147.06 -10.51,0 0,147.06 z"
       style="fill:#ca4837;fill-opacity:1;fill-rule:nonzero;stroke:none"
       id="path4150"
       inkscape:connector-curvature="0" /><path
       d="m 134.34,475.78 10.5,0 0,-142.23 -10.5,0 0,142.23 z m 43.92,-21.87 10.51,0 0,-120.36 -10.51,0 0,120.36 z m 44.09,-6.55 10.51,0 0,-113.81 -10.51,0 0,113.81 z m 43.93,-34.96 10.5,0 0,-78.85 -10.5,0 0,78.85 z m 44.09,52.88 10.51,0 0,-131.73 -10.51,0 0,131.73 z m 44.1,28.59 10.33,0 0,-160.32 -10.33,0 0,160.32 z m 43.92,-79.92 10.5,0 0,-80.4 -10.5,0 0,80.4 z m 44.09,78.2 10.34,0 0,-158.6 -10.34,0 0,158.6 z m 43.93,-77.69 10.5,0 0,-80.91 -10.5,0 0,80.91 z m 44.09,79.93 10.51,0 0,-160.84 -10.51,0 0,160.84 z"
       style="fill:#299746;fill-opacity:1;fill-rule:nonzero;stroke:none"
       id="path4152"
       inkscape:connector-curvature="0" /><path
       d="m 144.84,483.88 10.34,0 0,-150.33 -10.34,0 0,150.33 z m 43.93,-21.36 10.5,0 0,-128.97 -10.5,0 0,128.97 z m 44.09,-9.99 10.51,0 0,-118.98 -10.51,0 0,118.98 z m 43.92,-31 10.51,0 0,-87.98 -10.51,0 0,87.98 z m 44.1,53.05 10.5,0 0,-141.03 -10.5,0 0,141.03 z m 43.92,30.31 10.51,0 0,-171.34 -10.51,0 0,171.34 z m 44.09,-87.84 10.51,0 0,-83.5 -10.51,0 0,83.5 z m 43.93,84.23 10.5,0 0,-167.73 -10.5,0 0,167.73 z m 44.09,-78.89 10.51,0 0,-88.84 -10.51,0 0,88.84 z m 44.1,78.89 10.33,0 0,-167.73 -10.33,0 0,167.73 z"
       style="fill:#246c7d;fill-opacity:1;fill-rule:nonzero;stroke:none"
       id="path4154"
       inkscape:connector-curvature="0" /><path
       d="m 117.53,333.55 440.18,0"
       style="fill:none;stroke:#d9d9d9;stroke-width:1.02279997;stroke-linecap:butt;stroke-linejoin:round;stroke-miterlimit:10;stroke-dasharray:none;stroke-opacity:1"
       id="path4156"
       inkscape:connector-curvature="0" /><g
       id="g4158"><g
         id="g4160"
         clip-path="url(#clipPath4162)"><text
           transform="matrix(1,0,0,-1,82.379,329.89)"
           style="font-variant:normal;font-weight:normal;font-size:12.23200035px;font-family:'Palatino Linotype';-inkscape-font-specification:PalatinoLinotype-Roman;writing-mode:lr-tb;fill:#595959;fill-opacity:1;fill-rule:nonzero;stroke:none"
           id="text4166"><tspan
             x="0 6.2016239 12.244232"
             y="0"
             sodipodi:role="line"
             id="tspan4168">20%</tspan></text>
</g></g><g
       id="g4170"><g
         id="g4172"
         clip-path="url(#clipPath4174)"><text
           transform="matrix(1,0,0,-1,82.379,372.69)"
           style="font-variant:normal;font-weight:normal;font-size:12.23200035px;font-family:'Palatino Linotype';-inkscape-font-specification:PalatinoLinotype-Roman;writing-mode:lr-tb;fill:#595959;fill-opacity:1;fill-rule:nonzero;stroke:none"
           id="text4178"><tspan
             x="0 6.2016239 12.244232"
             y="0"
             sodipodi:role="line"
             id="tspan4180">25%</tspan></text>
</g></g><g
       id="g4182"><g
         id="g4184"
         clip-path="url(#clipPath4186)"><text
           transform="matrix(1,0,0,-1,82.379,415.47)"
           style="font-variant:normal;font-weight:normal;font-size:12.23200035px;font-family:'Palatino Linotype';-inkscape-font-specification:PalatinoLinotype-Roman;writing-mode:lr-tb;fill:#595959;fill-opacity:1;fill-rule:nonzero;stroke:none"
           id="text4190"><tspan
             x="0 6.2016239 12.244232"
             y="0"
             sodipodi:role="line"
             id="tspan4192">30%</tspan></text>
</g></g><g
       id="g4194"><g
         id="g4196"
         clip-path="url(#clipPath4198)"><text
           transform="matrix(1,0,0,-1,82.379,458.25)"
           style="font-variant:normal;font-weight:normal;font-size:12.23200035px;font-family:'Palatino Linotype';-inkscape-font-specification:PalatinoLinotype-Roman;writing-mode:lr-tb;fill:#595959;fill-opacity:1;fill-rule:nonzero;stroke:none"
           id="text4202"><tspan
             x="0 6.2016239 12.244232"
             y="0"
             sodipodi:role="line"
             id="tspan4204">35%</tspan></text>
</g></g><g
       id="g4206"><g
         id="g4208"
         clip-path="url(#clipPath4210)"><text
           transform="matrix(1,0,0,-1,82.379,501.05)"
           style="font-variant:normal;font-weight:normal;font-size:12.23200035px;font-family:'Palatino Linotype';-inkscape-font-specification:PalatinoLinotype-Roman;writing-mode:lr-tb;fill:#595959;fill-opacity:1;fill-rule:nonzero;stroke:none"
           id="text4214"><tspan
             x="0 6.2016239 12.244232"
             y="0"
             sodipodi:role="line"
             id="tspan4216">40%</tspan></text>
</g></g><g
       id="g4218"><g
         id="g4220"
         clip-path="url(#clipPath4222)"><text
           transform="matrix(1,0,0,-1,82.379,543.83)"
           style="font-variant:normal;font-weight:normal;font-size:12.23200035px;font-family:'Palatino Linotype';-inkscape-font-specification:PalatinoLinotype-Roman;writing-mode:lr-tb;fill:#595959;fill-opacity:1;fill-rule:nonzero;stroke:none"
           id="text4226"><tspan
             x="0 6.2016239 12.244232"
             y="0"
             sodipodi:role="line"
             id="tspan4228">45%</tspan></text>
</g></g><g
       id="g4230"><g
         id="g4232"
         clip-path="url(#clipPath4234)"><text
           transform="matrix(1,0,0,-1,136.51,311.96)"
           style="font-variant:normal;font-weight:normal;font-size:12.23200035px;font-family:'Palatino Linotype';-inkscape-font-specification:PalatinoLinotype-Roman;writing-mode:lr-tb;fill:#595959;fill-opacity:1;fill-rule:nonzero;stroke:none"
           id="text4238"><tspan
             x="0"
             y="0"
             id="tspan4240">1</tspan></text>
</g></g><g
       id="g4242"><g
         id="g4244"
         clip-path="url(#clipPath4246)"><text
           transform="matrix(1,0,0,-1,180.53,311.96)"
           style="font-variant:normal;font-weight:normal;font-size:12.23200035px;font-family:'Palatino Linotype';-inkscape-font-specification:PalatinoLinotype-Roman;writing-mode:lr-tb;fill:#595959;fill-opacity:1;fill-rule:nonzero;stroke:none"
           id="text4250"><tspan
             x="0"
             y="0"
             id="tspan4252">2</tspan></text>
</g></g><g
       id="g4254"><g
         id="g4256"
         clip-path="url(#clipPath4258)"><text
           transform="matrix(1,0,0,-1,224.55,311.96)"
           style="font-variant:normal;font-weight:normal;font-size:12.23200035px;font-family:'Palatino Linotype';-inkscape-font-specification:PalatinoLinotype-Roman;writing-mode:lr-tb;fill:#595959;fill-opacity:1;fill-rule:nonzero;stroke:none"
           id="text4262"><tspan
             x="0"
             y="0"
             id="tspan4264">3</tspan></text>
</g></g><g
       id="g4266"><g
         id="g4268"
         clip-path="url(#clipPath4270)"><text
           transform="matrix(1,0,0,-1,268.59,311.96)"
           style="font-variant:normal;font-weight:normal;font-size:12.23200035px;font-family:'Palatino Linotype';-inkscape-font-specification:PalatinoLinotype-Roman;writing-mode:lr-tb;fill:#595959;fill-opacity:1;fill-rule:nonzero;stroke:none"
           id="text4274"><tspan
             x="0"
             y="0"
             id="tspan4276">4</tspan></text>
</g></g><g
       id="g4278"><g
         id="g4280"
         clip-path="url(#clipPath4282)"><text
           transform="matrix(1,0,0,-1,312.61,311.96)"
           style="font-variant:normal;font-weight:normal;font-size:12.23200035px;font-family:'Palatino Linotype';-inkscape-font-specification:PalatinoLinotype-Roman;writing-mode:lr-tb;fill:#595959;fill-opacity:1;fill-rule:nonzero;stroke:none"
           id="text4286"><tspan
             x="0"
             y="0"
             id="tspan4288">5</tspan></text>
</g></g><g
       id="g4290"><g
         id="g4292"
         clip-path="url(#clipPath4294)"><text
           transform="matrix(1,0,0,-1,356.63,311.96)"
           style="font-variant:normal;font-weight:normal;font-size:12.23200035px;font-family:'Palatino Linotype';-inkscape-font-specification:PalatinoLinotype-Roman;writing-mode:lr-tb;fill:#595959;fill-opacity:1;fill-rule:nonzero;stroke:none"
           id="text4298"><tspan
             x="0"
             y="0"
             id="tspan4300">6</tspan></text>
</g></g><g
       id="g4302"><g
         id="g4304"
         clip-path="url(#clipPath4306)"><text
           transform="matrix(1,0,0,-1,400.67,311.96)"
           style="font-variant:normal;font-weight:normal;font-size:12.23200035px;font-family:'Palatino Linotype';-inkscape-font-specification:PalatinoLinotype-Roman;writing-mode:lr-tb;fill:#595959;fill-opacity:1;fill-rule:nonzero;stroke:none"
           id="text4310"><tspan
             x="0"
             y="0"
             id="tspan4312">7</tspan></text>
</g></g><g
       id="g4314"><g
         id="g4316"
         clip-path="url(#clipPath4318)"><text
           transform="matrix(1,0,0,-1,444.69,311.96)"
           style="font-variant:normal;font-weight:normal;font-size:12.23200035px;font-family:'Palatino Linotype';-inkscape-font-specification:PalatinoLinotype-Roman;writing-mode:lr-tb;fill:#595959;fill-opacity:1;fill-rule:nonzero;stroke:none"
           id="text4322"><tspan
             x="0"
             y="0"
             id="tspan4324">8</tspan></text>
</g></g><g
       id="g4326"><g
         id="g4328"
         clip-path="url(#clipPath4330)"><text
           transform="matrix(1,0,0,-1,488.72,311.96)"
           style="font-variant:normal;font-weight:normal;font-size:12.23200035px;font-family:'Palatino Linotype';-inkscape-font-specification:PalatinoLinotype-Roman;writing-mode:lr-tb;fill:#595959;fill-opacity:1;fill-rule:nonzero;stroke:none"
           id="text4334"><tspan
             x="0"
             y="0"
             id="tspan4336">9</tspan></text>
</g></g><g
       id="g4338"><g
         id="g4340"
         clip-path="url(#clipPath4342)"><text
           transform="matrix(1,0,0,-1,529.68,311.96)"
           style="font-variant:normal;font-weight:normal;font-size:12.23200035px;font-family:'Palatino Linotype';-inkscape-font-specification:PalatinoLinotype-Roman;writing-mode:lr-tb;fill:#595959;fill-opacity:1;fill-rule:nonzero;stroke:none"
           id="text4346"><tspan
             x="0 6.1897001"
             y="0"
             sodipodi:role="line"
             id="tspan4348">10</tspan></text>
</g></g><g
       id="g4350"><g
         id="g4352"
         clip-path="url(#clipPath4354)"><text
           transform="matrix(-4.4e-8,1,1,4.4e-8,74.189,419.75)"
           style="font-variant:normal;font-weight:normal;font-size:13.60000038px;font-family:'Palatino Linotype';-inkscape-font-specification:PalatinoLinotype-Roman;writing-mode:lr-tb;fill:#595959;fill-opacity:1;fill-rule:nonzero;stroke:none"
           id="text4358"><tspan
             x="0 9.6423998 18.781601 27.0368 34.108799"
             y="0"
             sodipodi:role="line"
             id="tspan4360">CRPSS</tspan></text>
</g></g><path
       d="m 227.92,291.95 7.4534,0 0,7.4534 -7.4534,0 0,-7.4534 z"
       style="fill:#ca4837;fill-opacity:1;fill-rule:evenodd;stroke:none"
       id="path4362"
       inkscape:connector-curvature="0" /><g
       id="g4364"><g
         id="g4366"
         clip-path="url(#clipPath4368)"><text
           transform="matrix(1,0,0,-1,238.65,292.02)"
           style="font-variant:normal;font-weight:normal;font-size:12.23200035px;font-family:'Palatino Linotype';-inkscape-font-specification:PalatinoLinotype-Roman;writing-mode:lr-tb;fill:#595959;fill-opacity:1;fill-rule:nonzero;stroke:none"
           id="text4372"><tspan
             x="0 7.3881278 16.182936 20.146105 26.323263"
             y="0"
             sodipodi:role="line"
             id="tspan4374">PC-2Z</tspan></text>
</g></g><path
       d="m 288,291.95 7.4534,0 0,7.4534 -7.4534,0 0,-7.4534 z"
       style="fill:#299746;fill-opacity:1;fill-rule:evenodd;stroke:none"
       id="path4376"
       inkscape:connector-curvature="0" /><g
       id="g4378"><g
         id="g4380"
         clip-path="url(#clipPath4382)"><text
           transform="matrix(1,0,0,-1,298.74,292.02)"
           style="font-variant:normal;font-weight:normal;font-size:12.23200035px;font-family:'Palatino Linotype';-inkscape-font-specification:PalatinoLinotype-Roman;writing-mode:lr-tb;fill:#595959;fill-opacity:1;fill-rule:nonzero;stroke:none"
           id="text4386"><tspan
             x="0 7.3881278 16.182936 20.146105 26.323263"
             y="0"
             sodipodi:role="line"
             id="tspan4388">PC-4Z</tspan></text>
</g></g><path
       d="m 348.07,291.95 7.4534,0 0,7.4534 -7.4534,0 0,-7.4534 z"
       style="fill:#246c7d;fill-opacity:1;fill-rule:evenodd;stroke:none"
       id="path4390"
       inkscape:connector-curvature="0" /><g
       id="g4392"><g
         id="g4394"
         clip-path="url(#clipPath4396)"><text
           transform="matrix(1,0,0,-1,358.82,292.02)"
           style="font-variant:normal;font-weight:normal;font-size:12.23200035px;font-family:'Palatino Linotype';-inkscape-font-specification:PalatinoLinotype-Roman;writing-mode:lr-tb;fill:#595959;fill-opacity:1;fill-rule:nonzero;stroke:none"
           id="text4400"><tspan
             x="0 7.3881278 16.182936 20.146105 26.347729 34.457542 41.331928"
             y="0"
             sodipodi:role="line"
             id="tspan4402">PC-4Zgo</tspan></text>
</g></g></g></svg>