<?xml version="1.0" encoding="UTF-8" standalone="no"?>
<!-- Created with Inkscape (http://www.inkscape.org/) -->

<svg
   xmlns:dc="http://purl.org/dc/elements/1.1/"
   xmlns:cc="http://creativecommons.org/ns#"
   xmlns:rdf="http://www.w3.org/1999/02/22-rdf-syntax-ns#"
   xmlns:svg="http://www.w3.org/2000/svg"
   xmlns="http://www.w3.org/2000/svg"
   xmlns:sodipodi="http://sodipodi.sourceforge.net/DTD/sodipodi-0.dtd"
   xmlns:inkscape="http://www.inkscape.org/namespaces/inkscape"
   id="svg4136"
   version="1.1"
   inkscape:version="0.92.1 r15371"
   xml:space="preserve"
   width="310.83499"
   height="184.95172"
   viewBox="0 0 291.40781 173.39224"
   sodipodi:docname="figure_crpss_4Zo.svg"><metadata
     id="metadata4142"><rdf:RDF><cc:Work
         rdf:about=""><dc:format>image/svg+xml</dc:format><dc:type
           rdf:resource="http://purl.org/dc/dcmitype/StillImage" /><dc:title /></cc:Work></rdf:RDF></metadata><defs
     id="defs4140"><clipPath
       clipPathUnits="userSpaceOnUse"
       id="clipPath4248"><path
         d="m 72.48,524.16 h 67.2 v 9.48 h -67.2 z"
         id="path4250"
         inkscape:connector-curvature="0" /></clipPath><clipPath
       clipPathUnits="userSpaceOnUse"
       id="clipPath4260"><path
         d="m 139.68,524.16 h 67.2 v 9.48 h -67.2 z"
         id="path4262"
         inkscape:connector-curvature="0" /></clipPath><clipPath
       clipPathUnits="userSpaceOnUse"
       id="clipPath4272"><path
         d="m 72.48,277.68 h 67.2 v 9.481 h -67.2 z"
         id="path4274"
         inkscape:connector-curvature="0" /></clipPath><clipPath
       clipPathUnits="userSpaceOnUse"
       id="clipPath4284"><path
         d="m 139.68,277.68 h 67.2 v 9.481 h -67.2 z"
         id="path4286"
         inkscape:connector-curvature="0" /></clipPath></defs><sodipodi:namedview
     pagecolor="#ffffff"
     bordercolor="#666666"
     borderopacity="1"
     objecttolerance="10"
     gridtolerance="10"
     guidetolerance="10"
     inkscape:pageopacity="0"
     inkscape:pageshadow="2"
     inkscape:window-width="1920"
     inkscape:window-height="1138"
     id="namedview4138"
     showgrid="false"
     inkscape:zoom="1.2809144"
     inkscape:cx="-113.4399"
     inkscape:cy="144.98143"
     inkscape:window-x="-8"
     inkscape:window-y="-8"
     inkscape:window-maximized="1"
     inkscape:current-layer="g4144"
     fit-margin-top="0"
     fit-margin-left="0"
     fit-margin-right="0"
     fit-margin-bottom="0" /><g
     id="g4144"
     inkscape:groupmode="layer"
     inkscape:label="scores"
     transform="matrix(1.25,0,0,-1.25,-326.99632,613.80461)"><g
   id="g4294"
   transform="translate(283.5003,386.394)"
   style=""><path
     d="M 0,0 H 211.223 M 0,11.388 H 211.223 M 0,22.776 H 211.223 M 0,34.086 H 211.223 M 0,45.474 H 211.223 M 0,56.862 H 211.223 M 0,68.172 H 211.223 M 0,79.56 H 211.223 M 0,90.948 H 211.223 M 0,102.303 h 211.223"
     style="fill:none;stroke:#dadada;stroke-width:0.48800001;stroke-linecap:butt;stroke-linejoin:round;stroke-miterlimit:10;stroke-dasharray:none;stroke-opacity:1"
     id="path4296"
     inkscape:connector-curvature="0" /></g><path
   d="m 285.972,451.758 h 4.056 V 375.04 h -4.056 z m 21.06,-11.934 h 4.056 V 375.04 h -4.056 z m 21.138,-4.134 h 4.056 v -60.65 h -4.056 z m 21.138,-30.42 h 4.056 v -30.23 h -4.056 z m 21.138,15.6 h 4.056 v -45.83 h -4.056 z m 21.138,14.82 h 4.056 v -60.65 h -4.056 z m 21.06,-46.8 h 4.056 v -13.85 h -4.056 z m 21.138,38.61 h 4.056 v -52.46 h -4.056 z m 21.138,-13.104 h 4.056 V 375.04 h -4.056 z m 21.138,34.476 h 4.056 V 375.04 h -4.056 z"
   style="fill:#bdd7ee;fill-opacity:1;fill-rule:nonzero;stroke:none"
   id="path4298"
   inkscape:connector-curvature="0" /><path
   d="m 290.028,479.214 h 4.056 V 375.04 h -4.056 z m 21.06,-14.196 h 4.134 V 375.04 h -4.134 z m 21.138,-6.786 h 4.056 V 375.04 h -4.056 z m 21.138,-30.966 h 4.056 V 375.04 h -4.056 z m 21.138,18.33 h 4.056 V 375.04 h -4.056 z m 21.138,14.664 h 4.056 v -85.22 h -4.056 z m 21.06,-39.702 h 4.134 V 375.04 H 416.7 Z m 21.138,43.602 h 4.056 v -89.12 h -4.056 z m 21.138,-26.13 h 4.056 v -62.99 h -4.056 z m 21.138,39.078 h 4.056 V 375.04 h -4.056 z"
   style="fill:#2e75b6;fill-opacity:1;fill-rule:nonzero;stroke:none"
   id="path4300"
   inkscape:connector-curvature="0" /><path
   d="m 294.084,443.568 h 4.056 V 375.04 h -4.056 z m 21.138,-9.048 h 4.056 v -59.48 h -4.056 z m 21.06,-7.722 h 4.056 V 375.04 h -4.056 z m 21.138,-18.642 h 4.056 V 375.04 h -4.056 z m 21.138,32.292 h 4.056 V 375.04 h -4.056 z m 21.138,18.486 h 4.056 V 375.04 h -4.056 z m 21.138,-54.288 h 4.056 V 375.04 h -4.056 z m 21.06,48.984 h 4.056 v -78.59 h -4.056 z m 21.138,-47.736 h 4.056 V 375.04 h -4.056 z m 21.138,51.714 h 4.056 V 375.04 h -4.056 z"
   style="fill:#f8cbad;fill-opacity:1;fill-rule:nonzero;stroke:none"
   id="path4302"
   inkscape:connector-curvature="0" /><path
   d="m 298.14,468.762 h 4.056 V 375.04 h -4.056 z m 21.138,-20.436 h 4.056 V 375.04 h -4.056 z m 21.06,-5.538 h 4.056 V 375.04 h -4.056 z m 21.138,-17.94 h 4.056 V 375.04 h -4.056 z m 21.138,32.448 h 4.056 V 375.04 h -4.056 z m 21.138,19.578 h 4.056 V 375.04 h -4.056 z m 21.138,-55.848 h 4.056 V 375.04 h -4.056 z m 21.06,56.862 h 4.056 V 375.04 h -4.056 z m 21.138,-57.174 h 4.056 V 375.04 h -4.056 z m 21.138,56.394 h 4.056 V 375.04 h -4.056 z"
   style="fill:#c55a11;fill-opacity:1;fill-rule:nonzero;stroke:none"
   id="path4304"
   inkscape:connector-curvature="0" /><g
   id="g4306"
   transform="translate(283.5003,375.0398)"
   style=""><path
     d="M 0,0 H 211.223"
     style="fill:none;stroke:#dadada;stroke-width:0.48800001;stroke-linecap:butt;stroke-linejoin:round;stroke-miterlimit:10;stroke-dasharray:none;stroke-opacity:1"
     id="path4308"
     inkscape:connector-curvature="0" /></g><text
   transform="matrix(1,0,0,-1,271.9628,373.1735)"
   style="font-variant:normal;font-weight:normal;font-stretch:normal;line-height:0%;font-family:Arial;-inkscape-font-specification:Helvetica;writing-mode:lr-tb;fill:#000000;fill-opacity:1;fill-rule:nonzero;stroke:none;font-size:7.00000009px;"
   id="text4310"><tspan
     x="0 3.276"
     y="0"
     sodipodi:role="line"
     id="tspan4312"
     style="font-size:7.00000009px;line-height:1.25;">22</tspan><tspan
     x="0 3.276"
     y="-11.36655"
     sodipodi:role="line"
     id="tspan4314"
     style="font-size:7.00000009px;line-height:1.25;">24</tspan><tspan
     x="0 3.276"
     y="-22.733101"
     sodipodi:role="line"
     id="tspan4316"
     style="font-size:7.00000009px;line-height:1.25;">26</tspan><tspan
     x="0 3.276"
     y="-34.099651"
     sodipodi:role="line"
     id="tspan4318"
     style="font-size:7.00000009px;line-height:1.25;">28</tspan><tspan
     x="0 3.276"
     y="-45.466202"
     sodipodi:role="line"
     id="tspan4320"
     style="font-size:7.00000009px;line-height:1.25;">30</tspan><tspan
     x="0 3.276"
     y="-56.832748"
     sodipodi:role="line"
     id="tspan4322"
     style="font-size:7.00000009px;line-height:1.25;">32</tspan><tspan
     x="0 3.276"
     y="-68.199303"
     sodipodi:role="line"
     id="tspan4324"
     style="font-size:7.00000009px;line-height:1.25;">34</tspan><tspan
     x="0 3.276"
     y="-79.565849"
     sodipodi:role="line"
     id="tspan4326"
     style="font-size:7.00000009px;line-height:1.25;">36</tspan><tspan
     x="0 3.276"
     y="-90.932404"
     sodipodi:role="line"
     id="tspan4328"
     style="font-size:7.00000009px;line-height:1.25;">38</tspan><tspan
     x="0 3.276"
     y="-102.29895"
     sodipodi:role="line"
     id="tspan4330"
     style="font-size:7.00000009px;line-height:1.25;">40</tspan><tspan
     x="0 3.276"
     y="-113.6655"
     sodipodi:role="line"
     id="tspan4332"
     style="font-size:7.00000009px;line-height:1.25;">42</tspan><tspan
     x="20.475 41.59935 62.723701 83.848053 104.9724 126.09675 147.2211 168.34544 189.4698 208.96785 212.24385"
     y="6.9615002"
     sodipodi:role="line"
     id="tspan4334"
     style="font-size:7.00000009px;line-height:1.25;">12345678910</tspan></text>


<text
   transform="matrix(0,1,1,0,0,0)"
   style="font-variant:normal;font-weight:normal;font-stretch:normal;line-height:0%;font-family:Arial;-inkscape-font-specification:Helvetica;writing-mode:lr-tb;fill:#000000;fill-opacity:1;fill-rule:nonzero;stroke:none;font-size:7.00000009px;"
   id="text4336"
   x="411.80701"
   y="266.3103"><tspan
     x="411.80701 416.48706 421.16711 425.45938 429.75165 434.04391 435.99258 438.17691 443.94849"
     y="266.3103"
     sodipodi:role="line"
     id="tspan4338"
     style="font-size:7.00000009px;line-height:1.25;">CRPSS (%)</tspan></text>


<path
   d="m 331.499,357.237 h 2.94 v -2.94 h -2.94 z"
   style="fill:#bdd7ee;fill-opacity:1;fill-rule:evenodd;stroke:none"
   id="path4340"
   inkscape:connector-curvature="0" />

<path
   d="m 360.788,357.237 h 2.94 v -2.94 h -2.94 z"
   style="fill:#2e75b6;fill-opacity:1;fill-rule:evenodd;stroke:none"
   id="path4346"
   inkscape:connector-curvature="0" />

<path
   d="m 393.33,357.237 h 2.94 v -2.94 h -2.94 z"
   style="fill:#f8cbad;fill-opacity:1;fill-rule:evenodd;stroke:none"
   id="path4352"
   inkscape:connector-curvature="0" />

<path
   d="m 422.297,357.237 h 2.94 v -2.94 h -2.94 z"
   style="fill:#c55a11;fill-opacity:1;fill-rule:evenodd;stroke:none"
   id="path4358"
   inkscape:connector-curvature="0" />







<text
   xml:space="preserve"
   style="font-style:normal;font-variant:normal;font-weight:normal;font-stretch:normal;font-size:16px;line-height:125%;font-family:'Palatino Linotype';-inkscape-font-specification:'Palatino Linotype';letter-spacing:0px;word-spacing:0px;fill:#000000;fill-opacity:1;stroke:none;stroke-width:0.75px;stroke-linecap:butt;stroke-linejoin:miter;stroke-opacity:1"
   x="335.72723"
   y="-353.79364"
   id="text860"
   transform="scale(1,-1)"><tspan
     sodipodi:role="line"
     id="tspan858"
     x="335.72723"
     y="-353.79364"
     style="font-style:normal;font-variant:normal;font-weight:normal;font-stretch:normal;font-size:7px;font-family:Arial;-inkscape-font-specification:Arial;stroke-width:0.75px">2Z CP</tspan></text>
<text
   xml:space="preserve"
   style="font-style:normal;font-variant:normal;font-weight:normal;font-stretch:normal;font-size:15.99999905px;line-height:125%;font-family:'Palatino Linotype';-inkscape-font-specification:'Palatino Linotype';letter-spacing:0px;word-spacing:0px;fill:#000000;fill-opacity:1;stroke:none;stroke-width:0.75px;stroke-linecap:butt;stroke-linejoin:miter;stroke-opacity:1"
   x="364.89984"
   y="-353.88223"
   id="text860-7"
   transform="scale(1,-1)"><tspan
     sodipodi:role="line"
     id="tspan858-3"
     x="364.89984"
     y="-353.88223"
     style="font-style:normal;font-variant:normal;font-weight:normal;font-stretch:normal;font-size:7px;font-family:Arial;-inkscape-font-specification:Arial;stroke-width:0.75px">4Zo CP</tspan></text>
<text
   xml:space="preserve"
   style="font-style:normal;font-variant:normal;font-weight:normal;font-stretch:normal;font-size:15.99999905px;line-height:125%;font-family:'Palatino Linotype';-inkscape-font-specification:'Palatino Linotype';letter-spacing:0px;word-spacing:0px;fill:#000000;fill-opacity:1;stroke:none;stroke-width:0.75px;stroke-linecap:butt;stroke-linejoin:miter;stroke-opacity:1"
   x="397.47015"
   y="-353.9176"
   id="text860-79"
   transform="scale(1,-1)"><tspan
     sodipodi:role="line"
     id="tspan858-2"
     x="397.47015"
     y="-353.9176"
     style="font-style:normal;font-variant:normal;font-weight:normal;font-stretch:normal;font-size:7px;font-family:Arial;-inkscape-font-specification:Arial;stroke-width:0.75px">2Z VP</tspan></text>
<text
   xml:space="preserve"
   style="font-style:normal;font-variant:normal;font-weight:normal;font-stretch:normal;font-size:15.99999905px;line-height:125%;font-family:'Palatino Linotype';-inkscape-font-specification:'Palatino Linotype';letter-spacing:0px;word-spacing:0px;fill:#000000;fill-opacity:1;stroke:none;stroke-width:0.75px;stroke-linecap:butt;stroke-linejoin:miter;stroke-opacity:1"
   x="426.42319"
   y="-353.8598"
   id="text860-7-1"
   transform="scale(1,-1)"><tspan
     sodipodi:role="line"
     id="tspan858-3-5"
     x="426.42319"
     y="-353.8598"
     style="font-style:normal;font-variant:normal;font-weight:normal;font-stretch:normal;font-size:7px;font-family:Arial;-inkscape-font-specification:Arial;stroke-width:0.75px">4Zo VP</tspan></text>
</g></svg>