<?xml version="1.0" encoding="UTF-8" standalone="no"?>
<!-- Created with Inkscape (http://www.inkscape.org/) -->

<svg
   xmlns:dc="http://purl.org/dc/elements/1.1/"
   xmlns:cc="http://creativecommons.org/ns#"
   xmlns:rdf="http://www.w3.org/1999/02/22-rdf-syntax-ns#"
   xmlns:svg="http://www.w3.org/2000/svg"
   xmlns="http://www.w3.org/2000/svg"
   xmlns:sodipodi="http://sodipodi.sourceforge.net/DTD/sodipodi-0.dtd"
   xmlns:inkscape="http://www.inkscape.org/namespaces/inkscape"
   id="svg2"
   version="1.1"
   inkscape:version="0.91 r13725"
   xml:space="preserve"
   width="609.42548"
   height="344.97028"
   viewBox="0 0 609.42548 344.97028"
   sodipodi:docname="figure_dcrpss_comp_4Zo.svg"><metadata
     id="metadata8"><rdf:RDF><cc:Work
         rdf:about=""><dc:format>image/svg+xml</dc:format><dc:type
           rdf:resource="http://purl.org/dc/dcmitype/StillImage" /><dc:title></dc:title></cc:Work></rdf:RDF></metadata><defs
     id="defs6"><clipPath
       clipPathUnits="userSpaceOnUse"
       id="clipPath30"><path
         d="m 51.12,244.92 510,0 0,302.04 -510,0 0,-302.04 z"
         id="path32"
         inkscape:connector-curvature="0"
         style="clip-rule:evenodd" /></clipPath><clipPath
       clipPathUnits="userSpaceOnUse"
       id="clipPath42"><path
         d="m 51.12,244.92 510,0 0,302.04 -510,0 0,-302.04 z"
         id="path44"
         inkscape:connector-curvature="0"
         style="clip-rule:evenodd" /></clipPath><clipPath
       clipPathUnits="userSpaceOnUse"
       id="clipPath54"><path
         d="m 51.12,244.92 510,0 0,302.04 -510,0 0,-302.04 z"
         id="path56"
         inkscape:connector-curvature="0"
         style="clip-rule:evenodd" /></clipPath><clipPath
       clipPathUnits="userSpaceOnUse"
       id="clipPath66"><path
         d="m 51.12,244.92 510,0 0,302.04 -510,0 0,-302.04 z"
         id="path68"
         inkscape:connector-curvature="0"
         style="clip-rule:evenodd" /></clipPath><clipPath
       clipPathUnits="userSpaceOnUse"
       id="clipPath78"><path
         d="m 51.12,244.92 510,0 0,302.04 -510,0 0,-302.04 z"
         id="path80"
         inkscape:connector-curvature="0"
         style="clip-rule:evenodd" /></clipPath><clipPath
       clipPathUnits="userSpaceOnUse"
       id="clipPath90"><path
         d="m 51.12,244.92 510,0 0,302.04 -510,0 0,-302.04 z"
         id="path92"
         inkscape:connector-curvature="0"
         style="clip-rule:evenodd" /></clipPath><clipPath
       clipPathUnits="userSpaceOnUse"
       id="clipPath102"><path
         d="m 51.12,244.92 510,0 0,302.04 -510,0 0,-302.04 z"
         id="path104"
         inkscape:connector-curvature="0"
         style="clip-rule:evenodd" /></clipPath><clipPath
       clipPathUnits="userSpaceOnUse"
       id="clipPath114"><path
         d="m 51.12,244.92 510,0 0,302.04 -510,0 0,-302.04 z"
         id="path116"
         inkscape:connector-curvature="0"
         style="clip-rule:evenodd" /></clipPath><clipPath
       clipPathUnits="userSpaceOnUse"
       id="clipPath126"><path
         d="m 51.12,244.92 510,0 0,302.04 -510,0 0,-302.04 z"
         id="path128"
         inkscape:connector-curvature="0"
         style="clip-rule:evenodd" /></clipPath><clipPath
       clipPathUnits="userSpaceOnUse"
       id="clipPath138"><path
         d="m 51.12,244.92 510,0 0,302.04 -510,0 0,-302.04 z"
         id="path140"
         inkscape:connector-curvature="0"
         style="clip-rule:evenodd" /></clipPath><clipPath
       clipPathUnits="userSpaceOnUse"
       id="clipPath150"><path
         d="m 51.12,244.92 510,0 0,302.04 -510,0 0,-302.04 z"
         id="path152"
         inkscape:connector-curvature="0"
         style="clip-rule:evenodd" /></clipPath><clipPath
       clipPathUnits="userSpaceOnUse"
       id="clipPath162"><path
         d="m 51.12,244.92 510,0 0,302.04 -510,0 0,-302.04 z"
         id="path164"
         inkscape:connector-curvature="0"
         style="clip-rule:evenodd" /></clipPath><clipPath
       clipPathUnits="userSpaceOnUse"
       id="clipPath174"><path
         d="m 51.12,244.92 510,0 0,302.04 -510,0 0,-302.04 z"
         id="path176"
         inkscape:connector-curvature="0"
         style="clip-rule:evenodd" /></clipPath><clipPath
       clipPathUnits="userSpaceOnUse"
       id="clipPath186"><path
         d="m 51.12,244.92 510,0 0,302.04 -510,0 0,-302.04 z"
         id="path188"
         inkscape:connector-curvature="0"
         style="clip-rule:evenodd" /></clipPath><clipPath
       clipPathUnits="userSpaceOnUse"
       id="clipPath198"><path
         d="m 51.12,244.92 510,0 0,302.04 -510,0 0,-302.04 z"
         id="path200"
         inkscape:connector-curvature="0"
         style="clip-rule:evenodd" /></clipPath><clipPath
       clipPathUnits="userSpaceOnUse"
       id="clipPath210"><path
         d="m 51.12,244.92 510,0 0,302.04 -510,0 0,-302.04 z"
         id="path212"
         inkscape:connector-curvature="0"
         style="clip-rule:evenodd" /></clipPath><clipPath
       clipPathUnits="userSpaceOnUse"
       id="clipPath222"><path
         d="m 51.12,244.92 510,0 0,302.04 -510,0 0,-302.04 z"
         id="path224"
         inkscape:connector-curvature="0"
         style="clip-rule:evenodd" /></clipPath><clipPath
       clipPathUnits="userSpaceOnUse"
       id="clipPath234"><path
         d="m 51.12,244.92 510,0 0,302.04 -510,0 0,-302.04 z"
         id="path236"
         inkscape:connector-curvature="0"
         style="clip-rule:evenodd" /></clipPath><clipPath
       clipPathUnits="userSpaceOnUse"
       id="clipPath246"><path
         d="m 51.12,244.92 510,0 0,302.04 -510,0 0,-302.04 z"
         id="path248"
         inkscape:connector-curvature="0"
         style="clip-rule:evenodd" /></clipPath><clipPath
       clipPathUnits="userSpaceOnUse"
       id="clipPath258"><path
         d="m 51.12,244.92 510,0 0,302.04 -510,0 0,-302.04 z"
         id="path260"
         inkscape:connector-curvature="0"
         style="clip-rule:evenodd" /></clipPath><clipPath
       clipPathUnits="userSpaceOnUse"
       id="clipPath270"><path
         d="m 51.12,244.92 510,0 0,302.04 -510,0 0,-302.04 z"
         id="path272"
         inkscape:connector-curvature="0"
         style="clip-rule:evenodd" /></clipPath><clipPath
       clipPathUnits="userSpaceOnUse"
       id="clipPath284"><path
         d="m 51.12,244.92 510,0 0,302.04 -510,0 0,-302.04 z"
         id="path286"
         inkscape:connector-curvature="0"
         style="clip-rule:evenodd" /></clipPath><clipPath
       clipPathUnits="userSpaceOnUse"
       id="clipPath298"><path
         d="m 51.12,244.92 510,0 0,302.04 -510,0 0,-302.04 z"
         id="path300"
         inkscape:connector-curvature="0"
         style="clip-rule:evenodd" /></clipPath><clipPath
       clipPathUnits="userSpaceOnUse"
       id="clipPath312"><path
         d="m 51.12,244.92 510,0 0,302.04 -510,0 0,-302.04 z"
         id="path314"
         inkscape:connector-curvature="0"
         style="clip-rule:evenodd" /></clipPath><clipPath
       clipPathUnits="userSpaceOnUse"
       id="clipPath326"><path
         d="m 51.12,244.92 510,0 0,302.04 -510,0 0,-302.04 z"
         id="path328"
         inkscape:connector-curvature="0"
         style="clip-rule:evenodd" /></clipPath><clipPath
       clipPathUnits="userSpaceOnUse"
       id="clipPath338"><path
         d="m 50.4,244.44 511.2,0 0,303.12 -511.2,0 0,-303.12 z"
         id="path340"
         inkscape:connector-curvature="0"
         style="clip-rule:evenodd" /></clipPath></defs><sodipodi:namedview
     pagecolor="#ffffff"
     bordercolor="#666666"
     borderopacity="1"
     objecttolerance="10"
     gridtolerance="10"
     guidetolerance="10"
     inkscape:pageopacity="0"
     inkscape:pageshadow="2"
     inkscape:window-width="1157"
     inkscape:window-height="785"
     id="namedview4"
     showgrid="false"
     fit-margin-top="0"
     fit-margin-left="0"
     fit-margin-right="0"
     fit-margin-bottom="0"
     inkscape:zoom="0.95353535"
     inkscape:cx="254.14371"
     inkscape:cy="190.8487"
     inkscape:window-x="0"
     inkscape:window-y="0"
     inkscape:window-maximized="0"
     inkscape:current-layer="g10" /><g
     id="g10"
     inkscape:groupmode="layer"
     inkscape:label="figure_dcrpss_comp_4Zo"
     transform="matrix(1.25,0,0,-1.25,-77.674541,664.73122)"><path
       d="m 95.384,301.37 454.296,0 m -454.296,23.64 454.296,0 m -454.296,47.44 454.296,0 m -454.296,23.72 454.296,0 m -454.296,23.72 454.296,0 m -454.296,23.71 454.296,0 m -454.296,23.72 454.296,0 m -454.296,23.64 454.296,0"
       style="fill:none;stroke:#d9d9d9;stroke-width:0.98825002;stroke-linecap:butt;stroke-linejoin:round;stroke-miterlimit:10;stroke-dasharray:none;stroke-opacity:1"
       id="path14"
       inkscape:connector-curvature="0" /><path
       d="m 103.41,399.01 7.27,0 0,-50.28 -7.27,0 0,50.28 z m 45.38,9.49 7.43,0 0,-59.77 -7.43,0 0,59.77 z m 45.54,15.02 7.27,0 0,-74.79 -7.27,0 0,74.79 z m 45.38,-11.86 7.27,0 0,-62.93 -7.27,0 0,62.93 z m 45.38,-11.22 7.43,0 0,-51.71 -7.43,0 0,51.71 z m 45.54,2.68 7.27,0 0,-54.39 -7.27,0 0,54.39 z m 45.38,71.79 7.27,0 0,-126.18 -7.27,0 0,126.18 z m 45.38,-5.22 7.43,0 0,-120.96 -7.43,0 0,120.96 z m 45.54,-58.82 7.27,0 0,-62.14 -7.27,0 0,62.14 z m 45.38,23.88 7.27,0 0,-86.02 -7.27,0 0,86.02 z"
       style="fill:#44546a;fill-opacity:1;fill-rule:nonzero;stroke:none"
       id="path16"
       inkscape:connector-curvature="0" /><path
       d="m 110.68,393.64 7.44,0 0,-44.91 -7.44,0 0,44.91 z m 45.54,-20.4 7.28,0 0,-24.51 -7.28,0 0,24.51 z m 45.38,27.51 7.43,0 0,-52.02 -7.43,0 0,52.02 z m 45.38,-6.01 7.43,0 0,-46.01 -7.43,0 0,46.01 z m 45.54,-15.33 7.27,0 0,-30.68 -7.27,0 0,30.68 z m 45.38,4.11 7.27,0 0,-34.79 -7.27,0 0,34.79 z m 45.38,52.34 7.43,0 0,-87.13 -7.43,0 0,87.13 z m 45.54,-0.16 7.27,0 0,-86.97 -7.27,0 0,86.97 z m 45.38,-47.44 7.27,0 0,-39.53 -7.27,0 0,39.53 z m 45.38,12.02 7.43,0 0,-51.55 -7.43,0 0,51.55 z"
       style="fill:#5b9bd5;fill-opacity:1;fill-rule:nonzero;stroke:none"
       id="path18"
       inkscape:connector-curvature="0" /><path
       d="m 118.12,387.31 7.27,0 0,-38.58 -7.27,0 0,38.58 z m 45.38,-19.29 7.43,0 0,-19.29 -7.43,0 0,19.29 z m 45.53,-24.19 7.28,0 0,4.9 -7.28,0 0,-4.9 z m 45.38,5.06 7.28,0 0,-0.16 -7.28,0 0,0.16 z m 45.38,21.98 7.44,0 0,-22.14 -7.44,0 0,22.14 z m 45.38,-0.32 7.44,0 0,-21.82 -7.44,0 0,21.82 z m 45.54,-60.4 7.28,0 0,38.58 -7.28,0 0,-38.58 z m 45.38,28.94 7.28,0 0,9.64 -7.28,0 0,-9.64 z m 45.38,16.76 7.43,0 0,-7.12 -7.43,0 0,7.12 z m 45.54,-2.69 7.28,0 0,-4.43 -7.28,0 0,4.43 z"
       style="fill:#ed7d31;fill-opacity:1;fill-rule:nonzero;stroke:none"
       id="path20"
       inkscape:connector-curvature="0" /><path
       d="m 125.39,383.68 7.43,0 0,-34.95 -7.43,0 0,34.95 z m 45.54,-16.92 7.27,0 0,-18.03 -7.27,0 0,18.03 z m 45.38,-21.51 7.27,0 0,3.48 -7.27,0 0,-3.48 z m 45.38,5.54 7.43,0 0,-2.06 -7.43,0 0,2.06 z m 45.54,20.24 7.27,0 0,-22.3 -7.27,0 0,22.3 z m 45.38,1.89 7.27,0 0,-24.19 -7.27,0 0,24.19 z m 45.38,-64.35 7.43,0 0,40.16 -7.43,0 0,-40.16 z m 45.38,32.1 7.43,0 0,8.06 -7.43,0 0,-8.06 z m 45.53,11.07 7.28,0 0,-3.01 -7.28,0 0,3.01 z m 45.39,9.64 7.43,0 0,-12.65 -7.43,0 0,12.65 z"
       style="fill:#ffc000;fill-opacity:1;fill-rule:nonzero;stroke:none"
       id="path22"
       inkscape:connector-curvature="0" /><path
       d="m 95.384,348.76 454.296,0"
       style="fill:none;stroke:#d9d9d9;stroke-width:0.98825002;stroke-linecap:butt;stroke-linejoin:round;stroke-miterlimit:10;stroke-dasharray:none;stroke-opacity:1"
       id="path24"
       inkscape:connector-curvature="0" /><g
       id="g26"><g
         id="g28"
         clip-path="url(#clipPath30)"><text
           transform="matrix(1,0,0,-1,63.408,297.84)"
           style="font-variant:normal;font-weight:normal;font-size:11.85599995px;font-family:'Palatino Linotype';-inkscape-font-specification:'Palatino Linotype';writing-mode:lr-tb;fill:#000000;fill-opacity:1;fill-rule:nonzero;stroke:none"
           id="text34"><tspan
             x="0 3.9480481 9.7693443"
             y="0"
             sodipodi:role="line"
             id="tspan36">-4%</tspan></text>
</g></g><g
       id="g38"><g
         id="g40"
         clip-path="url(#clipPath42)"><text
           transform="matrix(1,0,0,-1,63.408,321.53)"
           style="font-variant:normal;font-weight:normal;font-size:11.85599995px;font-family:'Palatino Linotype';-inkscape-font-specification:'Palatino Linotype';writing-mode:lr-tb;fill:#000000;fill-opacity:1;fill-rule:nonzero;stroke:none"
           id="text46"><tspan
             x="0 3.9480481 9.7693443"
             y="0"
             sodipodi:role="line"
             id="tspan48">-2%</tspan></text>
</g></g><g
       id="g50"><g
         id="g52"
         clip-path="url(#clipPath54)"><text
           transform="matrix(1,0,0,-1,67.344,345.24)"
           style="font-variant:normal;font-weight:normal;font-size:11.85599995px;font-family:'Palatino Linotype';-inkscape-font-specification:'Palatino Linotype';writing-mode:lr-tb;fill:#000000;fill-opacity:1;fill-rule:nonzero;stroke:none"
           id="text58"><tspan
             x="0 6.0240002"
             y="0"
             sodipodi:role="line"
             id="tspan60">0%</tspan></text>
</g></g><g
       id="g62"><g
         id="g64"
         clip-path="url(#clipPath66)"><text
           transform="matrix(1,0,0,-1,67.344,368.95)"
           style="font-variant:normal;font-weight:normal;font-size:11.85599995px;font-family:'Palatino Linotype';-inkscape-font-specification:'Palatino Linotype';writing-mode:lr-tb;fill:#000000;fill-opacity:1;fill-rule:nonzero;stroke:none"
           id="text70"><tspan
             x="0 6.0240002"
             y="0"
             sodipodi:role="line"
             id="tspan72">2%</tspan></text>
</g></g><g
       id="g74"><g
         id="g76"
         clip-path="url(#clipPath78)"><text
           transform="matrix(1,0,0,-1,67.344,392.64)"
           style="font-variant:normal;font-weight:normal;font-size:11.85599995px;font-family:'Palatino Linotype';-inkscape-font-specification:'Palatino Linotype';writing-mode:lr-tb;fill:#000000;fill-opacity:1;fill-rule:nonzero;stroke:none"
           id="text82"><tspan
             x="0 6.0240002"
             y="0"
             sodipodi:role="line"
             id="tspan84">4%</tspan></text>
</g></g><g
       id="g86"><g
         id="g88"
         clip-path="url(#clipPath90)"><text
           transform="matrix(1,0,0,-1,67.344,416.35)"
           style="font-variant:normal;font-weight:normal;font-size:11.85599995px;font-family:'Palatino Linotype';-inkscape-font-specification:'Palatino Linotype';writing-mode:lr-tb;fill:#000000;fill-opacity:1;fill-rule:nonzero;stroke:none"
           id="text94"><tspan
             x="0 6.0240002"
             y="0"
             sodipodi:role="line"
             id="tspan96">6%</tspan></text>
</g></g><g
       id="g98"><g
         id="g100"
         clip-path="url(#clipPath102)"><text
           transform="matrix(1,0,0,-1,67.344,440.06)"
           style="font-variant:normal;font-weight:normal;font-size:11.85599995px;font-family:'Palatino Linotype';-inkscape-font-specification:'Palatino Linotype';writing-mode:lr-tb;fill:#000000;fill-opacity:1;fill-rule:nonzero;stroke:none"
           id="text106"><tspan
             x="0 6.0240002"
             y="0"
             sodipodi:role="line"
             id="tspan108">8%</tspan></text>
</g></g><g
       id="g110"><g
         id="g112"
         clip-path="url(#clipPath114)"><text
           transform="matrix(1,0,0,-1,61.416,463.75)"
           style="font-variant:normal;font-weight:normal;font-size:11.85599995px;font-family:'Palatino Linotype';-inkscape-font-specification:'Palatino Linotype';writing-mode:lr-tb;fill:#000000;fill-opacity:1;fill-rule:nonzero;stroke:none"
           id="text118"><tspan
             x="0 5.9872799 11.844144"
             y="0"
             sodipodi:role="line"
             id="tspan120">10%</tspan></text>
</g></g><g
       id="g122"><g
         id="g124"
         clip-path="url(#clipPath126)"><text
           transform="matrix(1,0,0,-1,61.416,487.46)"
           style="font-variant:normal;font-weight:normal;font-size:11.85599995px;font-family:'Palatino Linotype';-inkscape-font-specification:'Palatino Linotype';writing-mode:lr-tb;fill:#000000;fill-opacity:1;fill-rule:nonzero;stroke:none"
           id="text130"><tspan
             x="0 5.9872799 11.844144"
             y="0"
             sodipodi:role="line"
             id="tspan132">12%</tspan></text>
</g></g><g
       id="g134"><g
         id="g136"
         clip-path="url(#clipPath138)"><text
           transform="matrix(1,0,0,-1,115.15,327.91)"
           style="font-variant:normal;font-weight:normal;font-size:11.88000011px;font-family:'Palatino Linotype';-inkscape-font-specification:'Palatino Linotype';writing-mode:lr-tb;fill:#000000;fill-opacity:1;fill-rule:nonzero;stroke:none"
           id="text142"><tspan
             x="0"
             y="0"
             id="tspan144">1</tspan></text>
</g></g><g
       id="g146"><g
         id="g148"
         clip-path="url(#clipPath150)"><text
           transform="matrix(1,0,0,-1,160.58,327.91)"
           style="font-variant:normal;font-weight:normal;font-size:11.88000011px;font-family:'Palatino Linotype';-inkscape-font-specification:'Palatino Linotype';writing-mode:lr-tb;fill:#000000;fill-opacity:1;fill-rule:nonzero;stroke:none"
           id="text154"><tspan
             x="0"
             y="0"
             id="tspan156">2</tspan></text>
</g></g><g
       id="g158"><g
         id="g160"
         clip-path="url(#clipPath162)"><text
           transform="matrix(1,0,0,-1,206.02,327.91)"
           style="font-variant:normal;font-weight:normal;font-size:11.88000011px;font-family:'Palatino Linotype';-inkscape-font-specification:'Palatino Linotype';writing-mode:lr-tb;fill:#000000;fill-opacity:1;fill-rule:nonzero;stroke:none"
           id="text166"><tspan
             x="0"
             y="0"
             id="tspan168">3</tspan></text>
</g></g><g
       id="g170"><g
         id="g172"
         clip-path="url(#clipPath174)"><text
           transform="matrix(1,0,0,-1,251.47,327.91)"
           style="font-variant:normal;font-weight:normal;font-size:11.88000011px;font-family:'Palatino Linotype';-inkscape-font-specification:'Palatino Linotype';writing-mode:lr-tb;fill:#000000;fill-opacity:1;fill-rule:nonzero;stroke:none"
           id="text178"><tspan
             x="0"
             y="0"
             id="tspan180">4</tspan></text>
</g></g><g
       id="g182"><g
         id="g184"
         clip-path="url(#clipPath186)"><text
           transform="matrix(1,0,0,-1,296.9,327.91)"
           style="font-variant:normal;font-weight:normal;font-size:11.88000011px;font-family:'Palatino Linotype';-inkscape-font-specification:'Palatino Linotype';writing-mode:lr-tb;fill:#000000;fill-opacity:1;fill-rule:nonzero;stroke:none"
           id="text190"><tspan
             x="0"
             y="0"
             id="tspan192">5</tspan></text>
</g></g><g
       id="g194"><g
         id="g196"
         clip-path="url(#clipPath198)"><text
           transform="matrix(1,0,0,-1,342.34,327.91)"
           style="font-variant:normal;font-weight:normal;font-size:11.88000011px;font-family:'Palatino Linotype';-inkscape-font-specification:'Palatino Linotype';writing-mode:lr-tb;fill:#000000;fill-opacity:1;fill-rule:nonzero;stroke:none"
           id="text202"><tspan
             x="0"
             y="0"
             id="tspan204">6</tspan></text>
</g></g><g
       id="g206"><g
         id="g208"
         clip-path="url(#clipPath210)"><text
           transform="matrix(1,0,0,-1,387.79,327.91)"
           style="font-variant:normal;font-weight:normal;font-size:11.88000011px;font-family:'Palatino Linotype';-inkscape-font-specification:'Palatino Linotype';writing-mode:lr-tb;fill:#000000;fill-opacity:1;fill-rule:nonzero;stroke:none"
           id="text214"><tspan
             x="0"
             y="0"
             id="tspan216">7</tspan></text>
</g></g><g
       id="g218"><g
         id="g220"
         clip-path="url(#clipPath222)"><text
           transform="matrix(1,0,0,-1,433.22,327.91)"
           style="font-variant:normal;font-weight:normal;font-size:11.88000011px;font-family:'Palatino Linotype';-inkscape-font-specification:'Palatino Linotype';writing-mode:lr-tb;fill:#000000;fill-opacity:1;fill-rule:nonzero;stroke:none"
           id="text226"><tspan
             x="0"
             y="0"
             id="tspan228">8</tspan></text>
</g></g><g
       id="g230"><g
         id="g232"
         clip-path="url(#clipPath234)"><text
           transform="matrix(1,0,0,-1,478.66,327.91)"
           style="font-variant:normal;font-weight:normal;font-size:11.88000011px;font-family:'Palatino Linotype';-inkscape-font-specification:'Palatino Linotype';writing-mode:lr-tb;fill:#000000;fill-opacity:1;fill-rule:nonzero;stroke:none"
           id="text238"><tspan
             x="0"
             y="0"
             id="tspan240">9</tspan></text>
</g></g><g
       id="g242"><g
         id="g244"
         clip-path="url(#clipPath246)"><text
           transform="matrix(1,0,0,-1,521.14,327.91)"
           style="font-variant:normal;font-weight:normal;font-size:11.88000011px;font-family:'Palatino Linotype';-inkscape-font-specification:'Palatino Linotype';writing-mode:lr-tb;fill:#000000;fill-opacity:1;fill-rule:nonzero;stroke:none"
           id="text250"><tspan
             x="0 6"
             y="0"
             sodipodi:role="line"
             id="tspan252">10</tspan></text>
</g></g><g
       id="g254"><g
         id="g256"
         clip-path="url(#clipPath258)"><text
           transform="matrix(1,0,0,-1,130.22,520.34)"
           style="font-variant:normal;font-weight:normal;font-size:15.81599998px;font-family:'Palatino Linotype';-inkscape-font-specification:'Palatino Linotype';writing-mode:lr-tb;fill:#000000;fill-opacity:1;fill-rule:nonzero;stroke:none"
           id="text262"><tspan
             x="0 11.213544 20.418455 28.326456 37.531368 46.325066 53.93256 60.575279 64.529282 68.973579 78.17849 82.40136 87.620644 96.825554 104.40141 108.18144 119.39498 130.00752 139.51294 147.87959 151.8336 158.79263 167.49144 181.45697 190.96239 199.59792 208.80283 216.37869 225.5836 230.78708 237.42979 241.38379 246.65051 255.31769 261.64407 265.59808 270.81738 280.02228 287.59814 291.37817 301.04175 305.47021 310.73694 315.94043 323.51627 329.8743 337.45016 346.65509 351.87436"
             y="0"
             sodipodi:role="line"
             id="tspan264">Changes in the CRPS components for the different </tspan></text>
</g></g><g
       id="g266"><g
         id="g268"
         clip-path="url(#clipPath270)"><text
           transform="matrix(1,0,0,-1,178.63,498.98)"
           style="font-variant:normal;font-weight:normal;font-size:15.81599998px;font-family:'Palatino Linotype';-inkscape-font-specification:'Palatino Linotype';writing-mode:lr-tb;fill:#000000;fill-opacity:1;fill-rule:nonzero;stroke:none"
           id="text274"><tspan
             x="0 6.2947679 13.870632 22.711777 27.124439 35.791607 44.996521 51.575977 55.529976 59.483974 73.370422 80.946289 86.14975 95.354668 103.9902 113.65378 117.60777 125.51578 136.06505 144.74803 148.54387 154.83864 162.41451 167.01695 174.92496 180.08098 184.52527 193.20825 200.78412 205.38658 214.2119 218.16591 223.32191 232.02072 235.81656 243.72456"
             y="0"
             sodipodi:role="line"
             id="tspan276">regions, method 4Zo relatively to 2Z</tspan></text>
</g></g><path
       d="m 185.29,282.83 7.2013,0 0,7.2013 -7.2013,0 0,-7.2013 z"
       style="fill:#44546a;fill-opacity:1;fill-rule:evenodd;stroke:none"
       id="path278"
       inkscape:connector-curvature="0" /><g
       id="g280"><g
         id="g282"
         clip-path="url(#clipPath284)"><text
           transform="matrix(1,0,0,-1,195.62,282.89)"
           style="font-variant:normal;font-weight:normal;font-size:11.85599995px;font-family:'Palatino Linotype';-inkscape-font-specification:'Palatino Linotype';writing-mode:lr-tb;fill:#000000;fill-opacity:1;fill-rule:nonzero;stroke:none"
           id="text288"><tspan
             x="0 7.2795839 15.685488 23.605295 30.730753 36.89587 40.049568 46.060558 51.324623 56.529408 63.678577 68.397263 74.408257 79.672318 86.264259 89.145264 97.55117"
             y="0"
             sodipodi:role="line"
             id="tspan290">∆CRPS accuracy CP</tspan></text>
</g></g><path
       d="m 310.63,282.83 7.2013,0 0,7.2013 -7.2013,0 0,-7.2013 z"
       style="fill:#5b9bd5;fill-opacity:1;fill-rule:evenodd;stroke:none"
       id="path292"
       inkscape:connector-curvature="0" /><g
       id="g294"><g
         id="g296"
         clip-path="url(#clipPath298)"><text
           transform="matrix(1,0,0,-1,321,282.89)"
           style="font-variant:normal;font-weight:normal;font-size:11.85599995px;font-family:'Palatino Linotype';-inkscape-font-specification:'Palatino Linotype';writing-mode:lr-tb;fill:#000000;fill-opacity:1;fill-rule:nonzero;stroke:none"
           id="text302"><tspan
             x="0 7.2558718 15.661776 23.546017 30.64776 36.812881 39.966576 45.953857 51.158642 56.363422 63.465168 68.207565 74.194847 79.399635 86.038994 88.896286 97.456322"
             y="0"
             sodipodi:role="line"
             id="tspan304">∆CRPS accuracy VP</tspan></text>
</g></g><path
       d="m 185.29,259.08 7.2013,0 0,7.2013 -7.2013,0 0,-7.2013 z"
       style="fill:#ed7d31;fill-opacity:1;fill-rule:evenodd;stroke:none"
       id="path306"
       inkscape:connector-curvature="0" /><g
       id="g308"><g
         id="g310"
         clip-path="url(#clipPath312)"><text
           transform="matrix(1,0,0,-1,195.62,259.15)"
           style="font-variant:normal;font-weight:normal;font-size:11.88000011px;font-family:'Palatino Linotype';-inkscape-font-specification:'Palatino Linotype';writing-mode:lr-tb;fill:#000000;fill-opacity:1;fill-rule:nonzero;stroke:none"
           id="text316"><tspan
             x="0 7.2705598 15.69348 23.62932 30.74544 36.91116 40.071239 45.10836 52.081921 58.093201 62.833321 69.973198 76.88736 82.625397 87.662521 92.747162 95.289482 103.7124"
             y="0"
             sodipodi:role="line"
             id="tspan318">∆CRPS sharpness CP</tspan></text>
</g></g><path
       d="m 310.63,259.08 7.2013,0 0,7.2013 -7.2013,0 0,-7.2013 z"
       style="fill:#ffc000;fill-opacity:1;fill-rule:evenodd;stroke:none"
       id="path320"
       inkscape:connector-curvature="0" /><g
       id="g322"><g
         id="g324"
         clip-path="url(#clipPath326)"><text
           transform="matrix(1,0,0,-1,321,259.15)"
           style="font-variant:normal;font-weight:normal;font-size:11.88000011px;font-family:'Palatino Linotype';-inkscape-font-specification:'Palatino Linotype';writing-mode:lr-tb;fill:#000000;fill-opacity:1;fill-rule:nonzero;stroke:none"
           id="text330"><tspan
             x="0 7.2705598 15.64596 23.54616 30.6504 36.81612 39.9762 45.013321 51.986881 57.9744 62.71452 69.818764 76.768562 82.459084 87.496201 92.568962 95.087517 103.66488"
             y="0"
             sodipodi:role="line"
             id="tspan332">∆CRPS sharpness VP</tspan></text>
</g></g></g></svg>