<?xml version="1.0" encoding="UTF-8" standalone="no"?>
<!-- Created with Inkscape (http://www.inkscape.org/) -->

<svg
   xmlns:dc="http://purl.org/dc/elements/1.1/"
   xmlns:cc="http://creativecommons.org/ns#"
   xmlns:rdf="http://www.w3.org/1999/02/22-rdf-syntax-ns#"
   xmlns:svg="http://www.w3.org/2000/svg"
   xmlns="http://www.w3.org/2000/svg"
   xmlns:sodipodi="http://sodipodi.sourceforge.net/DTD/sodipodi-0.dtd"
   xmlns:inkscape="http://www.inkscape.org/namespaces/inkscape"
   id="svg4136"
   version="1.1"
   inkscape:version="0.91 r13725"
   xml:space="preserve"
   width="291.40781"
   height="173.39224"
   viewBox="0 0 291.40781 173.39224"
   sodipodi:docname="figure_crpss_4Zo.svg"><metadata
     id="metadata4142"><rdf:RDF><cc:Work
         rdf:about=""><dc:format>image/svg+xml</dc:format><dc:type
           rdf:resource="http://purl.org/dc/dcmitype/StillImage" /><dc:title></dc:title></cc:Work></rdf:RDF></metadata><defs
     id="defs4140"><clipPath
       clipPathUnits="userSpaceOnUse"
       id="clipPath4248"><path
         d="m 72.48,524.16 67.2,0 0,9.48 -67.2,0 0,-9.48 z"
         id="path4250"
         inkscape:connector-curvature="0" /></clipPath><clipPath
       clipPathUnits="userSpaceOnUse"
       id="clipPath4260"><path
         d="m 139.68,524.16 67.2,0 0,9.48 -67.2,0 0,-9.48 z"
         id="path4262"
         inkscape:connector-curvature="0" /></clipPath><clipPath
       clipPathUnits="userSpaceOnUse"
       id="clipPath4272"><path
         d="m 72.48,277.68 67.2,0 0,9.481 -67.2,0 0,-9.481 z"
         id="path4274"
         inkscape:connector-curvature="0" /></clipPath><clipPath
       clipPathUnits="userSpaceOnUse"
       id="clipPath4284"><path
         d="m 139.68,277.68 67.2,0 0,9.481 -67.2,0 0,-9.481 z"
         id="path4286"
         inkscape:connector-curvature="0" /></clipPath></defs><sodipodi:namedview
     pagecolor="#ffffff"
     bordercolor="#666666"
     borderopacity="1"
     objecttolerance="10"
     gridtolerance="10"
     guidetolerance="10"
     inkscape:pageopacity="0"
     inkscape:pageshadow="2"
     inkscape:window-width="1920"
     inkscape:window-height="1138"
     id="namedview4138"
     showgrid="false"
     inkscape:zoom="1.8114865"
     inkscape:cx="42.641632"
     inkscape:cy="27.621896"
     inkscape:window-x="-8"
     inkscape:window-y="-8"
     inkscape:window-maximized="1"
     inkscape:current-layer="g4144"
     fit-margin-top="0"
     fit-margin-left="0"
     fit-margin-right="0"
     fit-margin-bottom="0" /><g
     id="g4144"
     inkscape:groupmode="layer"
     inkscape:label="scores"
     transform="matrix(1.25,0,0,-1.25,-326.99632,613.80461)"><g
   id="g4294"
   transform="translate(283.5003,386.394)"><path
     d="M 0,0 211.223,0 M 0,11.388 l 211.223,0 M 0,22.776 l 211.223,0 M 0,34.086 l 211.223,0 M 0,45.474 l 211.223,0 M 0,56.862 l 211.223,0 M 0,68.172 l 211.223,0 M 0,79.56 l 211.223,0 M 0,90.948 l 211.223,0 M 0,102.303 l 211.223,0"
     style="fill:none;stroke:#dadada;stroke-width:0.48800001;stroke-linecap:butt;stroke-linejoin:round;stroke-miterlimit:10;stroke-dasharray:none;stroke-opacity:1"
     id="path4296"
     inkscape:connector-curvature="0" /></g><path
   d="m 285.972,451.758 4.056,0 0,-76.718 -4.056,0 0,76.718 z m 21.06,-11.934 4.056,0 0,-64.784 -4.056,0 0,64.784 z m 21.138,-4.134 4.056,0 0,-60.65 -4.056,0 0,60.65 z m 21.138,-30.42 4.056,0 0,-30.23 -4.056,0 0,30.23 z m 21.138,15.6 4.056,0 0,-45.83 -4.056,0 0,45.83 z m 21.138,14.82 4.056,0 0,-60.65 -4.056,0 0,60.65 z m 21.06,-46.8 4.056,0 0,-13.85 -4.056,0 0,13.85 z m 21.138,38.61 4.056,0 0,-52.46 -4.056,0 0,52.46 z m 21.138,-13.104 4.056,0 0,-39.356 -4.056,0 0,39.356 z m 21.138,34.476 4.056,0 0,-73.832 -4.056,0 0,73.832 z"
   style="fill:#bdd7ee;fill-opacity:1;fill-rule:nonzero;stroke:none"
   id="path4298"
   inkscape:connector-curvature="0" /><path
   d="m 290.028,479.214 4.056,0 0,-104.174 -4.056,0 0,104.174 z m 21.06,-14.196 4.134,0 0,-89.978 -4.134,0 0,89.978 z m 21.138,-6.786 4.056,0 0,-83.192 -4.056,0 0,83.192 z m 21.138,-30.966 4.056,0 0,-52.226 -4.056,0 0,52.226 z m 21.138,18.33 4.056,0 0,-70.556 -4.056,0 0,70.556 z m 21.138,14.664 4.056,0 0,-85.22 -4.056,0 0,85.22 z m 21.06,-39.702 4.134,0 0,-45.518 -4.134,0 0,45.518 z m 21.138,43.602 4.056,0 0,-89.12 -4.056,0 0,89.12 z m 21.138,-26.13 4.056,0 0,-62.99 -4.056,0 0,62.99 z m 21.138,39.078 4.056,0 0,-102.068 -4.056,0 0,102.068 z"
   style="fill:#2e75b6;fill-opacity:1;fill-rule:nonzero;stroke:none"
   id="path4300"
   inkscape:connector-curvature="0" /><path
   d="m 294.084,443.568 4.056,0 0,-68.528 -4.056,0 0,68.528 z m 21.138,-9.048 4.056,0 0,-59.48 -4.056,0 0,59.48 z m 21.06,-7.722 4.056,0 0,-51.758 -4.056,0 0,51.758 z m 21.138,-18.642 4.056,0 0,-33.116 -4.056,0 0,33.116 z m 21.138,32.292 4.056,0 0,-65.408 -4.056,0 0,65.408 z m 21.138,18.486 4.056,0 0,-83.894 -4.056,0 0,83.894 z m 21.138,-54.288 4.056,0 0,-29.606 -4.056,0 0,29.606 z m 21.06,48.984 4.056,0 0,-78.59 -4.056,0 0,78.59 z m 21.138,-47.736 4.056,0 0,-30.854 -4.056,0 0,30.854 z m 21.138,51.714 4.056,0 0,-82.568 -4.056,0 0,82.568 z"
   style="fill:#f8cbad;fill-opacity:1;fill-rule:nonzero;stroke:none"
   id="path4302"
   inkscape:connector-curvature="0" /><path
   d="m 298.14,468.762 4.056,0 0,-93.722 -4.056,0 0,93.722 z m 21.138,-20.436 4.056,0 0,-73.286 -4.056,0 0,73.286 z m 21.06,-5.538 4.056,0 0,-67.748 -4.056,0 0,67.748 z m 21.138,-17.94 4.056,0 0,-49.808 -4.056,0 0,49.808 z m 21.138,32.448 4.056,0 0,-82.256 -4.056,0 0,82.256 z m 21.138,19.578 4.056,0 0,-101.834 -4.056,0 0,101.834 z m 21.138,-55.848 4.056,0 0,-45.986 -4.056,0 0,45.986 z m 21.06,56.862 4.056,0 0,-102.848 -4.056,0 0,102.848 z m 21.138,-57.174 4.056,0 0,-45.674 -4.056,0 0,45.674 z m 21.138,56.394 4.056,0 0,-102.068 -4.056,0 0,102.068 z"
   style="fill:#c55a11;fill-opacity:1;fill-rule:nonzero;stroke:none"
   id="path4304"
   inkscape:connector-curvature="0" /><g
   id="g4306"
   transform="translate(283.5003,375.0398)"><path
     d="M 0,0 211.223,0"
     style="fill:none;stroke:#dadada;stroke-width:0.48800001;stroke-linecap:butt;stroke-linejoin:round;stroke-miterlimit:10;stroke-dasharray:none;stroke-opacity:1"
     id="path4308"
     inkscape:connector-curvature="0" /></g><text
   transform="matrix(1,0,0,-1,271.9628,373.1735)"
   style="font-variant:normal;font-weight:normal;font-stretch:normal;font-size:5.8499999px;font-family:Arial;-inkscape-font-specification:Helvetica;writing-mode:lr-tb;fill:#000000;fill-opacity:1;fill-rule:nonzero;stroke:none"
   id="text4310"><tspan
     x="0 3.276"
     y="0"
     sodipodi:role="line"
     id="tspan4312">22</tspan><tspan
     x="0 3.276"
     y="-11.36655"
     sodipodi:role="line"
     id="tspan4314">24</tspan><tspan
     x="0 3.276"
     y="-22.733101"
     sodipodi:role="line"
     id="tspan4316">26</tspan><tspan
     x="0 3.276"
     y="-34.099651"
     sodipodi:role="line"
     id="tspan4318">28</tspan><tspan
     x="0 3.276"
     y="-45.466202"
     sodipodi:role="line"
     id="tspan4320">30</tspan><tspan
     x="0 3.276"
     y="-56.832748"
     sodipodi:role="line"
     id="tspan4322">32</tspan><tspan
     x="0 3.276"
     y="-68.199303"
     sodipodi:role="line"
     id="tspan4324">34</tspan><tspan
     x="0 3.276"
     y="-79.565849"
     sodipodi:role="line"
     id="tspan4326">36</tspan><tspan
     x="0 3.276"
     y="-90.932404"
     sodipodi:role="line"
     id="tspan4328">38</tspan><tspan
     x="0 3.276"
     y="-102.29895"
     sodipodi:role="line"
     id="tspan4330">40</tspan><tspan
     x="0 3.276"
     y="-113.6655"
     sodipodi:role="line"
     id="tspan4332">42</tspan><tspan
     x="20.475 41.59935 62.723701 83.848053 104.9724 126.09675 147.2211 168.34544 189.4698 208.96785 212.24385"
     y="6.9615002"
     sodipodi:role="line"
     id="tspan4334">12345678910</tspan></text>

<text
   transform="matrix(0,1,1,0,0,0)"
   style="font-variant:normal;font-weight:normal;font-stretch:normal;font-size:6.47399998px;font-family:Arial;-inkscape-font-specification:Helvetica;writing-mode:lr-tb;fill:#000000;fill-opacity:1;fill-rule:nonzero;stroke:none"
   id="text4336"
   x="411.80701"
   y="266.3103"><tspan
     x="411.80701 416.48706 421.16711 425.45938 429.75165 434.04391 435.99258 438.17691 443.94849"
     y="266.3103"
     sodipodi:role="line"
     id="tspan4338">CRPSS (%)</tspan></text>

<path
   d="m 335.999,355.737 2.94,0 0,-2.94 -2.94,0 0,2.94 z"
   style="fill:#bdd7ee;fill-opacity:1;fill-rule:evenodd;stroke:none"
   id="path4340"
   inkscape:connector-curvature="0" /><text
   transform="scale(1,-1)"
   style="font-variant:normal;font-weight:normal;font-stretch:normal;font-size:5.8499999px;font-family:Arial;-inkscape-font-specification:Helvetica;writing-mode:lr-tb;fill:#000000;fill-opacity:1;fill-rule:nonzero;stroke:none"
   id="text4342"
   x="340.16443"
   y="-352.40131"><tspan
     x="340.16443 343.44043 347.02826 348.59021 352.88"
     y="-352.40131"
     sodipodi:role="line"
     id="tspan4344">2Z CP</tspan></text>

<path
   d="m 362.288,355.737 2.94,0 0,-2.94 -2.94,0 0,2.94 z"
   style="fill:#2e75b6;fill-opacity:1;fill-rule:evenodd;stroke:none"
   id="path4346"
   inkscape:connector-curvature="0" /><text
   transform="scale(1,-1)"
   style="font-variant:normal;font-weight:normal;font-stretch:normal;font-size:5.8499999px;font-family:Arial;-inkscape-font-specification:Helvetica;writing-mode:lr-tb;fill:#000000;fill-opacity:1;fill-rule:nonzero;stroke:none"
   id="text4348"
   x="366.45343"
   y="-352.40131"><tspan
     x="366.45343 369.72943 373.31726 376.51721 378.15521 382.36719"
     y="-352.40131"
     sodipodi:role="line"
     id="tspan4350">4Zo CP</tspan></text>

<path
   d="m 391.83,355.737 2.94,0 0,-2.94 -2.94,0 0,2.94 z"
   style="fill:#f8cbad;fill-opacity:1;fill-rule:evenodd;stroke:none"
   id="path4352"
   inkscape:connector-curvature="0" /><text
   transform="scale(1,-1)"
   style="font-variant:normal;font-weight:normal;font-stretch:normal;font-size:5.8499999px;font-family:Arial;-inkscape-font-specification:Helvetica;writing-mode:lr-tb;fill:#000000;fill-opacity:1;fill-rule:nonzero;stroke:none"
   id="text4354"
   x="395.99585"
   y="-352.40131"><tspan
     x="395.99585 399.27185 402.85965 404.4216 408.32355"
     y="-352.40131"
     sodipodi:role="line"
     id="tspan4356">2Z VP</tspan></text>

<path
   d="m 417.797,355.737 2.94,0 0,-2.94 -2.94,0 0,2.94 z"
   style="fill:#c55a11;fill-opacity:1;fill-rule:evenodd;stroke:none"
   id="path4358"
   inkscape:connector-curvature="0" /><text
   transform="scale(1,-1)"
   style="font-variant:normal;font-weight:normal;font-stretch:normal;font-size:5.8499999px;font-family:Arial;-inkscape-font-specification:Helvetica;writing-mode:lr-tb;fill:#000000;fill-opacity:1;fill-rule:nonzero;stroke:none"
   id="text4360"
   x="421.96313"
   y="-352.40131"><tspan
     x="421.96313 425.23914 428.82693 432.02689 433.66489 437.56509"
     y="-352.40131"
     sodipodi:role="line"
     id="tspan4362">4Zo VP</tspan></text>







</g></svg>