<?xml version="1.0" encoding="UTF-8" standalone="no"?>
<!-- Created with Inkscape (http://www.inkscape.org/) -->

<svg
   xmlns:dc="http://purl.org/dc/elements/1.1/"
   xmlns:cc="http://creativecommons.org/ns#"
   xmlns:rdf="http://www.w3.org/1999/02/22-rdf-syntax-ns#"
   xmlns:svg="http://www.w3.org/2000/svg"
   xmlns="http://www.w3.org/2000/svg"
   xmlns:sodipodi="http://sodipodi.sourceforge.net/DTD/sodipodi-0.dtd"
   xmlns:inkscape="http://www.inkscape.org/namespaces/inkscape"
   id="svg2"
   version="1.1"
   inkscape:version="0.91 r13725"
   xml:space="preserve"
   width="609.42798"
   height="344.97028"
   viewBox="0 0 609.42798 344.97028"
   sodipodi:docname="figure_dcrps_comp_4Zo-4HIo.svg"><metadata
     id="metadata8"><rdf:RDF><cc:Work
         rdf:about=""><dc:format>image/svg+xml</dc:format><dc:type
           rdf:resource="http://purl.org/dc/dcmitype/StillImage" /><dc:title /></cc:Work></rdf:RDF></metadata><defs
     id="defs6"><clipPath
       clipPathUnits="userSpaceOnUse"
       id="clipPath30"><path
         d="m 51.24,244.92 509.88,0 0,301.92 -509.88,0 0,-301.92 z"
         id="path32"
         inkscape:connector-curvature="0"
         style="clip-rule:evenodd" /></clipPath><clipPath
       clipPathUnits="userSpaceOnUse"
       id="clipPath42"><path
         d="m 51.24,244.92 509.88,0 0,301.92 -509.88,0 0,-301.92 z"
         id="path44"
         inkscape:connector-curvature="0"
         style="clip-rule:evenodd" /></clipPath><clipPath
       clipPathUnits="userSpaceOnUse"
       id="clipPath54"><path
         d="m 51.24,244.92 509.88,0 0,301.92 -509.88,0 0,-301.92 z"
         id="path56"
         inkscape:connector-curvature="0"
         style="clip-rule:evenodd" /></clipPath><clipPath
       clipPathUnits="userSpaceOnUse"
       id="clipPath66"><path
         d="m 51.24,244.92 509.88,0 0,301.92 -509.88,0 0,-301.92 z"
         id="path68"
         inkscape:connector-curvature="0"
         style="clip-rule:evenodd" /></clipPath><clipPath
       clipPathUnits="userSpaceOnUse"
       id="clipPath78"><path
         d="m 51.24,244.92 509.88,0 0,301.92 -509.88,0 0,-301.92 z"
         id="path80"
         inkscape:connector-curvature="0"
         style="clip-rule:evenodd" /></clipPath><clipPath
       clipPathUnits="userSpaceOnUse"
       id="clipPath90"><path
         d="m 51.24,244.92 509.88,0 0,301.92 -509.88,0 0,-301.92 z"
         id="path92"
         inkscape:connector-curvature="0"
         style="clip-rule:evenodd" /></clipPath><clipPath
       clipPathUnits="userSpaceOnUse"
       id="clipPath102"><path
         d="m 51.24,244.92 509.88,0 0,301.92 -509.88,0 0,-301.92 z"
         id="path104"
         inkscape:connector-curvature="0"
         style="clip-rule:evenodd" /></clipPath><clipPath
       clipPathUnits="userSpaceOnUse"
       id="clipPath114"><path
         d="m 51.24,244.92 509.88,0 0,301.92 -509.88,0 0,-301.92 z"
         id="path116"
         inkscape:connector-curvature="0"
         style="clip-rule:evenodd" /></clipPath><clipPath
       clipPathUnits="userSpaceOnUse"
       id="clipPath126"><path
         d="m 51.24,244.92 509.88,0 0,301.92 -509.88,0 0,-301.92 z"
         id="path128"
         inkscape:connector-curvature="0"
         style="clip-rule:evenodd" /></clipPath><clipPath
       clipPathUnits="userSpaceOnUse"
       id="clipPath138"><path
         d="m 51.24,244.92 509.88,0 0,301.92 -509.88,0 0,-301.92 z"
         id="path140"
         inkscape:connector-curvature="0"
         style="clip-rule:evenodd" /></clipPath><clipPath
       clipPathUnits="userSpaceOnUse"
       id="clipPath150"><path
         d="m 51.24,244.92 509.88,0 0,301.92 -509.88,0 0,-301.92 z"
         id="path152"
         inkscape:connector-curvature="0"
         style="clip-rule:evenodd" /></clipPath><clipPath
       clipPathUnits="userSpaceOnUse"
       id="clipPath162"><path
         d="m 51.24,244.92 509.88,0 0,301.92 -509.88,0 0,-301.92 z"
         id="path164"
         inkscape:connector-curvature="0"
         style="clip-rule:evenodd" /></clipPath><clipPath
       clipPathUnits="userSpaceOnUse"
       id="clipPath174"><path
         d="m 51.24,244.92 509.88,0 0,301.92 -509.88,0 0,-301.92 z"
         id="path176"
         inkscape:connector-curvature="0"
         style="clip-rule:evenodd" /></clipPath><clipPath
       clipPathUnits="userSpaceOnUse"
       id="clipPath186"><path
         d="m 51.24,244.92 509.88,0 0,301.92 -509.88,0 0,-301.92 z"
         id="path188"
         inkscape:connector-curvature="0"
         style="clip-rule:evenodd" /></clipPath><clipPath
       clipPathUnits="userSpaceOnUse"
       id="clipPath198"><path
         d="m 51.24,244.92 509.88,0 0,301.92 -509.88,0 0,-301.92 z"
         id="path200"
         inkscape:connector-curvature="0"
         style="clip-rule:evenodd" /></clipPath><clipPath
       clipPathUnits="userSpaceOnUse"
       id="clipPath210"><path
         d="m 51.24,244.92 509.88,0 0,301.92 -509.88,0 0,-301.92 z"
         id="path212"
         inkscape:connector-curvature="0"
         style="clip-rule:evenodd" /></clipPath><clipPath
       clipPathUnits="userSpaceOnUse"
       id="clipPath222"><path
         d="m 51.24,244.92 509.88,0 0,301.92 -509.88,0 0,-301.92 z"
         id="path224"
         inkscape:connector-curvature="0"
         style="clip-rule:evenodd" /></clipPath><clipPath
       clipPathUnits="userSpaceOnUse"
       id="clipPath234"><path
         d="m 51.24,244.92 509.88,0 0,301.92 -509.88,0 0,-301.92 z"
         id="path236"
         inkscape:connector-curvature="0"
         style="clip-rule:evenodd" /></clipPath><clipPath
       clipPathUnits="userSpaceOnUse"
       id="clipPath246"><path
         d="m 51.24,244.92 509.88,0 0,301.92 -509.88,0 0,-301.92 z"
         id="path248"
         inkscape:connector-curvature="0"
         style="clip-rule:evenodd" /></clipPath><clipPath
       clipPathUnits="userSpaceOnUse"
       id="clipPath258"><path
         d="m 51.24,244.92 509.88,0 0,301.92 -509.88,0 0,-301.92 z"
         id="path260"
         inkscape:connector-curvature="0"
         style="clip-rule:evenodd" /></clipPath><clipPath
       clipPathUnits="userSpaceOnUse"
       id="clipPath270"><path
         d="m 51.24,244.92 509.88,0 0,301.92 -509.88,0 0,-301.92 z"
         id="path272"
         inkscape:connector-curvature="0"
         style="clip-rule:evenodd" /></clipPath><clipPath
       clipPathUnits="userSpaceOnUse"
       id="clipPath282"><path
         d="m 51.24,244.92 509.88,0 0,301.92 -509.88,0 0,-301.92 z"
         id="path284"
         inkscape:connector-curvature="0"
         style="clip-rule:evenodd" /></clipPath><clipPath
       clipPathUnits="userSpaceOnUse"
       id="clipPath294"><path
         d="m 51.24,244.92 509.88,0 0,301.92 -509.88,0 0,-301.92 z"
         id="path296"
         inkscape:connector-curvature="0"
         style="clip-rule:evenodd" /></clipPath><clipPath
       clipPathUnits="userSpaceOnUse"
       id="clipPath306"><path
         d="m 51.24,244.92 509.88,0 0,301.92 -509.88,0 0,-301.92 z"
         id="path308"
         inkscape:connector-curvature="0"
         style="clip-rule:evenodd" /></clipPath><clipPath
       clipPathUnits="userSpaceOnUse"
       id="clipPath318"><path
         d="m 51.24,244.92 509.88,0 0,301.92 -509.88,0 0,-301.92 z"
         id="path320"
         inkscape:connector-curvature="0"
         style="clip-rule:evenodd" /></clipPath><clipPath
       clipPathUnits="userSpaceOnUse"
       id="clipPath330"><path
         d="m 51.24,244.92 509.88,0 0,301.92 -509.88,0 0,-301.92 z"
         id="path332"
         inkscape:connector-curvature="0"
         style="clip-rule:evenodd" /></clipPath><clipPath
       clipPathUnits="userSpaceOnUse"
       id="clipPath344"><path
         d="m 51.24,244.92 509.88,0 0,301.92 -509.88,0 0,-301.92 z"
         id="path346"
         inkscape:connector-curvature="0"
         style="clip-rule:evenodd" /></clipPath><clipPath
       clipPathUnits="userSpaceOnUse"
       id="clipPath358"><path
         d="m 51.24,244.92 509.88,0 0,301.92 -509.88,0 0,-301.92 z"
         id="path360"
         inkscape:connector-curvature="0"
         style="clip-rule:evenodd" /></clipPath><clipPath
       clipPathUnits="userSpaceOnUse"
       id="clipPath372"><path
         d="m 51.24,244.92 509.88,0 0,301.92 -509.88,0 0,-301.92 z"
         id="path374"
         inkscape:connector-curvature="0"
         style="clip-rule:evenodd" /></clipPath><clipPath
       clipPathUnits="userSpaceOnUse"
       id="clipPath386"><path
         d="m 51.24,244.92 509.88,0 0,301.92 -509.88,0 0,-301.92 z"
         id="path388"
         inkscape:connector-curvature="0"
         style="clip-rule:evenodd" /></clipPath><clipPath
       clipPathUnits="userSpaceOnUse"
       id="clipPath398"><path
         d="m 50.4,244.44 511.2,0 0,303.12 -511.2,0 0,-303.12 z"
         id="path400"
         inkscape:connector-curvature="0"
         style="clip-rule:evenodd" /></clipPath></defs><sodipodi:namedview
     pagecolor="#ffffff"
     bordercolor="#666666"
     borderopacity="1"
     objecttolerance="10"
     gridtolerance="10"
     guidetolerance="10"
     inkscape:pageopacity="0"
     inkscape:pageshadow="2"
     inkscape:window-width="1548"
     inkscape:window-height="818"
     id="namedview4"
     showgrid="false"
     fit-margin-top="0"
     fit-margin-left="0"
     fit-margin-right="0"
     fit-margin-bottom="0"
     inkscape:zoom="0.95353536"
     inkscape:cx="305.70408"
     inkscape:cy="264.86257"
     inkscape:window-x="77"
     inkscape:window-y="177"
     inkscape:window-maximized="0"
     inkscape:current-layer="g10" /><g
     id="g10"
     inkscape:groupmode="layer"
     inkscape:label="figure_dcrpss_comp_4Zo-4HIo"
     transform="matrix(1.25,0,0,-1.25,-77.734541,664.73122)"><path
       d="m 95.441,301.37 454.289,0 m -454.289,23.64 454.289,0 m -454.289,47.44 454.289,0 m -454.289,23.72 454.289,0 m -454.289,23.72 454.289,0 m -454.289,23.71 454.289,0 m -454.289,23.72 454.289,0 m -454.289,23.64 454.289,0"
       style="fill:none;stroke:#d9d9d9;stroke-width:0.98825002;stroke-linecap:butt;stroke-linejoin:round;stroke-miterlimit:10;stroke-dasharray:none;stroke-opacity:1"
       id="path14"
       inkscape:connector-curvature="0" /><path
       d="m 103.47,445.82 7.27,0 0,-97.09 -7.27,0 0,97.09 z m 45.38,-34.95 7.43,0 0,-62.14 -7.43,0 0,62.14 z m 45.54,21.35 7.27,0 0,-83.49 -7.27,0 0,83.49 z m 45.38,-3.64 7.27,0 0,-79.85 -7.27,0 0,79.85 z m 45.38,-5.53 7.43,0 0,-74.32 -7.43,0 0,74.32 z m 45.54,-1.27 7.27,0 0,-73.05 -7.27,0 0,73.05 z m 45.38,41.59 7.27,0 0,-114.64 -7.27,0 0,114.64 z m 45.38,23.56 7.43,0 0,-138.2 -7.43,0 0,138.2 z m 45.53,-42.69 7.28,0 0,-95.51 -7.28,0 0,95.51 z m 45.38,-9.49 7.28,0 0,-86.02 -7.28,0 0,86.02 z"
       style="fill:#44546a;fill-opacity:1;fill-rule:nonzero;stroke:none"
       id="path16"
       inkscape:connector-curvature="0" /><path
       d="m 110.74,399.8 7.43,0 0,-51.07 -7.43,0 0,51.07 z m 45.54,-2.68 7.27,0 0,-48.39 -7.27,0 0,48.39 z m 45.38,21.82 7.43,0 0,-70.21 -7.43,0 0,70.21 z m 45.38,-0.64 7.43,0 0,-69.57 -7.43,0 0,69.57 z m 45.54,-5.21 7.27,0 0,-64.36 -7.27,0 0,64.36 z m 45.38,-27.99 7.27,0 0,-36.37 -7.27,0 0,36.37 z m 45.38,51.86 7.43,0 0,-88.23 -7.43,0 0,88.23 z m 45.54,8.54 7.27,0 0,-96.77 -7.27,0 0,96.77 z m 45.38,-23.56 7.27,0 0,-73.21 -7.27,0 0,73.21 z m 45.38,4.43 7.43,0 0,-77.64 -7.43,0 0,77.64 z"
       style="fill:#5b9bd5;fill-opacity:1;fill-rule:nonzero;stroke:none"
       id="path18"
       inkscape:connector-curvature="0" /><path
       d="m 118.17,355.85 7.28,0 0,-7.12 -7.28,0 0,7.12 z m 45.38,22.13 7.43,0 0,-29.25 -7.43,0 0,29.25 z m 45.54,-16.44 7.27,0 0,-12.81 -7.27,0 0,12.81 z m 45.38,-10.91 7.27,0 0,-1.9 -7.27,0 0,1.9 z m 45.38,11.23 7.43,0 0,-13.13 -7.43,0 0,13.13 z m 45.38,10.75 7.43,0 0,-23.88 -7.43,0 0,23.88 z m 45.54,-37.48 7.27,0 0,13.6 -7.27,0 0,-13.6 z m 45.38,3.17 7.27,0 0,10.43 -7.27,0 0,-10.43 z m 45.38,13.12 7.43,0 0,-2.69 -7.43,0 0,2.69 z m 45.54,16.13 7.27,0 0,-18.82 -7.27,0 0,18.82 z"
       style="fill:#ed7d31;fill-opacity:1;fill-rule:nonzero;stroke:none"
       id="path20"
       inkscape:connector-curvature="0" /><path
       d="m 125.45,372.77 7.43,0 0,-24.04 -7.43,0 0,24.04 z m 45.53,3.32 7.28,0 0,-27.36 -7.28,0 0,27.36 z m 45.38,-12.5 7.28,0 0,-14.86 -7.28,0 0,14.86 z m 45.38,-11.85 7.44,0 0,-3.01 -7.44,0 0,3.01 z m 45.54,5.37 7.28,0 0,-8.38 -7.28,0 0,8.38 z m 45.38,24.35 7.28,0 0,-32.73 -7.28,0 0,32.73 z m 45.38,-38.42 7.44,0 0,5.69 -7.44,0 0,-5.69 z m 45.38,10.44 7.44,0 0,-4.75 -7.44,0 0,4.75 z m 45.54,-0.32 7.28,0 0,-4.43 -7.28,0 0,4.43 z m 45.38,6.17 7.43,0 0,-10.6 -7.43,0 0,10.6 z"
       style="fill:#ffc000;fill-opacity:1;fill-rule:nonzero;stroke:none"
       id="path22"
       inkscape:connector-curvature="0" /><path
       d="m 95.441,348.76 454.289,0"
       style="fill:none;stroke:#d9d9d9;stroke-width:0.98825002;stroke-linecap:butt;stroke-linejoin:round;stroke-miterlimit:10;stroke-dasharray:none;stroke-opacity:1"
       id="path24"
       inkscape:connector-curvature="0" /><g
       id="g26"><g
         id="g28"
         clip-path="url(#clipPath30)"><text
           transform="matrix(1,0,0,-1,63.456,297.84)"
           style="font-variant:normal;font-weight:normal;font-size:11.85599995px;font-family:'Palatino Linotype';-inkscape-font-specification:'Palatino Linotype';writing-mode:lr-tb;fill:#000000;fill-opacity:1;fill-rule:nonzero;stroke:none"
           id="text34"><tspan
             x="0 3.9480481 9.8167677"
             y="0"
             sodipodi:role="line"
             id="tspan36">-4%</tspan></text>
</g></g><g
       id="g38"><g
         id="g40"
         clip-path="url(#clipPath42)"><text
           transform="matrix(1,0,0,-1,63.456,321.53)"
           style="font-variant:normal;font-weight:normal;font-size:11.85599995px;font-family:'Palatino Linotype';-inkscape-font-specification:'Palatino Linotype';writing-mode:lr-tb;fill:#000000;fill-opacity:1;fill-rule:nonzero;stroke:none"
           id="text46"><tspan
             x="0 3.9480481 9.8167677"
             y="0"
             sodipodi:role="line"
             id="tspan48">-2%</tspan></text>
</g></g><g
       id="g50"><g
         id="g52"
         clip-path="url(#clipPath54)"><text
           transform="matrix(1,0,0,-1,67.392,345.24)"
           style="font-variant:normal;font-weight:normal;font-size:11.85599995px;font-family:'Palatino Linotype';-inkscape-font-specification:'Palatino Linotype';writing-mode:lr-tb;fill:#000000;fill-opacity:1;fill-rule:nonzero;stroke:none"
           id="text58"><tspan
             x="0 6.0240002"
             y="0"
             sodipodi:role="line"
             id="tspan60">0%</tspan></text>
</g></g><g
       id="g62"><g
         id="g64"
         clip-path="url(#clipPath66)"><text
           transform="matrix(1,0,0,-1,67.392,368.95)"
           style="font-variant:normal;font-weight:normal;font-size:11.85599995px;font-family:'Palatino Linotype';-inkscape-font-specification:'Palatino Linotype';writing-mode:lr-tb;fill:#000000;fill-opacity:1;fill-rule:nonzero;stroke:none"
           id="text70"><tspan
             x="0 6.0240002"
             y="0"
             sodipodi:role="line"
             id="tspan72">2%</tspan></text>
</g></g><g
       id="g74"><g
         id="g76"
         clip-path="url(#clipPath78)"><text
           transform="matrix(1,0,0,-1,67.392,392.64)"
           style="font-variant:normal;font-weight:normal;font-size:11.85599995px;font-family:'Palatino Linotype';-inkscape-font-specification:'Palatino Linotype';writing-mode:lr-tb;fill:#000000;fill-opacity:1;fill-rule:nonzero;stroke:none"
           id="text82"><tspan
             x="0 6.0240002"
             y="0"
             sodipodi:role="line"
             id="tspan84">4%</tspan></text>
</g></g><g
       id="g86"><g
         id="g88"
         clip-path="url(#clipPath90)"><text
           transform="matrix(1,0,0,-1,67.392,416.35)"
           style="font-variant:normal;font-weight:normal;font-size:11.85599995px;font-family:'Palatino Linotype';-inkscape-font-specification:'Palatino Linotype';writing-mode:lr-tb;fill:#000000;fill-opacity:1;fill-rule:nonzero;stroke:none"
           id="text94"><tspan
             x="0 6.0240002"
             y="0"
             sodipodi:role="line"
             id="tspan96">6%</tspan></text>
</g></g><g
       id="g98"><g
         id="g100"
         clip-path="url(#clipPath102)"><text
           transform="matrix(1,0,0,-1,67.392,440.06)"
           style="font-variant:normal;font-weight:normal;font-size:11.85599995px;font-family:'Palatino Linotype';-inkscape-font-specification:'Palatino Linotype';writing-mode:lr-tb;fill:#000000;fill-opacity:1;fill-rule:nonzero;stroke:none"
           id="text106"><tspan
             x="0 6.0240002"
             y="0"
             sodipodi:role="line"
             id="tspan108">8%</tspan></text>
</g></g><g
       id="g110"><g
         id="g112"
         clip-path="url(#clipPath114)"><text
           transform="matrix(1,0,0,-1,61.464,463.75)"
           style="font-variant:normal;font-weight:normal;font-size:11.85599995px;font-family:'Palatino Linotype';-inkscape-font-specification:'Palatino Linotype';writing-mode:lr-tb;fill:#000000;fill-opacity:1;fill-rule:nonzero;stroke:none"
           id="text118"><tspan
             x="0 6.0109921 11.867856"
             y="0"
             sodipodi:role="line"
             id="tspan120">10%</tspan></text>
</g></g><g
       id="g122"><g
         id="g124"
         clip-path="url(#clipPath126)"><text
           transform="matrix(1,0,0,-1,61.464,487.46)"
           style="font-variant:normal;font-weight:normal;font-size:11.85599995px;font-family:'Palatino Linotype';-inkscape-font-specification:'Palatino Linotype';writing-mode:lr-tb;fill:#000000;fill-opacity:1;fill-rule:nonzero;stroke:none"
           id="text130"><tspan
             x="0 6.0109921 11.867856"
             y="0"
             sodipodi:role="line"
             id="tspan132">12%</tspan></text>
</g></g><g
       id="g134"><g
         id="g136"
         clip-path="url(#clipPath138)"><text
           transform="matrix(1,0,0,-1,115.2,327.91)"
           style="font-variant:normal;font-weight:normal;font-size:11.88000011px;font-family:'Palatino Linotype';-inkscape-font-specification:'Palatino Linotype';writing-mode:lr-tb;fill:#000000;fill-opacity:1;fill-rule:nonzero;stroke:none"
           id="text142"><tspan
             x="0"
             y="0"
             id="tspan144">1</tspan></text>
</g></g><g
       id="g146"><g
         id="g148"
         clip-path="url(#clipPath150)"><text
           transform="matrix(1,0,0,-1,160.66,327.91)"
           style="font-variant:normal;font-weight:normal;font-size:11.88000011px;font-family:'Palatino Linotype';-inkscape-font-specification:'Palatino Linotype';writing-mode:lr-tb;fill:#000000;fill-opacity:1;fill-rule:nonzero;stroke:none"
           id="text154"><tspan
             x="0"
             y="0"
             id="tspan156">2</tspan></text>
</g></g><g
       id="g158"><g
         id="g160"
         clip-path="url(#clipPath162)"><text
           transform="matrix(1,0,0,-1,206.09,327.91)"
           style="font-variant:normal;font-weight:normal;font-size:11.88000011px;font-family:'Palatino Linotype';-inkscape-font-specification:'Palatino Linotype';writing-mode:lr-tb;fill:#000000;fill-opacity:1;fill-rule:nonzero;stroke:none"
           id="text166"><tspan
             x="0"
             y="0"
             id="tspan168">3</tspan></text>
</g></g><g
       id="g170"><g
         id="g172"
         clip-path="url(#clipPath174)"><text
           transform="matrix(1,0,0,-1,251.52,327.91)"
           style="font-variant:normal;font-weight:normal;font-size:11.88000011px;font-family:'Palatino Linotype';-inkscape-font-specification:'Palatino Linotype';writing-mode:lr-tb;fill:#000000;fill-opacity:1;fill-rule:nonzero;stroke:none"
           id="text178"><tspan
             x="0"
             y="0"
             id="tspan180">4</tspan></text>
</g></g><g
       id="g182"><g
         id="g184"
         clip-path="url(#clipPath186)"><text
           transform="matrix(1,0,0,-1,296.95,327.91)"
           style="font-variant:normal;font-weight:normal;font-size:11.88000011px;font-family:'Palatino Linotype';-inkscape-font-specification:'Palatino Linotype';writing-mode:lr-tb;fill:#000000;fill-opacity:1;fill-rule:nonzero;stroke:none"
           id="text190"><tspan
             x="0"
             y="0"
             id="tspan192">5</tspan></text>
</g></g><g
       id="g194"><g
         id="g196"
         clip-path="url(#clipPath198)"><text
           transform="matrix(1,0,0,-1,342.41,327.91)"
           style="font-variant:normal;font-weight:normal;font-size:11.88000011px;font-family:'Palatino Linotype';-inkscape-font-specification:'Palatino Linotype';writing-mode:lr-tb;fill:#000000;fill-opacity:1;fill-rule:nonzero;stroke:none"
           id="text202"><tspan
             x="0"
             y="0"
             id="tspan204">6</tspan></text>
</g></g><g
       id="g206"><g
         id="g208"
         clip-path="url(#clipPath210)"><text
           transform="matrix(1,0,0,-1,387.84,327.91)"
           style="font-variant:normal;font-weight:normal;font-size:11.88000011px;font-family:'Palatino Linotype';-inkscape-font-specification:'Palatino Linotype';writing-mode:lr-tb;fill:#000000;fill-opacity:1;fill-rule:nonzero;stroke:none"
           id="text214"><tspan
             x="0"
             y="0"
             id="tspan216">7</tspan></text>
</g></g><g
       id="g218"><g
         id="g220"
         clip-path="url(#clipPath222)"><text
           transform="matrix(1,0,0,-1,433.27,327.91)"
           style="font-variant:normal;font-weight:normal;font-size:11.88000011px;font-family:'Palatino Linotype';-inkscape-font-specification:'Palatino Linotype';writing-mode:lr-tb;fill:#000000;fill-opacity:1;fill-rule:nonzero;stroke:none"
           id="text226"><tspan
             x="0"
             y="0"
             id="tspan228">8</tspan></text>
</g></g><g
       id="g230"><g
         id="g232"
         clip-path="url(#clipPath234)"><text
           transform="matrix(1,0,0,-1,478.73,327.91)"
           style="font-variant:normal;font-weight:normal;font-size:11.88000011px;font-family:'Palatino Linotype';-inkscape-font-specification:'Palatino Linotype';writing-mode:lr-tb;fill:#000000;fill-opacity:1;fill-rule:nonzero;stroke:none"
           id="text238"><tspan
             x="0"
             y="0"
             id="tspan240">9</tspan></text>
</g></g><g
       id="g242"><g
         id="g244"
         clip-path="url(#clipPath246)"><text
           transform="matrix(1,0,0,-1,521.18,327.91)"
           style="font-variant:normal;font-weight:normal;font-size:11.88000011px;font-family:'Palatino Linotype';-inkscape-font-specification:'Palatino Linotype';writing-mode:lr-tb;fill:#000000;fill-opacity:1;fill-rule:nonzero;stroke:none"
           id="text250"><tspan
             x="0 6.0240002"
             y="0"
             sodipodi:role="line"
             id="tspan252">10</tspan></text>
</g></g><g
       id="g254"><g
         id="g256"
         clip-path="url(#clipPath258)"><text
           transform="matrix(1,0,0,-1,130.3,520.34)"
           style="font-variant:normal;font-weight:normal;font-size:15.81599998px;font-family:'Palatino Linotype';-inkscape-font-specification:'Palatino Linotype';writing-mode:lr-tb;fill:#000000;fill-opacity:1;fill-rule:nonzero;stroke:none"
           id="text262"><tspan
             x="0 11.213544 20.418455 28.326456 37.468105 46.30925 53.885113 60.512016 64.466019 68.862862 78.06778 82.290649 87.478294 96.683205 104.25907 108.02328 119.23682 129.80191 139.35478 147.65817 151.61218 158.63448 167.27002 181.23555 190.67769 199.34486 208.54977 216.12564 225.26729 230.45494 237.08183 241.03584 246.2235 254.89066 261.18542 265.13943 270.29544 279.50037 287.0762 290.87207 300.53564 304.9325 310.13596 315.33942 322.91528 329.22586 336.80173 346.00662 351.16266"
             y="0"
             sodipodi:role="line"
             id="tspan264">Changes in the CRPS components for the different </tspan></text>
</g></g><path
       d="m 185.35,282.83 7.2013,0 0,7.2013 -7.2013,0 0,-7.2013 z"
       style="fill:#44546a;fill-opacity:1;fill-rule:evenodd;stroke:none"
       id="path338"
       inkscape:connector-curvature="0" /><g
       id="g340"><g
         id="g342"
         clip-path="url(#clipPath344)"><text
           transform="matrix(1,0,0,-1,195.7,282.89)"
           style="font-variant:normal;font-weight:normal;font-size:11.85599995px;font-family:'Palatino Linotype';-inkscape-font-specification:'Palatino Linotype';writing-mode:lr-tb;fill:#000000;fill-opacity:1;fill-rule:nonzero;stroke:none"
           id="text348"><tspan
             x="0 7.2558718 15.661776 23.546017 30.64776 36.812881 39.966576 45.953857 51.158642 56.363422 63.465168 68.183853 74.171135 79.375923 86.015282 88.848862 97.254768"
             y="0"
             sodipodi:role="line"
             id="tspan350">∆CRPS accuracy CP</tspan></text>
</g></g><path
       d="m 310.69,282.83 7.2013,0 0,7.2013 -7.2013,0 0,-7.2013 z"
       style="fill:#5b9bd5;fill-opacity:1;fill-rule:evenodd;stroke:none"
       id="path352"
       inkscape:connector-curvature="0" /><g
       id="g354"><g
         id="g356"
         clip-path="url(#clipPath358)"><text
           transform="matrix(1,0,0,-1,321.05,282.89)"
           style="font-variant:normal;font-weight:normal;font-size:11.85599995px;font-family:'Palatino Linotype';-inkscape-font-specification:'Palatino Linotype';writing-mode:lr-tb;fill:#000000;fill-opacity:1;fill-rule:nonzero;stroke:none"
           id="text362"><tspan
             x="0 7.2558718 15.661776 23.581585 30.742607 36.884014 40.037712 46.048702 51.312767 56.517551 63.666721 68.385406 74.3964 79.660461 86.252403 89.133408 97.693443"
             y="0"
             sodipodi:role="line"
             id="tspan364">∆CRPS accuracy VP</tspan></text>
</g></g><path
       d="m 185.35,259.08 7.2013,0 0,7.2013 -7.2013,0 0,-7.2013 z"
       style="fill:#ed7d31;fill-opacity:1;fill-rule:evenodd;stroke:none"
       id="path366"
       inkscape:connector-curvature="0" /><g
       id="g368"><g
         id="g370"
         clip-path="url(#clipPath372)"><text
           transform="matrix(1,0,0,-1,195.7,259.15)"
           style="font-variant:normal;font-weight:normal;font-size:11.88000011px;font-family:'Palatino Linotype';-inkscape-font-specification:'Palatino Linotype';writing-mode:lr-tb;fill:#000000;fill-opacity:1;fill-rule:nonzero;stroke:none"
           id="text376"><tspan
             x="0 7.2705598 15.64596 23.54616 30.6504 36.81612 39.9762 45.013321 51.986881 57.9744 62.667 69.806877 76.756683 82.447197 87.484322 92.557083 95.075638 103.45104"
             y="0"
             sodipodi:role="line"
             id="tspan378">∆CRPS sharpness CP</tspan></text>
</g></g><path
       d="m 310.69,259.08 7.2013,0 0,7.2013 -7.2013,0 0,-7.2013 z"
       style="fill:#ffc000;fill-opacity:1;fill-rule:evenodd;stroke:none"
       id="path380"
       inkscape:connector-curvature="0" /><g
       id="g382"><g
         id="g384"
         clip-path="url(#clipPath386)"><text
           transform="matrix(1,0,0,-1,321.05,259.15)"
           style="font-variant:normal;font-weight:normal;font-size:11.88000011px;font-family:'Palatino Linotype';-inkscape-font-specification:'Palatino Linotype';writing-mode:lr-tb;fill:#000000;fill-opacity:1;fill-rule:nonzero;stroke:none"
           id="text390"><tspan
             x="0 7.2705598 15.69348 23.593679 30.72168 36.887402 40.047482 45.084599 52.058159 58.069439 62.809559 69.94944 76.863602 82.601639 87.638763 92.723396 95.265717 103.84308"
             y="0"
             sodipodi:role="line"
             id="tspan392">∆CRPS sharpness VP</tspan></text>
</g></g><text
       xml:space="preserve"
       style="font-style:normal;font-weight:normal;font-size:16px;line-height:125%;font-family:sans-serif;letter-spacing:0px;word-spacing:0px;fill:#000000;fill-opacity:1;stroke:none;stroke-width:1px;stroke-linecap:butt;stroke-linejoin:miter;stroke-opacity:1"
       x="142.86972"
       y="-499.0415"
       id="text4325"
       sodipodi:linespacing="125%"
       transform="scale(1,-1)"><tspan
         sodipodi:role="line"
         id="tspan4327"
         x="142.86972"
         y="-499.0415"
         style="font-style:normal;font-variant:normal;font-weight:normal;font-stretch:normal;font-size:15.80000019px;font-family:'Palatino Linotype';-inkscape-font-specification:'Palatino Linotype'">regions, method 4Zo-4MIo relatively to 2Z-2MIo</tspan></text>
</g></svg>