<?xml version="1.0" encoding="UTF-8" standalone="no"?>
<!-- Created with Inkscape (http://www.inkscape.org/) -->

<svg
   xmlns:dc="http://purl.org/dc/elements/1.1/"
   xmlns:cc="http://creativecommons.org/ns#"
   xmlns:rdf="http://www.w3.org/1999/02/22-rdf-syntax-ns#"
   xmlns:svg="http://www.w3.org/2000/svg"
   xmlns="http://www.w3.org/2000/svg"
   xmlns:sodipodi="http://sodipodi.sourceforge.net/DTD/sodipodi-0.dtd"
   xmlns:inkscape="http://www.inkscape.org/namespaces/inkscape"
   id="svg4136"
   version="1.1"
   inkscape:version="0.91 r13725"
   xml:space="preserve"
   width="744.00024"
   height="1052.1005"
   viewBox="0 0 744.00024 1052.1005"
   sodipodi:docname="figure_increasing_nb_levels.svg"><metadata
     id="metadata4142"><rdf:RDF><cc:Work
         rdf:about=""><dc:format>image/svg+xml</dc:format><dc:type
           rdf:resource="http://purl.org/dc/dcmitype/StillImage" /><dc:title /></cc:Work></rdf:RDF></metadata><defs
     id="defs4140"><clipPath
       clipPathUnits="userSpaceOnUse"
       id="clipPath4150"><path
         d="m 39.48,756.12 464.4,0 0,13.56 -464.4,0 0,-13.56 z"
         id="path4152"
         inkscape:connector-curvature="0" /></clipPath><clipPath
       clipPathUnits="userSpaceOnUse"
       id="clipPath4194"><path
         d="m 39.48,741.6 464.4,0 0,13.56 -464.4,0 0,-13.56 z"
         id="path4196"
         inkscape:connector-curvature="0" /></clipPath><clipPath
       clipPathUnits="userSpaceOnUse"
       id="clipPath4238"><path
         d="m 39.48,727.08 464.4,0 0,13.559 -464.4,0 0,-13.559 z"
         id="path4240"
         inkscape:connector-curvature="0" /></clipPath><clipPath
       clipPathUnits="userSpaceOnUse"
       id="clipPath4282"><path
         d="m 39.48,712.56 464.4,0 0,13.56 -464.4,0 0,-13.56 z"
         id="path4284"
         inkscape:connector-curvature="0" /></clipPath><clipPath
       clipPathUnits="userSpaceOnUse"
       id="clipPath4326"><path
         d="m 39.48,698.04 464.4,0 0,13.56 -464.4,0 0,-13.56 z"
         id="path4328"
         inkscape:connector-curvature="0" /></clipPath><clipPath
       clipPathUnits="userSpaceOnUse"
       id="clipPath4370"><path
         d="m 39.48,683.52 464.4,0 0,13.559 -464.4,0 0,-13.559 z"
         id="path4372"
         inkscape:connector-curvature="0" /></clipPath><clipPath
       clipPathUnits="userSpaceOnUse"
       id="clipPath4414"><path
         d="m 39.48,669 464.4,0 0,13.56 -464.4,0 0,-13.56 z"
         id="path4416"
         inkscape:connector-curvature="0" /></clipPath><clipPath
       clipPathUnits="userSpaceOnUse"
       id="clipPath4458"><path
         d="m 39.48,654.48 464.4,0 0,13.56 -464.4,0 0,-13.56 z"
         id="path4460"
         inkscape:connector-curvature="0" /></clipPath><clipPath
       clipPathUnits="userSpaceOnUse"
       id="clipPath4502"><path
         d="m 39.48,639.96 464.4,0 0,13.559 -464.4,0 0,-13.559 z"
         id="path4504"
         inkscape:connector-curvature="0" /></clipPath><clipPath
       clipPathUnits="userSpaceOnUse"
       id="clipPath4546"><path
         d="m 39.48,625.44 464.4,0 0,13.56 -464.4,0 0,-13.56 z"
         id="path4548"
         inkscape:connector-curvature="0" /></clipPath><clipPath
       clipPathUnits="userSpaceOnUse"
       id="clipPath4590"><path
         d="m 39.48,610.92 464.4,0 0,13.56 -464.4,0 0,-13.56 z"
         id="path4592"
         inkscape:connector-curvature="0" /></clipPath><clipPath
       clipPathUnits="userSpaceOnUse"
       id="clipPath4634"><path
         d="m 39.48,596.4 464.4,0 0,13.559 -464.4,0 0,-13.559 z"
         id="path4636"
         inkscape:connector-curvature="0" /></clipPath><clipPath
       clipPathUnits="userSpaceOnUse"
       id="clipPath4678"><path
         d="m 39.48,581.88 464.4,0 0,13.56 -464.4,0 0,-13.56 z"
         id="path4680"
         inkscape:connector-curvature="0" /></clipPath><clipPath
       clipPathUnits="userSpaceOnUse"
       id="clipPath4722"><path
         d="m 39.48,567.36 464.4,0 0,13.56 -464.4,0 0,-13.56 z"
         id="path4724"
         inkscape:connector-curvature="0" /></clipPath><clipPath
       clipPathUnits="userSpaceOnUse"
       id="clipPath4766"><path
         d="m 39.48,552.84 464.4,0 0,13.559 -464.4,0 0,-13.559 z"
         id="path4768"
         inkscape:connector-curvature="0" /></clipPath><clipPath
       clipPathUnits="userSpaceOnUse"
       id="clipPath4810"><path
         d="m 39.48,538.32 464.4,0 0,13.56 -464.4,0 0,-13.56 z"
         id="path4812"
         inkscape:connector-curvature="0" /></clipPath><clipPath
       clipPathUnits="userSpaceOnUse"
       id="clipPath4838"><path
         d="m 39.48,523.8 464.4,0 0,13.56 -464.4,0 0,-13.56 z"
         id="path4840"
         inkscape:connector-curvature="0" /></clipPath><clipPath
       clipPathUnits="userSpaceOnUse"
       id="clipPath4882"><path
         d="m 39.48,509.28 464.4,0 0,13.559 -464.4,0 0,-13.559 z"
         id="path4884"
         inkscape:connector-curvature="0" /></clipPath><clipPath
       clipPathUnits="userSpaceOnUse"
       id="clipPath4926"><path
         d="m 39.48,494.76 464.4,0 0,13.56 -464.4,0 0,-13.56 z"
         id="path4928"
         inkscape:connector-curvature="0" /></clipPath><clipPath
       clipPathUnits="userSpaceOnUse"
       id="clipPath4970"><path
         d="m 39.48,480.24 464.4,0 0,13.56 -464.4,0 0,-13.56 z"
         id="path4972"
         inkscape:connector-curvature="0" /></clipPath><clipPath
       clipPathUnits="userSpaceOnUse"
       id="clipPath5014"><path
         d="m 39.48,465.72 464.4,0 0,13.559 -464.4,0 0,-13.559 z"
         id="path5016"
         inkscape:connector-curvature="0" /></clipPath><clipPath
       clipPathUnits="userSpaceOnUse"
       id="clipPath5058"><path
         d="m 39.48,451.2 464.4,0 0,13.56 -464.4,0 0,-13.56 z"
         id="path5060"
         inkscape:connector-curvature="0" /></clipPath><clipPath
       clipPathUnits="userSpaceOnUse"
       id="clipPath5102"><path
         d="m 39.48,436.68 464.4,0 0,13.56 -464.4,0 0,-13.56 z"
         id="path5104"
         inkscape:connector-curvature="0" /></clipPath><clipPath
       clipPathUnits="userSpaceOnUse"
       id="clipPath5146"><path
         d="m 39.48,422.16 464.4,0 0,13.559 -464.4,0 0,-13.559 z"
         id="path5148"
         inkscape:connector-curvature="0" /></clipPath><clipPath
       clipPathUnits="userSpaceOnUse"
       id="clipPath5174"><path
         d="m 39.48,407.64 464.4,0 0,13.56 -464.4,0 0,-13.56 z"
         id="path5176"
         inkscape:connector-curvature="0" /></clipPath><clipPath
       clipPathUnits="userSpaceOnUse"
       id="clipPath5202"><path
         d="m 39.48,393.12 464.4,0 0,13.56 -464.4,0 0,-13.56 z"
         id="path5204"
         inkscape:connector-curvature="0" /></clipPath><clipPath
       clipPathUnits="userSpaceOnUse"
       id="clipPath5230"><path
         d="m 39.48,378.6 464.4,0 0,13.559 -464.4,0 0,-13.559 z"
         id="path5232"
         inkscape:connector-curvature="0" /></clipPath><clipPath
       clipPathUnits="userSpaceOnUse"
       id="clipPath5258"><path
         d="m 39.48,364.08 464.4,0 0,13.56 -464.4,0 0,-13.56 z"
         id="path5260"
         inkscape:connector-curvature="0" /></clipPath><clipPath
       clipPathUnits="userSpaceOnUse"
       id="clipPath5286"><path
         d="m 39.48,349.56 464.4,0 0,13.56 -464.4,0 0,-13.56 z"
         id="path5288"
         inkscape:connector-curvature="0" /></clipPath><clipPath
       clipPathUnits="userSpaceOnUse"
       id="clipPath5330"><path
         d="m 39.48,335.04 464.4,0 0,13.559 -464.4,0 0,-13.559 z"
         id="path5332"
         inkscape:connector-curvature="0" /></clipPath><clipPath
       clipPathUnits="userSpaceOnUse"
       id="clipPath5358"><path
         d="m 39.48,276.96 464.4,0 0,13.56 -464.4,0 0,-13.56 z"
         id="path5360"
         inkscape:connector-curvature="0" /></clipPath><clipPath
       clipPathUnits="userSpaceOnUse"
       id="clipPath5382"><path
         d="m 39.48,262.44 464.4,0 0,13.56 -464.4,0 0,-13.56 z"
         id="path5384"
         inkscape:connector-curvature="0" /></clipPath><clipPath
       clipPathUnits="userSpaceOnUse"
       id="clipPath5414"><path
         d="m 39.48,247.92 464.4,0 0,13.559 -464.4,0 0,-13.559 z"
         id="path5416"
         inkscape:connector-curvature="0" /></clipPath><clipPath
       clipPathUnits="userSpaceOnUse"
       id="clipPath5446"><path
         d="m 39.48,233.4 464.4,0 0,13.56 -464.4,0 0,-13.56 z"
         id="path5448"
         inkscape:connector-curvature="0" /></clipPath><clipPath
       clipPathUnits="userSpaceOnUse"
       id="clipPath5478"><path
         d="m 39.48,218.88 464.4,0 0,13.56 -464.4,0 0,-13.56 z"
         id="path5480"
         inkscape:connector-curvature="0" /></clipPath><clipPath
       clipPathUnits="userSpaceOnUse"
       id="clipPath5510"><path
         d="m 39.48,204.36 464.4,0 0,13.559 -464.4,0 0,-13.559 z"
         id="path5512"
         inkscape:connector-curvature="0" /></clipPath><clipPath
       clipPathUnits="userSpaceOnUse"
       id="clipPath5542"><path
         d="m 39.48,189.84 464.4,0 0,13.56 -464.4,0 0,-13.56 z"
         id="path5544"
         inkscape:connector-curvature="0" /></clipPath><clipPath
       clipPathUnits="userSpaceOnUse"
       id="clipPath5574"><path
         d="m 39.48,175.32 464.4,0 0,13.56 -464.4,0 0,-13.56 z"
         id="path5576"
         inkscape:connector-curvature="0" /></clipPath><clipPath
       clipPathUnits="userSpaceOnUse"
       id="clipPath5606"><path
         d="m 39.48,160.8 464.4,0 0,13.559 -464.4,0 0,-13.559 z"
         id="path5608"
         inkscape:connector-curvature="0" /></clipPath><clipPath
       clipPathUnits="userSpaceOnUse"
       id="clipPath5638"><path
         d="m 39.48,146.28 464.4,0 0,13.56 -464.4,0 0,-13.56 z"
         id="path5640"
         inkscape:connector-curvature="0" /></clipPath><clipPath
       clipPathUnits="userSpaceOnUse"
       id="clipPath5670"><path
         d="m 39.48,131.76 464.4,0 0,13.56 -464.4,0 0,-13.56 z"
         id="path5672"
         inkscape:connector-curvature="0" /></clipPath><clipPath
       clipPathUnits="userSpaceOnUse"
       id="clipPath5702"><path
         d="m 39.48,73.68 464.4,0 0,13.559 -464.4,0 0,-13.559 z"
         id="path5704"
         inkscape:connector-curvature="0" /></clipPath><clipPath
       clipPathUnits="userSpaceOnUse"
       id="clipPath5734"><path
         d="m 90.6,784.68 206.4,0 0,14.04 -206.4,0 0,-14.04 z"
         id="path5736"
         inkscape:connector-curvature="0" /></clipPath><clipPath
       clipPathUnits="userSpaceOnUse"
       id="clipPath5746"><path
         d="m 297,784.68 206.4,0 0,14.04 -206.4,0 0,-14.04 z"
         id="path5748"
         inkscape:connector-curvature="0" /></clipPath></defs><sodipodi:namedview
     pagecolor="#ffffff"
     bordercolor="#666666"
     borderopacity="1"
     objecttolerance="10"
     gridtolerance="10"
     guidetolerance="10"
     inkscape:pageopacity="0"
     inkscape:pageshadow="2"
     inkscape:window-width="1920"
     inkscape:window-height="1138"
     id="namedview4138"
     showgrid="false"
     inkscape:zoom="2.5620092"
     inkscape:cx="305.28479"
     inkscape:cy="732.55559"
     inkscape:window-x="-8"
     inkscape:window-y="-8"
     inkscape:window-maximized="1"
     inkscape:current-layer="g4144" /><g
     id="g4144"
     inkscape:groupmode="layer"
     inkscape:label="figure_increasing_nb_levels"
     transform="matrix(1.25,0,0,-1.25,14.95275,1067.0888)"><g
   id="g5762"
   transform="translate(107.0891,565.32)"><path
     d="M 0,0 329.166,0 M 0,20.04 l 329.166,0 M 0,40.08 l 329.166,0 M 0,60.12 l 329.166,0 M 0,80.16 l 329.166,0 M 0,100.2 l 329.166,0 M 0,120.12 l 329.166,0 M 0,140.194 l 329.166,0"
     style="fill:none;stroke:#dadada;stroke-width:0.75;stroke-linecap:butt;stroke-linejoin:round;stroke-miterlimit:10;stroke-dasharray:none;stroke-opacity:1"
     id="path5764"
     inkscape:connector-curvature="0" /></g><g
   id="g5766"
   transform="translate(107.0891,545.2973)"><path
     d="M 0,0 329.166,0"
     style="fill:none;stroke:#c0c0c0;stroke-width:0.75;stroke-linecap:butt;stroke-linejoin:round;stroke-miterlimit:10;stroke-dasharray:none;stroke-opacity:1"
     id="path5768"
     inkscape:connector-curvature="0" /></g><g
   id="g5770"
   transform="translate(123.5473,610.2059)"><path
     d="m 0,0 32.933,50.154 32.88,17.76 32.88,10.44 33,1.44 32.88,0.48 32.88,1.8 33,-1.32 32.88,3.941 32.916,-1.661"
     style="fill:none;stroke:#4472c4;stroke-width:1.5;stroke-linecap:round;stroke-linejoin:round;stroke-miterlimit:10;stroke-dasharray:4.5, 6;stroke-dashoffset:0;stroke-opacity:1"
     id="path5772"
     inkscape:connector-curvature="0" /></g><g
   id="g5774"
   transform="translate(123.5473,555.6227)"><path
     d="m 0,0 32.933,47.377 32.88,16.8 32.88,8.4 33,2.4 32.88,3.48 32.88,-0.72 33,1.772 32.88,-1.892 32.916,0.36"
     style="fill:none;stroke:#70ad47;stroke-width:1.5;stroke-linecap:round;stroke-linejoin:round;stroke-miterlimit:10;stroke-dasharray:4.5, 6;stroke-dashoffset:0;stroke-opacity:1"
     id="path5776"
     inkscape:connector-curvature="0" /></g><g
   id="g5778"
   transform="translate(123.5473,601.421)"><path
     d="m 0,0 32.933,36.379 32.88,11.64 32.88,8.04 33,5.4 32.88,4.44 32.88,1.012 33,-2.452 32.88,-4.2 32.916,2.04"
     style="fill:none;stroke:#ed7d31;stroke-width:1.5;stroke-linecap:round;stroke-linejoin:round;stroke-miterlimit:10;stroke-dasharray:4.5, 6;stroke-dashoffset:0;stroke-opacity:1"
     id="path5780"
     inkscape:connector-curvature="0" /></g><g
   id="g5782"
   transform="translate(123.5473,600.21)"><path
     d="m 0,0 32.933,38.43 32.88,23.64 32.88,5.28 33,-1.8 32.88,6.84 32.88,4.56 33,-4.44 32.88,6.429 32.916,-1.389"
     style="fill:none;stroke:#4472c4;stroke-width:1.5;stroke-linecap:round;stroke-linejoin:round;stroke-miterlimit:10;stroke-dasharray:none;stroke-opacity:1"
     id="path5784"
     inkscape:connector-curvature="0" /></g><g
   id="g5786"
   transform="translate(123.5473,575.4174)"><path
     d="m 0,0 32.933,45.703 32.88,19.32 32.88,12.24 33,-1.08 32.88,4.8 32.88,0.694 33,-5.374 32.88,0.6 32.916,-0.72"
     style="fill:none;stroke:#70ad47;stroke-width:1.5;stroke-linecap:round;stroke-linejoin:round;stroke-miterlimit:10;stroke-dasharray:none;stroke-opacity:1"
     id="path5788"
     inkscape:connector-curvature="0" /></g><g
   id="g5790"
   transform="translate(123.5473,642.6545)"><path
     d="m 0,0 32.933,21.546 32.88,6.72 32.88,11.52 33,2.64 32.88,11.858 32.88,-1.658 33,-2.88 32.88,3.72 32.916,-3.48"
     style="fill:none;stroke:#ed7d31;stroke-width:1.5;stroke-linecap:round;stroke-linejoin:round;stroke-miterlimit:10;stroke-dasharray:none;stroke-opacity:1"
     id="path5792"
     inkscape:connector-curvature="0" /></g><text
   transform="matrix(1,0,0,-1,82.1165,542.6748)"
   style="font-variant:normal;font-weight:normal;font-stretch:normal;font-size:9px;font-family:'Palatino Linotype';-inkscape-font-specification:PalatinoLinotype-Roman;writing-mode:lr-tb;fill:#000000;fill-opacity:1;fill-rule:nonzero;stroke:none"
   id="text5794"><tspan
     x="0 4.5630002 6.723 11.286"
     y="0"
     sodipodi:role="line"
     id="tspan5796">0.26</tspan><tspan
     x="0 4.5630002 6.723 11.286"
     y="-20.025"
     sodipodi:role="line"
     id="tspan5798">0.28</tspan><tspan
     x="0 4.5630002 6.723 11.286"
     y="-40.049999"
     sodipodi:role="line"
     id="tspan5800">0.30</tspan><tspan
     x="0 4.5630002 6.723 11.286"
     y="-60.075001"
     sodipodi:role="line"
     id="tspan5802">0.32</tspan><tspan
     x="0 4.5630002 6.723 11.286"
     y="-80.099998"
     sodipodi:role="line"
     id="tspan5804">0.34</tspan><tspan
     x="0 4.5630002 6.7220998 11.2851"
     y="-100.125"
     sodipodi:role="line"
     id="tspan5806">0.36</tspan><tspan
     x="0 4.5630002 6.7220998 11.2851"
     y="-120.15"
     sodipodi:role="line"
     id="tspan5808">0.38</tspan><tspan
     x="0 4.5630002 6.7220998 11.2851"
     y="-140.175"
     sodipodi:role="line"
     id="tspan5810">0.40</tspan><tspan
     x="0 4.5630002 6.7220998 11.2851"
     y="-160.2"
     sodipodi:role="line"
     id="tspan5812">0.42</tspan><tspan
     x="39.176998 72.089996 105.003 137.916 170.82899 203.742 236.655 269.56799 302.48099 333.14401 337.707"
     y="13.176"
     sodipodi:role="line"
     id="tspan5814">12345678910</tspan></text>

<text
   transform="matrix(0,1,1,0,76.1815,610.3108)"
   style="font-variant:normal;font-weight:normal;font-stretch:normal;font-size:9.96000004px;font-family:'Palatino Linotype';-inkscape-font-specification:PalatinoLinotype-Roman;writing-mode:lr-tb;fill:#000000;fill-opacity:1;fill-rule:nonzero;stroke:none"
   id="text5816"><tspan
     x="0 7.080564 13.684044 19.683949 24.963743"
     y="0"
     sodipodi:role="line"
     id="tspan5818">CRPSS</tspan></text>

<text
   transform="matrix(1,0,0,-1,189.112,513.2923)"
   style="font-variant:normal;font-weight:normal;font-stretch:normal;font-size:9.96000004px;font-family:'Palatino Linotype';-inkscape-font-specification:PalatinoLinotype-Roman;writing-mode:lr-tb;fill:#000000;fill-opacity:1;fill-rule:nonzero;stroke:none"
   id="text5820"><tspan
     x="0 8.279748 14.279652 23.039473 28.439783 33.240505 37.204582 39.9645 45.484333 48.843842 51.244202 56.76403 61.564751 67.085579 73.084488 78.605316 81.845306 86.646027 92.405891 95.645882 98.645828 103.56508 106.56602 108.96638 114.72625 119.52697 122.52692 128.04675 133.80663 137.04761 139.68701 142.68697 147.48769 153.00751 157.80823 160.80818"
     y="0"
     sodipodi:role="line"
     id="tspan5822">Number of geopotential height levels</tspan></text>

<g
   id="g5894"
   transform="translate(72.635165,2.6717622)"><g
   transform="translate(218.202,592.8782)"
   id="g5824"><path
     inkscape:connector-curvature="0"
     id="path5826"
     style="fill:none;stroke:#4472c4;stroke-width:1.5;stroke-linecap:round;stroke-linejoin:round;stroke-miterlimit:10;stroke-dasharray:4.5, 6;stroke-dashoffset:0;stroke-opacity:1"
     d="M 0,0 25.2,0" /></g><text
   id="text5828"
   style="font-variant:normal;font-weight:normal;font-stretch:normal;font-size:9px;font-family:'Palatino Linotype';-inkscape-font-specification:PalatinoLinotype-Roman;writing-mode:lr-tb;fill:#000000;fill-opacity:1;fill-rule:nonzero;stroke:none"
   transform="matrix(1,0,0,-1,246.177,590.2557)"><tspan
     id="tspan5830"
     sodipodi:role="line"
     y="0"
     x="0 3.5999999 7.9200001 12.843 15.1227 19.683001 21.843 28.2033">reg 1 CP</tspan></text>

</g><g
   id="g5900"
   transform="translate(-0.076135,-17.359159)"><g
   transform="translate(290.9133,592.8782)"
   id="g5832"><path
     inkscape:connector-curvature="0"
     id="path5834"
     style="fill:none;stroke:#70ad47;stroke-width:1.5;stroke-linecap:round;stroke-linejoin:round;stroke-miterlimit:10;stroke-dasharray:4.5, 6;stroke-dashoffset:0;stroke-opacity:1"
     d="M 0,0 25.2,0" /></g><text
   id="text5836"
   style="font-variant:normal;font-weight:normal;font-stretch:normal;font-size:9px;font-family:'Palatino Linotype';-inkscape-font-specification:PalatinoLinotype-Roman;writing-mode:lr-tb;fill:#000000;fill-opacity:1;fill-rule:nonzero;stroke:none"
   transform="matrix(1,0,0,-1,318.8883,590.2557)"><tspan
     id="tspan5838"
     sodipodi:role="line"
     y="0"
     x="0 3.5999999 7.9200001 12.843 15.1227 19.683001 21.843 28.2033">reg 5 CP</tspan></text>

</g><g
   id="g5906"
   transform="translate(-72.787435,-37.390083)"><g
   transform="translate(363.6246,592.8782)"
   id="g5840"><path
     inkscape:connector-curvature="0"
     id="path5842"
     style="fill:none;stroke:#ed7d31;stroke-width:1.5;stroke-linecap:round;stroke-linejoin:round;stroke-miterlimit:10;stroke-dasharray:4.5, 6;stroke-dashoffset:0;stroke-opacity:1"
     d="M 0,0 25.2,0" /></g><text
   id="text5844"
   style="font-variant:normal;font-weight:normal;font-stretch:normal;font-size:9px;font-family:'Palatino Linotype';-inkscape-font-specification:PalatinoLinotype-Roman;writing-mode:lr-tb;fill:#000000;fill-opacity:1;fill-rule:nonzero;stroke:none"
   transform="matrix(1,0,0,-1,391.5995,590.2557)"><tspan
     id="tspan5846"
     sodipodi:role="line"
     y="0"
     x="0 3.5999999 7.9200001 12.843 15.1227 19.683001 21.843 28.2033">reg 8 CP</tspan></text>

</g><g
   id="g5888"
   transform="translate(143.73198,19.439199)"><g
   transform="translate(218.202,576.1614)"
   id="g5848"><path
     inkscape:connector-curvature="0"
     id="path5850"
     style="fill:none;stroke:#4472c4;stroke-width:1.5;stroke-linecap:round;stroke-linejoin:round;stroke-miterlimit:10;stroke-dasharray:none;stroke-opacity:1"
     d="M 0,0 25.2,0" /></g><text
   id="text5852"
   style="font-variant:normal;font-weight:normal;font-stretch:normal;font-size:9px;font-family:'Palatino Linotype';-inkscape-font-specification:PalatinoLinotype-Roman;writing-mode:lr-tb;fill:#000000;fill-opacity:1;fill-rule:nonzero;stroke:none"
   transform="matrix(1,0,0,-1,246.177,573.5388)"><tspan
     id="tspan5854"
     sodipodi:role="line"
     y="0"
     x="0 3.5999999 7.9200001 12.843 15.1227 19.683001 21.843 28.323">reg 1 VP</tspan></text>

</g><g
   id="g5882"
   transform="translate(71.020683,-0.58072853)"><g
   transform="translate(290.9133,576.1614)"
   id="g5856"><path
     inkscape:connector-curvature="0"
     id="path5858"
     style="fill:none;stroke:#70ad47;stroke-width:1.5;stroke-linecap:round;stroke-linejoin:round;stroke-miterlimit:10;stroke-dasharray:none;stroke-opacity:1"
     d="M 0,0 25.2,0" /></g><text
   id="text5860"
   style="font-variant:normal;font-weight:normal;font-stretch:normal;font-size:9px;font-family:'Palatino Linotype';-inkscape-font-specification:PalatinoLinotype-Roman;writing-mode:lr-tb;fill:#000000;fill-opacity:1;fill-rule:nonzero;stroke:none"
   transform="matrix(1,0,0,-1,318.8883,573.5388)"><tspan
     id="tspan5862"
     sodipodi:role="line"
     y="0"
     x="0 3.5999999 7.9200001 12.843 15.1227 19.683001 21.843 28.323">reg 5 VP</tspan></text>

</g><g
   id="g5864"
   transform="translate(363.6246,576.1614)" /><g
   id="g5877"
   transform="translate(-1.6906171,-20.611659)"><path
   inkscape:connector-curvature="0"
   id="path5866"
   style="fill:none;stroke:#ed7d31;stroke-width:1.5;stroke-linecap:round;stroke-linejoin:round;stroke-miterlimit:10;stroke-dasharray:none;stroke-opacity:1"
   d="M 0,0 25.2,0"
   transform="translate(363.6246,576.1614)" /><text
   id="text5868"
   style="font-variant:normal;font-weight:normal;font-stretch:normal;font-size:9px;font-family:'Palatino Linotype';-inkscape-font-specification:PalatinoLinotype-Roman;writing-mode:lr-tb;fill:#000000;fill-opacity:1;fill-rule:nonzero;stroke:none"
   transform="matrix(1,0,0,-1,391.5995,573.5388)"><tspan
     id="tspan5870"
     sodipodi:role="line"
     y="0"
     x="0 3.5999999 7.9200001 12.843 15.1227 19.683001 21.843 28.323">reg 8 VP</tspan></text>

</g><rect
   style="color:#000000;clip-rule:nonzero;display:inline;overflow:visible;visibility:visible;opacity:1;isolation:auto;mix-blend-mode:normal;color-interpolation:sRGB;color-interpolation-filters:linearRGB;solid-color:#000000;solid-opacity:1;fill:#000000;fill-opacity:0.2;fill-rule:nonzero;stroke:none;stroke-width:0.80000001;stroke-linecap:round;stroke-linejoin:round;stroke-miterlimit:4;stroke-dasharray:none;stroke-dashoffset:0;stroke-opacity:1;marker:none;color-rendering:auto;image-rendering:auto;shape-rendering:auto;text-rendering:auto;enable-background:accumulate"
   id="rect5874"
   width="18.546997"
   height="189.36856"
   x="213.25133"
   y="-714.12695"
   transform="scale(1,-1)" /></g></svg>