<?xml version="1.0" encoding="UTF-8" standalone="no"?>
<!-- Created with Inkscape (http://www.inkscape.org/) -->

<svg
   xmlns:dc="http://purl.org/dc/elements/1.1/"
   xmlns:cc="http://creativecommons.org/ns#"
   xmlns:rdf="http://www.w3.org/1999/02/22-rdf-syntax-ns#"
   xmlns:svg="http://www.w3.org/2000/svg"
   xmlns="http://www.w3.org/2000/svg"
   xmlns:sodipodi="http://sodipodi.sourceforge.net/DTD/sodipodi-0.dtd"
   xmlns:inkscape="http://www.inkscape.org/namespaces/inkscape"
   id="svg4136"
   version="1.1"
   inkscape:version="0.92.1 r15371"
   xml:space="preserve"
   width="310.83511"
   height="184.86214"
   viewBox="0 0 291.40793 173.30826"
   sodipodi:docname="figure_crpss_4Zo-2MIo.svg"><metadata
     id="metadata4142"><rdf:RDF><cc:Work
         rdf:about=""><dc:format>image/svg+xml</dc:format><dc:type
           rdf:resource="http://purl.org/dc/dcmitype/StillImage" /><dc:title /></cc:Work></rdf:RDF></metadata><defs
     id="defs4140"><clipPath
       clipPathUnits="userSpaceOnUse"
       id="clipPath4248"><path
         d="m 72.48,524.16 h 67.2 v 9.48 h -67.2 z"
         id="path4250"
         inkscape:connector-curvature="0" /></clipPath><clipPath
       clipPathUnits="userSpaceOnUse"
       id="clipPath4260"><path
         d="m 139.68,524.16 h 67.2 v 9.48 h -67.2 z"
         id="path4262"
         inkscape:connector-curvature="0" /></clipPath><clipPath
       clipPathUnits="userSpaceOnUse"
       id="clipPath4272"><path
         d="m 72.48,277.68 h 67.2 v 9.481 h -67.2 z"
         id="path4274"
         inkscape:connector-curvature="0" /></clipPath><clipPath
       clipPathUnits="userSpaceOnUse"
       id="clipPath4284"><path
         d="m 139.68,277.68 h 67.2 v 9.481 h -67.2 z"
         id="path4286"
         inkscape:connector-curvature="0" /></clipPath></defs><sodipodi:namedview
     pagecolor="#ffffff"
     bordercolor="#666666"
     borderopacity="1"
     objecttolerance="10"
     gridtolerance="10"
     guidetolerance="10"
     inkscape:pageopacity="0"
     inkscape:pageshadow="2"
     inkscape:window-width="1423"
     inkscape:window-height="979"
     id="namedview4138"
     showgrid="false"
     inkscape:zoom="1.8114865"
     inkscape:cx="182.45498"
     inkscape:cy="90.775401"
     inkscape:window-x="289"
     inkscape:window-y="48"
     inkscape:window-maximized="0"
     inkscape:current-layer="g4144"
     fit-margin-top="0"
     fit-margin-left="0"
     fit-margin-right="0"
     fit-margin-bottom="0" /><g
     id="g4144"
     inkscape:groupmode="layer"
     inkscape:label="scores"
     transform="matrix(1.25,0,0,-1.25,-313.93132,386.23074)">





<g
   id="g4368"
   transform="translate(273.0484,204.42)"
   style=""><path
     d="M 0,0 H 211.223 M 0,11.31 H 211.223 M 0,22.698 H 211.223 M 0,34.086 H 211.223 M 0,45.396 H 211.223 M 0,56.784 H 211.223 M 0,68.172 H 211.223 M 0,79.482 H 211.223 M 0,90.87 H 211.223 M 0,102.246 h 211.223"
     style="fill:none;stroke:#dadada;stroke-width:0.48800001;stroke-linecap:butt;stroke-linejoin:round;stroke-miterlimit:10;stroke-dasharray:none;stroke-opacity:1"
     id="path4370"
     inkscape:connector-curvature="0" /></g><path
   d="m 275.52,276.57 h 4.056 v -83.531 h -4.056 z m 21.06,-14.196 h 4.056 v -69.335 h -4.056 z m 21.138,-9.126 h 4.056 v -60.209 h -4.056 z m 21.138,-24.96 h 4.056 v -35.249 h -4.056 z m 21.138,11.934 h 4.056 v -47.183 h -4.056 z m 21.138,13.572 h 4.056 v -60.755 h -4.056 z m 21.06,-48.282 h 4.056 v -12.473 h -4.056 z m 21.138,33.54 h 4.056 v -46.013 h -4.056 z m 21.138,-5.07 h 4.056 v -40.943 h -4.056 z m 21.138,26.13 h 4.056 v -67.073 h -4.056 z"
   style="fill:#bdd7ee;fill-opacity:1;fill-rule:nonzero;stroke:none"
   id="path4372"
   inkscape:connector-curvature="0" /><path
   d="m 279.576,303.792 h 4.056 V 193.039 h -4.056 z m 21.06,-17.316 h 4.134 v -93.437 h -4.134 z m 21.138,-5.694 h 4.056 v -87.743 h -4.056 z m 21.138,-30.108 h 4.056 v -57.635 h -4.056 z m 21.138,13.884 h 4.056 v -71.519 h -4.056 z m 21.138,13.416 h 4.056 v -84.935 h -4.056 z m 21.06,-40.56 h 4.134 v -44.375 h -4.134 z m 21.138,39.234 h 4.056 v -83.609 h -4.056 z m 21.138,-13.026 h 4.056 v -70.583 h -4.056 z m 21.138,23.946 h 4.056 v -94.529 h -4.056 z"
   style="fill:#2e75b6;fill-opacity:1;fill-rule:nonzero;stroke:none"
   id="path4374"
   inkscape:connector-curvature="0" /><path
   d="m 283.632,271.422 h 4.056 v -78.383 h -4.056 z m 21.138,-14.196 h 4.056 v -64.187 h -4.056 z m 21.06,-14.196 h 4.056 v -49.991 h -4.056 z m 21.138,-10.764 h 4.056 v -39.227 h -4.056 z m 21.138,28.938 h 4.056 v -68.165 h -4.056 z m 21.138,17.628 h 4.056 v -85.793 h -4.056 z m 21.138,-63.648 h 4.056 v -22.145 h -4.056 z m 21.06,45.474 h 4.056 v -67.619 h -4.056 z m 21.138,-34.632 h 4.056 v -32.987 h -4.056 z m 21.138,38.61 h 4.056 v -71.597 h -4.056 z"
   style="fill:#f8cbad;fill-opacity:1;fill-rule:nonzero;stroke:none"
   id="path4376"
   inkscape:connector-curvature="0" /><path
   d="m 287.688,293.964 h 4.056 V 193.039 h -4.056 z m 21.138,-16.848 h 4.056 v -84.077 h -4.056 z m 21.06,-10.452 h 4.056 v -73.625 h -4.056 z m 21.138,-14.352 h 4.056 v -59.273 h -4.056 z m 21.138,28.314 h 4.056 v -87.587 h -4.056 z m 21.138,17.472 h 4.056 V 193.039 H 393.3 Z m 21.138,-56.316 h 4.056 v -48.743 h -4.056 z m 21.06,48.282 h 4.056 v -97.025 h -4.056 z m 21.138,-36.66 h 4.056 v -60.365 h -4.056 z m 21.138,35.88 h 4.056 v -96.245 h -4.056 z"
   style="fill:#c55a11;fill-opacity:1;fill-rule:nonzero;stroke:none"
   id="path4378"
   inkscape:connector-curvature="0" /><g
   id="g4380"
   transform="translate(273.0484,193.0392)"
   style=""><path
     d="M 0,0 H 211.223"
     style="fill:none;stroke:#dadada;stroke-width:0.48800001;stroke-linecap:butt;stroke-linejoin:round;stroke-miterlimit:10;stroke-dasharray:none;stroke-opacity:1"
     id="path4382"
     inkscape:connector-curvature="0" /></g><text
   transform="matrix(1,0,0,-1,261.5108,191.1729)"
   style="font-variant:normal;font-weight:normal;font-stretch:normal;line-height:0%;font-family:Arial;-inkscape-font-specification:Arial;writing-mode:lr-tb;fill:#000000;fill-opacity:1;fill-rule:nonzero;stroke:none;font-style:normal;font-size:7.00000027px;"
   id="text4384"><tspan
     x="0 3.276"
     y="0"
     sodipodi:role="line"
     id="tspan4386"
     style="font-size:7.00000027px;line-height:1.25;-inkscape-font-specification:Arial;font-family:Arial;font-weight:normal;font-style:normal;font-stretch:normal;font-variant:normal;">26</tspan><tspan
     x="0 3.276"
     y="-11.3607"
     sodipodi:role="line"
     id="tspan4388"
     style="font-size:7.00000027px;line-height:1.25;-inkscape-font-specification:Arial;font-family:Arial;font-weight:normal;font-style:normal;font-stretch:normal;font-variant:normal;">28</tspan><tspan
     x="0 3.276"
     y="-22.721399"
     sodipodi:role="line"
     id="tspan4390"
     style="font-size:7.00000027px;line-height:1.25;-inkscape-font-specification:Arial;font-family:Arial;font-weight:normal;font-style:normal;font-stretch:normal;font-variant:normal;">30</tspan><tspan
     x="0 3.276"
     y="-34.0821"
     sodipodi:role="line"
     id="tspan4392"
     style="font-size:7.00000027px;line-height:1.25;-inkscape-font-specification:Arial;font-family:Arial;font-weight:normal;font-style:normal;font-stretch:normal;font-variant:normal;">32</tspan><tspan
     x="0 3.276"
     y="-45.442799"
     sodipodi:role="line"
     id="tspan4394"
     style="font-size:7.00000027px;line-height:1.25;-inkscape-font-specification:Arial;font-family:Arial;font-weight:normal;font-style:normal;font-stretch:normal;font-variant:normal;">34</tspan><tspan
     x="0 3.276"
     y="-56.803501"
     sodipodi:role="line"
     id="tspan4396"
     style="font-size:7.00000027px;line-height:1.25;-inkscape-font-specification:Arial;font-family:Arial;font-weight:normal;font-style:normal;font-stretch:normal;font-variant:normal;">36</tspan><tspan
     x="0 3.276"
     y="-68.1642"
     sodipodi:role="line"
     id="tspan4398"
     style="font-size:7.00000027px;line-height:1.25;-inkscape-font-specification:Arial;font-family:Arial;font-weight:normal;font-style:normal;font-stretch:normal;font-variant:normal;">38</tspan><tspan
     x="0 3.276"
     y="-79.524902"
     sodipodi:role="line"
     id="tspan4400"
     style="font-size:7.00000027px;line-height:1.25;-inkscape-font-specification:Arial;font-family:Arial;font-weight:normal;font-style:normal;font-stretch:normal;font-variant:normal;">40</tspan><tspan
     x="0 3.276"
     y="-90.885597"
     sodipodi:role="line"
     id="tspan4402"
     style="font-size:7.00000027px;line-height:1.25;-inkscape-font-specification:Arial;font-family:Arial;font-weight:normal;font-style:normal;font-stretch:normal;font-variant:normal;">42</tspan><tspan
     x="0 3.276"
     y="-102.2463"
     sodipodi:role="line"
     id="tspan4404"
     style="font-size:7.00000027px;line-height:1.25;-inkscape-font-specification:Arial;font-family:Arial;font-weight:normal;font-style:normal;font-stretch:normal;font-variant:normal;">44</tspan><tspan
     x="0 3.276"
     y="-113.607"
     sodipodi:role="line"
     id="tspan4406"
     style="font-size:7.00000027px;line-height:1.25;-inkscape-font-specification:Arial;font-family:Arial;font-weight:normal;font-style:normal;font-stretch:normal;font-variant:normal;">46</tspan><tspan
     x="20.469151 41.593498 62.71785 83.842201 104.96655 126.0909 147.21526 168.3396 189.46394 208.96201 212.23801"
     y="6.9849"
     sodipodi:role="line"
     id="tspan4408"
     style="font-size:7.00000027px;line-height:1.25;-inkscape-font-specification:Arial;font-family:Arial;font-weight:normal;font-style:normal;font-stretch:normal;font-variant:normal;">12345678910</tspan></text>



<text
   transform="matrix(0,1,1,0,0,0)"
   style="font-variant:normal;font-weight:normal;font-stretch:normal;line-height:0%;font-family:Arial;-inkscape-font-specification:Arial;writing-mode:lr-tb;fill:#000000;fill-opacity:1;fill-rule:nonzero;stroke:none;font-style:normal;font-size:7.00000027px;"
   id="text4410"
   x="229.80421"
   y="255.85831"><tspan
     x="229.80421 234.48427 239.16432 243.45659 247.74886 252.04111 253.98979 256.1741 261.94568"
     y="255.85831"
     sodipodi:role="line"
     id="tspan4412"
     style="font-size:7.00000027px;line-height:1.25;-inkscape-font-specification:Arial;font-family:Arial;font-weight:normal;font-style:normal;font-stretch:normal;font-variant:normal;">CRPSS (%)</tspan></text>















<path
   d="m 285.047,175.24509 h 2.94 v -2.94 h -2.94 z"
   style="fill:#bdd7ee;fill-opacity:1;fill-rule:evenodd;stroke:none;stroke-width:1"
   id="path4340"
   inkscape:connector-curvature="0" /><path
   d="m 330.836,175.24509 h 2.94 v -2.94 h -2.94 z"
   style="fill:#2e75b6;fill-opacity:1;fill-rule:evenodd;stroke:none;stroke-width:1"
   id="path4346"
   inkscape:connector-curvature="0" /><path
   d="m 384.378,175.24509 h 2.94 v -2.94 h -2.94 z"
   style="fill:#f8cbad;fill-opacity:1;fill-rule:evenodd;stroke:none;stroke-width:1"
   id="path4352"
   inkscape:connector-curvature="0" /><path
   d="m 429.845,175.24509 h 2.94 v -2.94 h -2.94 z"
   style="fill:#c55a11;fill-opacity:1;fill-rule:evenodd;stroke:none;stroke-width:1"
   id="path4358"
   inkscape:connector-curvature="0" /><text
   xml:space="preserve"
   style="font-style:normal;font-variant:normal;font-weight:normal;font-stretch:normal;font-size:7.00000027px;line-height:125%;font-family:Arial;-inkscape-font-specification:Arial;letter-spacing:0px;word-spacing:0px;fill:#000000;fill-opacity:1;stroke:none;stroke-width:0.75px;stroke-linecap:butt;stroke-linejoin:miter;stroke-opacity:1;"
   x="289.27524"
   y="-171.80173"
   id="text860"
   transform="scale(1,-1)"><tspan
     sodipodi:role="line"
     id="tspan858"
     x="289.27524"
     y="-171.80173"
     style="font-style:normal;font-variant:normal;font-weight:normal;font-stretch:normal;font-size:7.00000027px;font-family:Arial;-inkscape-font-specification:Arial;stroke-width:0.75px;">2Z-2MI CP</tspan></text>
<text
   xml:space="preserve"
   style="font-style:normal;font-variant:normal;font-weight:normal;font-stretch:normal;font-size:7.00000027px;line-height:125%;font-family:Arial;-inkscape-font-specification:Arial;letter-spacing:0px;word-spacing:0px;fill:#000000;fill-opacity:1;stroke:none;stroke-width:0.75px;stroke-linecap:butt;stroke-linejoin:miter;stroke-opacity:1;"
   x="334.94785"
   y="-171.89032"
   id="text860-7"
   transform="scale(1,-1)"><tspan
     sodipodi:role="line"
     id="tspan858-3"
     x="334.94785"
     y="-171.89032"
     style="font-style:normal;font-variant:normal;font-weight:normal;font-stretch:normal;font-size:7.00000027px;font-family:Arial;-inkscape-font-specification:Arial;stroke-width:0.75px;">4Zo-2MIo CP</tspan></text>
<text
   xml:space="preserve"
   style="font-style:normal;font-variant:normal;font-weight:normal;font-stretch:normal;font-size:7.00000027px;line-height:125%;font-family:Arial;-inkscape-font-specification:Arial;letter-spacing:0px;word-spacing:0px;fill:#000000;fill-opacity:1;stroke:none;stroke-width:0.75px;stroke-linecap:butt;stroke-linejoin:miter;stroke-opacity:1;"
   x="388.51816"
   y="-171.92569"
   id="text860-79"
   transform="scale(1,-1)"><tspan
     sodipodi:role="line"
     id="tspan858-2"
     x="388.51816"
     y="-171.92569"
     style="font-style:normal;font-variant:normal;font-weight:normal;font-stretch:normal;font-size:7.00000027px;font-family:Arial;-inkscape-font-specification:Arial;stroke-width:0.75px;">2Z-2MI VP</tspan></text>
<text
   xml:space="preserve"
   style="font-style:normal;font-variant:normal;font-weight:normal;font-stretch:normal;font-size:7.00000027px;line-height:125%;font-family:Arial;-inkscape-font-specification:Arial;letter-spacing:0px;word-spacing:0px;fill:#000000;fill-opacity:1;stroke:none;stroke-width:0.75px;stroke-linecap:butt;stroke-linejoin:miter;stroke-opacity:1;"
   x="433.97119"
   y="-171.86789"
   id="text860-7-1"
   transform="scale(1,-1)"><tspan
     sodipodi:role="line"
     id="tspan858-3-5"
     x="433.97119"
     y="-171.86789"
     style="font-style:normal;font-variant:normal;font-weight:normal;font-stretch:normal;font-size:7.00000027px;font-family:Arial;-inkscape-font-specification:Arial;stroke-width:0.75px;">4Zo-2MIo VP</tspan></text>
</g></svg>