<?xml version="1.0" encoding="UTF-8" standalone="no"?>
<!-- Created with Inkscape (http://www.inkscape.org/) -->

<svg
   xmlns:dc="http://purl.org/dc/elements/1.1/"
   xmlns:cc="http://creativecommons.org/ns#"
   xmlns:rdf="http://www.w3.org/1999/02/22-rdf-syntax-ns#"
   xmlns:svg="http://www.w3.org/2000/svg"
   xmlns="http://www.w3.org/2000/svg"
   xmlns:sodipodi="http://sodipodi.sourceforge.net/DTD/sodipodi-0.dtd"
   xmlns:inkscape="http://www.inkscape.org/namespaces/inkscape"
   id="svg4796"
   version="1.1"
   inkscape:version="0.91 r13725"
   xml:space="preserve"
   width="294.3775"
   height="174.39804"
   viewBox="0 0 294.3775 174.39804"
   sodipodi:docname="figure_crpss_4Zo-2MIo.svg"><metadata
     id="metadata4802"><rdf:RDF><cc:Work
         rdf:about=""><dc:format>image/svg+xml</dc:format><dc:type
           rdf:resource="http://purl.org/dc/dcmitype/StillImage" /><dc:title></dc:title></cc:Work></rdf:RDF></metadata><defs
     id="defs4800"><clipPath
       clipPathUnits="userSpaceOnUse"
       id="clipPath4810"><path
         d="m 72.48,524.16 67.2,0 0,9.48 -67.2,0 0,-9.48 z"
         id="path4812"
         inkscape:connector-curvature="0" /></clipPath><clipPath
       clipPathUnits="userSpaceOnUse"
       id="clipPath4818"><path
         d="m 139.68,524.16 67.2,0 0,9.48 -67.2,0 0,-9.48 z"
         id="path4820"
         inkscape:connector-curvature="0" /></clipPath><clipPath
       clipPathUnits="userSpaceOnUse"
       id="clipPath4826"><path
         d="m 72.48,277.68 67.2,0 0,9.481 -67.2,0 0,-9.481 z"
         id="path4828"
         inkscape:connector-curvature="0" /></clipPath><clipPath
       clipPathUnits="userSpaceOnUse"
       id="clipPath4834"><path
         d="m 139.68,277.68 67.2,0 0,9.481 -67.2,0 0,-9.481 z"
         id="path4836"
         inkscape:connector-curvature="0" /></clipPath></defs><sodipodi:namedview
     pagecolor="#ffffff"
     bordercolor="#666666"
     borderopacity="1"
     objecttolerance="10"
     gridtolerance="10"
     guidetolerance="10"
     inkscape:pageopacity="0"
     inkscape:pageshadow="2"
     inkscape:window-width="1565"
     inkscape:window-height="1060"
     id="namedview4798"
     showgrid="false"
     fit-margin-top="0"
     fit-margin-left="0"
     fit-margin-right="0"
     fit-margin-bottom="0"
     inkscape:zoom="2.5031643"
     inkscape:cx="77.124817"
     inkscape:cy="138.91784"
     inkscape:window-x="190"
     inkscape:window-y="42"
     inkscape:window-maximized="0"
     inkscape:current-layer="g4804" /><g
     id="g4804"
     inkscape:groupmode="layer"
     inkscape:label="figure_crpss_4Zo-2MIo"
     transform="matrix(1.25,0,0,-1.25,-310.96176,386.24005)"><g
       id="g4806"><g
         id="g4808"
         clip-path="url(#clipPath4810)" /></g><g
       id="g4814"><g
         id="g4816"
         clip-path="url(#clipPath4818)" /></g><g
       id="g4822"><g
         id="g4824"
         clip-path="url(#clipPath4826)" /></g><g
       id="g4830"><g
         id="g4832"
         clip-path="url(#clipPath4834)" /></g><g
       id="g4838"
       transform="translate(273.0484,204.42)"><path
         d="M 0,0 211.223,0 M 0,11.31 l 211.223,0 M 0,22.698 l 211.223,0 M 0,34.086 l 211.223,0 M 0,45.396 l 211.223,0 M 0,56.784 l 211.223,0 M 0,68.172 l 211.223,0 M 0,79.482 l 211.223,0 M 0,90.87 l 211.223,0 M 0,102.246 l 211.223,0"
         style="fill:none;stroke:#dadada;stroke-width:0.48800001;stroke-linecap:butt;stroke-linejoin:round;stroke-miterlimit:10;stroke-dasharray:none;stroke-opacity:1"
         id="path4840"
         inkscape:connector-curvature="0" /></g><path
       d="m 275.52,276.57 4.056,0 0,-83.531 -4.056,0 0,83.531 z m 21.06,-14.196 4.056,0 0,-69.335 -4.056,0 0,69.335 z m 21.138,-9.126 4.056,0 0,-60.209 -4.056,0 0,60.209 z m 21.138,-24.96 4.056,0 0,-35.249 -4.056,0 0,35.249 z m 21.138,11.934 4.056,0 0,-47.183 -4.056,0 0,47.183 z m 21.138,13.572 4.056,0 0,-60.755 -4.056,0 0,60.755 z m 21.06,-48.282 4.056,0 0,-12.473 -4.056,0 0,12.473 z m 21.138,33.54 4.056,0 0,-46.013 -4.056,0 0,46.013 z m 21.138,-5.07 4.056,0 0,-40.943 -4.056,0 0,40.943 z m 21.138,26.13 4.056,0 0,-67.073 -4.056,0 0,67.073 z"
       style="fill:#bdd7ee;fill-opacity:1;fill-rule:nonzero;stroke:none"
       id="path4842"
       inkscape:connector-curvature="0" /><path
       d="m 279.576,303.792 4.056,0 0,-110.753 -4.056,0 0,110.753 z m 21.06,-17.316 4.134,0 0,-93.437 -4.134,0 0,93.437 z m 21.138,-5.694 4.056,0 0,-87.743 -4.056,0 0,87.743 z m 21.138,-30.108 4.056,0 0,-57.635 -4.056,0 0,57.635 z m 21.138,13.884 4.056,0 0,-71.519 -4.056,0 0,71.519 z m 21.138,13.416 4.056,0 0,-84.935 -4.056,0 0,84.935 z m 21.06,-40.56 4.134,0 0,-44.375 -4.134,0 0,44.375 z m 21.138,39.234 4.056,0 0,-83.609 -4.056,0 0,83.609 z m 21.138,-13.026 4.056,0 0,-70.583 -4.056,0 0,70.583 z m 21.138,23.946 4.056,0 0,-94.529 -4.056,0 0,94.529 z"
       style="fill:#2e75b6;fill-opacity:1;fill-rule:nonzero;stroke:none"
       id="path4844"
       inkscape:connector-curvature="0" /><path
       d="m 283.632,271.422 4.056,0 0,-78.383 -4.056,0 0,78.383 z m 21.138,-14.196 4.056,0 0,-64.187 -4.056,0 0,64.187 z m 21.06,-14.196 4.056,0 0,-49.991 -4.056,0 0,49.991 z m 21.138,-10.764 4.056,0 0,-39.227 -4.056,0 0,39.227 z m 21.138,28.938 4.056,0 0,-68.165 -4.056,0 0,68.165 z m 21.138,17.628 4.056,0 0,-85.793 -4.056,0 0,85.793 z m 21.138,-63.648 4.056,0 0,-22.145 -4.056,0 0,22.145 z m 21.06,45.474 4.056,0 0,-67.619 -4.056,0 0,67.619 z m 21.138,-34.632 4.056,0 0,-32.987 -4.056,0 0,32.987 z m 21.138,38.61 4.056,0 0,-71.597 -4.056,0 0,71.597 z"
       style="fill:#f8cbad;fill-opacity:1;fill-rule:nonzero;stroke:none"
       id="path4846"
       inkscape:connector-curvature="0" /><path
       d="m 287.688,293.964 4.056,0 0,-100.925 -4.056,0 0,100.925 z m 21.138,-16.848 4.056,0 0,-84.077 -4.056,0 0,84.077 z m 21.06,-10.452 4.056,0 0,-73.625 -4.056,0 0,73.625 z m 21.138,-14.352 4.056,0 0,-59.273 -4.056,0 0,59.273 z m 21.138,28.314 4.056,0 0,-87.587 -4.056,0 0,87.587 z m 21.138,17.472 4.056,0 0,-105.059 -4.056,0 0,105.059 z m 21.138,-56.316 4.056,0 0,-48.743 -4.056,0 0,48.743 z m 21.06,48.282 4.056,0 0,-97.025 -4.056,0 0,97.025 z m 21.138,-36.66 4.056,0 0,-60.365 -4.056,0 0,60.365 z m 21.138,35.88 4.056,0 0,-96.245 -4.056,0 0,96.245 z"
       style="fill:#c55a11;fill-opacity:1;fill-rule:nonzero;stroke:none"
       id="path4848"
       inkscape:connector-curvature="0" /><g
       id="g4850"
       transform="translate(273.0484,193.0392)"><path
         d="M 0,0 211.223,0"
         style="fill:none;stroke:#dadada;stroke-width:0.48800001;stroke-linecap:butt;stroke-linejoin:round;stroke-miterlimit:10;stroke-dasharray:none;stroke-opacity:1"
         id="path4852"
         inkscape:connector-curvature="0" /></g><text
       transform="matrix(1,0,0,-1,261.2037,191.3346)"
       style="font-variant:normal;font-weight:normal;font-stretch:normal;font-size:5.8499999px;font-family:'Palatino Linotype';-inkscape-font-specification:PalatinoLinotype-Roman;writing-mode:lr-tb;fill:#000000;fill-opacity:1;fill-rule:nonzero;stroke:none"
       id="text4854"><tspan
         x="0 2.96595"
         y="0"
         sodipodi:role="line"
         id="tspan4856">26</tspan><tspan
         x="0 2.96595"
         y="-11.3607"
         sodipodi:role="line"
         id="tspan4858">28</tspan><tspan
         x="0 2.96595"
         y="-22.721399"
         sodipodi:role="line"
         id="tspan4860">30</tspan><tspan
         x="0 2.96595"
         y="-34.0821"
         sodipodi:role="line"
         id="tspan4862">32</tspan><tspan
         x="0 2.96595"
         y="-45.442799"
         sodipodi:role="line"
         id="tspan4864">34</tspan><tspan
         x="0 2.96595"
         y="-56.803501"
         sodipodi:role="line"
         id="tspan4866">36</tspan><tspan
         x="0 2.96595"
         y="-68.1642"
         sodipodi:role="line"
         id="tspan4868">38</tspan><tspan
         x="0 2.96595"
         y="-79.524902"
         sodipodi:role="line"
         id="tspan4870">40</tspan><tspan
         x="0 2.96595"
         y="-90.885597"
         sodipodi:role="line"
         id="tspan4872">42</tspan><tspan
         x="0 2.96595"
         y="-102.2463"
         sodipodi:role="line"
         id="tspan4874">44</tspan><tspan
         x="0 2.96595"
         y="-113.607"
         sodipodi:role="line"
         id="tspan4876">46</tspan><tspan
         x="20.943001 42.067348 63.1917 84.316048 105.4404 126.56475 147.6891 168.81345 189.93781 209.59966 212.5656"
         y="8.5702496"
         sodipodi:role="line"
         id="tspan4878">12345678910</tspan></text>
<text
       transform="matrix(0,1,1,0,253.4384,228.2379)"
       style="font-variant:normal;font-weight:normal;font-stretch:normal;font-size:6.47399998px;font-family:'Palatino Linotype';-inkscape-font-specification:PalatinoLinotype-Roman;writing-mode:lr-tb;fill:#000000;fill-opacity:1;fill-rule:nonzero;stroke:none"
       id="text4880"><tspan
         x="0 4.6017194 8.8920393 12.791977 16.223845 19.656359 21.294281 23.476019 28.93619"
         y="0"
         sodipodi:role="line"
         id="tspan4882">CRPSS (%)</tspan></text>
<path
       d="m 281.601,173.126 3.552,0 0,-3.552 -3.552,0 0,3.552 z"
       style="fill:#bdd7ee;fill-opacity:1;fill-rule:evenodd;stroke:none"
       id="path4884"
       inkscape:connector-curvature="0" /><text
       transform="matrix(1,0,0,-1,286.686,169.645)"
       style="font-variant:normal;font-weight:normal;font-stretch:normal;font-size:5.8499999px;font-family:'Palatino Linotype';-inkscape-font-specification:PalatinoLinotype-Roman;writing-mode:lr-tb;fill:#000000;fill-opacity:1;fill-rule:nonzero;stroke:none"
       id="text4886"><tspan
         x="0 2.964195 6.8661451 8.8141947 11.7 17.238195 19.188 20.668051 24.802244"
         y="0"
         sodipodi:role="line"
         id="tspan4888">2Z-2MI CP</tspan></text>
<path
       d="m 323.238,173.126 3.552,0 0,-3.552 -3.552,0 0,3.552 z"
       style="fill:#2e75b6;fill-opacity:1;fill-rule:evenodd;stroke:none"
       id="path4890"
       inkscape:connector-curvature="0" /><text
       transform="matrix(1,0,0,-1,328.3232,169.645)"
       style="font-variant:normal;font-weight:normal;font-stretch:normal;font-size:5.8499999px;font-family:'Palatino Linotype';-inkscape-font-specification:PalatinoLinotype-Roman;writing-mode:lr-tb;fill:#000000;fill-opacity:1;fill-rule:nonzero;stroke:none"
       id="text4892"><tspan
         x="0 2.964195 6.8638048 10.063755 11.935755 14.899365 20.439316 22.38912 25.589069 27.06912 31.203316"
         y="0"
         sodipodi:role="line"
         id="tspan4894">4Zo-2MIo CP</tspan></text>
<path
       d="m 371.265,173.126 3.552,0 0,-3.552 -3.552,0 0,3.552 z"
       style="fill:#f8cbad;fill-opacity:1;fill-rule:evenodd;stroke:none"
       id="path4896"
       inkscape:connector-curvature="0" /><text
       transform="matrix(1,0,0,-1,376.3499,169.645)"
       style="font-variant:normal;font-weight:normal;font-stretch:normal;font-size:5.8499999px;font-family:'Palatino Linotype';-inkscape-font-specification:PalatinoLinotype-Roman;writing-mode:lr-tb;fill:#000000;fill-opacity:1;fill-rule:nonzero;stroke:none"
       id="text4898"><tspan
         x="0 2.964195 6.8661451 8.8141947 11.7 17.238195 19.188 20.668051 24.880051"
         y="0"
         sodipodi:role="line"
         id="tspan4900">2Z-2MI VP</tspan></text>
<path
       d="m 412.98,173.126 3.552,0 0,-3.552 -3.552,0 0,3.552 z"
       style="fill:#c55a11;fill-opacity:1;fill-rule:evenodd;stroke:none"
       id="path4902"
       inkscape:connector-curvature="0" /><text
       transform="matrix(1,0,0,-1,418.0651,169.645)"
       style="font-variant:normal;font-weight:normal;font-stretch:normal;font-size:5.8499999px;font-family:'Palatino Linotype';-inkscape-font-specification:PalatinoLinotype-Roman;writing-mode:lr-tb;fill:#000000;fill-opacity:1;fill-rule:nonzero;stroke:none"
       id="text4904"><tspan
         x="0 2.964195 6.8638048 10.063755 11.935755 14.899365 20.439316 22.38912 25.589069 27.06912 31.28112"
         y="0"
         sodipodi:role="line"
         id="tspan4906">4Zo-2MIo VP</tspan></text>
</g></svg>