<?xml version="1.0" encoding="UTF-8" standalone="no"?>
<!-- Created with Inkscape (http://www.inkscape.org/) -->

<svg
   xmlns:dc="http://purl.org/dc/elements/1.1/"
   xmlns:cc="http://creativecommons.org/ns#"
   xmlns:rdf="http://www.w3.org/1999/02/22-rdf-syntax-ns#"
   xmlns:svg="http://www.w3.org/2000/svg"
   xmlns="http://www.w3.org/2000/svg"
   xmlns:sodipodi="http://sodipodi.sourceforge.net/DTD/sodipodi-0.dtd"
   xmlns:inkscape="http://www.inkscape.org/namespaces/inkscape"
   id="svg4136"
   version="1.1"
   inkscape:version="0.91 r13725"
   xml:space="preserve"
   width="291.40793"
   height="173.30826"
   viewBox="0 0 291.40793 173.30826"
   sodipodi:docname="figure_crpss_4Zo-2MIo.svg"><metadata
     id="metadata4142"><rdf:RDF><cc:Work
         rdf:about=""><dc:format>image/svg+xml</dc:format><dc:type
           rdf:resource="http://purl.org/dc/dcmitype/StillImage" /><dc:title /></cc:Work></rdf:RDF></metadata><defs
     id="defs4140"><clipPath
       clipPathUnits="userSpaceOnUse"
       id="clipPath4248"><path
         d="m 72.48,524.16 67.2,0 0,9.48 -67.2,0 0,-9.48 z"
         id="path4250"
         inkscape:connector-curvature="0" /></clipPath><clipPath
       clipPathUnits="userSpaceOnUse"
       id="clipPath4260"><path
         d="m 139.68,524.16 67.2,0 0,9.48 -67.2,0 0,-9.48 z"
         id="path4262"
         inkscape:connector-curvature="0" /></clipPath><clipPath
       clipPathUnits="userSpaceOnUse"
       id="clipPath4272"><path
         d="m 72.48,277.68 67.2,0 0,9.481 -67.2,0 0,-9.481 z"
         id="path4274"
         inkscape:connector-curvature="0" /></clipPath><clipPath
       clipPathUnits="userSpaceOnUse"
       id="clipPath4284"><path
         d="m 139.68,277.68 67.2,0 0,9.481 -67.2,0 0,-9.481 z"
         id="path4286"
         inkscape:connector-curvature="0" /></clipPath></defs><sodipodi:namedview
     pagecolor="#ffffff"
     bordercolor="#666666"
     borderopacity="1"
     objecttolerance="10"
     gridtolerance="10"
     guidetolerance="10"
     inkscape:pageopacity="0"
     inkscape:pageshadow="2"
     inkscape:window-width="1182"
     inkscape:window-height="802"
     id="namedview4138"
     showgrid="false"
     inkscape:zoom="2.5618288"
     inkscape:cx="164.59271"
     inkscape:cy="93.505643"
     inkscape:window-x="2056"
     inkscape:window-y="139"
     inkscape:window-maximized="0"
     inkscape:current-layer="g4144"
     fit-margin-top="0"
     fit-margin-left="0"
     fit-margin-right="0"
     fit-margin-bottom="0" /><g
     id="g4144"
     inkscape:groupmode="layer"
     inkscape:label="scores"
     transform="matrix(1.25,0,0,-1.25,-313.93132,386.23074)">





<g
   id="g4368"
   transform="translate(273.0484,204.42)"><path
     d="M 0,0 211.223,0 M 0,11.31 l 211.223,0 M 0,22.698 l 211.223,0 M 0,34.086 l 211.223,0 M 0,45.396 l 211.223,0 M 0,56.784 l 211.223,0 M 0,68.172 l 211.223,0 M 0,79.482 l 211.223,0 M 0,90.87 l 211.223,0 M 0,102.246 l 211.223,0"
     style="fill:none;stroke:#dadada;stroke-width:0.48800001;stroke-linecap:butt;stroke-linejoin:round;stroke-miterlimit:10;stroke-dasharray:none;stroke-opacity:1"
     id="path4370"
     inkscape:connector-curvature="0" /></g><path
   d="m 275.52,276.57 4.056,0 0,-83.531 -4.056,0 0,83.531 z m 21.06,-14.196 4.056,0 0,-69.335 -4.056,0 0,69.335 z m 21.138,-9.126 4.056,0 0,-60.209 -4.056,0 0,60.209 z m 21.138,-24.96 4.056,0 0,-35.249 -4.056,0 0,35.249 z m 21.138,11.934 4.056,0 0,-47.183 -4.056,0 0,47.183 z m 21.138,13.572 4.056,0 0,-60.755 -4.056,0 0,60.755 z m 21.06,-48.282 4.056,0 0,-12.473 -4.056,0 0,12.473 z m 21.138,33.54 4.056,0 0,-46.013 -4.056,0 0,46.013 z m 21.138,-5.07 4.056,0 0,-40.943 -4.056,0 0,40.943 z m 21.138,26.13 4.056,0 0,-67.073 -4.056,0 0,67.073 z"
   style="fill:#bdd7ee;fill-opacity:1;fill-rule:nonzero;stroke:none"
   id="path4372"
   inkscape:connector-curvature="0" /><path
   d="m 279.576,303.792 4.056,0 0,-110.753 -4.056,0 0,110.753 z m 21.06,-17.316 4.134,0 0,-93.437 -4.134,0 0,93.437 z m 21.138,-5.694 4.056,0 0,-87.743 -4.056,0 0,87.743 z m 21.138,-30.108 4.056,0 0,-57.635 -4.056,0 0,57.635 z m 21.138,13.884 4.056,0 0,-71.519 -4.056,0 0,71.519 z m 21.138,13.416 4.056,0 0,-84.935 -4.056,0 0,84.935 z m 21.06,-40.56 4.134,0 0,-44.375 -4.134,0 0,44.375 z m 21.138,39.234 4.056,0 0,-83.609 -4.056,0 0,83.609 z m 21.138,-13.026 4.056,0 0,-70.583 -4.056,0 0,70.583 z m 21.138,23.946 4.056,0 0,-94.529 -4.056,0 0,94.529 z"
   style="fill:#2e75b6;fill-opacity:1;fill-rule:nonzero;stroke:none"
   id="path4374"
   inkscape:connector-curvature="0" /><path
   d="m 283.632,271.422 4.056,0 0,-78.383 -4.056,0 0,78.383 z m 21.138,-14.196 4.056,0 0,-64.187 -4.056,0 0,64.187 z m 21.06,-14.196 4.056,0 0,-49.991 -4.056,0 0,49.991 z m 21.138,-10.764 4.056,0 0,-39.227 -4.056,0 0,39.227 z m 21.138,28.938 4.056,0 0,-68.165 -4.056,0 0,68.165 z m 21.138,17.628 4.056,0 0,-85.793 -4.056,0 0,85.793 z m 21.138,-63.648 4.056,0 0,-22.145 -4.056,0 0,22.145 z m 21.06,45.474 4.056,0 0,-67.619 -4.056,0 0,67.619 z m 21.138,-34.632 4.056,0 0,-32.987 -4.056,0 0,32.987 z m 21.138,38.61 4.056,0 0,-71.597 -4.056,0 0,71.597 z"
   style="fill:#f8cbad;fill-opacity:1;fill-rule:nonzero;stroke:none"
   id="path4376"
   inkscape:connector-curvature="0" /><path
   d="m 287.688,293.964 4.056,0 0,-100.925 -4.056,0 0,100.925 z m 21.138,-16.848 4.056,0 0,-84.077 -4.056,0 0,84.077 z m 21.06,-10.452 4.056,0 0,-73.625 -4.056,0 0,73.625 z m 21.138,-14.352 4.056,0 0,-59.273 -4.056,0 0,59.273 z m 21.138,28.314 4.056,0 0,-87.587 -4.056,0 0,87.587 z m 21.138,17.472 4.056,0 0,-105.059 -4.056,0 0,105.059 z m 21.138,-56.316 4.056,0 0,-48.743 -4.056,0 0,48.743 z m 21.06,48.282 4.056,0 0,-97.025 -4.056,0 0,97.025 z m 21.138,-36.66 4.056,0 0,-60.365 -4.056,0 0,60.365 z m 21.138,35.88 4.056,0 0,-96.245 -4.056,0 0,96.245 z"
   style="fill:#c55a11;fill-opacity:1;fill-rule:nonzero;stroke:none"
   id="path4378"
   inkscape:connector-curvature="0" /><g
   id="g4380"
   transform="translate(273.0484,193.0392)"><path
     d="M 0,0 211.223,0"
     style="fill:none;stroke:#dadada;stroke-width:0.48800001;stroke-linecap:butt;stroke-linejoin:round;stroke-miterlimit:10;stroke-dasharray:none;stroke-opacity:1"
     id="path4382"
     inkscape:connector-curvature="0" /></g><text
   transform="matrix(1,0,0,-1,261.5108,191.1729)"
   style="font-variant:normal;font-weight:normal;font-stretch:normal;font-size:5.8499999px;font-family:Arial;-inkscape-font-specification:Helvetica;writing-mode:lr-tb;fill:#000000;fill-opacity:1;fill-rule:nonzero;stroke:none"
   id="text4384"><tspan
     x="0 3.276"
     y="0"
     sodipodi:role="line"
     id="tspan4386">26</tspan><tspan
     x="0 3.276"
     y="-11.3607"
     sodipodi:role="line"
     id="tspan4388">28</tspan><tspan
     x="0 3.276"
     y="-22.721399"
     sodipodi:role="line"
     id="tspan4390">30</tspan><tspan
     x="0 3.276"
     y="-34.0821"
     sodipodi:role="line"
     id="tspan4392">32</tspan><tspan
     x="0 3.276"
     y="-45.442799"
     sodipodi:role="line"
     id="tspan4394">34</tspan><tspan
     x="0 3.276"
     y="-56.803501"
     sodipodi:role="line"
     id="tspan4396">36</tspan><tspan
     x="0 3.276"
     y="-68.1642"
     sodipodi:role="line"
     id="tspan4398">38</tspan><tspan
     x="0 3.276"
     y="-79.524902"
     sodipodi:role="line"
     id="tspan4400">40</tspan><tspan
     x="0 3.276"
     y="-90.885597"
     sodipodi:role="line"
     id="tspan4402">42</tspan><tspan
     x="0 3.276"
     y="-102.2463"
     sodipodi:role="line"
     id="tspan4404">44</tspan><tspan
     x="0 3.276"
     y="-113.607"
     sodipodi:role="line"
     id="tspan4406">46</tspan><tspan
     x="20.469151 41.593498 62.71785 83.842201 104.96655 126.0909 147.21526 168.3396 189.46394 208.96201 212.23801"
     y="6.9849"
     sodipodi:role="line"
     id="tspan4408">12345678910</tspan></text>


<text
   transform="matrix(0,1,1,0,0,0)"
   style="font-variant:normal;font-weight:normal;font-stretch:normal;font-size:6.47399998px;font-family:Arial;-inkscape-font-specification:Helvetica;writing-mode:lr-tb;fill:#000000;fill-opacity:1;fill-rule:nonzero;stroke:none"
   id="text4410"
   x="229.80421"
   y="255.85831"><tspan
     x="229.80421 234.48427 239.16432 243.45659 247.74886 252.04111 253.98979 256.1741 261.94568"
     y="255.85831"
     sodipodi:role="line"
     id="tspan4412">CRPSS (%)</tspan></text>


<path
   d="m 295.702,173.745 2.94,0 0,-2.94 -2.94,0 0,2.94 z"
   style="fill:#bdd7ee;fill-opacity:1;fill-rule:evenodd;stroke:none"
   id="path4414"
   inkscape:connector-curvature="0" /><text
   transform="scale(1,-1)"
   style="font-variant:normal;font-weight:normal;font-stretch:normal;font-size:5.8499999px;font-family:Arial;-inkscape-font-specification:Helvetica;writing-mode:lr-tb;fill:#000000;fill-opacity:1;fill-rule:nonzero;stroke:none"
   id="text4416"
   x="299.86783"
   y="-170.40939"><tspan
     x="299.86783 303.14383 306.73166 308.68204 311.88199 316.79599 318.43457 319.99652 324.28632"
     y="-170.40939"
     sodipodi:role="line"
     id="tspan4418">2Z-2MI CP</tspan></text>


<path
   d="m 335.82,173.745 2.94,0 0,-2.94 -2.94,0 0,2.94 z"
   style="fill:#2e75b6;fill-opacity:1;fill-rule:evenodd;stroke:none"
   id="path4420"
   inkscape:connector-curvature="0" /><text
   transform="scale(1,-1)"
   style="font-variant:normal;font-weight:normal;font-stretch:normal;font-size:5.8499999px;font-family:Arial;-inkscape-font-specification:Helvetica;writing-mode:lr-tb;fill:#000000;fill-opacity:1;fill-rule:nonzero;stroke:none"
   id="text4422"
   x="339.98544"
   y="-170.40939"><tspan
     x="339.98544 343.26144 346.84924 350.04745 351.99725 355.27325 360.10944 361.74744 365.02344 366.66144 370.87344"
     y="-170.40939"
     sodipodi:role="line"
     id="tspan4424">4Zo-2MIo CP</tspan></text>


<path
   d="m 382.444,173.745 2.94,0 0,-2.94 -2.94,0 0,2.94 z"
   style="fill:#f8cbad;fill-opacity:1;fill-rule:evenodd;stroke:none"
   id="path4426"
   inkscape:connector-curvature="0" /><text
   transform="scale(1,-1)"
   style="font-variant:normal;font-weight:normal;font-stretch:normal;font-size:5.8499999px;font-family:Arial;-inkscape-font-specification:Helvetica;writing-mode:lr-tb;fill:#000000;fill-opacity:1;fill-rule:nonzero;stroke:none"
   id="text4428"
   x="386.60953"
   y="-170.40939"><tspan
     x="386.60953 389.88553 393.47336 395.42139 398.61902 403.53302 405.17102 406.73297 410.63492"
     y="-170.40939"
     sodipodi:role="line"
     id="tspan4430">2Z-2MI VP</tspan></text>


<path
   d="m 422.24,173.745 2.94,0 0,-2.94 -2.94,0 0,2.94 z"
   style="fill:#c55a11;fill-opacity:1;fill-rule:evenodd;stroke:none"
   id="path4432"
   inkscape:connector-curvature="0" /><text
   transform="scale(1,-1)"
   style="font-variant:normal;font-weight:normal;font-stretch:normal;font-size:5.8499999px;font-family:Arial;-inkscape-font-specification:Helvetica;writing-mode:lr-tb;fill:#000000;fill-opacity:1;fill-rule:nonzero;stroke:none"
   id="text4434"
   x="426.40546"
   y="-170.40939"><tspan
     x="426.40546 429.68146 433.26926 436.46744 438.41724 441.69324 446.52945 448.16745 451.44345 453.08145 456.98163"
     y="-170.40939"
     sodipodi:role="line"
     id="tspan4436">4Zo-2MIo VP</tspan></text>


</g></svg>