<?xml version="1.0" encoding="UTF-8" standalone="no"?>
<!-- Created with Inkscape (http://www.inkscape.org/) -->

<svg
   xmlns:dc="http://purl.org/dc/elements/1.1/"
   xmlns:cc="http://creativecommons.org/ns#"
   xmlns:rdf="http://www.w3.org/1999/02/22-rdf-syntax-ns#"
   xmlns:svg="http://www.w3.org/2000/svg"
   xmlns="http://www.w3.org/2000/svg"
   xmlns:sodipodi="http://sodipodi.sourceforge.net/DTD/sodipodi-0.dtd"
   xmlns:inkscape="http://www.inkscape.org/namespaces/inkscape"
   id="svg4684"
   version="1.1"
   inkscape:version="0.91 r13725"
   xml:space="preserve"
   width="294.37738"
   height="174.4675"
   viewBox="0 0 294.37738 174.4675"
   sodipodi:docname="figure_crpss_4Zo.svg"><metadata
     id="metadata4690"><rdf:RDF><cc:Work
         rdf:about=""><dc:format>image/svg+xml</dc:format><dc:type
           rdf:resource="http://purl.org/dc/dcmitype/StillImage" /><dc:title></dc:title></cc:Work></rdf:RDF></metadata><defs
     id="defs4688"><clipPath
       clipPathUnits="userSpaceOnUse"
       id="clipPath4698"><path
         d="m 72.48,524.16 67.2,0 0,9.48 -67.2,0 0,-9.48 z"
         id="path4700"
         inkscape:connector-curvature="0" /></clipPath><clipPath
       clipPathUnits="userSpaceOnUse"
       id="clipPath4706"><path
         d="m 139.68,524.16 67.2,0 0,9.48 -67.2,0 0,-9.48 z"
         id="path4708"
         inkscape:connector-curvature="0" /></clipPath><clipPath
       clipPathUnits="userSpaceOnUse"
       id="clipPath4714"><path
         d="m 72.48,277.68 67.2,0 0,9.481 -67.2,0 0,-9.481 z"
         id="path4716"
         inkscape:connector-curvature="0" /></clipPath><clipPath
       clipPathUnits="userSpaceOnUse"
       id="clipPath4722"><path
         d="m 139.68,277.68 67.2,0 0,9.481 -67.2,0 0,-9.481 z"
         id="path4724"
         inkscape:connector-curvature="0" /></clipPath></defs><sodipodi:namedview
     pagecolor="#ffffff"
     bordercolor="#666666"
     borderopacity="1"
     objecttolerance="10"
     gridtolerance="10"
     guidetolerance="10"
     inkscape:pageopacity="0"
     inkscape:pageshadow="2"
     inkscape:window-width="1220"
     inkscape:window-height="788"
     id="namedview4686"
     showgrid="false"
     fit-margin-top="0"
     fit-margin-left="0"
     fit-margin-right="0"
     fit-margin-bottom="0"
     inkscape:zoom="1.7747151"
     inkscape:cx="159.65597"
     inkscape:cy="116.44477"
     inkscape:window-x="591"
     inkscape:window-y="276"
     inkscape:window-maximized="0"
     inkscape:current-layer="g4692" /><g
     id="g4692"
     inkscape:groupmode="layer"
     inkscape:label="figure_crpss_4Zo"
     transform="matrix(1.25,0,0,-1.25,-324.02676,613.79951)"><g
       id="g4694"><g
         id="g4696"
         clip-path="url(#clipPath4698)" /></g><g
       id="g4702"><g
         id="g4704"
         clip-path="url(#clipPath4706)" /></g><g
       id="g4710"><g
         id="g4712"
         clip-path="url(#clipPath4714)" /></g><g
       id="g4718"><g
         id="g4720"
         clip-path="url(#clipPath4722)" /></g><g
       id="g4726"
       transform="translate(283.5003,386.394)"><path
         d="M 0,0 211.223,0 M 0,11.388 l 211.223,0 M 0,22.776 l 211.223,0 M 0,34.086 l 211.223,0 M 0,45.474 l 211.223,0 M 0,56.862 l 211.223,0 M 0,68.172 l 211.223,0 M 0,79.56 l 211.223,0 M 0,90.948 l 211.223,0 M 0,102.303 l 211.223,0"
         style="fill:none;stroke:#dadada;stroke-width:0.48800001;stroke-linecap:butt;stroke-linejoin:round;stroke-miterlimit:10;stroke-dasharray:none;stroke-opacity:1"
         id="path4728"
         inkscape:connector-curvature="0" /></g><path
       d="m 285.972,451.758 4.056,0 0,-76.718 -4.056,0 0,76.718 z m 21.06,-11.934 4.056,0 0,-64.784 -4.056,0 0,64.784 z m 21.138,-4.134 4.056,0 0,-60.65 -4.056,0 0,60.65 z m 21.138,-30.42 4.056,0 0,-30.23 -4.056,0 0,30.23 z m 21.138,15.6 4.056,0 0,-45.83 -4.056,0 0,45.83 z m 21.138,14.82 4.056,0 0,-60.65 -4.056,0 0,60.65 z m 21.06,-46.8 4.056,0 0,-13.85 -4.056,0 0,13.85 z m 21.138,38.61 4.056,0 0,-52.46 -4.056,0 0,52.46 z m 21.138,-13.104 4.056,0 0,-39.356 -4.056,0 0,39.356 z m 21.138,34.476 4.056,0 0,-73.832 -4.056,0 0,73.832 z"
       style="fill:#bdd7ee;fill-opacity:1;fill-rule:nonzero;stroke:none"
       id="path4730"
       inkscape:connector-curvature="0" /><path
       d="m 290.028,479.214 4.056,0 0,-104.174 -4.056,0 0,104.174 z m 21.06,-14.196 4.134,0 0,-89.978 -4.134,0 0,89.978 z m 21.138,-6.786 4.056,0 0,-83.192 -4.056,0 0,83.192 z m 21.138,-30.966 4.056,0 0,-52.226 -4.056,0 0,52.226 z m 21.138,18.33 4.056,0 0,-70.556 -4.056,0 0,70.556 z m 21.138,14.664 4.056,0 0,-85.22 -4.056,0 0,85.22 z m 21.06,-39.702 4.134,0 0,-45.518 -4.134,0 0,45.518 z m 21.138,43.602 4.056,0 0,-89.12 -4.056,0 0,89.12 z m 21.138,-26.13 4.056,0 0,-62.99 -4.056,0 0,62.99 z m 21.138,39.078 4.056,0 0,-102.068 -4.056,0 0,102.068 z"
       style="fill:#2e75b6;fill-opacity:1;fill-rule:nonzero;stroke:none"
       id="path4732"
       inkscape:connector-curvature="0" /><path
       d="m 294.084,443.568 4.056,0 0,-68.528 -4.056,0 0,68.528 z m 21.138,-9.048 4.056,0 0,-59.48 -4.056,0 0,59.48 z m 21.06,-7.722 4.056,0 0,-51.758 -4.056,0 0,51.758 z m 21.138,-18.642 4.056,0 0,-33.116 -4.056,0 0,33.116 z m 21.138,32.292 4.056,0 0,-65.408 -4.056,0 0,65.408 z m 21.138,18.486 4.056,0 0,-83.894 -4.056,0 0,83.894 z m 21.138,-54.288 4.056,0 0,-29.606 -4.056,0 0,29.606 z m 21.06,48.984 4.056,0 0,-78.59 -4.056,0 0,78.59 z m 21.138,-47.736 4.056,0 0,-30.854 -4.056,0 0,30.854 z m 21.138,51.714 4.056,0 0,-82.568 -4.056,0 0,82.568 z"
       style="fill:#f8cbad;fill-opacity:1;fill-rule:nonzero;stroke:none"
       id="path4734"
       inkscape:connector-curvature="0" /><path
       d="m 298.14,468.762 4.056,0 0,-93.722 -4.056,0 0,93.722 z m 21.138,-20.436 4.056,0 0,-73.286 -4.056,0 0,73.286 z m 21.06,-5.538 4.056,0 0,-67.748 -4.056,0 0,67.748 z m 21.138,-17.94 4.056,0 0,-49.808 -4.056,0 0,49.808 z m 21.138,32.448 4.056,0 0,-82.256 -4.056,0 0,82.256 z m 21.138,19.578 4.056,0 0,-101.834 -4.056,0 0,101.834 z m 21.138,-55.848 4.056,0 0,-45.986 -4.056,0 0,45.986 z m 21.06,56.862 4.056,0 0,-102.848 -4.056,0 0,102.848 z m 21.138,-57.174 4.056,0 0,-45.674 -4.056,0 0,45.674 z m 21.138,56.394 4.056,0 0,-102.068 -4.056,0 0,102.068 z"
       style="fill:#c55a11;fill-opacity:1;fill-rule:nonzero;stroke:none"
       id="path4736"
       inkscape:connector-curvature="0" /><g
       id="g4738"
       transform="translate(283.5003,375.0398)"><path
         d="M 0,0 211.223,0"
         style="fill:none;stroke:#dadada;stroke-width:0.48800001;stroke-linecap:butt;stroke-linejoin:round;stroke-miterlimit:10;stroke-dasharray:none;stroke-opacity:1"
         id="path4740"
         inkscape:connector-curvature="0" /></g><text
       transform="matrix(1,0,0,-1,271.6557,373.3351)"
       style="font-variant:normal;font-weight:normal;font-stretch:normal;font-size:5.8499999px;font-family:'Palatino Linotype';-inkscape-font-specification:PalatinoLinotype-Roman;writing-mode:lr-tb;fill:#000000;fill-opacity:1;fill-rule:nonzero;stroke:none"
       id="text4742"><tspan
         x="0 2.96595"
         y="0"
         sodipodi:role="line"
         id="tspan4744">22</tspan><tspan
         x="0 2.96595"
         y="-11.36655"
         sodipodi:role="line"
         id="tspan4746">24</tspan><tspan
         x="0 2.96595"
         y="-22.733101"
         sodipodi:role="line"
         id="tspan4748">26</tspan><tspan
         x="0 2.96595"
         y="-34.099651"
         sodipodi:role="line"
         id="tspan4750">28</tspan><tspan
         x="0 2.96595"
         y="-45.466202"
         sodipodi:role="line"
         id="tspan4752">30</tspan><tspan
         x="0 2.96595"
         y="-56.832748"
         sodipodi:role="line"
         id="tspan4754">32</tspan><tspan
         x="0 2.96595"
         y="-68.199303"
         sodipodi:role="line"
         id="tspan4756">34</tspan><tspan
         x="0 2.96595"
         y="-79.565849"
         sodipodi:role="line"
         id="tspan4758">36</tspan><tspan
         x="0 2.96595"
         y="-90.932404"
         sodipodi:role="line"
         id="tspan4760">38</tspan><tspan
         x="0 2.96595"
         y="-102.29895"
         sodipodi:role="line"
         id="tspan4762">40</tspan><tspan
         x="0 2.96595"
         y="-113.6655"
         sodipodi:role="line"
         id="tspan4764">42</tspan><tspan
         x="20.943001 42.067348 63.1917 84.316048 105.4404 126.56475 147.6891 168.81345 189.93781 209.59966 212.5656"
         y="8.5468502"
         sodipodi:role="line"
         id="tspan4766">12345678910</tspan></text>
<text
       transform="matrix(0,1,1,0,263.8904,410.2408)"
       style="font-variant:normal;font-weight:normal;font-stretch:normal;font-size:6.47399998px;font-family:'Palatino Linotype';-inkscape-font-specification:PalatinoLinotype-Roman;writing-mode:lr-tb;fill:#000000;fill-opacity:1;fill-rule:nonzero;stroke:none"
       id="text4768"><tspan
         x="0 4.6017194 8.8920393 12.791977 16.223845 19.656359 21.294281 23.476019 28.93619"
         y="0"
         sodipodi:role="line"
         id="tspan4770">CRPSS (%)</tspan></text>
<path
       d="m 323.346,355.118 3.552,0 0,-3.552 -3.552,0 0,3.552 z"
       style="fill:#bdd7ee;fill-opacity:1;fill-rule:evenodd;stroke:none"
       id="path4772"
       inkscape:connector-curvature="0" /><text
       transform="matrix(1,0,0,-1,328.4312,351.637)"
       style="font-variant:normal;font-weight:normal;font-stretch:normal;font-size:5.8499999px;font-family:'Palatino Linotype';-inkscape-font-specification:PalatinoLinotype-Roman;writing-mode:lr-tb;fill:#000000;fill-opacity:1;fill-rule:nonzero;stroke:none"
       id="text4774"><tspan
         x="0 2.964195 6.8638048 8.2678051 12.403755"
         y="0"
         sodipodi:role="line"
         id="tspan4776">2Z CP</tspan></text>
<path
       d="m 350.376,355.118 3.552,0 0,-3.552 -3.552,0 0,3.552 z"
       style="fill:#2e75b6;fill-opacity:1;fill-rule:evenodd;stroke:none"
       id="path4778"
       inkscape:connector-curvature="0" /><text
       transform="matrix(1,0,0,-1,355.4604,351.637)"
       style="font-variant:normal;font-weight:normal;font-stretch:normal;font-size:5.8499999px;font-family:'Palatino Linotype';-inkscape-font-specification:PalatinoLinotype-Roman;writing-mode:lr-tb;fill:#000000;fill-opacity:1;fill-rule:nonzero;stroke:none"
       id="text4780"><tspan
         x="0 2.964195 6.8638048 10.062 11.466 15.60195"
         y="0"
         sodipodi:role="line"
         id="tspan4782">4Zo CP</tspan></text>
<path
       d="m 380.6,355.118 3.552,0 0,-3.552 -3.552,0 0,3.552 z"
       style="fill:#f8cbad;fill-opacity:1;fill-rule:evenodd;stroke:none"
       id="path4784"
       inkscape:connector-curvature="0" /><text
       transform="matrix(1,0,0,-1,385.6844,351.637)"
       style="font-variant:normal;font-weight:normal;font-stretch:normal;font-size:5.8499999px;font-family:'Palatino Linotype';-inkscape-font-specification:PalatinoLinotype-Roman;writing-mode:lr-tb;fill:#000000;fill-opacity:1;fill-rule:nonzero;stroke:none"
       id="text4786"><tspan
         x="0 2.964195 6.8638048 8.2678051 12.479805"
         y="0"
         sodipodi:role="line"
         id="tspan4788">2Z VP</tspan></text>
<path
       d="m 407.707,355.118 3.552,0 0,-3.552 -3.552,0 0,3.552 z"
       style="fill:#c55a11;fill-opacity:1;fill-rule:evenodd;stroke:none"
       id="path4790"
       inkscape:connector-curvature="0" /><text
       transform="matrix(1,0,0,-1,412.7916,351.637)"
       style="font-variant:normal;font-weight:normal;font-stretch:normal;font-size:5.8499999px;font-family:'Palatino Linotype';-inkscape-font-specification:PalatinoLinotype-Roman;writing-mode:lr-tb;fill:#000000;fill-opacity:1;fill-rule:nonzero;stroke:none"
       id="text4792"><tspan
         x="0 2.964195 6.8638048 10.062 11.466 15.678"
         y="0"
         sodipodi:role="line"
         id="tspan4794">4Zo VP</tspan></text>
</g></svg>