<?xml version="1.0" encoding="UTF-8" standalone="no"?>
<!-- Created with Inkscape (http://www.inkscape.org/) -->

<svg
   xmlns:dc="http://purl.org/dc/elements/1.1/"
   xmlns:cc="http://creativecommons.org/ns#"
   xmlns:rdf="http://www.w3.org/1999/02/22-rdf-syntax-ns#"
   xmlns:svg="http://www.w3.org/2000/svg"
   xmlns="http://www.w3.org/2000/svg"
   xmlns:sodipodi="http://sodipodi.sourceforge.net/DTD/sodipodi-0.dtd"
   xmlns:inkscape="http://www.inkscape.org/namespaces/inkscape"
   id="svg2"
   version="1.1"
   inkscape:version="0.91 r13725"
   xml:space="preserve"
   width="813.13"
   height="466.78177"
   viewBox="0 0 813.13 466.78177"
   sodipodi:docname="figure_nb_analogues_relationships.svg"><metadata
     id="metadata8"><rdf:RDF><cc:Work
         rdf:about=""><dc:format>image/svg+xml</dc:format><dc:type
           rdf:resource="http://purl.org/dc/dcmitype/StillImage" /><dc:title></dc:title></cc:Work></rdf:RDF></metadata><defs
     id="defs6"><clipPath
       clipPathUnits="userSpaceOnUse"
       id="clipPath134"><path
         d="m 51.12,95.4 689.76,0 0,421.32 -689.76,0 0,-421.32 z"
         id="path136"
         inkscape:connector-curvature="0"
         style="clip-rule:evenodd" /></clipPath><clipPath
       clipPathUnits="userSpaceOnUse"
       id="clipPath146"><path
         d="m 51.12,95.4 689.76,0 0,421.32 -689.76,0 0,-421.32 z"
         id="path148"
         inkscape:connector-curvature="0"
         style="clip-rule:evenodd" /></clipPath><clipPath
       clipPathUnits="userSpaceOnUse"
       id="clipPath158"><path
         d="m 51.12,95.4 689.76,0 0,421.32 -689.76,0 0,-421.32 z"
         id="path160"
         inkscape:connector-curvature="0"
         style="clip-rule:evenodd" /></clipPath><clipPath
       clipPathUnits="userSpaceOnUse"
       id="clipPath170"><path
         d="m 51.12,95.4 689.76,0 0,421.32 -689.76,0 0,-421.32 z"
         id="path172"
         inkscape:connector-curvature="0"
         style="clip-rule:evenodd" /></clipPath><clipPath
       clipPathUnits="userSpaceOnUse"
       id="clipPath182"><path
         d="m 51.12,95.4 689.76,0 0,421.32 -689.76,0 0,-421.32 z"
         id="path184"
         inkscape:connector-curvature="0"
         style="clip-rule:evenodd" /></clipPath><clipPath
       clipPathUnits="userSpaceOnUse"
       id="clipPath194"><path
         d="m 51.12,95.4 689.76,0 0,421.32 -689.76,0 0,-421.32 z"
         id="path196"
         inkscape:connector-curvature="0"
         style="clip-rule:evenodd" /></clipPath><clipPath
       clipPathUnits="userSpaceOnUse"
       id="clipPath206"><path
         d="m 51.12,95.4 689.76,0 0,421.32 -689.76,0 0,-421.32 z"
         id="path208"
         inkscape:connector-curvature="0"
         style="clip-rule:evenodd" /></clipPath><clipPath
       clipPathUnits="userSpaceOnUse"
       id="clipPath218"><path
         d="m 51.12,95.4 689.76,0 0,421.32 -689.76,0 0,-421.32 z"
         id="path220"
         inkscape:connector-curvature="0"
         style="clip-rule:evenodd" /></clipPath><clipPath
       clipPathUnits="userSpaceOnUse"
       id="clipPath230"><path
         d="m 51.12,95.4 689.76,0 0,421.32 -689.76,0 0,-421.32 z"
         id="path232"
         inkscape:connector-curvature="0"
         style="clip-rule:evenodd" /></clipPath><clipPath
       clipPathUnits="userSpaceOnUse"
       id="clipPath242"><path
         d="m 51.12,95.4 689.76,0 0,421.32 -689.76,0 0,-421.32 z"
         id="path244"
         inkscape:connector-curvature="0"
         style="clip-rule:evenodd" /></clipPath><clipPath
       clipPathUnits="userSpaceOnUse"
       id="clipPath254"><path
         d="m 51.12,95.4 689.76,0 0,421.32 -689.76,0 0,-421.32 z"
         id="path256"
         inkscape:connector-curvature="0"
         style="clip-rule:evenodd" /></clipPath><clipPath
       clipPathUnits="userSpaceOnUse"
       id="clipPath266"><path
         d="m 51.12,95.4 689.76,0 0,421.32 -689.76,0 0,-421.32 z"
         id="path268"
         inkscape:connector-curvature="0"
         style="clip-rule:evenodd" /></clipPath><clipPath
       clipPathUnits="userSpaceOnUse"
       id="clipPath278"><path
         d="m 51.12,95.4 689.76,0 0,421.32 -689.76,0 0,-421.32 z"
         id="path280"
         inkscape:connector-curvature="0"
         style="clip-rule:evenodd" /></clipPath><clipPath
       clipPathUnits="userSpaceOnUse"
       id="clipPath290"><path
         d="m 51.12,95.4 689.76,0 0,421.32 -689.76,0 0,-421.32 z"
         id="path292"
         inkscape:connector-curvature="0"
         style="clip-rule:evenodd" /></clipPath><clipPath
       clipPathUnits="userSpaceOnUse"
       id="clipPath302"><path
         d="m 51.12,95.4 689.76,0 0,421.32 -689.76,0 0,-421.32 z"
         id="path304"
         inkscape:connector-curvature="0"
         style="clip-rule:evenodd" /></clipPath><clipPath
       clipPathUnits="userSpaceOnUse"
       id="clipPath314"><path
         d="m 51.12,95.4 689.76,0 0,421.32 -689.76,0 0,-421.32 z"
         id="path316"
         inkscape:connector-curvature="0"
         style="clip-rule:evenodd" /></clipPath><clipPath
       clipPathUnits="userSpaceOnUse"
       id="clipPath326"><path
         d="m 51.12,95.4 689.76,0 0,421.32 -689.76,0 0,-421.32 z"
         id="path328"
         inkscape:connector-curvature="0"
         style="clip-rule:evenodd" /></clipPath><clipPath
       clipPathUnits="userSpaceOnUse"
       id="clipPath338"><path
         d="m 51.12,95.4 689.76,0 0,421.32 -689.76,0 0,-421.32 z"
         id="path340"
         inkscape:connector-curvature="0"
         style="clip-rule:evenodd" /></clipPath><clipPath
       clipPathUnits="userSpaceOnUse"
       id="clipPath350"><path
         d="m 51.12,95.4 689.76,0 0,421.32 -689.76,0 0,-421.32 z"
         id="path352"
         inkscape:connector-curvature="0"
         style="clip-rule:evenodd" /></clipPath><clipPath
       clipPathUnits="userSpaceOnUse"
       id="clipPath362"><path
         d="m 51.12,95.4 689.76,0 0,421.32 -689.76,0 0,-421.32 z"
         id="path364"
         inkscape:connector-curvature="0"
         style="clip-rule:evenodd" /></clipPath><clipPath
       clipPathUnits="userSpaceOnUse"
       id="clipPath374"><path
         d="m 51.12,95.4 689.76,0 0,421.32 -689.76,0 0,-421.32 z"
         id="path376"
         inkscape:connector-curvature="0"
         style="clip-rule:evenodd" /></clipPath><clipPath
       clipPathUnits="userSpaceOnUse"
       id="clipPath386"><path
         d="m 51.12,95.4 689.76,0 0,421.32 -689.76,0 0,-421.32 z"
         id="path388"
         inkscape:connector-curvature="0"
         style="clip-rule:evenodd" /></clipPath><clipPath
       clipPathUnits="userSpaceOnUse"
       id="clipPath400"><path
         d="m 51.12,95.4 689.76,0 0,421.32 -689.76,0 0,-421.32 z"
         id="path402"
         inkscape:connector-curvature="0"
         style="clip-rule:evenodd" /></clipPath><clipPath
       clipPathUnits="userSpaceOnUse"
       id="clipPath416"><path
         d="m 51.12,95.4 689.76,0 0,421.32 -689.76,0 0,-421.32 z"
         id="path418"
         inkscape:connector-curvature="0"
         style="clip-rule:evenodd" /></clipPath><clipPath
       clipPathUnits="userSpaceOnUse"
       id="clipPath432"><path
         d="m 51.12,95.4 689.76,0 0,421.32 -689.76,0 0,-421.32 z"
         id="path434"
         inkscape:connector-curvature="0"
         style="clip-rule:evenodd" /></clipPath></defs><sodipodi:namedview
     pagecolor="#ffffff"
     bordercolor="#666666"
     borderopacity="1"
     objecttolerance="10"
     gridtolerance="10"
     guidetolerance="10"
     inkscape:pageopacity="0"
     inkscape:pageshadow="2"
     inkscape:window-width="1238"
     inkscape:window-height="732"
     id="namedview4"
     showgrid="false"
     inkscape:zoom="0.61699346"
     inkscape:cx="276.11104"
     inkscape:cy="239.72266"
     inkscape:window-x="0"
     inkscape:window-y="0"
     inkscape:window-maximized="0"
     inkscape:current-layer="g10"
     fit-margin-top="0"
     fit-margin-left="0"
     fit-margin-right="0"
     fit-margin-bottom="0" /><g
     id="g10"
     inkscape:groupmode="layer"
     inkscape:label="figure_nb_analogues_relationships"
     transform="matrix(1.25,0,0,-1.25,-85.526186,620.50191)"><path
       d="m 275.58,246.49 c 0,-2.48 -2.02,-4.5 -4.5,-4.5 -2.48,0 -4.49,2.02 -4.49,4.5 0,2.48 2.01,4.49 4.49,4.49 2.48,0 4.5,-2.01 4.5,-4.49 z"
       style="fill:#9bbb59;fill-opacity:1;fill-rule:nonzero;stroke:none"
       id="path86"
       inkscape:connector-curvature="0" /><path
       d="m 124.31,232.61 586.79,0 m -586.79,27.6 586.79,0 m -586.79,27.82 586.79,0 m -586.79,27.6 586.79,0 m -586.79,27.61 586.79,0 m -586.79,27.61 586.79,0 m -586.79,27.81 586.79,0 m -586.79,27.58 586.79,0"
       style="fill:none;stroke:#d9d9d9;stroke-width:1.33749998;stroke-linecap:butt;stroke-linejoin:round;stroke-miterlimit:10;stroke-dasharray:none;stroke-opacity:1"
       id="path14"
       inkscape:connector-curvature="0" /><path
       d="m 222.05,426.24 0,-221.28 m 97.8,221.28 0,-221.28 m 97.79,221.28 0,-221.28 m 97.8,221.28 0,-221.28 m 97.79,221.28 0,-221.28 m 97.87,221.28 0,-221.28"
       style="fill:none;stroke:#d9d9d9;stroke-width:1.33749998;stroke-linecap:butt;stroke-linejoin:round;stroke-miterlimit:10;stroke-dasharray:none;stroke-opacity:1"
       id="path16"
       inkscape:connector-curvature="0" /><path
       d="m 124.31,204.96 0.01,221.28"
       style="fill:none;stroke:#bfbfbf;stroke-width:1.33749998;stroke-linecap:butt;stroke-linejoin:round;stroke-miterlimit:10;stroke-dasharray:none;stroke-opacity:1"
       id="path18"
       inkscape:connector-curvature="0" /><path
       d="m 124.31,204.96 586.79,0"
       style="fill:none;stroke:#bfbfbf;stroke-width:1.33749998;stroke-linecap:butt;stroke-linejoin:round;stroke-miterlimit:10;stroke-dasharray:none;stroke-opacity:1"
       id="path20"
       inkscape:connector-curvature="0" /><path
       d="m 422.16,254.62 c 0,-2.48 -2.01,-4.49 -4.49,-4.49 -2.48,0 -4.5,2.01 -4.5,4.49 0,2.48 2.02,4.49 4.5,4.49 2.48,0 4.49,-2.01 4.49,-4.49 z"
       style="fill:none;stroke:#4f81bd;stroke-width:2.13989997;stroke-linecap:butt;stroke-linejoin:round;stroke-miterlimit:10;stroke-dasharray:none;stroke-opacity:1"
       id="path22"
       inkscape:connector-curvature="0" /><path
       d="m 275.58,246.49 c 0,-2.48 -2.02,-4.5 -4.5,-4.5 -2.48,0 -4.49,2.02 -4.49,4.5 0,2.48 2.01,4.49 4.49,4.49 2.48,0 4.5,-2.01 4.5,-4.49 z"
       style="fill:none;stroke:#9bbb59;stroke-width:1.28400004;stroke-linecap:butt;stroke-linejoin:round;stroke-miterlimit:10;stroke-dasharray:none;stroke-opacity:1"
       id="path88"
       inkscape:connector-curvature="0" /><path
       d="m 275.58,246.49 c 0,-2.48 -2.02,-4.5 -4.5,-4.5 -2.48,0 -4.49,2.02 -4.49,4.5 0,2.48 2.01,4.49 4.49,4.49 2.48,0 4.5,-2.01 4.5,-4.49 z"
       style="fill:none;stroke:#4f81bd;stroke-width:2.13989997;stroke-linecap:butt;stroke-linejoin:round;stroke-miterlimit:10;stroke-dasharray:none;stroke-opacity:1"
       id="path24"
       inkscape:connector-curvature="0" /><path
       d="m 373.37,252.05 c 0,-2.48 -2.01,-4.49 -4.49,-4.49 -2.48,0 -4.5,2.01 -4.5,4.49 0,2.48 2.02,4.5 4.5,4.5 2.48,0 4.49,-2.02 4.49,-4.5 z"
       style="fill:none;stroke:#4f81bd;stroke-width:2.13989997;stroke-linecap:butt;stroke-linejoin:round;stroke-miterlimit:10;stroke-dasharray:none;stroke-opacity:1"
       id="path26"
       inkscape:connector-curvature="0" /><path
       d="m 666.76,268.53 c 0,-2.48 -2.02,-4.49 -4.5,-4.49 -2.48,0 -4.49,2.01 -4.49,4.49 0,2.48 2.01,4.49 4.49,4.49 2.48,0 4.5,-2.01 4.5,-4.49 z"
       style="fill:none;stroke:#4f81bd;stroke-width:2.13989997;stroke-linecap:butt;stroke-linejoin:round;stroke-miterlimit:10;stroke-dasharray:none;stroke-opacity:1"
       id="path28"
       inkscape:connector-curvature="0" /><path
       d="m 422.16,254.62 c 0,-2.48 -2.01,-4.49 -4.49,-4.49 -2.48,0 -4.5,2.01 -4.5,4.49 0,2.48 2.02,4.49 4.5,4.49 2.48,0 4.49,-2.01 4.49,-4.49 z"
       style="fill:none;stroke:#4f81bd;stroke-width:2.13989997;stroke-linecap:butt;stroke-linejoin:round;stroke-miterlimit:10;stroke-dasharray:none;stroke-opacity:1"
       id="path30"
       inkscape:connector-curvature="0" /><path
       d="m 373.37,252.05 c 0,-2.48 -2.01,-4.49 -4.49,-4.49 -2.48,0 -4.5,2.01 -4.5,4.49 0,2.48 2.02,4.5 4.5,4.5 2.48,0 4.49,-2.02 4.49,-4.5 z"
       style="fill:none;stroke:#4f81bd;stroke-width:2.13989997;stroke-linecap:butt;stroke-linejoin:round;stroke-miterlimit:10;stroke-dasharray:none;stroke-opacity:1"
       id="path32"
       inkscape:connector-curvature="0" /><path
       d="m 324.37,249.27 c 0,-2.48 -2.02,-4.49 -4.5,-4.49 -2.48,0 -4.49,2.01 -4.49,4.49 0,2.48 2.01,4.49 4.49,4.49 2.48,0 4.5,-2.01 4.5,-4.49 z"
       style="fill:none;stroke:#4f81bd;stroke-width:2.13989997;stroke-linecap:butt;stroke-linejoin:round;stroke-miterlimit:10;stroke-dasharray:none;stroke-opacity:1"
       id="path34"
       inkscape:connector-curvature="0" /><path
       d="m 177.78,240.92 c 0,-2.48 -2.01,-4.49 -4.49,-4.49 -2.49,0 -4.5,2.01 -4.5,4.49 0,2.49 2.01,4.5 4.5,4.5 2.48,0 4.49,-2.01 4.49,-4.5 z"
       style="fill:none;stroke:#4f81bd;stroke-width:2.13989997;stroke-linecap:butt;stroke-linejoin:round;stroke-miterlimit:10;stroke-dasharray:none;stroke-opacity:1"
       id="path36"
       inkscape:connector-curvature="0" /><path
       d="m 422.16,254.62 c 0,-2.48 -2.01,-4.49 -4.49,-4.49 -2.48,0 -4.5,2.01 -4.5,4.49 0,2.48 2.02,4.49 4.5,4.49 2.48,0 4.49,-2.01 4.49,-4.49 z"
       style="fill:none;stroke:#4f81bd;stroke-width:2.13989997;stroke-linecap:butt;stroke-linejoin:round;stroke-miterlimit:10;stroke-dasharray:none;stroke-opacity:1"
       id="path38"
       inkscape:connector-curvature="0" /><path
       d="m 226.57,243.71 c 0,-2.49 -2.01,-4.5 -4.49,-4.5 -2.48,0 -4.5,2.01 -4.5,4.5 0,2.48 2.02,4.49 4.5,4.49 2.48,0 4.49,-2.01 4.49,-4.49 z"
       style="fill:none;stroke:#4f81bd;stroke-width:2.13989997;stroke-linecap:butt;stroke-linejoin:round;stroke-miterlimit:10;stroke-dasharray:none;stroke-opacity:1"
       id="path40"
       inkscape:connector-curvature="0" /><path
       d="m 422.16,381.95 c 0,-2.49 -2.01,-4.5 -4.49,-4.5 -2.48,0 -4.5,2.01 -4.5,4.5 0,2.48 2.02,4.49 4.5,4.49 2.48,0 4.49,-2.01 4.49,-4.49 z"
       style="fill:#c0504d;fill-opacity:1;fill-rule:nonzero;stroke:none"
       id="path42"
       inkscape:connector-curvature="0" /><path
       d="m 422.16,381.95 c 0,-2.49 -2.01,-4.5 -4.49,-4.5 -2.48,0 -4.5,2.01 -4.5,4.5 0,2.48 2.02,4.49 4.5,4.49 2.48,0 4.49,-2.01 4.49,-4.49 z"
       style="fill:none;stroke:#c0504d;stroke-width:1.28400004;stroke-linecap:butt;stroke-linejoin:round;stroke-miterlimit:10;stroke-dasharray:none;stroke-opacity:1"
       id="path44"
       inkscape:connector-curvature="0" /><path
       d="m 275.58,337.65 c 0,-2.48 -2.02,-4.49 -4.5,-4.49 -2.48,0 -4.49,2.01 -4.49,4.49 0,2.48 2.01,4.49 4.49,4.49 2.48,0 4.5,-2.01 4.5,-4.49 z"
       style="fill:#c0504d;fill-opacity:1;fill-rule:nonzero;stroke:none"
       id="path46"
       inkscape:connector-curvature="0" /><path
       d="m 275.58,337.65 c 0,-2.48 -2.02,-4.49 -4.5,-4.49 -2.48,0 -4.49,2.01 -4.49,4.49 0,2.48 2.01,4.49 4.49,4.49 2.48,0 4.5,-2.01 4.5,-4.49 z"
       style="fill:none;stroke:#c0504d;stroke-width:1.28400004;stroke-linecap:butt;stroke-linejoin:round;stroke-miterlimit:10;stroke-dasharray:none;stroke-opacity:1"
       id="path48"
       inkscape:connector-curvature="0" /><path
       d="m 373.37,357.12 c 0,-2.48 -2.01,-4.49 -4.49,-4.49 -2.48,0 -4.5,2.01 -4.5,4.49 0,2.48 2.02,4.5 4.5,4.5 2.48,0 4.49,-2.02 4.49,-4.5 z"
       style="fill:#c0504d;fill-opacity:1;fill-rule:nonzero;stroke:none"
       id="path50"
       inkscape:connector-curvature="0" /><path
       d="m 373.37,357.12 c 0,-2.48 -2.01,-4.49 -4.49,-4.49 -2.48,0 -4.5,2.01 -4.5,4.49 0,2.48 2.02,4.5 4.5,4.5 2.48,0 4.49,-2.02 4.49,-4.5 z"
       style="fill:none;stroke:#c0504d;stroke-width:1.28400004;stroke-linecap:butt;stroke-linejoin:round;stroke-miterlimit:10;stroke-dasharray:none;stroke-opacity:1"
       id="path52"
       inkscape:connector-curvature="0" /><path
       d="m 666.76,409.55 c 0,-2.48 -2.02,-4.49 -4.5,-4.49 -2.48,0 -4.49,2.01 -4.49,4.49 0,2.48 2.01,4.5 4.49,4.5 2.48,0 4.5,-2.02 4.5,-4.5 z"
       style="fill:#c0504d;fill-opacity:1;fill-rule:nonzero;stroke:none"
       id="path54"
       inkscape:connector-curvature="0" /><path
       d="m 666.76,409.55 c 0,-2.48 -2.02,-4.49 -4.5,-4.49 -2.48,0 -4.49,2.01 -4.49,4.49 0,2.48 2.01,4.5 4.49,4.5 2.48,0 4.5,-2.02 4.5,-4.5 z"
       style="fill:none;stroke:#c0504d;stroke-width:1.28400004;stroke-linecap:butt;stroke-linejoin:round;stroke-miterlimit:10;stroke-dasharray:none;stroke-opacity:1"
       id="path56"
       inkscape:connector-curvature="0" /><path
       d="m 422.16,376.38 c 0,-2.48 -2.01,-4.49 -4.49,-4.49 -2.48,0 -4.5,2.01 -4.5,4.49 0,2.48 2.02,4.5 4.5,4.5 2.48,0 4.49,-2.02 4.49,-4.5 z"
       style="fill:#c0504d;fill-opacity:1;fill-rule:nonzero;stroke:none"
       id="path58"
       inkscape:connector-curvature="0" /><path
       d="m 422.16,376.38 c 0,-2.48 -2.01,-4.49 -4.49,-4.49 -2.48,0 -4.5,2.01 -4.5,4.49 0,2.48 2.02,4.5 4.5,4.5 2.48,0 4.49,-2.02 4.49,-4.5 z"
       style="fill:none;stroke:#c0504d;stroke-width:1.28400004;stroke-linecap:butt;stroke-linejoin:round;stroke-miterlimit:10;stroke-dasharray:none;stroke-opacity:1"
       id="path60"
       inkscape:connector-curvature="0" /><path
       d="m 373.37,323.95 c 0,-2.48 -2.01,-4.49 -4.49,-4.49 -2.48,0 -4.5,2.01 -4.5,4.49 0,2.49 2.02,4.5 4.5,4.5 2.48,0 4.49,-2.01 4.49,-4.5 z"
       style="fill:#c0504d;fill-opacity:1;fill-rule:nonzero;stroke:none"
       id="path62"
       inkscape:connector-curvature="0" /><path
       d="m 373.37,323.95 c 0,-2.48 -2.01,-4.49 -4.49,-4.49 -2.48,0 -4.5,2.01 -4.5,4.49 0,2.49 2.02,4.5 4.5,4.5 2.48,0 4.49,-2.01 4.49,-4.5 z"
       style="fill:none;stroke:#c0504d;stroke-width:1.28400004;stroke-linecap:butt;stroke-linejoin:round;stroke-miterlimit:10;stroke-dasharray:none;stroke-opacity:1"
       id="path64"
       inkscape:connector-curvature="0" /><path
       d="m 324.37,321.17 c 0,-2.48 -2.02,-4.49 -4.5,-4.49 -2.48,0 -4.49,2.01 -4.49,4.49 0,2.48 2.01,4.5 4.49,4.5 2.48,0 4.5,-2.02 4.5,-4.5 z"
       style="fill:#c0504d;fill-opacity:1;fill-rule:nonzero;stroke:none"
       id="path66"
       inkscape:connector-curvature="0" /><path
       d="m 324.37,321.17 c 0,-2.48 -2.02,-4.49 -4.5,-4.49 -2.48,0 -4.49,2.01 -4.49,4.49 0,2.48 2.01,4.5 4.49,4.5 2.48,0 4.5,-2.02 4.5,-4.5 z"
       style="fill:none;stroke:#c0504d;stroke-width:1.28400004;stroke-linecap:butt;stroke-linejoin:round;stroke-miterlimit:10;stroke-dasharray:none;stroke-opacity:1"
       id="path68"
       inkscape:connector-curvature="0" /><path
       d="m 177.78,310.04 c 0,-2.48 -2.01,-4.49 -4.49,-4.49 -2.49,0 -4.5,2.01 -4.5,4.49 0,2.49 2.01,4.5 4.5,4.5 2.48,0 4.49,-2.01 4.49,-4.5 z"
       style="fill:#c0504d;fill-opacity:1;fill-rule:nonzero;stroke:none"
       id="path70"
       inkscape:connector-curvature="0" /><path
       d="m 177.78,310.04 c 0,-2.48 -2.01,-4.49 -4.49,-4.49 -2.49,0 -4.5,2.01 -4.5,4.49 0,2.49 2.01,4.5 4.5,4.5 2.48,0 4.49,-2.01 4.49,-4.5 z"
       style="fill:none;stroke:#c0504d;stroke-width:1.28400004;stroke-linecap:butt;stroke-linejoin:round;stroke-miterlimit:10;stroke-dasharray:none;stroke-opacity:1"
       id="path72"
       inkscape:connector-curvature="0" /><path
       d="m 422.16,370.82 c 0,-2.48 -2.01,-4.5 -4.49,-4.5 -2.48,0 -4.5,2.02 -4.5,4.5 0,2.48 2.02,4.49 4.5,4.49 2.48,0 4.49,-2.01 4.49,-4.49 z"
       style="fill:#c0504d;fill-opacity:1;fill-rule:nonzero;stroke:none"
       id="path74"
       inkscape:connector-curvature="0" /><path
       d="m 422.16,370.82 c 0,-2.48 -2.01,-4.5 -4.49,-4.5 -2.48,0 -4.5,2.02 -4.5,4.5 0,2.48 2.02,4.49 4.5,4.49 2.48,0 4.49,-2.01 4.49,-4.49 z"
       style="fill:none;stroke:#c0504d;stroke-width:1.28400004;stroke-linecap:butt;stroke-linejoin:round;stroke-miterlimit:10;stroke-dasharray:none;stroke-opacity:1"
       id="path76"
       inkscape:connector-curvature="0" /><path
       d="m 226.57,329.3 c 0,-2.48 -2.01,-4.49 -4.49,-4.49 -2.48,0 -4.5,2.01 -4.5,4.49 0,2.49 2.02,4.5 4.5,4.5 2.48,0 4.49,-2.01 4.49,-4.5 z"
       style="fill:#c0504d;fill-opacity:1;fill-rule:nonzero;stroke:none"
       id="path78"
       inkscape:connector-curvature="0" /><path
       d="m 226.57,329.3 c 0,-2.48 -2.01,-4.49 -4.49,-4.49 -2.48,0 -4.5,2.01 -4.5,4.49 0,2.49 2.02,4.5 4.5,4.5 2.48,0 4.49,-2.01 4.49,-4.5 z"
       style="fill:none;stroke:#c0504d;stroke-width:1.28400004;stroke-linecap:butt;stroke-linejoin:round;stroke-miterlimit:10;stroke-dasharray:none;stroke-opacity:1"
       id="path80"
       inkscape:connector-curvature="0" /><path
       d="m 422.16,246.49 c 0,-2.48 -2.01,-4.5 -4.49,-4.5 -2.48,0 -4.5,2.02 -4.5,4.5 0,2.48 2.02,4.49 4.5,4.49 2.48,0 4.49,-2.01 4.49,-4.49 z"
       style="fill:#9bbb59;fill-opacity:1;fill-rule:nonzero;stroke:none"
       id="path82"
       inkscape:connector-curvature="0" /><path
       d="m 422.16,246.49 c 0,-2.48 -2.01,-4.5 -4.49,-4.5 -2.48,0 -4.5,2.02 -4.5,4.5 0,2.48 2.02,4.49 4.5,4.49 2.48,0 4.49,-2.01 4.49,-4.49 z"
       style="fill:none;stroke:#9bbb59;stroke-width:1.28400004;stroke-linecap:butt;stroke-linejoin:round;stroke-miterlimit:10;stroke-dasharray:none;stroke-opacity:1"
       id="path84"
       inkscape:connector-curvature="0" /><path
       d="m 373.37,243.71 c 0,-2.49 -2.01,-4.5 -4.49,-4.5 -2.48,0 -4.5,2.01 -4.5,4.5 0,2.48 2.02,4.49 4.5,4.49 2.48,0 4.49,-2.01 4.49,-4.49 z"
       style="fill:#9bbb59;fill-opacity:1;fill-rule:nonzero;stroke:none"
       id="path90"
       inkscape:connector-curvature="0" /><path
       d="m 373.37,243.71 c 0,-2.49 -2.01,-4.5 -4.49,-4.5 -2.48,0 -4.5,2.01 -4.5,4.5 0,2.48 2.02,4.49 4.5,4.49 2.48,0 4.49,-2.01 4.49,-4.49 z"
       style="fill:none;stroke:#9bbb59;stroke-width:1.28400004;stroke-linecap:butt;stroke-linejoin:round;stroke-miterlimit:10;stroke-dasharray:none;stroke-opacity:1"
       id="path92"
       inkscape:connector-curvature="0" /><path
       d="m 666.76,254.62 c 0,-2.48 -2.02,-4.49 -4.5,-4.49 -2.48,0 -4.49,2.01 -4.49,4.49 0,2.48 2.01,4.49 4.49,4.49 2.48,0 4.5,-2.01 4.5,-4.49 z"
       style="fill:#9bbb59;fill-opacity:1;fill-rule:nonzero;stroke:none"
       id="path94"
       inkscape:connector-curvature="0" /><path
       d="m 666.76,254.62 c 0,-2.48 -2.02,-4.49 -4.5,-4.49 -2.48,0 -4.49,2.01 -4.49,4.49 0,2.48 2.01,4.49 4.49,4.49 2.48,0 4.5,-2.01 4.5,-4.49 z"
       style="fill:none;stroke:#9bbb59;stroke-width:1.28400004;stroke-linecap:butt;stroke-linejoin:round;stroke-miterlimit:10;stroke-dasharray:none;stroke-opacity:1"
       id="path96"
       inkscape:connector-curvature="0" /><path
       d="m 422.16,246.49 c 0,-2.48 -2.01,-4.5 -4.49,-4.5 -2.48,0 -4.5,2.02 -4.5,4.5 0,2.48 2.02,4.49 4.5,4.49 2.48,0 4.49,-2.01 4.49,-4.49 z"
       style="fill:#9bbb59;fill-opacity:1;fill-rule:nonzero;stroke:none"
       id="path98"
       inkscape:connector-curvature="0" /><path
       d="m 422.16,246.49 c 0,-2.48 -2.01,-4.5 -4.49,-4.5 -2.48,0 -4.5,2.02 -4.5,4.5 0,2.48 2.02,4.49 4.5,4.49 2.48,0 4.49,-2.01 4.49,-4.49 z"
       style="fill:none;stroke:#9bbb59;stroke-width:1.28400004;stroke-linecap:butt;stroke-linejoin:round;stroke-miterlimit:10;stroke-dasharray:none;stroke-opacity:1"
       id="path100"
       inkscape:connector-curvature="0" /><path
       d="m 373.37,243.71 c 0,-2.49 -2.01,-4.5 -4.49,-4.5 -2.48,0 -4.5,2.01 -4.5,4.5 0,2.48 2.02,4.49 4.5,4.49 2.48,0 4.49,-2.01 4.49,-4.49 z"
       style="fill:#9bbb59;fill-opacity:1;fill-rule:nonzero;stroke:none"
       id="path102"
       inkscape:connector-curvature="0" /><path
       d="m 373.37,243.71 c 0,-2.49 -2.01,-4.5 -4.49,-4.5 -2.48,0 -4.5,2.01 -4.5,4.5 0,2.48 2.02,4.49 4.5,4.49 2.48,0 4.49,-2.01 4.49,-4.49 z"
       style="fill:none;stroke:#9bbb59;stroke-width:1.28400004;stroke-linecap:butt;stroke-linejoin:round;stroke-miterlimit:10;stroke-dasharray:none;stroke-opacity:1"
       id="path104"
       inkscape:connector-curvature="0" /><path
       d="m 324.37,243.71 c 0,-2.49 -2.02,-4.5 -4.5,-4.5 -2.48,0 -4.49,2.01 -4.49,4.5 0,2.48 2.01,4.49 4.49,4.49 2.48,0 4.5,-2.01 4.5,-4.49 z"
       style="fill:#9bbb59;fill-opacity:1;fill-rule:nonzero;stroke:none"
       id="path106"
       inkscape:connector-curvature="0" /><path
       d="m 324.37,243.71 c 0,-2.49 -2.02,-4.5 -4.5,-4.5 -2.48,0 -4.49,2.01 -4.49,4.5 0,2.48 2.01,4.49 4.49,4.49 2.48,0 4.5,-2.01 4.5,-4.49 z"
       style="fill:none;stroke:#9bbb59;stroke-width:1.28400004;stroke-linecap:butt;stroke-linejoin:round;stroke-miterlimit:10;stroke-dasharray:none;stroke-opacity:1"
       id="path108"
       inkscape:connector-curvature="0" /><path
       d="m 177.78,235.36 c 0,-2.48 -2.01,-4.49 -4.49,-4.49 -2.49,0 -4.5,2.01 -4.5,4.49 0,2.48 2.01,4.49 4.5,4.49 2.48,0 4.49,-2.01 4.49,-4.49 z"
       style="fill:#9bbb59;fill-opacity:1;fill-rule:nonzero;stroke:none"
       id="path110"
       inkscape:connector-curvature="0" /><path
       d="m 177.78,235.36 c 0,-2.48 -2.01,-4.49 -4.49,-4.49 -2.49,0 -4.5,2.01 -4.5,4.49 0,2.48 2.01,4.49 4.5,4.49 2.48,0 4.49,-2.01 4.49,-4.49 z"
       style="fill:none;stroke:#9bbb59;stroke-width:1.28400004;stroke-linecap:butt;stroke-linejoin:round;stroke-miterlimit:10;stroke-dasharray:none;stroke-opacity:1"
       id="path112"
       inkscape:connector-curvature="0" /><path
       d="m 422.16,246.49 c 0,-2.48 -2.01,-4.5 -4.49,-4.5 -2.48,0 -4.5,2.02 -4.5,4.5 0,2.48 2.02,4.49 4.5,4.49 2.48,0 4.49,-2.01 4.49,-4.49 z"
       style="fill:#9bbb59;fill-opacity:1;fill-rule:nonzero;stroke:none"
       id="path114"
       inkscape:connector-curvature="0" /><path
       d="m 422.16,246.49 c 0,-2.48 -2.01,-4.5 -4.49,-4.5 -2.48,0 -4.5,2.02 -4.5,4.5 0,2.48 2.02,4.49 4.5,4.49 2.48,0 4.49,-2.01 4.49,-4.49 z"
       style="fill:none;stroke:#9bbb59;stroke-width:1.28400004;stroke-linecap:butt;stroke-linejoin:round;stroke-miterlimit:10;stroke-dasharray:none;stroke-opacity:1"
       id="path116"
       inkscape:connector-curvature="0" /><path
       d="m 226.57,238.14 c 0,-2.48 -2.01,-4.49 -4.49,-4.49 -2.48,0 -4.5,2.01 -4.5,4.49 0,2.48 2.02,4.5 4.5,4.5 2.48,0 4.49,-2.02 4.49,-4.5 z"
       style="fill:#9bbb59;fill-opacity:1;fill-rule:nonzero;stroke:none"
       id="path118"
       inkscape:connector-curvature="0" /><path
       d="m 226.57,238.14 c 0,-2.48 -2.01,-4.49 -4.49,-4.49 -2.48,0 -4.5,2.01 -4.5,4.49 0,2.48 2.02,4.5 4.5,4.5 2.48,0 4.49,-2.02 4.49,-4.5 z"
       style="fill:none;stroke:#9bbb59;stroke-width:1.28400004;stroke-linecap:butt;stroke-linejoin:round;stroke-miterlimit:10;stroke-dasharray:none;stroke-opacity:1"
       id="path120"
       inkscape:connector-curvature="0" /><g
       id="g122"><path
         d="M 173.21,311.43 662.2,415.04"
         style="fill:none;stroke:#c0504d;stroke-width:2.67490005;stroke-linecap:round;stroke-linejoin:round;stroke-miterlimit:10;stroke-dasharray:0, 5.3498;stroke-dashoffset:0;stroke-opacity:1"
         id="path124"
         inkscape:connector-curvature="0" /></g><g
       id="g126"><path
         d="M 173.21,237.74 662.2,255.12"
         style="fill:none;stroke:#9bbb59;stroke-width:2.67490005;stroke-linecap:round;stroke-linejoin:round;stroke-miterlimit:10;stroke-dasharray:0, 5.3498;stroke-dashoffset:0;stroke-opacity:1"
         id="path128"
         inkscape:connector-curvature="0" /></g><g
       id="g130"><g
         id="g132"
         clip-path="url(#clipPath134)"><text
           transform="matrix(1,0,0,-1,91.848,200.21)"
           style="font-variant:normal;font-weight:normal;font-size:16.05599976px;font-family:'Palatino Linotype';-inkscape-font-specification:'Palatino Linotype';writing-mode:lr-tb;fill:#000000;fill-opacity:1;fill-rule:nonzero;stroke:none"
           id="text138"><tspan
             x="0 8.1359997"
             y="0"
             sodipodi:role="line"
             id="tspan140">10</tspan></text>
</g></g><g
       id="g142"><g
         id="g144"
         clip-path="url(#clipPath146)"><text
           transform="matrix(1,0,0,-1,91.848,227.88)"
           style="font-variant:normal;font-weight:normal;font-size:16.05599976px;font-family:'Palatino Linotype';-inkscape-font-specification:'Palatino Linotype';writing-mode:lr-tb;fill:#000000;fill-opacity:1;fill-rule:nonzero;stroke:none"
           id="text150"><tspan
             x="0 8.1359997"
             y="0"
             sodipodi:role="line"
             id="tspan152">20</tspan></text>
</g></g><g
       id="g154"><g
         id="g156"
         clip-path="url(#clipPath158)"><text
           transform="matrix(1,0,0,-1,91.848,255.53)"
           style="font-variant:normal;font-weight:normal;font-size:16.03199959px;font-family:'Palatino Linotype';-inkscape-font-specification:'Palatino Linotype';writing-mode:lr-tb;fill:#000000;fill-opacity:1;fill-rule:nonzero;stroke:none"
           id="text162"><tspan
             x="0 8.1359997"
             y="0"
             sodipodi:role="line"
             id="tspan164">30</tspan></text>
</g></g><g
       id="g166"><g
         id="g168"
         clip-path="url(#clipPath170)"><text
           transform="matrix(1,0,0,-1,91.848,283.2)"
           style="font-variant:normal;font-weight:normal;font-size:16.05599976px;font-family:'Palatino Linotype';-inkscape-font-specification:'Palatino Linotype';writing-mode:lr-tb;fill:#000000;fill-opacity:1;fill-rule:nonzero;stroke:none"
           id="text174"><tspan
             x="0 8.1359997"
             y="0"
             sodipodi:role="line"
             id="tspan176">40</tspan></text>
</g></g><g
       id="g178"><g
         id="g180"
         clip-path="url(#clipPath182)"><text
           transform="matrix(1,0,0,-1,91.848,310.87)"
           style="font-variant:normal;font-weight:normal;font-size:16.05599976px;font-family:'Palatino Linotype';-inkscape-font-specification:'Palatino Linotype';writing-mode:lr-tb;fill:#000000;fill-opacity:1;fill-rule:nonzero;stroke:none"
           id="text186"><tspan
             x="0 8.1359997"
             y="0"
             sodipodi:role="line"
             id="tspan188">50</tspan></text>
</g></g><g
       id="g190"><g
         id="g192"
         clip-path="url(#clipPath194)"><text
           transform="matrix(1,0,0,-1,91.848,338.54)"
           style="font-variant:normal;font-weight:normal;font-size:16.05599976px;font-family:'Palatino Linotype';-inkscape-font-specification:'Palatino Linotype';writing-mode:lr-tb;fill:#000000;fill-opacity:1;fill-rule:nonzero;stroke:none"
           id="text198"><tspan
             x="0 8.1359997"
             y="0"
             sodipodi:role="line"
             id="tspan200">60</tspan></text>
</g></g><g
       id="g202"><g
         id="g204"
         clip-path="url(#clipPath206)"><text
           transform="matrix(1,0,0,-1,91.848,366.19)"
           style="font-variant:normal;font-weight:normal;font-size:16.05599976px;font-family:'Palatino Linotype';-inkscape-font-specification:'Palatino Linotype';writing-mode:lr-tb;fill:#000000;fill-opacity:1;fill-rule:nonzero;stroke:none"
           id="text210"><tspan
             x="0 8.1359997"
             y="0"
             sodipodi:role="line"
             id="tspan212">70</tspan></text>
</g></g><g
       id="g214"><g
         id="g216"
         clip-path="url(#clipPath218)"><text
           transform="matrix(1,0,0,-1,91.848,393.86)"
           style="font-variant:normal;font-weight:normal;font-size:16.05599976px;font-family:'Palatino Linotype';-inkscape-font-specification:'Palatino Linotype';writing-mode:lr-tb;fill:#000000;fill-opacity:1;fill-rule:nonzero;stroke:none"
           id="text222"><tspan
             x="0 8.1359997"
             y="0"
             sodipodi:role="line"
             id="tspan224">80</tspan></text>
</g></g><g
       id="g226"><g
         id="g228"
         clip-path="url(#clipPath230)"><text
           transform="matrix(1,0,0,-1,91.848,421.54)"
           style="font-variant:normal;font-weight:normal;font-size:16.05599976px;font-family:'Palatino Linotype';-inkscape-font-specification:'Palatino Linotype';writing-mode:lr-tb;fill:#000000;fill-opacity:1;fill-rule:nonzero;stroke:none"
           id="text234"><tspan
             x="0 8.1359997"
             y="0"
             sodipodi:role="line"
             id="tspan236">90</tspan></text>
</g></g><g
       id="g238"><g
         id="g240"
         clip-path="url(#clipPath242)"><text
           transform="matrix(1,0,0,-1,116.33,176.74)"
           style="font-variant:normal;font-weight:normal;font-size:16.05599976px;font-family:'Palatino Linotype';-inkscape-font-specification:'Palatino Linotype';writing-mode:lr-tb;fill:#000000;fill-opacity:1;fill-rule:nonzero;stroke:none"
           id="text246"><tspan
             x="0 8.1359997"
             y="0"
             sodipodi:role="line"
             id="tspan248">22</tspan></text>
</g></g><g
       id="g250"><g
         id="g252"
         clip-path="url(#clipPath254)"><text
           transform="matrix(1,0,0,-1,214.13,176.74)"
           style="font-variant:normal;font-weight:normal;font-size:16.05599976px;font-family:'Palatino Linotype';-inkscape-font-specification:'Palatino Linotype';writing-mode:lr-tb;fill:#000000;fill-opacity:1;fill-rule:nonzero;stroke:none"
           id="text258"><tspan
             x="0 8.1359997"
             y="0"
             sodipodi:role="line"
             id="tspan260">24</tspan></text>
</g></g><g
       id="g262"><g
         id="g264"
         clip-path="url(#clipPath266)"><text
           transform="matrix(1,0,0,-1,311.95,176.74)"
           style="font-variant:normal;font-weight:normal;font-size:16.05599976px;font-family:'Palatino Linotype';-inkscape-font-specification:'Palatino Linotype';writing-mode:lr-tb;fill:#000000;fill-opacity:1;fill-rule:nonzero;stroke:none"
           id="text270"><tspan
             x="0 8.1359997"
             y="0"
             sodipodi:role="line"
             id="tspan272">26</tspan></text>
</g></g><g
       id="g274"><g
         id="g276"
         clip-path="url(#clipPath278)"><text
           transform="matrix(1,0,0,-1,409.75,176.74)"
           style="font-variant:normal;font-weight:normal;font-size:16.05599976px;font-family:'Palatino Linotype';-inkscape-font-specification:'Palatino Linotype';writing-mode:lr-tb;fill:#000000;fill-opacity:1;fill-rule:nonzero;stroke:none"
           id="text282"><tspan
             x="0 8.1359997"
             y="0"
             sodipodi:role="line"
             id="tspan284">28</tspan></text>
</g></g><g
       id="g286"><g
         id="g288"
         clip-path="url(#clipPath290)"><text
           transform="matrix(1,0,0,-1,507.58,176.74)"
           style="font-variant:normal;font-weight:normal;font-size:16.05599976px;font-family:'Palatino Linotype';-inkscape-font-specification:'Palatino Linotype';writing-mode:lr-tb;fill:#000000;fill-opacity:1;fill-rule:nonzero;stroke:none"
           id="text294"><tspan
             x="0 8.1359997"
             y="0"
             sodipodi:role="line"
             id="tspan296">30</tspan></text>
</g></g><g
       id="g298"><g
         id="g300"
         clip-path="url(#clipPath302)"><text
           transform="matrix(1,0,0,-1,605.38,176.74)"
           style="font-variant:normal;font-weight:normal;font-size:16.05599976px;font-family:'Palatino Linotype';-inkscape-font-specification:'Palatino Linotype';writing-mode:lr-tb;fill:#000000;fill-opacity:1;fill-rule:nonzero;stroke:none"
           id="text306"><tspan
             x="0 8.1359997"
             y="0"
             sodipodi:role="line"
             id="tspan308">32</tspan></text>
</g></g><g
       id="g310"><g
         id="g312"
         clip-path="url(#clipPath314)"><text
           transform="matrix(1,0,0,-1,703.2,176.74)"
           style="font-variant:normal;font-weight:normal;font-size:16.05599976px;font-family:'Palatino Linotype';-inkscape-font-specification:'Palatino Linotype';writing-mode:lr-tb;fill:#000000;fill-opacity:1;fill-rule:nonzero;stroke:none"
           id="text318"><tspan
             x="0 8.1359997"
             y="0"
             sodipodi:role="line"
             id="tspan320">34</tspan></text>
</g></g><g
       id="g322"><g
         id="g324"
         clip-path="url(#clipPath326)"><text
           transform="matrix(-4.4e-8,1,1,4.4e-8,81.264,259.78)"
           style="font-variant:normal;font-weight:normal;font-size:17.76000023px;font-family:'Palatino Linotype';-inkscape-font-specification:'Palatino Linotype';writing-mode:lr-tb;fill:#000000;fill-opacity:1;fill-rule:nonzero;stroke:none"
           id="text330"><tspan
             x="0 14.75856 23.745119 28.18512 43.867199 52.374241 58.164001 68.50032 78.303841 89.208481 93.648483 102.52848"
             y="0"
             sodipodi:role="line"
             id="tspan332">N1 method z4</tspan></text>
</g></g><g
       id="g334"
       transform="translate(0,8)"><g
         id="g336"
         clip-path="url(#clipPath338)"><text
           transform="matrix(1,0,0,-1,332.14,147.79)"
           style="font-variant:normal;font-weight:normal;font-size:17.76000023px;font-family:'Palatino Linotype';-inkscape-font-specification:'Palatino Linotype';writing-mode:lr-tb;fill:#000000;fill-opacity:1;fill-rule:nonzero;stroke:none"
           id="text342"><tspan
             x="0 14.75856 25.46784 41.096642 50.722561 59.229599 66.29808 71.199837 81.021118 86.970718 91.250877 100.00656 110.27184 119.02752 124.35552 134.1768 144.05136 154.76064 163.26768"
             y="0"
             sodipodi:role="line"
             id="tspan344">Number of analogues</tspan></text>
</g></g><g
       id="g346"><g
         id="g348"
         clip-path="url(#clipPath350)"><text
           transform="matrix(1,0,0,-1,131.23,480.91)"
           style="font-variant:normal;font-weight:normal;font-size:21.40800095px;font-family:'Palatino Linotype';-inkscape-font-specification:'Palatino Linotype';writing-mode:lr-tb;fill:#000000;fill-opacity:1;fill-rule:nonzero;stroke:none"
           id="text354"><tspan
             x="0 14.300544 24.554976 30.784704 41.488705 48.531937 54.504768 66.236351 78.695808 87.622948 100.0824 106.01241 118.87862 127.82717 133.56451 145.3175 155.57193 162.61517 179.93423 190.18867 200.4431 212.90256 218.42583 225.46906 237.92851 248.18294 253.53494 265.90878 278.75357 297.5712 309.32419 319.57861 328.12042 333.47241 345.20401 352.26865 357.62064 368.32465 380.78409 391.4881 397.6322 409.36377 421.30945 434.15424 444.40866 453.40002 458.75204 476.54208 487.24609 492.59808 503.30209 515.6759 528.75616"
             y="0"
             sodipodi:role="line"
             id="tspan356">Relationships between the number of analogues N1 and </tspan></text>
</g></g><g
       id="g358"><g
         id="g360"
         clip-path="url(#clipPath362)"><text
           transform="matrix(1,0,0,-1,247.44,452.02)"
           style="font-variant:normal;font-weight:normal;font-size:21.40800095px;font-family:'Palatino Linotype';-inkscape-font-specification:'Palatino Linotype';writing-mode:lr-tb;fill:#000000;fill-opacity:1;fill-rule:nonzero;stroke:none"
           id="text366"><tspan
             x="0 17.790049 28.494047 33.846046 40.86787 49.409664 61.162655 80.065918 85.417923 96.121918"
             y="0"
             sodipodi:role="line"
             id="tspan368">N2 from z4</tspan></text>
</g></g><g
       id="g370"><g
         id="g372"
         clip-path="url(#clipPath374)"><text
           transform="matrix(1,0,0,-1,354.24,452.02)"
           style="font-variant:normal;font-weight:normal;font-size:21.40800095px;font-family:'Palatino Linotype';-inkscape-font-specification:'Palatino Linotype';writing-mode:lr-tb;fill:#000000;fill-opacity:1;fill-rule:nonzero;stroke:none"
           id="text378"><tspan
             x="0"
             y="0"
             id="tspan380">-</tspan></text>
</g></g><g
       id="g382"><g
         id="g384"
         clip-path="url(#clipPath386)"><text
           transform="matrix(1,0,0,-1,361.3,452.02)"
           style="font-variant:normal;font-weight:normal;font-size:21.40800095px;font-family:'Palatino Linotype';-inkscape-font-specification:'Palatino Linotype';writing-mode:lr-tb;fill:#000000;fill-opacity:1;fill-rule:nonzero;stroke:none"
           id="text390"><tspan
             x="0 12.459456 18.432287 29.136288 34.680962 45.38496 57.844418 70.924706 76.426559 94.216606 104.92061 110.27261 117.31584 125.85764 137.61063 156.51389 161.58759 172.29158"
             y="0"
             sodipodi:role="line"
             id="tspan392">hi2 and N1 from z4</tspan></text>
</g></g><path
       d="m 175.19,130.4 c 0,-2.48 -2.02,-4.5 -4.5,-4.5 -2.48,0 -4.49,2.02 -4.49,4.5 0,2.48 2.01,4.49 4.49,4.49 2.48,0 4.5,-2.01 4.5,-4.49 z"
       style="fill:none;stroke:#4f81bd;stroke-width:2.22909999;stroke-linecap:butt;stroke-linejoin:round;stroke-miterlimit:10;stroke-dasharray:none;stroke-opacity:1"
       id="path394"
       inkscape:connector-curvature="0" /><g
       id="g396"
       transform="translate(0,8)"><g
         id="g398"
         clip-path="url(#clipPath400)"><text
           transform="matrix(1,0,0,-1,179.86,117.43)"
           style="font-variant:normal;font-weight:normal;font-size:16.05599976px;font-family:'Palatino Linotype';-inkscape-font-specification:'Palatino Linotype';writing-mode:lr-tb;fill:#000000;fill-opacity:1;fill-rule:nonzero;stroke:none"
           id="text404"><tspan
             x="0 15.188976 22.879801 28.033775 37.426537 46.193111 56.003326 60.065495 67.981102 76.105438 79.942825 83.956825 97.299362"
             y="0"
             sodipodi:role="line"
             id="tspan406">Method z4, N1</tspan></text>
</g></g><path
       d="m 321.56,130.4 c 0,-2.48 -2.01,-4.5 -4.5,-4.5 -2.48,0 -4.49,2.02 -4.49,4.5 0,2.48 2.01,4.49 4.49,4.49 2.49,0 4.5,-2.01 4.5,-4.49 z"
       style="fill:#c0504d;fill-opacity:1;fill-rule:nonzero;stroke:none"
       id="path408"
       inkscape:connector-curvature="0" /><path
       d="m 321.56,130.4 c 0,-2.48 -2.01,-4.5 -4.5,-4.5 -2.48,0 -4.49,2.02 -4.49,4.5 0,2.48 2.01,4.49 4.49,4.49 2.49,0 4.5,-2.01 4.5,-4.49 z"
       style="fill:none;stroke:#c0504d;stroke-width:1.33749998;stroke-linecap:butt;stroke-linejoin:round;stroke-miterlimit:10;stroke-dasharray:none;stroke-opacity:1"
       id="path410"
       inkscape:connector-curvature="0" /><g
       id="g412"
       transform="translate(0,8)"><g
         id="g414"
         clip-path="url(#clipPath416)"><text
           transform="matrix(1,0,0,-1,326.3,117.43)"
           style="font-variant:normal;font-weight:normal;font-size:16.05599976px;font-family:'Palatino Linotype';-inkscape-font-specification:'Palatino Linotype';writing-mode:lr-tb;fill:#000000;fill-opacity:1;fill-rule:nonzero;stroke:none"
           id="text420"><tspan
             x="0 15.188976 22.879801 28.033775 37.442593 46.209167 56.019382 60.129719 68.045326 76.169662 81.307587 90.7164 95.388695 103.33642 107.39858 111.46075 124.73907"
             y="0"
             sodipodi:role="line"
             id="tspan422">Method z4-hi2, N1</tspan></text>
</g></g><path
       d="m 495.32,130.4 c 0,-2.48 -2.01,-4.5 -4.49,-4.5 -2.49,0 -4.5,2.02 -4.5,4.5 0,2.48 2.01,4.49 4.5,4.49 2.48,0 4.49,-2.01 4.49,-4.49 z"
       style="fill:#9bbb59;fill-opacity:1;fill-rule:nonzero;stroke:none"
       id="path424"
       inkscape:connector-curvature="0" /><path
       d="m 495.32,130.4 c 0,-2.48 -2.01,-4.5 -4.49,-4.5 -2.49,0 -4.5,2.02 -4.5,4.5 0,2.48 2.01,4.49 4.5,4.49 2.48,0 4.49,-2.01 4.49,-4.49 z"
       style="fill:none;stroke:#9bbb59;stroke-width:1.33749998;stroke-linecap:butt;stroke-linejoin:round;stroke-miterlimit:10;stroke-dasharray:none;stroke-opacity:1"
       id="path426"
       inkscape:connector-curvature="0" /><g
       id="g428"
       transform="translate(0,8)"><g
         id="g430"
         clip-path="url(#clipPath432)"><text
           transform="matrix(1,0,0,-1,500.16,117.43)"
           style="font-variant:normal;font-weight:normal;font-size:16.05599976px;font-family:'Palatino Linotype';-inkscape-font-specification:'Palatino Linotype';writing-mode:lr-tb;fill:#000000;fill-opacity:1;fill-rule:nonzero;stroke:none"
           id="text436"><tspan
             x="0 15.188976 22.879801 28.033775 37.426537 46.193111 56.003326 60.065495 67.981102 76.105438 81.243362 90.636124 95.308418 103.25613 107.27013 111.34836 124.62667"
             y="0"
             sodipodi:role="line"
             id="tspan438">Method z4-hi2, N2</tspan></text>
</g></g></g></svg>