<?xml version="1.0" encoding="UTF-8" standalone="no"?>
<!-- Created with Inkscape (http://www.inkscape.org/) -->

<svg
   xmlns:dc="http://purl.org/dc/elements/1.1/"
   xmlns:cc="http://creativecommons.org/ns#"
   xmlns:rdf="http://www.w3.org/1999/02/22-rdf-syntax-ns#"
   xmlns:svg="http://www.w3.org/2000/svg"
   xmlns="http://www.w3.org/2000/svg"
   xmlns:sodipodi="http://sodipodi.sourceforge.net/DTD/sodipodi-0.dtd"
   xmlns:inkscape="http://www.inkscape.org/namespaces/inkscape"
   id="svg2"
   version="1.1"
   inkscape:version="0.91 r13725"
   xml:space="preserve"
   width="807.60468"
   height="410.06924"
   viewBox="0 0 807.60468 410.06924"
   sodipodi:docname="figure_nb_analogues.svg"><metadata
     id="metadata8"><rdf:RDF><cc:Work
         rdf:about=""><dc:format>image/svg+xml</dc:format><dc:type
           rdf:resource="http://purl.org/dc/dcmitype/StillImage" /><dc:title></dc:title></cc:Work></rdf:RDF></metadata><defs
     id="defs6"><clipPath
       clipPathUnits="userSpaceOnUse"
       id="clipPath28"><path
         d="m 51.24,119.64 689.64,0 0,372.72 -689.64,0 0,-372.72 z"
         id="path30"
         inkscape:connector-curvature="0"
         style="clip-rule:evenodd" /></clipPath><clipPath
       clipPathUnits="userSpaceOnUse"
       id="clipPath40"><path
         d="m 51.24,119.64 689.64,0 0,372.72 -689.64,0 0,-372.72 z"
         id="path42"
         inkscape:connector-curvature="0"
         style="clip-rule:evenodd" /></clipPath><clipPath
       clipPathUnits="userSpaceOnUse"
       id="clipPath52"><path
         d="m 51.24,119.64 689.64,0 0,372.72 -689.64,0 0,-372.72 z"
         id="path54"
         inkscape:connector-curvature="0"
         style="clip-rule:evenodd" /></clipPath><clipPath
       clipPathUnits="userSpaceOnUse"
       id="clipPath64"><path
         d="m 51.24,119.64 689.64,0 0,372.72 -689.64,0 0,-372.72 z"
         id="path66"
         inkscape:connector-curvature="0"
         style="clip-rule:evenodd" /></clipPath><clipPath
       clipPathUnits="userSpaceOnUse"
       id="clipPath76"><path
         d="m 51.24,119.64 689.64,0 0,372.72 -689.64,0 0,-372.72 z"
         id="path78"
         inkscape:connector-curvature="0"
         style="clip-rule:evenodd" /></clipPath><clipPath
       clipPathUnits="userSpaceOnUse"
       id="clipPath88"><path
         d="m 51.24,119.64 689.64,0 0,372.72 -689.64,0 0,-372.72 z"
         id="path90"
         inkscape:connector-curvature="0"
         style="clip-rule:evenodd" /></clipPath><clipPath
       clipPathUnits="userSpaceOnUse"
       id="clipPath100"><path
         d="m 51.24,119.64 689.64,0 0,372.72 -689.64,0 0,-372.72 z"
         id="path102"
         inkscape:connector-curvature="0"
         style="clip-rule:evenodd" /></clipPath><clipPath
       clipPathUnits="userSpaceOnUse"
       id="clipPath112"><path
         d="m 51.24,119.64 689.64,0 0,372.72 -689.64,0 0,-372.72 z"
         id="path114"
         inkscape:connector-curvature="0"
         style="clip-rule:evenodd" /></clipPath><clipPath
       clipPathUnits="userSpaceOnUse"
       id="clipPath124"><path
         d="m 51.24,119.64 689.64,0 0,372.72 -689.64,0 0,-372.72 z"
         id="path126"
         inkscape:connector-curvature="0"
         style="clip-rule:evenodd" /></clipPath><clipPath
       clipPathUnits="userSpaceOnUse"
       id="clipPath136"><path
         d="m 51.24,119.64 689.64,0 0,372.72 -689.64,0 0,-372.72 z"
         id="path138"
         inkscape:connector-curvature="0"
         style="clip-rule:evenodd" /></clipPath><clipPath
       clipPathUnits="userSpaceOnUse"
       id="clipPath148"><path
         d="m 51.24,119.64 689.64,0 0,372.72 -689.64,0 0,-372.72 z"
         id="path150"
         inkscape:connector-curvature="0"
         style="clip-rule:evenodd" /></clipPath><clipPath
       clipPathUnits="userSpaceOnUse"
       id="clipPath160"><path
         d="m 51.24,119.64 689.64,0 0,372.72 -689.64,0 0,-372.72 z"
         id="path162"
         inkscape:connector-curvature="0"
         style="clip-rule:evenodd" /></clipPath><clipPath
       clipPathUnits="userSpaceOnUse"
       id="clipPath172"><path
         d="m 51.24,119.64 689.64,0 0,372.72 -689.64,0 0,-372.72 z"
         id="path174"
         inkscape:connector-curvature="0"
         style="clip-rule:evenodd" /></clipPath><clipPath
       clipPathUnits="userSpaceOnUse"
       id="clipPath184"><path
         d="m 51.24,119.64 689.64,0 0,372.72 -689.64,0 0,-372.72 z"
         id="path186"
         inkscape:connector-curvature="0"
         style="clip-rule:evenodd" /></clipPath><clipPath
       clipPathUnits="userSpaceOnUse"
       id="clipPath196"><path
         d="m 51.24,119.64 689.64,0 0,372.72 -689.64,0 0,-372.72 z"
         id="path198"
         inkscape:connector-curvature="0"
         style="clip-rule:evenodd" /></clipPath><clipPath
       clipPathUnits="userSpaceOnUse"
       id="clipPath208"><path
         d="m 51.24,119.64 689.64,0 0,372.72 -689.64,0 0,-372.72 z"
         id="path210"
         inkscape:connector-curvature="0"
         style="clip-rule:evenodd" /></clipPath><clipPath
       clipPathUnits="userSpaceOnUse"
       id="clipPath220"><path
         d="m 51.24,119.64 689.64,0 0,372.72 -689.64,0 0,-372.72 z"
         id="path222"
         inkscape:connector-curvature="0"
         style="clip-rule:evenodd" /></clipPath><clipPath
       clipPathUnits="userSpaceOnUse"
       id="clipPath232"><path
         d="m 51.24,119.64 689.64,0 0,372.72 -689.64,0 0,-372.72 z"
         id="path234"
         inkscape:connector-curvature="0"
         style="clip-rule:evenodd" /></clipPath><clipPath
       clipPathUnits="userSpaceOnUse"
       id="clipPath244"><path
         d="m 51.24,119.64 689.64,0 0,372.72 -689.64,0 0,-372.72 z"
         id="path246"
         inkscape:connector-curvature="0"
         style="clip-rule:evenodd" /></clipPath><clipPath
       clipPathUnits="userSpaceOnUse"
       id="clipPath256"><path
         d="m 51.24,119.64 689.64,0 0,372.72 -689.64,0 0,-372.72 z"
         id="path258"
         inkscape:connector-curvature="0"
         style="clip-rule:evenodd" /></clipPath><clipPath
       clipPathUnits="userSpaceOnUse"
       id="clipPath268"><path
         d="m 51.24,119.64 689.64,0 0,372.72 -689.64,0 0,-372.72 z"
         id="path270"
         inkscape:connector-curvature="0"
         style="clip-rule:evenodd" /></clipPath><clipPath
       clipPathUnits="userSpaceOnUse"
       id="clipPath280"><path
         d="m 51.24,119.64 689.64,0 0,372.72 -689.64,0 0,-372.72 z"
         id="path282"
         inkscape:connector-curvature="0"
         style="clip-rule:evenodd" /></clipPath><clipPath
       clipPathUnits="userSpaceOnUse"
       id="clipPath294"><path
         d="m 51.24,119.64 689.64,0 0,372.72 -689.64,0 0,-372.72 z"
         id="path296"
         inkscape:connector-curvature="0"
         style="clip-rule:evenodd" /></clipPath><clipPath
       clipPathUnits="userSpaceOnUse"
       id="clipPath308"><path
         d="m 51.24,119.64 689.64,0 0,372.72 -689.64,0 0,-372.72 z"
         id="path310"
         inkscape:connector-curvature="0"
         style="clip-rule:evenodd" /></clipPath><clipPath
       clipPathUnits="userSpaceOnUse"
       id="clipPath322"><path
         d="m 51.24,119.64 689.64,0 0,372.72 -689.64,0 0,-372.72 z"
         id="path324"
         inkscape:connector-curvature="0"
         style="clip-rule:evenodd" /></clipPath></defs><sodipodi:namedview
     pagecolor="#ffffff"
     bordercolor="#666666"
     borderopacity="1"
     objecttolerance="10"
     gridtolerance="10"
     guidetolerance="10"
     inkscape:pageopacity="0"
     inkscape:pageshadow="2"
     inkscape:window-width="1404"
     inkscape:window-height="788"
     id="namedview4"
     showgrid="false"
     inkscape:zoom="0.87256052"
     inkscape:cx="348.86533"
     inkscape:cy="201.31742"
     inkscape:window-x="0"
     inkscape:window-y="0"
     inkscape:window-maximized="0"
     inkscape:current-layer="g10"
     fit-margin-top="0"
     fit-margin-left="0"
     fit-margin-right="0"
     fit-margin-bottom="0" /><g
     id="g10"
     inkscape:groupmode="layer"
     inkscape:label="figure_nb_analogues"
     transform="matrix(1.25,0,0,-1.25,-93.945347,590.08941)"><path
       d="m 135.36,231.61 585.88,0 m -585.88,24.4 585.88,0 m -585.88,24.61 585.88,0 m -585.88,24.39 585.88,0 m -585.88,24.61 585.88,0 m -585.88,24.61 585.88,0 m -585.88,24.39 585.88,0 m -585.88,24.61 585.88,0 m -585.88,24.55 585.88,0"
       style="fill:none;stroke:#d9d9d9;stroke-width:1.33749998;stroke-linecap:butt;stroke-linejoin:round;stroke-miterlimit:10;stroke-dasharray:none;stroke-opacity:1"
       id="path14"
       inkscape:connector-curvature="0" /><path
       d="m 146.57,275.69 10.27,0 0,-68.7 -10.27,0 0,68.7 z m 58.63,-7.27 10.06,0 0,-61.43 -10.06,0 0,61.43 z m 58.42,4.71 10.27,0 0,-66.14 -10.27,0 0,66.14 z m 58.64,14.76 10.27,0 0,-80.9 -10.27,0 0,80.9 z m 58.63,-12.2 10.27,0 0,-68.7 -10.27,0 0,68.7 z m 58.64,-2.56 10.27,0 0,-66.14 -10.27,0 0,66.14 z m 58.63,-2.36 10.06,0 0,-63.78 -10.06,0 0,63.78 z m 58.42,-7.27 10.27,0 0,-56.51 -10.27,0 0,56.51 z m 58.64,12.19 10.27,0 0,-68.7 -10.27,0 0,68.7 z m 58.63,-9.84 10.27,0 0,-58.86 -10.27,0 0,58.86 z"
       style="fill:#4f81bd;fill-opacity:1;fill-rule:nonzero;stroke:none"
       id="path16"
       inkscape:connector-curvature="0" /><path
       d="m 159.62,388.47 10.06,0 0,-181.48 -10.06,0 0,181.48 z m 58.42,-39.16 10.27,0 0,-142.32 -10.27,0 0,142.32 z m 58.64,17.12 10.27,0 0,-159.44 -10.27,0 0,159.44 z m 58.63,46.65 10.27,0 0,-206.09 -10.27,0 0,206.09 z m 58.64,-29.53 10.27,0 0,-176.56 -10.27,0 0,176.56 z m 58.63,-46.44 10.06,0 0,-130.12 -10.06,0 0,130.12 z m 58.42,-2.57 10.27,0 0,-127.55 -10.27,0 0,127.55 z m 58.63,-9.84 10.28,0 0,-117.71 -10.28,0 0,117.71 z m 58.64,53.92 10.27,0 0,-171.63 -10.27,0 0,171.63 z m 58.63,-36.8 10.06,0 0,-134.83 -10.06,0 0,134.83 z"
       style="fill:#c0504d;fill-opacity:1;fill-rule:nonzero;stroke:none"
       id="path18"
       inkscape:connector-curvature="0" /><path
       d="m 172.46,268.42 10.27,0 0,-61.43 -10.27,0 0,61.43 z m 58.64,0 10.27,0 0,-61.43 -10.27,0 0,61.43 z m 58.63,-2.57 10.27,0 0,-58.86 -10.27,0 0,58.86 z m 58.63,9.84 10.06,0 0,-68.7 -10.06,0 0,68.7 z m 58.43,-7.27 10.27,0 0,-61.43 -10.27,0 0,61.43 z m 58.63,-2.57 10.27,0 0,-58.86 -10.27,0 0,58.86 z m 58.63,0 10.28,0 0,-58.86 -10.28,0 0,58.86 z m 58.64,-7.28 10.27,0 0,-51.58 -10.27,0 0,51.58 z m 58.63,9.85 10.06,0 0,-61.43 -10.06,0 0,61.43 z m 58.42,-7.49 10.27,0 0,-53.94 -10.27,0 0,53.94 z"
       style="fill:#9bbb59;fill-opacity:1;fill-rule:nonzero;stroke:none"
       id="path20"
       inkscape:connector-curvature="0" /><path
       d="m 135.36,206.99 585.88,0"
       style="fill:none;stroke:#d9d9d9;stroke-width:1.33749998;stroke-linecap:butt;stroke-linejoin:round;stroke-miterlimit:10;stroke-dasharray:none;stroke-opacity:1"
       id="path22"
       inkscape:connector-curvature="0" /><g
       id="g24"><g
         id="g26"
         clip-path="url(#clipPath28)"><text
           transform="matrix(1,0,0,-1,110.9,202.22)"
           style="font-variant:normal;font-weight:normal;font-size:16.05599976px;font-family:'Palatino Linotype';-inkscape-font-specification:'Palatino Linotype';writing-mode:lr-tb;fill:#000000;fill-opacity:1;fill-rule:nonzero;stroke:none"
           id="text32"><tspan
             x="0"
             y="0"
             id="tspan34">0</tspan></text>
</g></g><g
       id="g36"><g
         id="g38"
         clip-path="url(#clipPath40)"><text
           transform="matrix(1,0,0,-1,102.89,226.78)"
           style="font-variant:normal;font-weight:normal;font-size:16.05599976px;font-family:'Palatino Linotype';-inkscape-font-specification:'Palatino Linotype';writing-mode:lr-tb;fill:#000000;fill-opacity:1;fill-rule:nonzero;stroke:none"
           id="text44"><tspan
             x="0 8.1359997"
             y="0"
             sodipodi:role="line"
             id="tspan46">10</tspan></text>
</g></g><g
       id="g48"><g
         id="g50"
         clip-path="url(#clipPath52)"><text
           transform="matrix(1,0,0,-1,102.89,251.3)"
           style="font-variant:normal;font-weight:normal;font-size:16.05599976px;font-family:'Palatino Linotype';-inkscape-font-specification:'Palatino Linotype';writing-mode:lr-tb;fill:#000000;fill-opacity:1;fill-rule:nonzero;stroke:none"
           id="text56"><tspan
             x="0 8.1359997"
             y="0"
             sodipodi:role="line"
             id="tspan58">20</tspan></text>
</g></g><g
       id="g60"><g
         id="g62"
         clip-path="url(#clipPath64)"><text
           transform="matrix(1,0,0,-1,102.89,275.86)"
           style="font-variant:normal;font-weight:normal;font-size:16.05599976px;font-family:'Palatino Linotype';-inkscape-font-specification:'Palatino Linotype';writing-mode:lr-tb;fill:#000000;fill-opacity:1;fill-rule:nonzero;stroke:none"
           id="text68"><tspan
             x="0 8.1359997"
             y="0"
             sodipodi:role="line"
             id="tspan70">30</tspan></text>
</g></g><g
       id="g72"><g
         id="g74"
         clip-path="url(#clipPath76)"><text
           transform="matrix(1,0,0,-1,102.89,300.38)"
           style="font-variant:normal;font-weight:normal;font-size:16.05599976px;font-family:'Palatino Linotype';-inkscape-font-specification:'Palatino Linotype';writing-mode:lr-tb;fill:#000000;fill-opacity:1;fill-rule:nonzero;stroke:none"
           id="text80"><tspan
             x="0 8.1359997"
             y="0"
             sodipodi:role="line"
             id="tspan82">40</tspan></text>
</g></g><g
       id="g84"><g
         id="g86"
         clip-path="url(#clipPath88)"><text
           transform="matrix(1,0,0,-1,102.89,324.91)"
           style="font-variant:normal;font-weight:normal;font-size:16.05599976px;font-family:'Palatino Linotype';-inkscape-font-specification:'Palatino Linotype';writing-mode:lr-tb;fill:#000000;fill-opacity:1;fill-rule:nonzero;stroke:none"
           id="text92"><tspan
             x="0 8.1359997"
             y="0"
             sodipodi:role="line"
             id="tspan94">50</tspan></text>
</g></g><g
       id="g96"><g
         id="g98"
         clip-path="url(#clipPath100)"><text
           transform="matrix(1,0,0,-1,102.89,349.46)"
           style="font-variant:normal;font-weight:normal;font-size:16.05599976px;font-family:'Palatino Linotype';-inkscape-font-specification:'Palatino Linotype';writing-mode:lr-tb;fill:#000000;fill-opacity:1;fill-rule:nonzero;stroke:none"
           id="text104"><tspan
             x="0 8.1359997"
             y="0"
             sodipodi:role="line"
             id="tspan106">60</tspan></text>
</g></g><g
       id="g108"><g
         id="g110"
         clip-path="url(#clipPath112)"><text
           transform="matrix(1,0,0,-1,102.89,373.99)"
           style="font-variant:normal;font-weight:normal;font-size:16.05599976px;font-family:'Palatino Linotype';-inkscape-font-specification:'Palatino Linotype';writing-mode:lr-tb;fill:#000000;fill-opacity:1;fill-rule:nonzero;stroke:none"
           id="text116"><tspan
             x="0 8.1359997"
             y="0"
             sodipodi:role="line"
             id="tspan118">70</tspan></text>
</g></g><g
       id="g120"><g
         id="g122"
         clip-path="url(#clipPath124)"><text
           transform="matrix(1,0,0,-1,102.89,398.52)"
           style="font-variant:normal;font-weight:normal;font-size:16.03199959px;font-family:'Palatino Linotype';-inkscape-font-specification:'Palatino Linotype';writing-mode:lr-tb;fill:#000000;fill-opacity:1;fill-rule:nonzero;stroke:none"
           id="text128"><tspan
             x="0 8.1359997"
             y="0"
             sodipodi:role="line"
             id="tspan130">80</tspan></text>
</g></g><g
       id="g132"><g
         id="g134"
         clip-path="url(#clipPath136)"><text
           transform="matrix(1,0,0,-1,102.89,423.07)"
           style="font-variant:normal;font-weight:normal;font-size:16.05599976px;font-family:'Palatino Linotype';-inkscape-font-specification:'Palatino Linotype';writing-mode:lr-tb;fill:#000000;fill-opacity:1;fill-rule:nonzero;stroke:none"
           id="text140"><tspan
             x="0 8.1359997"
             y="0"
             sodipodi:role="line"
             id="tspan142">90</tspan></text>
</g></g><g
       id="g144"><g
         id="g146"
         clip-path="url(#clipPath148)"><text
           transform="matrix(1,0,0,-1,160.68,178.75)"
           style="font-variant:normal;font-weight:normal;font-size:16.03199959px;font-family:'Palatino Linotype';-inkscape-font-specification:'Palatino Linotype';writing-mode:lr-tb;fill:#000000;fill-opacity:1;fill-rule:nonzero;stroke:none"
           id="text152"><tspan
             x="0"
             y="0"
             id="tspan154">1</tspan></text>
</g></g><g
       id="g156"><g
         id="g158"
         clip-path="url(#clipPath160)"><text
           transform="matrix(1,0,0,-1,219.26,178.75)"
           style="font-variant:normal;font-weight:normal;font-size:16.03199959px;font-family:'Palatino Linotype';-inkscape-font-specification:'Palatino Linotype';writing-mode:lr-tb;fill:#000000;fill-opacity:1;fill-rule:nonzero;stroke:none"
           id="text164"><tspan
             x="0"
             y="0"
             id="tspan166">2</tspan></text>
</g></g><g
       id="g168"><g
         id="g170"
         clip-path="url(#clipPath172)"><text
           transform="matrix(1,0,0,-1,277.87,178.75)"
           style="font-variant:normal;font-weight:normal;font-size:16.03199959px;font-family:'Palatino Linotype';-inkscape-font-specification:'Palatino Linotype';writing-mode:lr-tb;fill:#000000;fill-opacity:1;fill-rule:nonzero;stroke:none"
           id="text176"><tspan
             x="0"
             y="0"
             id="tspan178">3</tspan></text>
</g></g><g
       id="g180"><g
         id="g182"
         clip-path="url(#clipPath184)"><text
           transform="matrix(1,0,0,-1,336.46,178.75)"
           style="font-variant:normal;font-weight:normal;font-size:16.03199959px;font-family:'Palatino Linotype';-inkscape-font-specification:'Palatino Linotype';writing-mode:lr-tb;fill:#000000;fill-opacity:1;fill-rule:nonzero;stroke:none"
           id="text188"><tspan
             x="0"
             y="0"
             id="tspan190">4</tspan></text>
</g></g><g
       id="g192"><g
         id="g194"
         clip-path="url(#clipPath196)"><text
           transform="matrix(1,0,0,-1,395.06,178.75)"
           style="font-variant:normal;font-weight:normal;font-size:16.03199959px;font-family:'Palatino Linotype';-inkscape-font-specification:'Palatino Linotype';writing-mode:lr-tb;fill:#000000;fill-opacity:1;fill-rule:nonzero;stroke:none"
           id="text200"><tspan
             x="0"
             y="0"
             id="tspan202">5</tspan></text>
</g></g><g
       id="g204"><g
         id="g206"
         clip-path="url(#clipPath208)"><text
           transform="matrix(1,0,0,-1,453.67,178.75)"
           style="font-variant:normal;font-weight:normal;font-size:16.03199959px;font-family:'Palatino Linotype';-inkscape-font-specification:'Palatino Linotype';writing-mode:lr-tb;fill:#000000;fill-opacity:1;fill-rule:nonzero;stroke:none"
           id="text212"><tspan
             x="0"
             y="0"
             id="tspan214">6</tspan></text>
</g></g><g
       id="g216"><g
         id="g218"
         clip-path="url(#clipPath220)"><text
           transform="matrix(1,0,0,-1,512.26,178.75)"
           style="font-variant:normal;font-weight:normal;font-size:16.03199959px;font-family:'Palatino Linotype';-inkscape-font-specification:'Palatino Linotype';writing-mode:lr-tb;fill:#000000;fill-opacity:1;fill-rule:nonzero;stroke:none"
           id="text224"><tspan
             x="0"
             y="0"
             id="tspan226">7</tspan></text>
</g></g><g
       id="g228"><g
         id="g230"
         clip-path="url(#clipPath232)"><text
           transform="matrix(1,0,0,-1,570.86,178.75)"
           style="font-variant:normal;font-weight:normal;font-size:16.03199959px;font-family:'Palatino Linotype';-inkscape-font-specification:'Palatino Linotype';writing-mode:lr-tb;fill:#000000;fill-opacity:1;fill-rule:nonzero;stroke:none"
           id="text236"><tspan
             x="0"
             y="0"
             id="tspan238">8</tspan></text>
</g></g><g
       id="g240"><g
         id="g242"
         clip-path="url(#clipPath244)"><text
           transform="matrix(1,0,0,-1,629.45,178.75)"
           style="font-variant:normal;font-weight:normal;font-size:16.03199959px;font-family:'Palatino Linotype';-inkscape-font-specification:'Palatino Linotype';writing-mode:lr-tb;fill:#000000;fill-opacity:1;fill-rule:nonzero;stroke:none"
           id="text248"><tspan
             x="0"
             y="0"
             id="tspan250">9</tspan></text>
</g></g><g
       id="g252"><g
         id="g254"
         clip-path="url(#clipPath256)"><text
           transform="matrix(1,0,0,-1,684.02,178.75)"
           style="font-variant:normal;font-weight:normal;font-size:16.03199959px;font-family:'Palatino Linotype';-inkscape-font-specification:'Palatino Linotype';writing-mode:lr-tb;fill:#000000;fill-opacity:1;fill-rule:nonzero;stroke:none"
           id="text260"><tspan
             x="0 8.1359997"
             y="0"
             sodipodi:role="line"
             id="tspan262">10</tspan></text>
</g></g><g
       id="g264"><g
         id="g266"
         clip-path="url(#clipPath268)"><text
           transform="matrix(-4.4e-8,1,1,4.4e-8,88.008,225)"
           style="font-variant:normal;font-weight:normal;font-size:17.76000023px;font-family:'Palatino Linotype';-inkscape-font-specification:'Palatino Linotype';writing-mode:lr-tb;fill:#000000;fill-opacity:1;fill-rule:nonzero;stroke:none"
           id="text272"><tspan
             x="0 14.75856 25.46784 41.149921 50.75808 59.30064 66.369118 71.270882 81.092163 87.077278 91.375198 100.1664 110.43168 119.22288 124.55088 134.37216 144.24672 154.95599 163.46304"
             y="0"
             sodipodi:role="line"
             id="tspan274">Number of analogues</tspan></text>
</g></g><g
       id="g276"><g
         id="g278"
         clip-path="url(#clipPath280)"><text
           transform="matrix(1,0,0,-1,178.15,456.58)"
           style="font-variant:normal;font-weight:normal;font-size:21.40800095px;font-family:'Palatino Linotype';-inkscape-font-specification:'Palatino Linotype';writing-mode:lr-tb;fill:#000000;fill-opacity:1;fill-rule:nonzero;stroke:none"
           id="text284"><tspan
             x="0 17.790049 30.592031 49.495296 61.205471 71.459908 80.023102 85.375107 97.128098 104.19273 109.54474 120.24873 132.70819 143.41219 149.5777 161.33069 173.27635 186.12115 196.37558 205.45258 210.80458 217.80499 229.55798 238.09978 243.45178 250.49501 262.95447 273.20889 278.56088 291.64117 297.59262 304.65726 311.72189 321.97632 330.53952 340.79395 353.25342 353.25342 353.25342 360.23242 365.58441 374.16904 384.42346 396.39053 402.38477 414.13776 426.59723"
             y="0"
             sodipodi:role="line"
             id="tspan286">Number of analogues for the different   regions</tspan></text>
</g></g><path
       d="m 165.92,146.36 9.746,0 0,9.746 -9.746,0 0,-9.746 z"
       style="fill:#4f81bd;fill-opacity:1;fill-rule:evenodd;stroke:none"
       id="path288"
       inkscape:connector-curvature="0" /><g
       id="g290"
       transform="translate(0,4.8)"><g
         id="g292"
         clip-path="url(#clipPath294)"><text
           transform="matrix(1,0,0,-1,179.9,141.67)"
           style="font-variant:normal;font-weight:normal;font-size:16.05599976px;font-family:'Palatino Linotype';-inkscape-font-specification:'Palatino Linotype';writing-mode:lr-tb;fill:#000000;fill-opacity:1;fill-rule:nonzero;stroke:none"
           id="text298"><tspan
             x="0 15.188976 22.879801 28.033775 37.442593 46.209167 56.019382 60.129719 68.045326 76.169662 80.039162 84.101326 97.379639"
             y="0"
             sodipodi:role="line"
             id="tspan300">Method z4, N1</tspan></text>
</g></g><path
       d="m 312.36,146.36 9.746,0 0,9.746 -9.746,0 0,-9.746 z"
       style="fill:#c0504d;fill-opacity:1;fill-rule:evenodd;stroke:none"
       id="path302"
       inkscape:connector-curvature="0" /><g
       id="g304"
       transform="translate(0,4.8)"><g
         id="g306"
         clip-path="url(#clipPath308)"><text
           transform="matrix(1,0,0,-1,326.38,141.67)"
           style="font-variant:normal;font-weight:normal;font-size:16.05599976px;font-family:'Palatino Linotype';-inkscape-font-specification:'Palatino Linotype';writing-mode:lr-tb;fill:#000000;fill-opacity:1;fill-rule:nonzero;stroke:none"
           id="text312"><tspan
             x="0 15.188976 22.879801 28.033775 37.426537 46.193111 56.003326 60.065495 67.981102 76.073326 81.21125 90.604012 95.276306 103.22402 107.23802 111.31625 124.56245"
             y="0"
             sodipodi:role="line"
             id="tspan314">Method z4-hi2, N1</tspan></text>
</g></g><path
       d="m 486.17,146.36 9.746,0 0,9.746 -9.746,0 0,-9.746 z"
       style="fill:#9bbb59;fill-opacity:1;fill-rule:evenodd;stroke:none"
       id="path316"
       inkscape:connector-curvature="0" /><g
       id="g318"
       transform="translate(0,4.8)"><g
         id="g320"
         clip-path="url(#clipPath322)"><text
           transform="matrix(1,0,0,-1,500.21,141.67)"
           style="font-variant:normal;font-weight:normal;font-size:16.05599976px;font-family:'Palatino Linotype';-inkscape-font-specification:'Palatino Linotype';writing-mode:lr-tb;fill:#000000;fill-opacity:1;fill-rule:nonzero;stroke:none"
           id="text326"><tspan
             x="0 15.188976 22.879801 28.033775 37.442593 46.209167 56.019382 60.129719 68.045326 76.169662 81.307587 90.7164 95.388695 103.33642 107.39858 111.46075 124.73907"
             y="0"
             sodipodi:role="line"
             id="tspan328">Method z4-hi2, N2</tspan></text>
</g></g></g></svg>