<?xml version="1.0" encoding="UTF-8" standalone="no"?>
<!-- Created with Inkscape (http://www.inkscape.org/) -->

<svg
   xmlns:dc="http://purl.org/dc/elements/1.1/"
   xmlns:cc="http://creativecommons.org/ns#"
   xmlns:rdf="http://www.w3.org/1999/02/22-rdf-syntax-ns#"
   xmlns:svg="http://www.w3.org/2000/svg"
   xmlns="http://www.w3.org/2000/svg"
   xmlns:sodipodi="http://sodipodi.sourceforge.net/DTD/sodipodi-0.dtd"
   xmlns:inkscape="http://www.inkscape.org/namespaces/inkscape"
   width="210mm"
   height="297mm"
   viewBox="0 0 744.09448819 1052.3622047"
   id="svg2"
   version="1.1"
   inkscape:version="0.91 r13725"
   sodipodi:docname="figure_evolution.svg">
  <defs
     id="defs4">
    <clipPath
       id="clipPath4154"
       clipPathUnits="userSpaceOnUse">
      <path
         inkscape:connector-curvature="0"
         id="path4156"
         d="m 126,50.4 355.09091,0 0,403.2 L 126,453.6 126,50.4 Z" />
    </clipPath>
    <clipPath
       id="clipPath4164"
       clipPathUnits="userSpaceOnUse">
      <path
         inkscape:connector-curvature="0"
         id="path4166"
         d="m 126,50.4 355.09091,0 0,403.2 L 126,453.6 126,50.4 Z" />
    </clipPath>
    <clipPath
       id="clipPath4174"
       clipPathUnits="userSpaceOnUse">
      <path
         inkscape:connector-curvature="0"
         id="path4176"
         d="m 126,50.4 355.09091,0 0,403.2 L 126,453.6 126,50.4 Z" />
    </clipPath>
    <clipPath
       id="clipPath4184"
       clipPathUnits="userSpaceOnUse">
      <path
         inkscape:connector-curvature="0"
         id="path4186"
         d="m 126,50.4 355.09091,0 0,403.2 L 126,453.6 126,50.4 Z" />
    </clipPath>
    <clipPath
       id="clipPath4194"
       clipPathUnits="userSpaceOnUse">
      <path
         inkscape:connector-curvature="0"
         id="path4196"
         d="m 126,50.4 355.09091,0 0,403.2 L 126,453.6 126,50.4 Z" />
    </clipPath>
    <clipPath
       id="clipPath4204"
       clipPathUnits="userSpaceOnUse">
      <path
         inkscape:connector-curvature="0"
         id="path4206"
         d="m 126,50.4 355.09091,0 0,403.2 L 126,453.6 126,50.4 Z" />
    </clipPath>
    <clipPath
       id="clipPath4214"
       clipPathUnits="userSpaceOnUse">
      <path
         inkscape:connector-curvature="0"
         id="path4216"
         d="m 126,50.4 355.09091,0 0,403.2 L 126,453.6 126,50.4 Z" />
    </clipPath>
    <clipPath
       id="clipPath4224"
       clipPathUnits="userSpaceOnUse">
      <path
         inkscape:connector-curvature="0"
         id="path4226"
         d="m 126,50.4 355.09091,0 0,403.2 L 126,453.6 126,50.4 Z" />
    </clipPath>
    <clipPath
       id="clipPath4394"
       clipPathUnits="userSpaceOnUse">
      <path
         inkscape:connector-curvature="0"
         id="path4396"
         d="m 552.10909,50.4 355.09091,0 0,403.2 -355.09091,0 0,-403.2 z" />
    </clipPath>
    <clipPath
       id="clipPath4404"
       clipPathUnits="userSpaceOnUse">
      <path
         inkscape:connector-curvature="0"
         id="path4406"
         d="m 552.10909,50.4 355.09091,0 0,403.2 -355.09091,0 0,-403.2 z" />
    </clipPath>
    <clipPath
       id="clipPath4414"
       clipPathUnits="userSpaceOnUse">
      <path
         inkscape:connector-curvature="0"
         id="path4416"
         d="m 552.10909,50.4 355.09091,0 0,403.2 -355.09091,0 0,-403.2 z" />
    </clipPath>
    <clipPath
       id="clipPath4424"
       clipPathUnits="userSpaceOnUse">
      <path
         inkscape:connector-curvature="0"
         id="path4426"
         d="m 552.10909,50.4 355.09091,0 0,403.2 -355.09091,0 0,-403.2 z" />
    </clipPath>
    <clipPath
       id="clipPath4434"
       clipPathUnits="userSpaceOnUse">
      <path
         inkscape:connector-curvature="0"
         id="path4436"
         d="m 552.10909,50.4 355.09091,0 0,403.2 -355.09091,0 0,-403.2 z" />
    </clipPath>
    <clipPath
       id="clipPath4444"
       clipPathUnits="userSpaceOnUse">
      <path
         inkscape:connector-curvature="0"
         id="path4446"
         d="m 552.10909,50.4 355.09091,0 0,403.2 -355.09091,0 0,-403.2 z" />
    </clipPath>
    <clipPath
       id="clipPath4454"
       clipPathUnits="userSpaceOnUse">
      <path
         inkscape:connector-curvature="0"
         id="path4456"
         d="m 552.10909,50.4 355.09091,0 0,403.2 -355.09091,0 0,-403.2 z" />
    </clipPath>
    <clipPath
       id="clipPath4464"
       clipPathUnits="userSpaceOnUse">
      <path
         inkscape:connector-curvature="0"
         id="path4466"
         d="m 552.10909,50.4 355.09091,0 0,403.2 -355.09091,0 0,-403.2 z" />
    </clipPath>
  </defs>
  <sodipodi:namedview
     id="base"
     pagecolor="#ffffff"
     bordercolor="#666666"
     borderopacity="1.0"
     inkscape:pageopacity="0.0"
     inkscape:pageshadow="2"
     inkscape:zoom="0.7"
     inkscape:cx="-72.287321"
     inkscape:cy="478.33982"
     inkscape:document-units="px"
     inkscape:current-layer="layer1"
     showgrid="false"
     inkscape:window-width="1680"
     inkscape:window-height="987"
     inkscape:window-x="-8"
     inkscape:window-y="-8"
     inkscape:window-maximized="1" />
  <metadata
     id="metadata7">
    <rdf:RDF>
      <cc:Work
         rdf:about="">
        <dc:format>image/svg+xml</dc:format>
        <dc:type
           rdf:resource="http://purl.org/dc/dcmitype/StillImage" />
        <dc:title />
      </cc:Work>
    </rdf:RDF>
  </metadata>
  <g
     inkscape:label="Layer 1"
     inkscape:groupmode="layer"
     id="layer1">
    <path
       d="m 150.35715,735.79081 443.86363,0 0,-504 -443.86363,0 0,504 z"
       style="fill:#ffffff;fill-opacity:1;fill-rule:nonzero;stroke:none"
       id="path4148"
       inkscape:connector-curvature="0" />
    <g
       id="g4150"
       transform="matrix(1.25,0,0,-1.25,-7.1428543,798.79081)"
       style="stroke-width:1.06;stroke-miterlimit:10;stroke-dasharray:none">
      <g
         id="g4152"
         clip-path="url(#clipPath4154)"
         style="stroke-width:1.06;stroke-miterlimit:10;stroke-dasharray:none">
        <path
           d="m 128.30579,-0.56950922 2.30578,24.66262022 2.30579,11.432108 2.30578,34.9945 2.30579,68.261681 2.30578,17.62342 2.30579,0 2.30578,0 2.30579,27.76417 2.30578,16.56415 2.30579,5.50537 2.30578,72.78077 2.30579,0 2.30578,0 2.30579,0 2.30578,11.94008 2.30579,0 2.30578,0 2.30579,0 2.30578,8.57067 2.30579,0 2.30578,0 2.30579,3.79172 2.30578,21.1868 2.30579,0 2.30578,9.50141 2.30579,0 2.30578,3.20323 2.30579,2.88828 2.30578,3.97391 2.30579,3.06858 2.30578,3.6453 2.30579,3.6872 2.30578,1.29702 2.30579,7.78587 2.30578,0 2.30579,6.72377 2.30578,2.34028 2.30579,15.89752 2.30578,0 2.30579,3.96684 2.30579,0 2.30578,6.10799 2.30579,0.8799 2.30578,2.55354 2.30579,0 2.30578,1.65623 2.30579,4.11185 2.30578,0 2.30579,0 2.30578,0 2.30579,0 2.30578,3.44192 2.30579,0 2.30578,0.6671 2.30579,0 2.30578,2.14396 2.30579,3.41509 2.30578,0 2.30579,0 2.30578,0 2.30579,0 2.30578,0.58001 2.30579,0 2.30578,0.36768 2.30579,0 2.30578,0.53387 2.30579,0 2.30578,0.0146 2.30579,0.0442 2.30578,1.48157 2.30579,0 2.30578,0 2.30579,0 2.30578,0 2.30579,0 2.30578,0 2.30579,0 2.30578,0 2.30579,0 2.30579,0 2.30578,0 2.30579,0 2.30578,0 2.30579,0 2.30578,0 2.30579,0 2.30578,0 2.30579,0 2.30578,0 2.30579,0 2.30578,0 2.30579,0 2.30578,0 2.30579,0 2.30578,0 2.30579,0 2.30578,0 2.30579,0 2.30578,0"
           style="fill:none;stroke:#0000ff;stroke-width:1.06;stroke-linecap:square;stroke-linejoin:round;stroke-miterlimit:10;stroke-dasharray:none;stroke-opacity:1"
           id="path4158"
           inkscape:connector-curvature="0" />
      </g>
    </g>
    <g
       id="g4160"
       transform="matrix(1.25,0,0,-1.25,-7.1428543,798.79081)"
       style="stroke-width:1.06;stroke-miterlimit:10;stroke-dasharray:none">
      <g
         id="g4162"
         clip-path="url(#clipPath4164)"
         style="stroke-width:1.06;stroke-miterlimit:10;stroke-dasharray:none">
        <path
           d="m 128.30579,0.5782682 2.30578,43.0129358 2.30579,0 2.30578,105.236786 4.61157,0 2.30579,1.26547 2.30578,0.34085 2.30579,58.03338 2.30578,48.03387 4.61157,0 2.30579,14.69419 4.61157,0 2.30578,7.41771 11.52893,0 2.30578,0.47879 2.30579,2.85155 2.30578,7.01613 4.61157,0 2.30579,22.24843 2.30578,0 2.30579,6.72048 2.30578,1.82053 4.61157,0 2.30579,23.41786 4.61157,0 2.30578,1.91987 2.30579,0 2.30578,6.61926 9.22315,0 2.30578,0.69252 4.61157,0 2.30579,8.00573 6.91735,0 2.30579,3.47346 2.30578,6.44601 2.30579,0 2.30578,4.86369 4.61157,0 2.30579,2.88875 2.30578,1.29937 2.30579,5.91496 2.30578,3.35483 2.30579,4.57557 2.30578,1.06868 2.30579,0 2.30578,2.02344 2.30579,2.91464 2.30578,1.38176 4.61157,0 2.30579,3.08695 2.30578,1.68965 2.30579,0 2.30578,5.62872 11.52893,0 2.30578,3.80914 6.91736,0 2.30579,1.46979 2.30578,0.15018 2.30579,0 2.30578,0.56636 4.61157,0 2.30579,1.88409 2.30578,0.54988 2.30579,0 2.30578,4.88158 2.30579,0 2.30578,1.37517 2.30579,0 2.30578,0.94251 2.30579,0.64733 6.91735,0 2.30579,0.95146 2.30578,2.70703 13.83471,0 4.61157,0.54093 2.30579,1.48156 2.30578,0 2.30579,1.4279 66.86777,0 0,0"
           style="fill:none;stroke:#008000;stroke-width:1.06;stroke-linecap:square;stroke-linejoin:round;stroke-miterlimit:10;stroke-dasharray:none;stroke-opacity:1"
           id="path4168"
           inkscape:connector-curvature="0" />
      </g>
    </g>
    <g
       id="g4170"
       transform="matrix(1.25,0,0,-1.25,-7.1428543,798.79081)"
       style="stroke-width:1.06;stroke-miterlimit:10;stroke-dasharray:none">
      <g
         id="g4172"
         clip-path="url(#clipPath4174)"
         style="stroke-width:1.06;stroke-miterlimit:10;stroke-dasharray:none">
        <path
           d="m 128.30579,226.4635 2.30578,0 2.30579,18.70294 2.30578,33.99737 2.30579,0 2.30578,27.50099 2.30579,7.32167 2.30578,0 2.30579,0 2.30578,0 2.30579,0 2.30578,19.25799 2.30579,1.6261 2.30578,0 2.30579,0 2.30578,9.55602 2.30579,0 2.30578,0 2.30579,0 2.30578,5.67628 2.30579,0 2.30578,6.13387 2.30579,0 2.30578,0 2.30579,4.47106 2.30578,20.43543 2.30579,0 2.30578,0 2.30579,0 2.30578,0 2.30579,0 2.30578,0.59508 2.30579,0 2.30578,0 2.30579,0 2.30578,0 2.30579,0 2.30578,0 2.30579,4.86887 2.30578,0.55553 2.30579,0 2.30579,1.42507 2.30578,0 2.30579,1.63598 2.30578,7.24305 2.30579,0 2.30578,0 2.30579,0 2.30578,0 2.30579,0 2.30578,0 2.30579,0.45196 2.30578,0 2.30579,0 2.30578,0 2.30579,0 2.30578,2.14819 2.30579,1.57243 2.30578,0 2.30579,4.47294 2.30578,0 2.30579,0 2.30578,3.27056 2.30579,0 2.30578,0 2.30579,0 2.30578,0 2.30579,6.34808 2.30578,0 2.30579,0 2.30578,0 2.30579,0 2.30578,2.07193 2.30579,0 2.30578,2.41043 2.30579,0 2.30578,0 2.30579,0 2.30578,0 2.30579,0.91238 2.30579,0.16808 2.30578,0 2.30579,0.43076 2.30578,0.4449 2.30579,0.71183 2.30578,0 2.30579,1.539 2.30578,1.1845 2.30579,0 2.30578,0 2.30579,0 2.30578,0 2.30579,0 2.30578,1.90715 2.30579,0 2.30578,0 2.30579,1.18168 2.30578,2.37135 2.30579,0 2.30578,0 2.30579,0 2.30578,0 2.30579,0 2.30578,0 2.30579,0 2.30578,0 2.30579,0 2.30578,0 2.30579,0 2.30578,0 2.30579,0 2.30578,0 2.30579,0 2.30578,0 2.30579,0 2.30578,0 2.30579,0 2.30578,0 2.30579,0 2.30578,0 2.30579,0 2.30579,0 2.30578,0 2.30579,0 2.30578,0 2.30579,0 2.30578,0"
           style="fill:none;stroke:#ff0000;stroke-width:1.06;stroke-linecap:square;stroke-linejoin:round;stroke-miterlimit:10;stroke-dasharray:none;stroke-opacity:1"
           id="path4178"
           inkscape:connector-curvature="0" />
      </g>
    </g>
    <g
       id="g4180"
       transform="matrix(1.25,0,0,-1.25,-7.1428543,798.79081)"
       style="stroke-width:1.06;stroke-miterlimit:10;stroke-dasharray:none">
      <g
         id="g4182"
         clip-path="url(#clipPath4184)"
         style="stroke-width:1.06;stroke-miterlimit:10;stroke-dasharray:none">
        <path
           d="m 128.30579,223.49001 2.30578,81.01624 2.30579,0 2.30578,0 2.30579,0 2.30578,23.17681 2.30579,16.17105 2.30578,10.59834 2.30579,0 2.30578,8.05563 2.30579,3.23572 2.30578,4.37831 2.30579,1.24194 2.30578,5.5242 2.30579,7.39371 2.30578,11.99705 2.30579,0 2.30578,0 2.30579,0 2.30578,4.13633 2.30579,0 2.30578,0 2.30579,1.60067 2.30578,0 2.30579,0 2.30578,0 2.30579,0 2.30578,0 2.30579,0 2.30578,0 2.30579,0 2.30578,0.89732 2.30579,1.76639 2.30578,1.46556 2.30579,0.63085 2.30578,6.33773 2.30579,0 2.30578,0 2.30579,0.24575 2.30578,0 2.30579,0 2.30579,0 2.30578,2.11572 2.30579,0 2.30578,0 2.30579,0 2.30578,2.3737 2.30579,0 2.30578,2.64488 2.30579,0 2.30578,0 2.30579,0 2.30578,0.24999 2.30579,0 2.30578,0 2.30579,0 2.30578,0 2.30579,0 2.30578,0 2.30579,0 2.30578,0 2.30579,0 2.30578,0 2.30579,0 2.30578,0 2.30579,0 2.30578,1.18591 2.30579,0 2.30578,0 2.30579,0 2.30578,0 2.30579,0 2.30578,0 2.30579,0 2.30578,0 2.30579,0 2.30578,0 2.30579,0 2.30578,0 2.30579,0 2.30579,0.30883 2.30578,0 2.30579,0.84177 2.30578,0 2.30579,0 2.30578,0 2.30579,0 2.30578,0 2.30579,0 2.30578,0.72501 2.30579,0 2.30578,0 2.30579,0 2.30578,0 2.30579,0 2.30578,0 2.30579,0 2.30578,0 2.30579,0 2.30578,0 2.30579,0 2.30578,0 2.30579,0 2.30578,0 2.30579,0 2.30578,0 2.30579,0 2.30578,0 2.30579,0 2.30578,0 2.30579,0 2.30578,0 2.30579,0 2.30578,0 2.30579,0 2.30578,0 2.30579,0 2.30578,0 2.30579,0"
           style="fill:none;stroke:#00bfbf;stroke-width:1.06;stroke-linecap:square;stroke-linejoin:round;stroke-miterlimit:10;stroke-dasharray:none;stroke-opacity:1"
           id="path4188"
           inkscape:connector-curvature="0" />
      </g>
    </g>
    <g
       id="g4190"
       transform="matrix(1.25,0,0,-1.25,-7.1428543,798.79081)"
       style="stroke-width:1.06;stroke-miterlimit:10;stroke-dasharray:none">
      <g
         id="g4192"
         clip-path="url(#clipPath4194)"
         style="stroke-width:1.06;stroke-miterlimit:10;stroke-dasharray:none">
        <path
           d="m 129.7156,-1 0.89597,63.899098 2.30579,0 2.30578,49.559692 2.30579,0 2.30578,25.67905 2.30579,41.15662 2.30578,9.02875 2.30579,24.95215 2.30578,0 2.30579,58.19344 9.22314,0 2.30578,0.65864 2.30579,1.88502 2.30578,15.86927 4.61157,0 2.30579,8.03492 2.30578,12.06673 2.30579,1.54841 9.22314,0 2.30578,9.47552 2.30579,0 2.30578,4.9169 4.61157,0 2.30579,6.164 2.30578,0 2.30579,3.36095 2.30578,5.17912 9.22314,0 2.30579,0.40582 2.30579,0 2.30578,8.89127 13.83471,0 2.30579,6.25911 2.30578,17.48971 27.66942,0 2.30579,0.36392 36.89256,0 2.30579,11.89536 9.22314,0 2.30578,1.87091 55.33884,0 2.30579,0.85071 66.86777,0 0,0"
           style="fill:none;stroke:#bf00bf;stroke-width:1.06;stroke-linecap:square;stroke-linejoin:round;stroke-miterlimit:10;stroke-dasharray:none;stroke-opacity:1"
           id="path4198"
           inkscape:connector-curvature="0" />
      </g>
    </g>
    <g
       id="g4200"
       transform="matrix(1.25,0,0,-1.25,-7.1428543,798.79081)"
       style="stroke-width:1.06;stroke-miterlimit:10;stroke-dasharray:none">
      <g
         id="g4202"
         clip-path="url(#clipPath4204)"
         style="stroke-width:1.06;stroke-miterlimit:10;stroke-dasharray:none">
        <path
           d="m 128.30579,209.66725 2.30578,9.63747 2.30579,74.5787 2.30578,0 2.30579,0 2.30578,0 2.30579,2.08841 2.30578,1.35822 2.30579,0 2.30578,33.10194 2.30579,1.34927 2.30578,1.49804 2.30579,4.64525 2.30578,8.14508 2.30579,5.28693 2.30578,6.2205 2.30579,5.34343 2.30578,0.78857 2.30579,12.85388 2.30578,2.2014 2.30579,7.55471 2.30578,0 2.30579,0 2.30578,0 2.30579,5.59059 2.30578,1.3182 2.30579,0 2.30578,12.99041 2.30579,0 2.30578,0 2.30579,0 2.30578,0 2.30579,0 2.30578,0 2.30579,0 2.30578,0 2.30579,2.53989 2.30578,0 2.30579,0 2.30578,4.19189 2.30579,0 2.30579,0 2.30578,0 2.30579,0 2.30578,0.0372 2.30579,0 2.30578,0 2.30579,2.47257 2.30578,0 2.30579,1.80782 2.30578,0 2.30579,0 2.30578,0 2.30579,1.0475 2.30578,1.95094 2.30579,1.36763 2.30578,0 2.30579,0 2.30578,0 2.30579,0.74432 2.30578,2.95465 2.30579,0 2.30578,0 2.30579,0 2.30578,0 2.30579,0 2.30578,0 2.30579,0 2.30578,0 2.30579,0.0763 2.30578,0 2.30579,1.4053 2.30578,0 2.30579,0 2.30578,0 2.30579,1.26171 2.30578,0 2.30579,0 2.30578,0.33002 2.30579,0.0763 2.30579,0 2.30578,0 2.30579,0 2.30578,0 2.30579,0.42512 2.30578,1.1958 2.30579,0 2.30578,0 2.30579,0 2.30578,0 2.30579,0 2.30578,0 2.30579,0 2.30578,0 2.30579,2.46881 2.30578,0 2.30579,0 2.30578,0 2.30579,0 2.30578,0 2.30579,0 2.30578,0 2.30579,0 2.30578,0 2.30579,0 2.30578,0 2.30579,0 2.30578,0 2.30579,0 2.30578,0 2.30579,0 2.30578,0 2.30579,0 2.30578,0 2.30579,0 2.30578,0 2.30579,0 2.30578,0 2.30579,0 2.30578,0 2.30579,0 2.30579,0 2.30578,0 2.30579,0"
           style="fill:none;stroke:#bfbf00;stroke-width:1.06;stroke-linecap:square;stroke-linejoin:round;stroke-miterlimit:10;stroke-dasharray:none;stroke-opacity:1"
           id="path4208"
           inkscape:connector-curvature="0" />
      </g>
    </g>
    <g
       id="g4210"
       transform="matrix(1.25,0,0,-1.25,-7.1428543,798.79081)"
       style="stroke-width:1.06;stroke-miterlimit:10;stroke-dasharray:none">
      <g
         id="g4212"
         clip-path="url(#clipPath4214)"
         style="stroke-width:1.06;stroke-miterlimit:10;stroke-dasharray:none">
        <path
           d="m 128.30579,263.40141 2.30578,0 2.30579,4.17634 2.30578,30.02912 2.30579,0 2.30578,10.40438 2.30579,15.19416 2.30578,24.32884 2.30579,0 2.30578,0 2.30579,3.17216 2.30578,1.18073 2.30579,8.50523 2.30578,0 2.30579,0 2.30578,0 2.30579,4.12456 2.30578,1.38317 2.30579,15.25113 2.30578,0 2.30579,5.78879 2.30578,0 2.30579,0 2.30578,9.14032 2.30579,0 2.30578,0 2.30579,2.6251 2.30578,0 2.30579,0.21044 2.30578,2.26637 2.30579,0.42041 2.30578,0 2.30579,8.5443 2.30578,0 2.30579,0.99054 2.30578,0 2.30579,0 2.30578,0 2.30579,0 2.30578,0 2.30579,0 2.30579,0 2.30578,3.40802 2.30579,0 2.30578,0 2.30579,0 2.30578,0 2.30579,0 2.30578,0 2.30579,1.70707 2.30578,0 2.30579,0 2.30578,0.97359 2.30579,0.39593 2.30578,0 2.30579,0 2.30578,0 2.30579,0 2.30578,0 2.30579,0 2.30578,0 2.30579,0 2.30578,0 2.30579,0 2.30578,0 2.30579,0 2.30578,0 2.30579,0 2.30578,0 2.30579,0 2.30578,0 2.30579,0 2.30578,0 2.30579,0.9976 2.30578,0 2.30579,0 2.30578,0 2.30579,0 2.30578,0 2.30579,0 2.30579,0 2.30578,0 2.30579,0 2.30578,0.003 2.30579,0 2.30578,0 2.30579,0 2.30578,0 2.30579,0 2.30578,0 2.30579,0 2.30578,0 2.30579,1.34645 2.30578,0 2.30579,0 2.30578,0 2.30579,0 2.30578,0 2.30579,0 2.30578,0 2.30579,0 2.30578,0 2.30579,0 2.30578,0 2.30579,0 2.30578,0 2.30579,0 2.30578,0 2.30579,0 2.30578,0 2.30579,0 2.30578,0 2.30579,0 2.30578,0 2.30579,0 2.30578,0 2.30579,0 2.30578,0 2.30579,0 2.30578,0 2.30579,0 2.30579,0"
           style="fill:none;stroke:#000000;stroke-width:1.06;stroke-linecap:square;stroke-linejoin:round;stroke-miterlimit:10;stroke-dasharray:none;stroke-opacity:1"
           id="path4218"
           inkscape:connector-curvature="0" />
      </g>
    </g>
    <g
       id="g4220"
       transform="matrix(1.25,0,0,-1.25,-7.1428543,798.79081)">
      <g
         id="g4222"
         clip-path="url(#clipPath4224)">
        <path
           d="m 128.30579,1.4614636 2.30578,36.1333324 2.30579,18.535334 2.30578,33.536475 2.30579,34.647535 2.30578,9.11583 2.30579,27.43556 2.30578,71.90369 2.30579,0 2.30578,0 2.30579,13.77285 2.30578,2.59922 2.30579,44.53122 2.30578,0 2.30579,0 2.30578,0 2.30579,22.58174 2.30578,0 2.30579,0 2.30578,0 2.30579,11.23297 2.30578,0 2.30579,0 2.30578,0 2.30579,9.57156 2.30578,1.30502 2.30579,5.00116 2.30578,0 2.30579,0 2.30578,3.95649 2.30579,0 2.30578,0 2.30579,0 2.30578,0 2.30579,0.3126 2.30578,0 2.30579,0 2.30578,0 2.30579,2.20658 2.30578,0 2.30579,6.97046 2.30579,0.88885 2.30578,0 2.30579,3.62411 2.30578,6.0788 2.30579,0 2.30578,1.21933 2.30579,0 2.30578,3.14862 2.30579,0 2.30578,0 2.30579,0 2.30578,0 2.30579,0 2.30578,0.24105 2.30579,0 2.30578,0 2.30579,0 2.30578,0 2.30579,5.58541 2.30578,0 2.30579,0.97358 2.30578,5.77138 2.30579,0 2.30578,0 2.30579,2.78846 2.30578,0 2.30579,0 2.30578,0 2.30579,0.42418 2.30578,0 2.30579,0 2.30578,2.26778 2.30579,0 2.30578,0 2.30579,1.42554 2.30578,1.57525 2.30579,3.96403 2.30578,0 2.30579,0 2.30579,2.31532 2.30578,0 2.30579,0 2.30578,0 2.30579,0 2.30578,0 2.30579,0 2.30578,0 2.30579,0 2.30578,0 2.30579,0 2.30578,0 2.30579,0 2.30578,0 2.30579,0 2.30578,0 2.30579,0 2.30578,0 2.30579,0 2.30578,0 2.30579,0 2.30578,0 2.30579,0 2.30578,0 2.30579,0 2.30578,0 2.30579,0 2.30578,0 2.30579,0 2.30578,0"
           style="fill:none;stroke:#0000ff;stroke-width:1.06;stroke-linecap:square;stroke-linejoin:round;stroke-miterlimit:10;stroke-dasharray:none;stroke-opacity:1"
           id="path4228"
           inkscape:connector-curvature="0" />
      </g>
    </g>
    <path
       inkscape:connector-curvature="0"
       id="path4232"
       style="fill:none;stroke:#000000;stroke-width:1.25;stroke-linecap:square;stroke-linejoin:miter;stroke-miterlimit:10;stroke-dasharray:none;stroke-opacity:1"
       d="m 150.35715,231.79081 443.86363,0" />
    <path
       inkscape:connector-curvature="0"
       id="path4234"
       style="fill:none;stroke:#000000;stroke-width:1.25;stroke-linecap:square;stroke-linejoin:miter;stroke-miterlimit:10;stroke-dasharray:none;stroke-opacity:1"
       d="m 594.22078,735.79081 0,-504" />
    <path
       inkscape:connector-curvature="0"
       id="path4236"
       style="fill:none;stroke:#000000;stroke-width:1.25;stroke-linecap:square;stroke-linejoin:miter;stroke-miterlimit:10;stroke-dasharray:none;stroke-opacity:1"
       d="m 150.35715,735.79081 443.86363,0" />
    <path
       inkscape:connector-curvature="0"
       id="path4238"
       style="fill:none;stroke:#000000;stroke-width:1.25;stroke-linecap:square;stroke-linejoin:miter;stroke-miterlimit:10;stroke-dasharray:none;stroke-opacity:1"
       d="m 150.35715,735.79081 0,-504" />
    <path
       inkscape:connector-curvature="0"
       id="path4240"
       style="fill:#000000;fill-opacity:1;fill-rule:nonzero;stroke:#000000;stroke-width:0.625;stroke-linecap:butt;stroke-linejoin:round;stroke-miterlimit:10;stroke-dasharray:none;stroke-opacity:1"
       d="m 150.35715,735.79081 0,-5" />
    <path
       inkscape:connector-curvature="0"
       id="path4242"
       style="fill:#000000;fill-opacity:1;fill-rule:nonzero;stroke:#000000;stroke-width:0.625;stroke-linecap:butt;stroke-linejoin:round;stroke-miterlimit:10;stroke-dasharray:none;stroke-opacity:1"
       d="m 150.35715,231.79081 0,5" />
    <text
       id="text4244"
       style="font-variant:normal;font-weight:normal;font-size:15px;font-family:BitstreamVeraSans;-inkscape-font-specification:BitstreamVeraSans-Roman;writing-mode:lr-tb;fill:#000000;fill-opacity:1;fill-rule:nonzero;stroke:none"
       x="146.57785"
       y="752.19708">
      <tspan
         id="tspan4246"
         y="752.19708"
         x="146.57785"
         style="-inkscape-font-specification:'Palatino Linotype';font-family:'Palatino Linotype';font-weight:normal;font-style:normal;font-stretch:normal;font-variant:normal">0</tspan>
    </text>
    <path
       inkscape:connector-curvature="0"
       id="path4248"
       style="fill:#000000;fill-opacity:1;fill-rule:nonzero;stroke:#000000;stroke-width:0.625;stroke-linecap:butt;stroke-linejoin:round;stroke-miterlimit:10;stroke-dasharray:none;stroke-opacity:1"
       d="m 208.00177,735.79081 0,-5" />
    <path
       inkscape:connector-curvature="0"
       id="path4250"
       style="fill:#000000;fill-opacity:1;fill-rule:nonzero;stroke:#000000;stroke-width:0.625;stroke-linecap:butt;stroke-linejoin:round;stroke-miterlimit:10;stroke-dasharray:none;stroke-opacity:1"
       d="m 208.00177,231.79081 0,5" />
    <text
       id="text4252"
       style="font-variant:normal;font-weight:normal;font-size:15px;font-family:BitstreamVeraSans;-inkscape-font-specification:BitstreamVeraSans-Roman;writing-mode:lr-tb;fill:#000000;fill-opacity:1;fill-rule:nonzero;stroke:none"
       x="199.49591"
       y="752.19708">
      <tspan
         id="tspan4254"
         sodipodi:role="line"
         y="752.19708"
         x="199.49591 209.0359"
         style="-inkscape-font-specification:'Palatino Linotype';font-family:'Palatino Linotype';font-weight:normal;font-style:normal;font-stretch:normal;font-variant:normal">20</tspan>
    </text>
    <path
       inkscape:connector-curvature="0"
       id="path4256"
       style="fill:#000000;fill-opacity:1;fill-rule:nonzero;stroke:#000000;stroke-width:0.625;stroke-linecap:butt;stroke-linejoin:round;stroke-miterlimit:10;stroke-dasharray:none;stroke-opacity:1"
       d="m 265.6464,735.79081 0,-5" />
    <path
       inkscape:connector-curvature="0"
       id="path4258"
       style="fill:#000000;fill-opacity:1;fill-rule:nonzero;stroke:#000000;stroke-width:0.625;stroke-linecap:butt;stroke-linejoin:round;stroke-miterlimit:10;stroke-dasharray:none;stroke-opacity:1"
       d="m 265.6464,231.79081 0,5" />
    <text
       id="text4260"
       style="font-variant:normal;font-weight:normal;font-size:15px;font-family:BitstreamVeraSans;-inkscape-font-specification:BitstreamVeraSans-Roman;writing-mode:lr-tb;fill:#000000;fill-opacity:1;fill-rule:nonzero;stroke:none"
       x="256.96475"
       y="752.19708">
      <tspan
         id="tspan4262"
         sodipodi:role="line"
         y="752.19708"
         x="256.96475 266.50476"
         style="-inkscape-font-specification:'Palatino Linotype';font-family:'Palatino Linotype';font-weight:normal;font-style:normal;font-stretch:normal;font-variant:normal">40</tspan>
    </text>
    <path
       inkscape:connector-curvature="0"
       id="path4264"
       style="fill:#000000;fill-opacity:1;fill-rule:nonzero;stroke:#000000;stroke-width:0.625;stroke-linecap:butt;stroke-linejoin:round;stroke-miterlimit:10;stroke-dasharray:none;stroke-opacity:1"
       d="m 323.29103,735.79081 0,-5" />
    <path
       inkscape:connector-curvature="0"
       id="path4266"
       style="fill:#000000;fill-opacity:1;fill-rule:nonzero;stroke:#000000;stroke-width:0.625;stroke-linecap:butt;stroke-linejoin:round;stroke-miterlimit:10;stroke-dasharray:none;stroke-opacity:1"
       d="m 323.29103,231.79081 0,5" />
    <text
       id="text4268"
       style="font-variant:normal;font-weight:normal;font-size:15px;font-family:BitstreamVeraSans;-inkscape-font-specification:BitstreamVeraSans-Roman;writing-mode:lr-tb;fill:#000000;fill-opacity:1;fill-rule:nonzero;stroke:none"
       x="314.76563"
       y="752.19708">
      <tspan
         id="tspan4270"
         sodipodi:role="line"
         y="752.19708"
         x="314.76563 324.30563"
         style="-inkscape-font-specification:'Palatino Linotype';font-family:'Palatino Linotype';font-weight:normal;font-style:normal;font-stretch:normal;font-variant:normal">60</tspan>
    </text>
    <path
       inkscape:connector-curvature="0"
       id="path4272"
       style="fill:#000000;fill-opacity:1;fill-rule:nonzero;stroke:#000000;stroke-width:0.625;stroke-linecap:butt;stroke-linejoin:round;stroke-miterlimit:10;stroke-dasharray:none;stroke-opacity:1"
       d="m 380.93566,735.79081 0,-5" />
    <path
       inkscape:connector-curvature="0"
       id="path4274"
       style="fill:#000000;fill-opacity:1;fill-rule:nonzero;stroke:#000000;stroke-width:0.625;stroke-linecap:butt;stroke-linejoin:round;stroke-miterlimit:10;stroke-dasharray:none;stroke-opacity:1"
       d="m 380.93566,231.79081 0,5" />
    <text
       id="text4276"
       style="font-variant:normal;font-weight:normal;font-size:15px;font-family:BitstreamVeraSans;-inkscape-font-specification:BitstreamVeraSans-Roman;writing-mode:lr-tb;fill:#000000;fill-opacity:1;fill-rule:nonzero;stroke:none"
       x="372.39072"
       y="752.19708">
      <tspan
         id="tspan4278"
         sodipodi:role="line"
         y="752.19708"
         x="372.39072 381.93073"
         style="-inkscape-font-specification:'Palatino Linotype';font-family:'Palatino Linotype';font-weight:normal;font-style:normal;font-stretch:normal;font-variant:normal">80</tspan>
    </text>
    <path
       inkscape:connector-curvature="0"
       id="path4280"
       style="fill:#000000;fill-opacity:1;fill-rule:nonzero;stroke:#000000;stroke-width:0.625;stroke-linecap:butt;stroke-linejoin:round;stroke-miterlimit:10;stroke-dasharray:none;stroke-opacity:1"
       d="m 438.58028,735.79081 0,-5" />
    <path
       inkscape:connector-curvature="0"
       id="path4282"
       style="fill:#000000;fill-opacity:1;fill-rule:nonzero;stroke:#000000;stroke-width:0.625;stroke-linecap:butt;stroke-linejoin:round;stroke-miterlimit:10;stroke-dasharray:none;stroke-opacity:1"
       d="m 438.58028,231.79081 0,5" />
    <text
       id="text4284"
       style="font-variant:normal;font-weight:normal;font-size:15px;font-family:BitstreamVeraSans;-inkscape-font-specification:BitstreamVeraSans-Roman;writing-mode:lr-tb;fill:#000000;fill-opacity:1;fill-rule:nonzero;stroke:none"
       x="425.57248"
       y="752.19708">
      <tspan
         id="tspan4286"
         sodipodi:role="line"
         y="752.19708"
         x="425.57248 435.11246 444.65247"
         style="-inkscape-font-specification:'Palatino Linotype';font-family:'Palatino Linotype';font-weight:normal;font-style:normal;font-stretch:normal;font-variant:normal">100</tspan>
    </text>
    <path
       inkscape:connector-curvature="0"
       id="path4288"
       style="fill:#000000;fill-opacity:1;fill-rule:nonzero;stroke:#000000;stroke-width:0.625;stroke-linecap:butt;stroke-linejoin:round;stroke-miterlimit:10;stroke-dasharray:none;stroke-opacity:1"
       d="m 496.22491,735.79081 0,-5" />
    <path
       inkscape:connector-curvature="0"
       id="path4290"
       style="fill:#000000;fill-opacity:1;fill-rule:nonzero;stroke:#000000;stroke-width:0.625;stroke-linecap:butt;stroke-linejoin:round;stroke-miterlimit:10;stroke-dasharray:none;stroke-opacity:1"
       d="m 496.22491,231.79081 0,5" />
    <text
       id="text4292"
       style="font-variant:normal;font-weight:normal;font-size:15px;font-family:BitstreamVeraSans;-inkscape-font-specification:BitstreamVeraSans-Roman;writing-mode:lr-tb;fill:#000000;fill-opacity:1;fill-rule:nonzero;stroke:none"
       x="483.2171"
       y="752.19708">
      <tspan
         id="tspan4294"
         sodipodi:role="line"
         y="752.19708"
         x="483.2171 492.75711 502.29709"
         style="-inkscape-font-specification:'Palatino Linotype';font-family:'Palatino Linotype';font-weight:normal;font-style:normal;font-stretch:normal;font-variant:normal">120</tspan>
    </text>
    <path
       inkscape:connector-curvature="0"
       id="path4296"
       style="fill:#000000;fill-opacity:1;fill-rule:nonzero;stroke:#000000;stroke-width:0.625;stroke-linecap:butt;stroke-linejoin:round;stroke-miterlimit:10;stroke-dasharray:none;stroke-opacity:1"
       d="m 553.86955,735.79081 0,-5" />
    <path
       inkscape:connector-curvature="0"
       id="path4298"
       style="fill:#000000;fill-opacity:1;fill-rule:nonzero;stroke:#000000;stroke-width:0.625;stroke-linecap:butt;stroke-linejoin:round;stroke-miterlimit:10;stroke-dasharray:none;stroke-opacity:1"
       d="m 553.86955,231.79081 0,5" />
    <text
       id="text4300"
       style="font-variant:normal;font-weight:normal;font-size:15px;font-family:BitstreamVeraSans;-inkscape-font-specification:BitstreamVeraSans-Roman;writing-mode:lr-tb;fill:#000000;fill-opacity:1;fill-rule:nonzero;stroke:none"
       x="540.86176"
       y="752.19708">
      <tspan
         id="tspan4302"
         sodipodi:role="line"
         y="752.19708"
         x="540.86176 550.40173 559.94171"
         style="-inkscape-font-specification:'Palatino Linotype';font-family:'Palatino Linotype';font-weight:normal;font-style:normal;font-stretch:normal;font-variant:normal">140</tspan>
    </text>
    <text
       id="text4304"
       style="font-variant:normal;font-weight:normal;font-size:15px;font-family:BitstreamVeraSans;-inkscape-font-specification:BitstreamVeraSans-Roman;writing-mode:lr-tb;fill:#000000;fill-opacity:1;fill-rule:nonzero;stroke:none"
       x="327.3085"
       y="772.97833">
      <tspan
         id="tspan4306"
         sodipodi:role="line"
         y="772.97833"
         x="327.3085 338.9335 348.15851 357.66849 366.89349 373.0585 382.25351 388.13351 392.3035 401.48349 410.9935"
         style="-inkscape-font-specification:'Palatino Linotype';font-family:'Palatino Linotype';font-weight:normal;font-style:normal;font-stretch:normal;font-variant:normal">Generations</tspan>
    </text>
    <path
       inkscape:connector-curvature="0"
       id="path4308"
       style="fill:#000000;fill-opacity:1;fill-rule:nonzero;stroke:#000000;stroke-width:0.625;stroke-linecap:butt;stroke-linejoin:round;stroke-miterlimit:10;stroke-dasharray:none;stroke-opacity:1"
       d="m 150.35715,713.79661 5,0" />
    <path
       inkscape:connector-curvature="0"
       id="path4310"
       style="fill:#000000;fill-opacity:1;fill-rule:nonzero;stroke:#000000;stroke-width:0.625;stroke-linecap:butt;stroke-linejoin:round;stroke-miterlimit:10;stroke-dasharray:none;stroke-opacity:1"
       d="m 594.22078,713.79661 -5,0" />
    <text
       id="text4312"
       style="font-variant:normal;font-weight:normal;font-size:15px;font-family:BitstreamVeraSans;-inkscape-font-specification:BitstreamVeraSans-Roman;writing-mode:lr-tb;fill:#000000;fill-opacity:1;fill-rule:nonzero;stroke:none"
       x="114.14621"
       y="717.93726">
      <tspan
         id="tspan4314"
         sodipodi:role="line"
         y="717.93726"
         x="114.14621 123.68621 128.45621 137.99622"
         style="-inkscape-font-specification:'Palatino Linotype';font-family:'Palatino Linotype';font-weight:normal;font-style:normal;font-stretch:normal;font-variant:normal">0.33</tspan>
    </text>
    <path
       inkscape:connector-curvature="0"
       id="path4316"
       style="fill:#000000;fill-opacity:1;fill-rule:nonzero;stroke:#000000;stroke-width:0.625;stroke-linecap:butt;stroke-linejoin:round;stroke-miterlimit:10;stroke-dasharray:none;stroke-opacity:1"
       d="m 150.35715,654.9483 5,0" />
    <path
       inkscape:connector-curvature="0"
       id="path4318"
       style="fill:#000000;fill-opacity:1;fill-rule:nonzero;stroke:#000000;stroke-width:0.625;stroke-linecap:butt;stroke-linejoin:round;stroke-miterlimit:10;stroke-dasharray:none;stroke-opacity:1"
       d="m 594.22078,654.9483 -5,0" />
    <text
       id="text4320"
       style="font-variant:normal;font-weight:normal;font-size:15px;font-family:BitstreamVeraSans;-inkscape-font-specification:BitstreamVeraSans-Roman;writing-mode:lr-tb;fill:#000000;fill-opacity:1;fill-rule:nonzero;stroke:none"
       x="113.77511"
       y="659.08893">
      <tspan
         id="tspan4322"
         sodipodi:role="line"
         y="659.08893"
         x="113.77511 123.31511 128.08511 137.62511"
         style="-inkscape-font-specification:'Palatino Linotype';font-family:'Palatino Linotype';font-weight:normal;font-style:normal;font-stretch:normal;font-variant:normal">0.34</tspan>
    </text>
    <path
       inkscape:connector-curvature="0"
       id="path4324"
       style="fill:#000000;fill-opacity:1;fill-rule:nonzero;stroke:#000000;stroke-width:0.625;stroke-linecap:butt;stroke-linejoin:round;stroke-miterlimit:10;stroke-dasharray:none;stroke-opacity:1"
       d="m 150.35715,596.09998 5,0" />
    <path
       inkscape:connector-curvature="0"
       id="path4326"
       style="fill:#000000;fill-opacity:1;fill-rule:nonzero;stroke:#000000;stroke-width:0.625;stroke-linecap:butt;stroke-linejoin:round;stroke-miterlimit:10;stroke-dasharray:none;stroke-opacity:1"
       d="m 594.22078,596.09998 -5,0" />
    <text
       id="text4328"
       style="font-variant:normal;font-weight:normal;font-size:15px;font-family:BitstreamVeraSans;-inkscape-font-specification:BitstreamVeraSans-Roman;writing-mode:lr-tb;fill:#000000;fill-opacity:1;fill-rule:nonzero;stroke:none"
       x="114.24386"
       y="600.2406">
      <tspan
         id="tspan4330"
         sodipodi:role="line"
         y="600.2406"
         x="114.24386 123.78386 128.55386 138.09386"
         style="-inkscape-font-specification:'Palatino Linotype';font-family:'Palatino Linotype';font-weight:normal;font-style:normal;font-stretch:normal;font-variant:normal">0.35</tspan>
    </text>
    <path
       inkscape:connector-curvature="0"
       id="path4332"
       style="fill:#000000;fill-opacity:1;fill-rule:nonzero;stroke:#000000;stroke-width:0.625;stroke-linecap:butt;stroke-linejoin:round;stroke-miterlimit:10;stroke-dasharray:none;stroke-opacity:1"
       d="m 150.35715,537.25168 5,0" />
    <path
       inkscape:connector-curvature="0"
       id="path4334"
       style="fill:#000000;fill-opacity:1;fill-rule:nonzero;stroke:#000000;stroke-width:0.625;stroke-linecap:butt;stroke-linejoin:round;stroke-miterlimit:10;stroke-dasharray:none;stroke-opacity:1"
       d="m 594.22078,537.25168 -5,0" />
    <text
       id="text4336"
       style="font-variant:normal;font-weight:normal;font-size:15px;font-family:BitstreamVeraSans;-inkscape-font-specification:BitstreamVeraSans-Roman;writing-mode:lr-tb;fill:#000000;fill-opacity:1;fill-rule:nonzero;stroke:none"
       x="113.8923"
       y="541.39233">
      <tspan
         id="tspan4338"
         sodipodi:role="line"
         y="541.39233"
         x="113.8923 123.4323 128.2023 137.74229"
         style="-inkscape-font-specification:'Palatino Linotype';font-family:'Palatino Linotype';font-weight:normal;font-style:normal;font-stretch:normal;font-variant:normal">0.36</tspan>
    </text>
    <path
       inkscape:connector-curvature="0"
       id="path4340"
       style="fill:#000000;fill-opacity:1;fill-rule:nonzero;stroke:#000000;stroke-width:0.625;stroke-linecap:butt;stroke-linejoin:round;stroke-miterlimit:10;stroke-dasharray:none;stroke-opacity:1"
       d="m 150.35715,478.40337 5,0" />
    <path
       inkscape:connector-curvature="0"
       id="path4342"
       style="fill:#000000;fill-opacity:1;fill-rule:nonzero;stroke:#000000;stroke-width:0.625;stroke-linecap:butt;stroke-linejoin:round;stroke-miterlimit:10;stroke-dasharray:none;stroke-opacity:1"
       d="m 594.22078,478.40337 -5,0" />
    <text
       id="text4344"
       style="font-variant:normal;font-weight:normal;font-size:15px;font-family:BitstreamVeraSans;-inkscape-font-specification:BitstreamVeraSans-Roman;writing-mode:lr-tb;fill:#000000;fill-opacity:1;fill-rule:nonzero;stroke:none"
       x="114.22433"
       y="482.54401">
      <tspan
         id="tspan4346"
         sodipodi:role="line"
         y="482.54401"
         x="114.22433 123.76433 128.53433 138.07433"
         style="-inkscape-font-specification:'Palatino Linotype';font-family:'Palatino Linotype';font-weight:normal;font-style:normal;font-stretch:normal;font-variant:normal">0.37</tspan>
    </text>
    <path
       inkscape:connector-curvature="0"
       id="path4348"
       style="fill:#000000;fill-opacity:1;fill-rule:nonzero;stroke:#000000;stroke-width:0.625;stroke-linecap:butt;stroke-linejoin:round;stroke-miterlimit:10;stroke-dasharray:none;stroke-opacity:1"
       d="m 150.35715,419.55506 5,0" />
    <path
       inkscape:connector-curvature="0"
       id="path4350"
       style="fill:#000000;fill-opacity:1;fill-rule:nonzero;stroke:#000000;stroke-width:0.625;stroke-linecap:butt;stroke-linejoin:round;stroke-miterlimit:10;stroke-dasharray:none;stroke-opacity:1"
       d="m 594.22078,419.55506 -5,0" />
    <text
       id="text4352"
       style="font-variant:normal;font-weight:normal;font-size:15px;font-family:BitstreamVeraSans;-inkscape-font-specification:BitstreamVeraSans-Roman;writing-mode:lr-tb;fill:#000000;fill-opacity:1;fill-rule:nonzero;stroke:none"
       x="113.97043"
       y="423.69568">
      <tspan
         id="tspan4354"
         sodipodi:role="line"
         y="423.69568"
         x="113.97043 123.51043 128.28043 137.82043"
         style="-inkscape-font-specification:'Palatino Linotype';font-family:'Palatino Linotype';font-weight:normal;font-style:normal;font-stretch:normal;font-variant:normal">0.38</tspan>
    </text>
    <path
       inkscape:connector-curvature="0"
       id="path4356"
       style="fill:#000000;fill-opacity:1;fill-rule:nonzero;stroke:#000000;stroke-width:0.625;stroke-linecap:butt;stroke-linejoin:round;stroke-miterlimit:10;stroke-dasharray:none;stroke-opacity:1"
       d="m 150.35715,360.70675 5,0" />
    <path
       inkscape:connector-curvature="0"
       id="path4358"
       style="fill:#000000;fill-opacity:1;fill-rule:nonzero;stroke:#000000;stroke-width:0.625;stroke-linecap:butt;stroke-linejoin:round;stroke-miterlimit:10;stroke-dasharray:none;stroke-opacity:1"
       d="m 594.22078,360.70675 -5,0" />
    <text
       id="text4360"
       style="font-variant:normal;font-weight:normal;font-size:15px;font-family:BitstreamVeraSans;-inkscape-font-specification:BitstreamVeraSans-Roman;writing-mode:lr-tb;fill:#000000;fill-opacity:1;fill-rule:nonzero;stroke:none"
       x="113.98996"
       y="364.84738">
      <tspan
         id="tspan4362"
         sodipodi:role="line"
         y="364.84738"
         x="113.98996 123.52996 128.29996 137.83997"
         style="-inkscape-font-specification:'Palatino Linotype';font-family:'Palatino Linotype';font-weight:normal;font-style:normal;font-stretch:normal;font-variant:normal">0.39</tspan>
    </text>
    <path
       inkscape:connector-curvature="0"
       id="path4364"
       style="fill:#000000;fill-opacity:1;fill-rule:nonzero;stroke:#000000;stroke-width:0.625;stroke-linecap:butt;stroke-linejoin:round;stroke-miterlimit:10;stroke-dasharray:none;stroke-opacity:1"
       d="m 150.35715,301.85845 5,0" />
    <path
       inkscape:connector-curvature="0"
       id="path4366"
       style="fill:#000000;fill-opacity:1;fill-rule:nonzero;stroke:#000000;stroke-width:0.625;stroke-linecap:butt;stroke-linejoin:round;stroke-miterlimit:10;stroke-dasharray:none;stroke-opacity:1"
       d="m 594.22078,301.85845 -5,0" />
    <text
       id="text4368"
       style="font-variant:normal;font-weight:normal;font-size:15px;font-family:BitstreamVeraSans;-inkscape-font-specification:BitstreamVeraSans-Roman;writing-mode:lr-tb;fill:#000000;fill-opacity:1;fill-rule:nonzero;stroke:none"
       x="113.93136"
       y="305.99908">
      <tspan
         id="tspan4370"
         sodipodi:role="line"
         y="305.99908"
         x="113.93136 123.47136 128.24136 137.78136"
         style="-inkscape-font-specification:'Palatino Linotype';font-family:'Palatino Linotype';font-weight:normal;font-style:normal;font-stretch:normal;font-variant:normal">0.40</tspan>
    </text>
    <path
       inkscape:connector-curvature="0"
       id="path4372"
       style="fill:#000000;fill-opacity:1;fill-rule:nonzero;stroke:#000000;stroke-width:0.625;stroke-linecap:butt;stroke-linejoin:round;stroke-miterlimit:10;stroke-dasharray:none;stroke-opacity:1"
       d="m 150.35715,243.01013 5,0" />
    <path
       inkscape:connector-curvature="0"
       id="path4374"
       style="fill:#000000;fill-opacity:1;fill-rule:nonzero;stroke:#000000;stroke-width:0.625;stroke-linecap:butt;stroke-linejoin:round;stroke-miterlimit:10;stroke-dasharray:none;stroke-opacity:1"
       d="m 594.22078,243.01013 -5,0" />
    <text
       id="text4376"
       style="font-variant:normal;font-weight:normal;font-size:15px;font-family:BitstreamVeraSans;-inkscape-font-specification:BitstreamVeraSans-Roman;writing-mode:lr-tb;fill:#000000;fill-opacity:1;fill-rule:nonzero;stroke:none"
       x="114.32199"
       y="247.15076">
      <tspan
         id="tspan4378"
         sodipodi:role="line"
         y="247.15076"
         x="114.32199 123.86199 128.63199 138.172"
         style="-inkscape-font-specification:'Palatino Linotype';font-family:'Palatino Linotype';font-weight:normal;font-style:normal;font-stretch:normal;font-variant:normal">0.41</tspan>
    </text>
    <text
       id="text4380"
       style="font-variant:normal;font-weight:normal;font-size:15px;font-family:BitstreamVeraSans;-inkscape-font-specification:BitstreamVeraSans-Roman;writing-mode:lr-tb;fill:#000000;fill-opacity:1;fill-rule:nonzero;stroke:none"
       transform="matrix(0,-1,1,0,0,0)"
       x="-507.45291"
       y="104.40011">
      <tspan
         id="tspan4382"
         sodipodi:role="line"
         y="104.40011"
         x="-507.45291 -496.98291 -486.55792 -477.51291 -467.98792"
         style="-inkscape-font-specification:'Palatino Linotype';font-family:'Palatino Linotype';font-weight:normal;font-style:normal;font-stretch:normal;font-variant:normal">CRPSS</tspan>
    </text>
    <text
       id="text4384"
       style="font-variant:normal;font-weight:normal;font-size:18px;font-family:BitstreamVeraSans;-inkscape-font-specification:BitstreamVeraSans-Roman;writing-mode:lr-tb;fill:#000000;fill-opacity:1;fill-rule:nonzero;stroke:none"
       x="233.32413"
       y="219.54082">
      <tspan
         id="tspan4386"
         sodipodi:role="line"
         y="219.54082"
         x="233.32413 244.70012 255.35612 266.37213 271.37613 282.78812 289.84412 294.84811 305.86414 317.27612 323.00012 334.01611 340.35211 346.07611 353.13211 364.54413 375.61414 381.33813 392.76813 403.8381 413.21613 420.27213 425.99612 431.00012 442.41211 453.84213 458.84613 469.50211 474.50613 485.93613 497.34811 508.38211"
         style="-inkscape-font-specification:'Palatino Linotype';font-family:'Palatino Linotype';font-weight:normal;font-style:normal;font-stretch:normal;font-variant:normal;fill:#000000;fill-opacity:1">Evolution of the best individual</tspan>
    </text>
  </g>
</svg>
