<?xml version="1.0" encoding="UTF-8" standalone="no"?>
<!-- Created with Inkscape (http://www.inkscape.org/) -->

<svg
   xmlns:dc="http://purl.org/dc/elements/1.1/"
   xmlns:cc="http://creativecommons.org/ns#"
   xmlns:rdf="http://www.w3.org/1999/02/22-rdf-syntax-ns#"
   xmlns:svg="http://www.w3.org/2000/svg"
   xmlns="http://www.w3.org/2000/svg"
   xmlns:sodipodi="http://sodipodi.sourceforge.net/DTD/sodipodi-0.dtd"
   xmlns:inkscape="http://www.inkscape.org/namespaces/inkscape"
   id="svg2"
   version="1.1"
   inkscape:version="0.91 r13725"
   xml:space="preserve"
   width="610.09399"
   height="309.37262"
   viewBox="0 0 610.09399 309.37262"
   sodipodi:docname="figure_dcrpss_4Zo-2HIo.pdf"><metadata
     id="metadata8"><rdf:RDF><cc:Work
         rdf:about=""><dc:format>image/svg+xml</dc:format><dc:type
           rdf:resource="http://purl.org/dc/dcmitype/StillImage" /><dc:title></dc:title></cc:Work></rdf:RDF></metadata><defs
     id="defs6"><clipPath
       clipPathUnits="userSpaceOnUse"
       id="clipPath26"><path
         d="m 51.12,258.24 509.88,0 0,275.4 -509.88,0 0,-275.4 z"
         id="path28"
         inkscape:connector-curvature="0"
         style="clip-rule:evenodd" /></clipPath><clipPath
       clipPathUnits="userSpaceOnUse"
       id="clipPath38"><path
         d="m 51.12,258.24 509.88,0 0,275.4 -509.88,0 0,-275.4 z"
         id="path40"
         inkscape:connector-curvature="0"
         style="clip-rule:evenodd" /></clipPath><clipPath
       clipPathUnits="userSpaceOnUse"
       id="clipPath50"><path
         d="m 51.12,258.24 509.88,0 0,275.4 -509.88,0 0,-275.4 z"
         id="path52"
         inkscape:connector-curvature="0"
         style="clip-rule:evenodd" /></clipPath><clipPath
       clipPathUnits="userSpaceOnUse"
       id="clipPath62"><path
         d="m 51.12,258.24 509.88,0 0,275.4 -509.88,0 0,-275.4 z"
         id="path64"
         inkscape:connector-curvature="0"
         style="clip-rule:evenodd" /></clipPath><clipPath
       clipPathUnits="userSpaceOnUse"
       id="clipPath74"><path
         d="m 51.12,258.24 509.88,0 0,275.4 -509.88,0 0,-275.4 z"
         id="path76"
         inkscape:connector-curvature="0"
         style="clip-rule:evenodd" /></clipPath><clipPath
       clipPathUnits="userSpaceOnUse"
       id="clipPath86"><path
         d="m 51.12,258.24 509.88,0 0,275.4 -509.88,0 0,-275.4 z"
         id="path88"
         inkscape:connector-curvature="0"
         style="clip-rule:evenodd" /></clipPath><clipPath
       clipPathUnits="userSpaceOnUse"
       id="clipPath98"><path
         d="m 51.12,258.24 509.88,0 0,275.4 -509.88,0 0,-275.4 z"
         id="path100"
         inkscape:connector-curvature="0"
         style="clip-rule:evenodd" /></clipPath><clipPath
       clipPathUnits="userSpaceOnUse"
       id="clipPath110"><path
         d="m 51.12,258.24 509.88,0 0,275.4 -509.88,0 0,-275.4 z"
         id="path112"
         inkscape:connector-curvature="0"
         style="clip-rule:evenodd" /></clipPath><clipPath
       clipPathUnits="userSpaceOnUse"
       id="clipPath122"><path
         d="m 51.12,258.24 509.88,0 0,275.4 -509.88,0 0,-275.4 z"
         id="path124"
         inkscape:connector-curvature="0"
         style="clip-rule:evenodd" /></clipPath><clipPath
       clipPathUnits="userSpaceOnUse"
       id="clipPath134"><path
         d="m 51.12,258.24 509.88,0 0,275.4 -509.88,0 0,-275.4 z"
         id="path136"
         inkscape:connector-curvature="0"
         style="clip-rule:evenodd" /></clipPath><clipPath
       clipPathUnits="userSpaceOnUse"
       id="clipPath146"><path
         d="m 51.12,258.24 509.88,0 0,275.4 -509.88,0 0,-275.4 z"
         id="path148"
         inkscape:connector-curvature="0"
         style="clip-rule:evenodd" /></clipPath><clipPath
       clipPathUnits="userSpaceOnUse"
       id="clipPath158"><path
         d="m 51.12,258.24 509.88,0 0,275.4 -509.88,0 0,-275.4 z"
         id="path160"
         inkscape:connector-curvature="0"
         style="clip-rule:evenodd" /></clipPath><clipPath
       clipPathUnits="userSpaceOnUse"
       id="clipPath170"><path
         d="m 51.12,258.24 509.88,0 0,275.4 -509.88,0 0,-275.4 z"
         id="path172"
         inkscape:connector-curvature="0"
         style="clip-rule:evenodd" /></clipPath><clipPath
       clipPathUnits="userSpaceOnUse"
       id="clipPath182"><path
         d="m 51.12,258.24 509.88,0 0,275.4 -509.88,0 0,-275.4 z"
         id="path184"
         inkscape:connector-curvature="0"
         style="clip-rule:evenodd" /></clipPath><clipPath
       clipPathUnits="userSpaceOnUse"
       id="clipPath194"><path
         d="m 51.12,258.24 509.88,0 0,275.4 -509.88,0 0,-275.4 z"
         id="path196"
         inkscape:connector-curvature="0"
         style="clip-rule:evenodd" /></clipPath><clipPath
       clipPathUnits="userSpaceOnUse"
       id="clipPath206"><path
         d="m 51.12,258.24 509.88,0 0,275.4 -509.88,0 0,-275.4 z"
         id="path208"
         inkscape:connector-curvature="0"
         style="clip-rule:evenodd" /></clipPath><clipPath
       clipPathUnits="userSpaceOnUse"
       id="clipPath218"><path
         d="m 51.12,258.24 509.88,0 0,275.4 -509.88,0 0,-275.4 z"
         id="path220"
         inkscape:connector-curvature="0"
         style="clip-rule:evenodd" /></clipPath><clipPath
       clipPathUnits="userSpaceOnUse"
       id="clipPath230"><path
         d="m 51.12,258.24 509.88,0 0,275.4 -509.88,0 0,-275.4 z"
         id="path232"
         inkscape:connector-curvature="0"
         style="clip-rule:evenodd" /></clipPath><clipPath
       clipPathUnits="userSpaceOnUse"
       id="clipPath242"><path
         d="m 51.12,258.24 509.88,0 0,275.4 -509.88,0 0,-275.4 z"
         id="path244"
         inkscape:connector-curvature="0"
         style="clip-rule:evenodd" /></clipPath><clipPath
       clipPathUnits="userSpaceOnUse"
       id="clipPath254"><path
         d="m 51.12,258.24 509.88,0 0,275.4 -509.88,0 0,-275.4 z"
         id="path256"
         inkscape:connector-curvature="0"
         style="clip-rule:evenodd" /></clipPath><clipPath
       clipPathUnits="userSpaceOnUse"
       id="clipPath266"><path
         d="m 51.12,258.24 509.88,0 0,275.4 -509.88,0 0,-275.4 z"
         id="path268"
         inkscape:connector-curvature="0"
         style="clip-rule:evenodd" /></clipPath><clipPath
       clipPathUnits="userSpaceOnUse"
       id="clipPath278"><path
         d="m 51.12,258.24 509.88,0 0,275.4 -509.88,0 0,-275.4 z"
         id="path280"
         inkscape:connector-curvature="0"
         style="clip-rule:evenodd" /></clipPath><clipPath
       clipPathUnits="userSpaceOnUse"
       id="clipPath292"><path
         d="m 51.12,258.24 509.88,0 0,275.4 -509.88,0 0,-275.4 z"
         id="path294"
         inkscape:connector-curvature="0"
         style="clip-rule:evenodd" /></clipPath><clipPath
       clipPathUnits="userSpaceOnUse"
       id="clipPath306"><path
         d="m 51.12,258.24 509.88,0 0,275.4 -509.88,0 0,-275.4 z"
         id="path308"
         inkscape:connector-curvature="0"
         style="clip-rule:evenodd" /></clipPath></defs><sodipodi:namedview
     pagecolor="#ffffff"
     bordercolor="#666666"
     borderopacity="1"
     objecttolerance="10"
     gridtolerance="10"
     guidetolerance="10"
     inkscape:pageopacity="0"
     inkscape:pageshadow="2"
     inkscape:window-width="1120"
     inkscape:window-height="777"
     id="namedview4"
     showgrid="false"
     fit-margin-top="0"
     fit-margin-left="0"
     fit-margin-right="0"
     fit-margin-bottom="0"
     inkscape:zoom="0.67425131"
     inkscape:cx="204.08736"
     inkscape:cy="100.30479"
     inkscape:window-x="0"
     inkscape:window-y="0"
     inkscape:window-maximized="0"
     inkscape:current-layer="g10" /><g
     id="g10"
     inkscape:groupmode="layer"
     inkscape:label="figure_dcrpss_4Zo-2HIo"
     transform="matrix(1.25,0,0,-1.25,-76.956035,648.31699)"><path
       d="m 95.346,347.58 454.294,0 m -454.294,32.1 454.294,0 m -454.294,31.94 454.294,0 m -454.294,32.1 454.294,0 m -454.294,32.01 454.294,0"
       style="fill:none;stroke:#d9d9d9;stroke-width:0.98825002;stroke-linecap:butt;stroke-linejoin:round;stroke-miterlimit:10;stroke-dasharray:none;stroke-opacity:1"
       id="path14"
       inkscape:connector-curvature="0" /><path
       d="m 106.53,391.86 10.12,0 0,-76.27 -10.12,0 0,76.27 z m 45.38,-4.43 10.28,0 0,-71.84 -10.28,0 0,71.84 z m 45.38,12.96 10.28,0 0,-84.8 -10.28,0 0,84.8 z m 45.54,-5.53 10.12,0 0,-79.27 -10.12,0 0,79.27 z m 45.38,0.63 10.12,0 0,-79.9 -10.12,0 0,79.9 z m 45.38,-6.32 10.28,0 0,-73.58 -10.28,0 0,73.58 z m 45.54,52.49 10.12,0 0,-126.07 -10.12,0 0,126.07 z m 45.38,-2.84 10.12,0 0,-123.23 -10.12,0 0,123.23 z m 45.38,-21.98 10.28,0 0,-101.25 -10.28,0 0,101.25 z m 45.54,-18.82 10.12,0 0,-82.43 -10.12,0 0,82.43 z"
       style="fill:#8064a2;fill-opacity:1;fill-rule:nonzero;stroke:none"
       id="path16"
       inkscape:connector-curvature="0" /><path
       d="m 119.5,379.36 10.12,0 0,-63.77 -10.12,0 0,63.77 z m 45.38,-3.47 10.12,0 0,-60.3 -10.12,0 0,60.3 z m 45.38,16.76 10.28,0 0,-77.06 -10.28,0 0,77.06 z m 45.54,-9.33 10.12,0 0,-67.73 -10.12,0 0,67.73 z m 45.38,-9.49 10.12,0 0,-58.24 -10.12,0 0,58.24 z m 45.38,-5.53 10.28,0 0,-52.71 -10.28,0 0,52.71 z m 45.38,47.91 10.28,0 0,-100.62 -10.28,0 0,100.62 z m 45.54,-13.92 10.12,0 0,-86.7 -10.12,0 0,86.7 z m 45.38,10.91 10.12,0 0,-97.61 -10.12,0 0,97.61 z m 45.38,-25.77 10.28,0 0,-71.84 -10.28,0 0,71.84 z"
       style="fill:#9bbb59;fill-opacity:1;fill-rule:nonzero;stroke:none"
       id="path18"
       inkscape:connector-curvature="0" /><path
       d="m 95.346,315.59 454.294,0"
       style="fill:none;stroke:#d9d9d9;stroke-width:0.98825002;stroke-linecap:butt;stroke-linejoin:round;stroke-miterlimit:10;stroke-dasharray:none;stroke-opacity:1"
       id="path20"
       inkscape:connector-curvature="0" /><g
       id="g22"><g
         id="g24"
         clip-path="url(#clipPath26)"><text
           transform="matrix(1,0,0,-1,67.296,312.07)"
           style="font-variant:normal;font-weight:normal;font-size:11.88000011px;font-family:'Palatino Linotype';-inkscape-font-specification:'Palatino Linotype';writing-mode:lr-tb;fill:#000000;fill-opacity:1;fill-rule:nonzero;stroke:none"
           id="text30"><tspan
             x="0 6.0240002"
             y="0"
             sodipodi:role="line"
             id="tspan32">0%</tspan></text>
</g></g><g
       id="g34"><g
         id="g36"
         clip-path="url(#clipPath38)"><text
           transform="matrix(1,0,0,-1,67.296,344.09)"
           style="font-variant:normal;font-weight:normal;font-size:11.85599995px;font-family:'Palatino Linotype';-inkscape-font-specification:'Palatino Linotype';writing-mode:lr-tb;fill:#000000;fill-opacity:1;fill-rule:nonzero;stroke:none"
           id="text42"><tspan
             x="0 6.0240002"
             y="0"
             sodipodi:role="line"
             id="tspan44">5%</tspan></text>
</g></g><g
       id="g46"><g
         id="g48"
         clip-path="url(#clipPath50)"><text
           transform="matrix(1,0,0,-1,61.368,376.13)"
           style="font-variant:normal;font-weight:normal;font-size:11.85599995px;font-family:'Palatino Linotype';-inkscape-font-specification:'Palatino Linotype';writing-mode:lr-tb;fill:#000000;fill-opacity:1;fill-rule:nonzero;stroke:none"
           id="text54"><tspan
             x="0 6.0109921 11.867856"
             y="0"
             sodipodi:role="line"
             id="tspan56">10%</tspan></text>
</g></g><g
       id="g58"><g
         id="g60"
         clip-path="url(#clipPath62)"><text
           transform="matrix(1,0,0,-1,61.368,408.17)"
           style="font-variant:normal;font-weight:normal;font-size:11.85599995px;font-family:'Palatino Linotype';-inkscape-font-specification:'Palatino Linotype';writing-mode:lr-tb;fill:#000000;fill-opacity:1;fill-rule:nonzero;stroke:none"
           id="text66"><tspan
             x="0 6.0109921 11.867856"
             y="0"
             sodipodi:role="line"
             id="tspan68">15%</tspan></text>
</g></g><g
       id="g70"><g
         id="g72"
         clip-path="url(#clipPath74)"><text
           transform="matrix(1,0,0,-1,61.368,440.18)"
           style="font-variant:normal;font-weight:normal;font-size:11.85599995px;font-family:'Palatino Linotype';-inkscape-font-specification:'Palatino Linotype';writing-mode:lr-tb;fill:#000000;fill-opacity:1;fill-rule:nonzero;stroke:none"
           id="text78"><tspan
             x="0 6.0109921 11.867856"
             y="0"
             sodipodi:role="line"
             id="tspan80">20%</tspan></text>
</g></g><g
       id="g82"><g
         id="g84"
         clip-path="url(#clipPath86)"><text
           transform="matrix(1,0,0,-1,61.368,472.22)"
           style="font-variant:normal;font-weight:normal;font-size:11.85599995px;font-family:'Palatino Linotype';-inkscape-font-specification:'Palatino Linotype';writing-mode:lr-tb;fill:#000000;fill-opacity:1;fill-rule:nonzero;stroke:none"
           id="text90"><tspan
             x="0 6.0109921 11.867856"
             y="0"
             sodipodi:role="line"
             id="tspan92">25%</tspan></text>
</g></g><g
       id="g94"><g
         id="g96"
         clip-path="url(#clipPath98)"><text
           transform="matrix(1,0,0,-1,115.1,294.72)"
           style="font-variant:normal;font-weight:normal;font-size:11.85599995px;font-family:'Palatino Linotype';-inkscape-font-specification:'Palatino Linotype';writing-mode:lr-tb;fill:#000000;fill-opacity:1;fill-rule:nonzero;stroke:none"
           id="text102"><tspan
             x="0"
             y="0"
             id="tspan104">1</tspan></text>
</g></g><g
       id="g106"><g
         id="g108"
         clip-path="url(#clipPath110)"><text
           transform="matrix(1,0,0,-1,160.56,294.72)"
           style="font-variant:normal;font-weight:normal;font-size:11.85599995px;font-family:'Palatino Linotype';-inkscape-font-specification:'Palatino Linotype';writing-mode:lr-tb;fill:#000000;fill-opacity:1;fill-rule:nonzero;stroke:none"
           id="text114"><tspan
             x="0"
             y="0"
             id="tspan116">2</tspan></text>
</g></g><g
       id="g118"><g
         id="g120"
         clip-path="url(#clipPath122)"><text
           transform="matrix(1,0,0,-1,205.99,294.72)"
           style="font-variant:normal;font-weight:normal;font-size:11.85599995px;font-family:'Palatino Linotype';-inkscape-font-specification:'Palatino Linotype';writing-mode:lr-tb;fill:#000000;fill-opacity:1;fill-rule:nonzero;stroke:none"
           id="text126"><tspan
             x="0"
             y="0"
             id="tspan128">3</tspan></text>
</g></g><g
       id="g130"><g
         id="g132"
         clip-path="url(#clipPath134)"><text
           transform="matrix(1,0,0,-1,251.42,294.72)"
           style="font-variant:normal;font-weight:normal;font-size:11.85599995px;font-family:'Palatino Linotype';-inkscape-font-specification:'Palatino Linotype';writing-mode:lr-tb;fill:#000000;fill-opacity:1;fill-rule:nonzero;stroke:none"
           id="text138"><tspan
             x="0"
             y="0"
             id="tspan140">4</tspan></text>
</g></g><g
       id="g142"><g
         id="g144"
         clip-path="url(#clipPath146)"><text
           transform="matrix(1,0,0,-1,296.86,294.72)"
           style="font-variant:normal;font-weight:normal;font-size:11.85599995px;font-family:'Palatino Linotype';-inkscape-font-specification:'Palatino Linotype';writing-mode:lr-tb;fill:#000000;fill-opacity:1;fill-rule:nonzero;stroke:none"
           id="text150"><tspan
             x="0"
             y="0"
             id="tspan152">5</tspan></text>
</g></g><g
       id="g154"><g
         id="g156"
         clip-path="url(#clipPath158)"><text
           transform="matrix(1,0,0,-1,342.31,294.72)"
           style="font-variant:normal;font-weight:normal;font-size:11.85599995px;font-family:'Palatino Linotype';-inkscape-font-specification:'Palatino Linotype';writing-mode:lr-tb;fill:#000000;fill-opacity:1;fill-rule:nonzero;stroke:none"
           id="text162"><tspan
             x="0"
             y="0"
             id="tspan164">6</tspan></text>
</g></g><g
       id="g166"><g
         id="g168"
         clip-path="url(#clipPath170)"><text
           transform="matrix(1,0,0,-1,387.74,294.72)"
           style="font-variant:normal;font-weight:normal;font-size:11.85599995px;font-family:'Palatino Linotype';-inkscape-font-specification:'Palatino Linotype';writing-mode:lr-tb;fill:#000000;fill-opacity:1;fill-rule:nonzero;stroke:none"
           id="text174"><tspan
             x="0"
             y="0"
             id="tspan176">7</tspan></text>
</g></g><g
       id="g178"><g
         id="g180"
         clip-path="url(#clipPath182)"><text
           transform="matrix(1,0,0,-1,433.18,294.72)"
           style="font-variant:normal;font-weight:normal;font-size:11.85599995px;font-family:'Palatino Linotype';-inkscape-font-specification:'Palatino Linotype';writing-mode:lr-tb;fill:#000000;fill-opacity:1;fill-rule:nonzero;stroke:none"
           id="text186"><tspan
             x="0"
             y="0"
             id="tspan188">8</tspan></text>
</g></g><g
       id="g190"><g
         id="g192"
         clip-path="url(#clipPath194)"><text
           transform="matrix(1,0,0,-1,478.63,294.72)"
           style="font-variant:normal;font-weight:normal;font-size:11.85599995px;font-family:'Palatino Linotype';-inkscape-font-specification:'Palatino Linotype';writing-mode:lr-tb;fill:#000000;fill-opacity:1;fill-rule:nonzero;stroke:none"
           id="text198"><tspan
             x="0"
             y="0"
             id="tspan200">9</tspan></text>
</g></g><g
       id="g202"><g
         id="g204"
         clip-path="url(#clipPath206)"><text
           transform="matrix(1,0,0,-1,521.09,294.72)"
           style="font-variant:normal;font-weight:normal;font-size:11.85599995px;font-family:'Palatino Linotype';-inkscape-font-specification:'Palatino Linotype';writing-mode:lr-tb;fill:#000000;fill-opacity:1;fill-rule:nonzero;stroke:none"
           id="text210"><tspan
             x="0 6.0240002"
             y="0"
             sodipodi:role="line"
             id="tspan212">10</tspan></text>
</g></g><g
       id="g214"><g
         id="g216"
         clip-path="url(#clipPath218)"><text
           transform="matrix(1,0,0,-1,107.11,507.17)"
           style="font-variant:normal;font-weight:normal;font-size:15.81599998px;font-family:'Palatino Linotype';-inkscape-font-specification:'Palatino Linotype';writing-mode:lr-tb;fill:#000000;fill-opacity:1;fill-rule:nonzero;stroke:none"
           id="text222"><tspan
             x="0 5.3299918 19.295521 28.753489 35.048256 43.715424 52.398407 59.974274 73.876534 81.4524 90.65731 95.813332 99.624985 104.03765 113.24256 117.29146 128.505 139.07008 148.55969 156.92635 165.29301 169.08885 174.29231 182.95949 189.25426 193.20825 198.36427 207.56918 215.14505 219.09904 228.76262 233.14366 238.34712 243.55058 251.12645 257.43704 265.01291 274.2178 279.37381 283.32782 289.62259 297.19846 306.03961 310.45227 319.11945 328.32434 334.90381 338.85779 342.92252 356.82477 364.40063 369.6041 378.80902 387.44455 397.10812"
             y="0"
             sodipodi:role="line"
             id="tspan224">Improvement in CRPSS for the different regions, method </tspan></text>
</g></g><g
       id="g226"><g
         id="g228"
         clip-path="url(#clipPath230)"><text
           transform="matrix(1,0,0,-1,201.53,485.81)"
           style="font-variant:normal;font-weight:normal;font-size:15.81599998px;font-family:'Palatino Linotype';-inkscape-font-specification:'Palatino Linotype';writing-mode:lr-tb;fill:#000000;fill-opacity:1;fill-rule:nonzero;stroke:none"
           id="text234"><tspan
             x="0 7.908 18.457272"
             y="0"
             sodipodi:role="line"
             id="tspan236">4Zo</tspan></text>
</g></g><g
       id="g238"><g
         id="g240"
         clip-path="url(#clipPath242)"><text
           transform="matrix(1,0,0,-1,228.72,485.81)"
           style="font-variant:normal;font-weight:normal;font-size:15.81599998px;font-family:'Palatino Linotype';-inkscape-font-specification:'Palatino Linotype';writing-mode:lr-tb;fill:#000000;fill-opacity:1;fill-rule:nonzero;stroke:none"
           id="text246"><tspan
             x="0"
             y="0"
             id="tspan248">-</tspan></text>
</g></g><g
       id="g250"><g
         id="g252"
         clip-path="url(#clipPath254)"><text
           transform="matrix(1,0,0,-1,233.95,485.81)"
           style="font-variant:normal;font-weight:normal;font-size:15.81599998px;font-family:'Palatino Linotype';-inkscape-font-specification:'Palatino Linotype';writing-mode:lr-tb;fill:#000000;fill-opacity:1;fill-rule:nonzero;stroke:none"
           id="text258"><tspan
             x="0 7.908 21.003649 26.333639 35.048256 38.844097 45.138863 52.714729 57.317184 65.225182 70.381203 74.825493 83.508476 91.084343 95.686798 104.51213 108.46613 113.62215 122.32095 126.11678 134.02478"
             y="0"
             sodipodi:role="line"
             id="tspan260">2HIo relatively to 2Z</tspan></text>
</g></g><g
       id="g262"><g
         id="g264"
         clip-path="url(#clipPath266)"><text
           transform="matrix(1,0,0,-1,378.82,485.81)"
           style="font-variant:normal;font-weight:normal;font-size:15.81599998px;font-family:'Palatino Linotype';-inkscape-font-specification:'Palatino Linotype';writing-mode:lr-tb;fill:#000000;fill-opacity:1;fill-rule:nonzero;stroke:none"
           id="text270"><tspan
             x="0"
             y="0"
             id="tspan272">-</tspan></text>
</g></g><g
       id="g274"><g
         id="g276"
         clip-path="url(#clipPath278)"><text
           transform="matrix(1,0,0,-1,384.02,485.81)"
           style="font-variant:normal;font-weight:normal;font-size:15.81599998px;font-family:'Palatino Linotype';-inkscape-font-specification:'Palatino Linotype';writing-mode:lr-tb;fill:#000000;fill-opacity:1;fill-rule:nonzero;stroke:none"
           id="text282"><tspan
             x="0 7.908 21.066912"
             y="0"
             sodipodi:role="line"
             id="tspan284">2HI</tspan></text>
</g></g><path
       d="m 194.08,274.42 7.2013,0 0,7.2013 -7.2013,0 0,-7.2013 z"
       style="fill:#8064a2;fill-opacity:1;fill-rule:evenodd;stroke:none"
       id="path286"
       inkscape:connector-curvature="0" /><g
       id="g288"><g
         id="g290"
         clip-path="url(#clipPath292)"><text
           transform="matrix(1,0,0,-1,204.43,274.49)"
           style="font-variant:normal;font-weight:normal;font-size:11.85599995px;font-family:'Palatino Linotype';-inkscape-font-specification:'Palatino Linotype';writing-mode:lr-tb;fill:#000000;fill-opacity:1;fill-rule:nonzero;stroke:none"
           id="text296"><tspan
             x="0 8.4059038 14.369472 17.819569 21.16296 27.778608 32.366879 38.35416 42.148079 45.598175 52.095264 59.019169 62.006882 69.132339 74.811363 79.387779 82.837875 89.334961"
             y="0"
             sodipodi:role="line"
             id="tspan298">Calibration period</tspan></text>
</g></g><path
       d="m 319.79,274.42 7.2013,0 0,7.2013 -7.2013,0 0,-7.2013 z"
       style="fill:#9bbb59;fill-opacity:1;fill-rule:evenodd;stroke:none"
       id="path300"
       inkscape:connector-curvature="0" /><g
       id="g302"><g
         id="g304"
         clip-path="url(#clipPath306)"><text
           transform="matrix(1,0,0,-1,330.17,274.49)"
           style="font-variant:normal;font-weight:normal;font-size:11.85599995px;font-family:'Palatino Linotype';-inkscape-font-specification:'Palatino Linotype';writing-mode:lr-tb;fill:#000000;fill-opacity:1;fill-rule:nonzero;stroke:none"
           id="text310"><tspan
             x="0 8.5600319 14.535456 17.985552 21.328943 28.57296 34.583954 38.377872 41.827969 48.325054 55.272671 58.106255 65.231712 70.910736 75.641281 79.091377 85.588463"
             y="0"
             sodipodi:role="line"
             id="tspan312">Validation period</tspan></text>
</g></g></g></svg>