<?xml version="1.0" encoding="UTF-8" standalone="no"?>
<!-- Created with Inkscape (http://www.inkscape.org/) -->

<svg
   xmlns:dc="http://purl.org/dc/elements/1.1/"
   xmlns:cc="http://creativecommons.org/ns#"
   xmlns:rdf="http://www.w3.org/1999/02/22-rdf-syntax-ns#"
   xmlns:svg="http://www.w3.org/2000/svg"
   xmlns="http://www.w3.org/2000/svg"
   xmlns:sodipodi="http://sodipodi.sourceforge.net/DTD/sodipodi-0.dtd"
   xmlns:inkscape="http://www.inkscape.org/namespaces/inkscape"
   id="svg2"
   version="1.1"
   inkscape:version="0.91 r13725"
   xml:space="preserve"
   width="825.12231"
   height="418.4317"
   viewBox="0 0 825.12231 418.4317"
   sodipodi:docname="figure_dcrpss_4Zo.svg"><metadata
     id="metadata8"><rdf:RDF><cc:Work
         rdf:about=""><dc:format>image/svg+xml</dc:format><dc:type
           rdf:resource="http://purl.org/dc/dcmitype/StillImage" /><dc:title></dc:title></cc:Work></rdf:RDF></metadata><defs
     id="defs6"><clipPath
       clipPathUnits="userSpaceOnUse"
       id="clipPath26"><path
         d="m 51.12,119.76 689.76,0 0,372.6 -689.76,0 0,-372.6 z"
         id="path28"
         inkscape:connector-curvature="0"
         style="clip-rule:evenodd" /></clipPath><clipPath
       clipPathUnits="userSpaceOnUse"
       id="clipPath38"><path
         d="m 51.12,119.76 689.76,0 0,372.6 -689.76,0 0,-372.6 z"
         id="path40"
         inkscape:connector-curvature="0"
         style="clip-rule:evenodd" /></clipPath><clipPath
       clipPathUnits="userSpaceOnUse"
       id="clipPath50"><path
         d="m 51.12,119.76 689.76,0 0,372.6 -689.76,0 0,-372.6 z"
         id="path52"
         inkscape:connector-curvature="0"
         style="clip-rule:evenodd" /></clipPath><clipPath
       clipPathUnits="userSpaceOnUse"
       id="clipPath62"><path
         d="m 51.12,119.76 689.76,0 0,372.6 -689.76,0 0,-372.6 z"
         id="path64"
         inkscape:connector-curvature="0"
         style="clip-rule:evenodd" /></clipPath><clipPath
       clipPathUnits="userSpaceOnUse"
       id="clipPath74"><path
         d="m 51.12,119.76 689.76,0 0,372.6 -689.76,0 0,-372.6 z"
         id="path76"
         inkscape:connector-curvature="0"
         style="clip-rule:evenodd" /></clipPath><clipPath
       clipPathUnits="userSpaceOnUse"
       id="clipPath86"><path
         d="m 51.12,119.76 689.76,0 0,372.6 -689.76,0 0,-372.6 z"
         id="path88"
         inkscape:connector-curvature="0"
         style="clip-rule:evenodd" /></clipPath><clipPath
       clipPathUnits="userSpaceOnUse"
       id="clipPath98"><path
         d="m 51.12,119.76 689.76,0 0,372.6 -689.76,0 0,-372.6 z"
         id="path100"
         inkscape:connector-curvature="0"
         style="clip-rule:evenodd" /></clipPath><clipPath
       clipPathUnits="userSpaceOnUse"
       id="clipPath110"><path
         d="m 51.12,119.76 689.76,0 0,372.6 -689.76,0 0,-372.6 z"
         id="path112"
         inkscape:connector-curvature="0"
         style="clip-rule:evenodd" /></clipPath><clipPath
       clipPathUnits="userSpaceOnUse"
       id="clipPath122"><path
         d="m 51.12,119.76 689.76,0 0,372.6 -689.76,0 0,-372.6 z"
         id="path124"
         inkscape:connector-curvature="0"
         style="clip-rule:evenodd" /></clipPath><clipPath
       clipPathUnits="userSpaceOnUse"
       id="clipPath134"><path
         d="m 51.12,119.76 689.76,0 0,372.6 -689.76,0 0,-372.6 z"
         id="path136"
         inkscape:connector-curvature="0"
         style="clip-rule:evenodd" /></clipPath><clipPath
       clipPathUnits="userSpaceOnUse"
       id="clipPath146"><path
         d="m 51.12,119.76 689.76,0 0,372.6 -689.76,0 0,-372.6 z"
         id="path148"
         inkscape:connector-curvature="0"
         style="clip-rule:evenodd" /></clipPath><clipPath
       clipPathUnits="userSpaceOnUse"
       id="clipPath158"><path
         d="m 51.12,119.76 689.76,0 0,372.6 -689.76,0 0,-372.6 z"
         id="path160"
         inkscape:connector-curvature="0"
         style="clip-rule:evenodd" /></clipPath><clipPath
       clipPathUnits="userSpaceOnUse"
       id="clipPath170"><path
         d="m 51.12,119.76 689.76,0 0,372.6 -689.76,0 0,-372.6 z"
         id="path172"
         inkscape:connector-curvature="0"
         style="clip-rule:evenodd" /></clipPath><clipPath
       clipPathUnits="userSpaceOnUse"
       id="clipPath182"><path
         d="m 51.12,119.76 689.76,0 0,372.6 -689.76,0 0,-372.6 z"
         id="path184"
         inkscape:connector-curvature="0"
         style="clip-rule:evenodd" /></clipPath><clipPath
       clipPathUnits="userSpaceOnUse"
       id="clipPath194"><path
         d="m 51.12,119.76 689.76,0 0,372.6 -689.76,0 0,-372.6 z"
         id="path196"
         inkscape:connector-curvature="0"
         style="clip-rule:evenodd" /></clipPath><clipPath
       clipPathUnits="userSpaceOnUse"
       id="clipPath206"><path
         d="m 51.12,119.76 689.76,0 0,372.6 -689.76,0 0,-372.6 z"
         id="path208"
         inkscape:connector-curvature="0"
         style="clip-rule:evenodd" /></clipPath><clipPath
       clipPathUnits="userSpaceOnUse"
       id="clipPath218"><path
         d="m 51.12,119.76 689.76,0 0,372.6 -689.76,0 0,-372.6 z"
         id="path220"
         inkscape:connector-curvature="0"
         style="clip-rule:evenodd" /></clipPath><clipPath
       clipPathUnits="userSpaceOnUse"
       id="clipPath230"><path
         d="m 51.12,119.76 689.76,0 0,372.6 -689.76,0 0,-372.6 z"
         id="path232"
         inkscape:connector-curvature="0"
         style="clip-rule:evenodd" /></clipPath><clipPath
       clipPathUnits="userSpaceOnUse"
       id="clipPath244"><path
         d="m 51.12,119.76 689.76,0 0,372.6 -689.76,0 0,-372.6 z"
         id="path246"
         inkscape:connector-curvature="0"
         style="clip-rule:evenodd" /></clipPath><clipPath
       clipPathUnits="userSpaceOnUse"
       id="clipPath258"><path
         d="m 51.12,119.76 689.76,0 0,372.6 -689.76,0 0,-372.6 z"
         id="path260"
         inkscape:connector-curvature="0"
         style="clip-rule:evenodd" /></clipPath></defs><sodipodi:namedview
     pagecolor="#ffffff"
     bordercolor="#666666"
     borderopacity="1"
     objecttolerance="10"
     gridtolerance="10"
     guidetolerance="10"
     inkscape:pageopacity="0"
     inkscape:pageshadow="2"
     inkscape:window-width="1296"
     inkscape:window-height="788"
     id="namedview4"
     showgrid="false"
     fit-margin-top="0"
     fit-margin-left="0"
     fit-margin-right="0"
     fit-margin-bottom="0"
     inkscape:zoom="0.61699346"
     inkscape:cx="349.02364"
     inkscape:cy="105.93628"
     inkscape:window-x="0"
     inkscape:window-y="0"
     inkscape:window-maximized="0"
     inkscape:current-layer="g10" /><g
     id="g10"
     inkscape:groupmode="layer"
     inkscape:label="figure_dcrpss_4Zo"
     transform="matrix(1.25,0,0,-1.25,-81.752695,590.07046)"><path
       d="m 111.06,240.7 614.44,0 m -614.44,43.41 614.44,0 m -614.44,43.2 614.44,0 m -614.44,43.41 614.44,0 m -614.44,43.27 614.44,0"
       style="fill:none;stroke:#d9d9d9;stroke-width:1.33659995;stroke-linecap:butt;stroke-linejoin:round;stroke-miterlimit:10;stroke-dasharray:none;stroke-opacity:1"
       id="path14"
       inkscape:connector-curvature="0" /><path
       d="m 126.16,315.55 13.69,0 0,-118.15 -13.69,0 0,118.15 z m 61.38,-3 13.9,0 0,-115.15 -13.9,0 0,115.15 z m 61.59,-9.84 13.69,0 0,-105.31 -13.69,0 0,105.31 z m 61.38,17.54 13.69,0 0,-122.85 -13.69,0 0,122.85 z m 61.38,2.78 13.9,0 0,-125.63 -13.9,0 0,125.63 z m 61.38,-10.69 13.9,0 0,-114.94 -13.9,0 0,114.94 z m 61.59,82.98 13.69,0 0,-197.92 -13.69,0 0,197.92 z m 61.38,-19.04 13.69,0 0,-178.88 -13.69,0 0,178.88 z m 61.38,-54.32 13.9,0 0,-124.56 -13.9,0 0,124.56 z m 61.59,-1.71 13.69,0 0,-122.85 -13.69,0 0,122.85 z"
       style="fill:#8064a2;fill-opacity:1;fill-rule:nonzero;stroke:none"
       id="path16"
       inkscape:connector-curvature="0" /><path
       d="m 143.7,310.41 13.69,0 0,-113.01 -13.69,0 0,113.01 z m 61.38,-48.33 13.68,0 0,-64.68 -13.68,0 0,64.68 z m 61.38,13.69 13.9,0 0,-78.37 -13.9,0 0,78.37 z m 61.59,12.83 13.69,0 0,-91.2 -13.69,0 0,91.2 z m 61.38,-14.54 13.68,0 0,-76.66 -13.68,0 0,76.66 z m 61.37,-2.57 13.91,0 0,-74.09 -13.91,0 0,74.09 z m 61.6,17.75 13.68,0 0,-91.84 -13.68,0 0,91.84 z m 61.37,11.34 13.69,0 0,-103.18 -13.69,0 0,103.18 z m 61.38,-20.75 13.9,0 0,-82.43 -13.9,0 0,82.43 z m 61.6,-0.85 13.68,0 0,-81.58 -13.68,0 0,81.58 z"
       style="fill:#9bbb59;fill-opacity:1;fill-rule:nonzero;stroke:none"
       id="path18"
       inkscape:connector-curvature="0" /><path
       d="m 111.06,197.4 614.44,0"
       style="fill:none;stroke:#d9d9d9;stroke-width:1.33659995;stroke-linecap:butt;stroke-linejoin:round;stroke-miterlimit:10;stroke-dasharray:none;stroke-opacity:1"
       id="path20"
       inkscape:connector-curvature="0" /><g
       id="g22"><g
         id="g24"
         clip-path="url(#clipPath26)"><text
           transform="matrix(1,0,0,-1,73.152,192.65)"
           style="font-variant:normal;font-weight:normal;font-size:16.05599976px;font-family:'Palatino Linotype';-inkscape-font-specification:'Palatino Linotype';writing-mode:lr-tb;fill:#000000;fill-opacity:1;fill-rule:nonzero;stroke:none"
           id="text30"><tspan
             x="0 8.1359997"
             y="0"
             sodipodi:role="line"
             id="tspan32">0%</tspan></text>
</g></g><g
       id="g34"><g
         id="g36"
         clip-path="url(#clipPath38)"><text
           transform="matrix(1,0,0,-1,73.152,235.97)"
           style="font-variant:normal;font-weight:normal;font-size:16.05599976px;font-family:'Palatino Linotype';-inkscape-font-specification:'Palatino Linotype';writing-mode:lr-tb;fill:#000000;fill-opacity:1;fill-rule:nonzero;stroke:none"
           id="text42"><tspan
             x="0 8.1359997"
             y="0"
             sodipodi:role="line"
             id="tspan44">5%</tspan></text>
</g></g><g
       id="g46"><g
         id="g48"
         clip-path="url(#clipPath50)"><text
           transform="matrix(1,0,0,-1,65.136,279.29)"
           style="font-variant:normal;font-weight:normal;font-size:16.03199959px;font-family:'Palatino Linotype';-inkscape-font-specification:'Palatino Linotype';writing-mode:lr-tb;fill:#000000;fill-opacity:1;fill-rule:nonzero;stroke:none"
           id="text54"><tspan
             x="0 8.0961599 16.015968"
             y="0"
             sodipodi:role="line"
             id="tspan56">10%</tspan></text>
</g></g><g
       id="g58"><g
         id="g60"
         clip-path="url(#clipPath62)"><text
           transform="matrix(1,0,0,-1,65.136,322.63)"
           style="font-variant:normal;font-weight:normal;font-size:16.05599976px;font-family:'Palatino Linotype';-inkscape-font-specification:'Palatino Linotype';writing-mode:lr-tb;fill:#000000;fill-opacity:1;fill-rule:nonzero;stroke:none"
           id="text66"><tspan
             x="0 8.0922241 16.007832"
             y="0"
             sodipodi:role="line"
             id="tspan68">15%</tspan></text>
</g></g><g
       id="g70"><g
         id="g72"
         clip-path="url(#clipPath74)"><text
           transform="matrix(1,0,0,-1,65.136,365.95)"
           style="font-variant:normal;font-weight:normal;font-size:16.03199959px;font-family:'Palatino Linotype';-inkscape-font-specification:'Palatino Linotype';writing-mode:lr-tb;fill:#000000;fill-opacity:1;fill-rule:nonzero;stroke:none"
           id="text78"><tspan
             x="0 8.0961599 16.015968"
             y="0"
             sodipodi:role="line"
             id="tspan80">20%</tspan></text>
</g></g><g
       id="g82"><g
         id="g84"
         clip-path="url(#clipPath86)"><text
           transform="matrix(1,0,0,-1,65.136,409.27)"
           style="font-variant:normal;font-weight:normal;font-size:16.03199959px;font-family:'Palatino Linotype';-inkscape-font-specification:'Palatino Linotype';writing-mode:lr-tb;fill:#000000;fill-opacity:1;fill-rule:nonzero;stroke:none"
           id="text90"><tspan
             x="0 8.0961599 16.015968"
             y="0"
             sodipodi:role="line"
             id="tspan92">25%</tspan></text>
</g></g><g
       id="g94"><g
         id="g96"
         clip-path="url(#clipPath98)"><text
           transform="matrix(1,0,0,-1,137.81,169.18)"
           style="font-variant:normal;font-weight:normal;font-size:16.03199959px;font-family:'Palatino Linotype';-inkscape-font-specification:'Palatino Linotype';writing-mode:lr-tb;fill:#000000;fill-opacity:1;fill-rule:nonzero;stroke:none"
           id="text102"><tspan
             x="0"
             y="0"
             id="tspan104">1</tspan></text>
</g></g><g
       id="g106"><g
         id="g108"
         clip-path="url(#clipPath110)"><text
           transform="matrix(1,0,0,-1,199.25,169.18)"
           style="font-variant:normal;font-weight:normal;font-size:16.03199959px;font-family:'Palatino Linotype';-inkscape-font-specification:'Palatino Linotype';writing-mode:lr-tb;fill:#000000;fill-opacity:1;fill-rule:nonzero;stroke:none"
           id="text114"><tspan
             x="0"
             y="0"
             id="tspan116">2</tspan></text>
</g></g><g
       id="g118"><g
         id="g120"
         clip-path="url(#clipPath122)"><text
           transform="matrix(1,0,0,-1,260.71,169.18)"
           style="font-variant:normal;font-weight:normal;font-size:16.03199959px;font-family:'Palatino Linotype';-inkscape-font-specification:'Palatino Linotype';writing-mode:lr-tb;fill:#000000;fill-opacity:1;fill-rule:nonzero;stroke:none"
           id="text126"><tspan
             x="0"
             y="0"
             id="tspan128">3</tspan></text>
</g></g><g
       id="g130"><g
         id="g132"
         clip-path="url(#clipPath134)"><text
           transform="matrix(1,0,0,-1,322.15,169.18)"
           style="font-variant:normal;font-weight:normal;font-size:16.03199959px;font-family:'Palatino Linotype';-inkscape-font-specification:'Palatino Linotype';writing-mode:lr-tb;fill:#000000;fill-opacity:1;fill-rule:nonzero;stroke:none"
           id="text138"><tspan
             x="0"
             y="0"
             id="tspan140">4</tspan></text>
</g></g><g
       id="g142"><g
         id="g144"
         clip-path="url(#clipPath146)"><text
           transform="matrix(1,0,0,-1,383.62,169.18)"
           style="font-variant:normal;font-weight:normal;font-size:16.03199959px;font-family:'Palatino Linotype';-inkscape-font-specification:'Palatino Linotype';writing-mode:lr-tb;fill:#000000;fill-opacity:1;fill-rule:nonzero;stroke:none"
           id="text150"><tspan
             x="0"
             y="0"
             id="tspan152">5</tspan></text>
</g></g><g
       id="g154"><g
         id="g156"
         clip-path="url(#clipPath158)"><text
           transform="matrix(1,0,0,-1,445.08,169.18)"
           style="font-variant:normal;font-weight:normal;font-size:16.03199959px;font-family:'Palatino Linotype';-inkscape-font-specification:'Palatino Linotype';writing-mode:lr-tb;fill:#000000;fill-opacity:1;fill-rule:nonzero;stroke:none"
           id="text162"><tspan
             x="0"
             y="0"
             id="tspan164">6</tspan></text>
</g></g><g
       id="g166"><g
         id="g168"
         clip-path="url(#clipPath170)"><text
           transform="matrix(1,0,0,-1,506.52,169.18)"
           style="font-variant:normal;font-weight:normal;font-size:16.03199959px;font-family:'Palatino Linotype';-inkscape-font-specification:'Palatino Linotype';writing-mode:lr-tb;fill:#000000;fill-opacity:1;fill-rule:nonzero;stroke:none"
           id="text174"><tspan
             x="0"
             y="0"
             id="tspan176">7</tspan></text>
</g></g><g
       id="g178"><g
         id="g180"
         clip-path="url(#clipPath182)"><text
           transform="matrix(1,0,0,-1,567.98,169.18)"
           style="font-variant:normal;font-weight:normal;font-size:16.03199959px;font-family:'Palatino Linotype';-inkscape-font-specification:'Palatino Linotype';writing-mode:lr-tb;fill:#000000;fill-opacity:1;fill-rule:nonzero;stroke:none"
           id="text186"><tspan
             x="0"
             y="0"
             id="tspan188">8</tspan></text>
</g></g><g
       id="g190"><g
         id="g192"
         clip-path="url(#clipPath194)"><text
           transform="matrix(1,0,0,-1,629.42,169.18)"
           style="font-variant:normal;font-weight:normal;font-size:16.03199959px;font-family:'Palatino Linotype';-inkscape-font-specification:'Palatino Linotype';writing-mode:lr-tb;fill:#000000;fill-opacity:1;fill-rule:nonzero;stroke:none"
           id="text198"><tspan
             x="0"
             y="0"
             id="tspan200">9</tspan></text>
</g></g><g
       id="g202"><g
         id="g204"
         clip-path="url(#clipPath206)"><text
           transform="matrix(1,0,0,-1,686.88,169.18)"
           style="font-variant:normal;font-weight:normal;font-size:16.03199959px;font-family:'Palatino Linotype';-inkscape-font-specification:'Palatino Linotype';writing-mode:lr-tb;fill:#000000;fill-opacity:1;fill-rule:nonzero;stroke:none"
           id="text210"><tspan
             x="0 8.1120005"
             y="0"
             sodipodi:role="line"
             id="tspan212">10</tspan></text>
</g></g><g
       id="g214"><g
         id="g216"
         clip-path="url(#clipPath218)"><text
           transform="matrix(1,0,0,-1,126.96,456.53)"
           style="font-variant:normal;font-weight:normal;font-size:21.38400078px;font-family:'Palatino Linotype';-inkscape-font-specification:'Palatino Linotype';writing-mode:lr-tb;fill:#000000;fill-opacity:1;fill-rule:nonzero;stroke:none"
           id="text222"><tspan
             x="0 7.249176 26.131248 38.983032 47.472481 59.233681 71.016266 81.259201 100.14127 110.38421 122.8297 129.86504 134.99719 141.0061 153.45158 158.96866 174.12991 188.49995 201.33035 212.66388 223.99741 229.12956 236.25043 247.96886 256.52246 261.86847 268.92517 281.37067 291.61362 296.95959 310.02524 316.01276 323.13364 330.16895 340.4119 348.98688 359.22983 371.67529 378.73203 384.07803 392.63162 402.87457 414.84961 420.85849 432.61969 445.06519 454.02509 459.37109 464.93094 483.81299 494.05594 501.09128 513.53674 525.25519 538.3208"
             y="0"
             sodipodi:role="line"
             id="tspan224">Improvement in CRPSS for the different regions, method </tspan></text>
</g></g><g
       id="g226"><g
         id="g228"
         clip-path="url(#clipPath230)"><text
           transform="matrix(1,0,0,-1,303.43,427.66)"
           style="font-variant:normal;font-weight:normal;font-size:21.38400078px;font-family:'Palatino Linotype';-inkscape-font-specification:'Palatino Linotype';writing-mode:lr-tb;fill:#000000;fill-opacity:1;fill-rule:nonzero;stroke:none"
           id="text234"><tspan
             x="0 10.692 25.019279 36.759094 41.891254 50.423473 60.666409 66.889153 77.581154 84.616486 90.625389 102.38659 112.62952 118.85227 130.80592 136.15193 143.18727 154.92708 160.05923 170.75124"
             y="0"
             sodipodi:role="line"
             id="tspan236">4Zo relatively to 2Z</tspan></text>
</g></g><path
       d="m 244.59,141.72 9.74,0 0,9.74 -9.74,0 0,-9.74 z"
       style="fill:#8064a2;fill-opacity:1;fill-rule:evenodd;stroke:none"
       id="path238"
       inkscape:connector-curvature="0" /><g
       id="g240"><g
         id="g242"
         clip-path="url(#clipPath244)"><text
           transform="matrix(1,0,0,-1,258.58,141.82)"
           style="font-variant:normal;font-weight:normal;font-size:16.03199959px;font-family:'Palatino Linotype';-inkscape-font-specification:'Palatino Linotype';writing-mode:lr-tb;fill:#000000;fill-opacity:1;fill-rule:nonzero;stroke:none"
           id="text248"><tspan
             x="0 11.366688 19.47888 24.192287 28.697281 37.675201 43.895615 52.007809 57.138046 61.851456 70.604927 80.047775 84.103874 93.739105 101.41843 107.67091 112.38432 121.13779"
             y="0"
             sodipodi:role="line"
             id="tspan250">Calibration period</tspan></text>
</g></g><path
       d="m 414.63,141.72 9.74,0 0,9.74 -9.74,0 0,-9.74 z"
       style="fill:#9bbb59;fill-opacity:1;fill-rule:evenodd;stroke:none"
       id="path252"
       inkscape:connector-curvature="0" /><g
       id="g254"><g
         id="g256"
         clip-path="url(#clipPath258)"><text
           transform="matrix(1,0,0,-1,428.64,141.82)"
           style="font-variant:normal;font-weight:normal;font-size:16.03199959px;font-family:'Palatino Linotype';-inkscape-font-specification:'Palatino Linotype';writing-mode:lr-tb;fill:#000000;fill-opacity:1;fill-rule:nonzero;stroke:none"
           id="text262"><tspan
             x="0 11.575104 19.687296 24.352608 28.873632 38.669186 46.829472 51.959713 56.625023 65.42659 74.821342 78.685059 88.32029 95.999619 102.42845 107.09376 115.89532"
             y="0"
             sodipodi:role="line"
             id="tspan264">Validation period</tspan></text>
</g></g></g></svg>