<?xml version="1.0" encoding="UTF-8" standalone="no"?>
<!-- Created with Inkscape (http://www.inkscape.org/) -->

<svg
   xmlns:dc="http://purl.org/dc/elements/1.1/"
   xmlns:cc="http://creativecommons.org/ns#"
   xmlns:rdf="http://www.w3.org/1999/02/22-rdf-syntax-ns#"
   xmlns:svg="http://www.w3.org/2000/svg"
   xmlns="http://www.w3.org/2000/svg"
   xmlns:sodipodi="http://sodipodi.sourceforge.net/DTD/sodipodi-0.dtd"
   xmlns:inkscape="http://www.inkscape.org/namespaces/inkscape"
   id="svg2"
   version="1.1"
   inkscape:version="0.91 r13725"
   xml:space="preserve"
   width="630"
   height="495"
   viewBox="0 0 630 495"
   sodipodi:docname="changes_S1_value.svg"><metadata
     id="metadata8"><rdf:RDF><cc:Work
         rdf:about=""><dc:format>image/svg+xml</dc:format><dc:type
           rdf:resource="http://purl.org/dc/dcmitype/StillImage" /><dc:title /></cc:Work></rdf:RDF></metadata><defs
     id="defs6"><clipPath
       clipPathUnits="userSpaceOnUse"
       id="clipPath20"><path
         d="m 50.4,39.6 327.6,0 0,336.6 -327.6,0 0,-336.6 z"
         id="path22"
         inkscape:connector-curvature="0" /></clipPath><clipPath
       clipPathUnits="userSpaceOnUse"
       id="clipPath30"><path
         d="m 50.4,39.6 327.6,0 0,336.6 -327.6,0 0,-336.6 z"
         id="path32"
         inkscape:connector-curvature="0" /></clipPath><clipPath
       clipPathUnits="userSpaceOnUse"
       id="clipPath40"><path
         d="m 50.4,39.6 327.6,0 0,336.6 -327.6,0 0,-336.6 z"
         id="path42"
         inkscape:connector-curvature="0" /></clipPath><clipPath
       clipPathUnits="userSpaceOnUse"
       id="clipPath50"><path
         d="m 50.4,39.6 327.6,0 0,336.6 -327.6,0 0,-336.6 z"
         id="path52"
         inkscape:connector-curvature="0" /></clipPath><clipPath
       clipPathUnits="userSpaceOnUse"
       id="clipPath60"><path
         d="m 50.4,39.6 327.6,0 0,336.6 -327.6,0 0,-336.6 z"
         id="path62"
         inkscape:connector-curvature="0" /></clipPath><clipPath
       clipPathUnits="userSpaceOnUse"
       id="clipPath70"><path
         d="m 50.4,39.6 327.6,0 0,336.6 -327.6,0 0,-336.6 z"
         id="path72"
         inkscape:connector-curvature="0" /></clipPath><clipPath
       clipPathUnits="userSpaceOnUse"
       id="clipPath80"><path
         d="m 50.4,39.6 327.6,0 0,336.6 -327.6,0 0,-336.6 z"
         id="path82"
         inkscape:connector-curvature="0" /></clipPath><clipPath
       clipPathUnits="userSpaceOnUse"
       id="clipPath90"><path
         d="m 50.4,39.6 327.6,0 0,336.6 -327.6,0 0,-336.6 z"
         id="path92"
         inkscape:connector-curvature="0" /></clipPath><clipPath
       clipPathUnits="userSpaceOnUse"
       id="clipPath100"><path
         d="m 50.4,39.6 327.6,0 0,336.6 -327.6,0 0,-336.6 z"
         id="path102"
         inkscape:connector-curvature="0" /></clipPath><clipPath
       clipPathUnits="userSpaceOnUse"
       id="clipPath110"><path
         d="m 50.4,39.6 327.6,0 0,336.6 -327.6,0 0,-336.6 z"
         id="path112"
         inkscape:connector-curvature="0" /></clipPath><clipPath
       clipPathUnits="userSpaceOnUse"
       id="clipPath188"><path
         d="m 50.4,39.6 327.6,0 0,336.6 -327.6,0 0,-336.6 z"
         id="path190"
         inkscape:connector-curvature="0" /></clipPath><clipPath
       clipPathUnits="userSpaceOnUse"
       id="clipPath206"><path
         d="m 50.4,39.6 327.6,0 0,336.6 -327.6,0 0,-336.6 z"
         id="path208"
         inkscape:connector-curvature="0" /></clipPath><clipPath
       clipPathUnits="userSpaceOnUse"
       id="clipPath224"><path
         d="m 50.4,39.6 327.6,0 0,336.6 -327.6,0 0,-336.6 z"
         id="path226"
         inkscape:connector-curvature="0" /></clipPath><clipPath
       clipPathUnits="userSpaceOnUse"
       id="clipPath242"><path
         d="m 50.4,39.6 327.6,0 0,336.6 -327.6,0 0,-336.6 z"
         id="path244"
         inkscape:connector-curvature="0" /></clipPath><clipPath
       clipPathUnits="userSpaceOnUse"
       id="clipPath260"><path
         d="m 50.4,39.6 327.6,0 0,336.6 -327.6,0 0,-336.6 z"
         id="path262"
         inkscape:connector-curvature="0" /></clipPath><clipPath
       clipPathUnits="userSpaceOnUse"
       id="clipPath278"><path
         d="m 50.4,39.6 327.6,0 0,336.6 -327.6,0 0,-336.6 z"
         id="path280"
         inkscape:connector-curvature="0" /></clipPath><clipPath
       clipPathUnits="userSpaceOnUse"
       id="clipPath296"><path
         d="m 50.4,39.6 327.6,0 0,336.6 -327.6,0 0,-336.6 z"
         id="path298"
         inkscape:connector-curvature="0" /></clipPath><clipPath
       clipPathUnits="userSpaceOnUse"
       id="clipPath314"><path
         d="m 50.4,39.6 327.6,0 0,336.6 -327.6,0 0,-336.6 z"
         id="path316"
         inkscape:connector-curvature="0" /></clipPath><clipPath
       clipPathUnits="userSpaceOnUse"
       id="clipPath332"><path
         d="m 50.4,39.6 327.6,0 0,336.6 -327.6,0 0,-336.6 z"
         id="path334"
         inkscape:connector-curvature="0" /></clipPath><clipPath
       clipPathUnits="userSpaceOnUse"
       id="clipPath350"><path
         d="m 50.4,39.6 327.6,0 0,336.6 -327.6,0 0,-336.6 z"
         id="path352"
         inkscape:connector-curvature="0" /></clipPath></defs><sodipodi:namedview
     pagecolor="#ffffff"
     bordercolor="#666666"
     borderopacity="1"
     objecttolerance="10"
     gridtolerance="10"
     guidetolerance="10"
     inkscape:pageopacity="0"
     inkscape:pageshadow="2"
     inkscape:window-width="1146"
     inkscape:window-height="856"
     id="namedview4"
     showgrid="false"
     inkscape:zoom="0.95353535"
     inkscape:cx="306.39739"
     inkscape:cy="229.37194"
     inkscape:window-x="543"
     inkscape:window-y="93"
     inkscape:window-maximized="0"
     inkscape:current-layer="g10" /><g
     id="g10"
     inkscape:groupmode="layer"
     inkscape:label="changes_S1_value"
     transform="matrix(1.25,0,0,-1.25,0,495)"><path
       d="m 50.4,39.6 327.6,0 0,336.6 -327.6,0 0,-336.6 z"
       style="fill:#ffffff;fill-opacity:1;fill-rule:nonzero;stroke:none"
       id="path14"
       inkscape:connector-curvature="0" /><g
       id="g16"><g
         id="g18"
         clip-path="url(#clipPath20)"><path
           d="m 50.4,258.63142 8.4,18.68852 8.4,10.9393 8.4,7.41703 8.4,6.67029 8.4,5.18294 8.4,4.71171 8.4,3.94144 8.4,3.48358 8.4,2.60004 8.4,3.03057 8.4,2.86455 8.4,2.45175 8.4,1.97945 8.4,2.19953 8.4,2.23998 8.4,1.96563 8.4,1.83937 8.4,2.15317 8.4,1.62518 8.4,1.97626 8.4,1.54634 8.4,1.34248 8.4,1.67932 8.4,1.49141 8.4,1.16559 8.4,1.58307 8.4,1.37422 8.4,1.23624 8.4,1.07199 8.4,1.38804 8.4,1.26644 8.4,1.06507 8.4,1.10766 8.4,1.26777 8.4,1.0057 8.4,1.05158 8.4,0.73085 8.4,1.24905 8.4,0.65214"
           style="fill:none;stroke:#dcdcdc;stroke-width:2;stroke-linecap:butt;stroke-linejoin:round;stroke-miterlimit:10;stroke-dasharray:6, 6;stroke-dashoffset:0;stroke-opacity:1"
           id="path24"
           inkscape:connector-curvature="0" /></g></g><g
       id="g26"><g
         id="g28"
         clip-path="url(#clipPath30)"><path
           d="m 50.4,216.49254 8.4,18.73505 8.4,10.98882 8.4,7.91331 8.4,6.38586 8.4,5.36479 8.4,4.61594 8.4,4.20478 8.4,3.3725 8.4,3.24509 8.4,2.97424 8.4,2.7269 8.4,2.41208 8.4,2.4788 8.4,2.37345 8.4,2.07127 8.4,1.95106 8.4,1.71766 8.4,1.71687 8.4,2.07188 8.4,1.7397 8.4,1.78237 8.4,1.38933 8.4,1.59245 8.4,1.2335 8.4,1.65323 8.4,1.51584 8.4,1.32731 8.4,1.2122 8.4,1.30757 8.4,1.27731 8.4,1.30061 8.4,0.95848 8.4,1.0906 8.4,0.89525 8.4,1.1297 8.4,1.19398 8.4,1.03733 8.4,1.00271 8.4,1.11124"
           style="fill:none;stroke:#b4b4b4;stroke-width:2;stroke-linecap:butt;stroke-linejoin:round;stroke-miterlimit:10;stroke-dasharray:6, 6;stroke-dashoffset:0;stroke-opacity:1"
           id="path34"
           inkscape:connector-curvature="0" /></g></g><g
       id="g36"><g
         id="g38"
         clip-path="url(#clipPath40)"><path
           d="m 50.4,168.87188 8.4,20.0829 8.4,11.33071 8.4,7.97601 8.4,5.95443 8.4,5.41877 8.4,4.24054 8.4,4.19012 8.4,3.38487 8.4,3.06902 8.4,3.00057 8.4,2.56555 8.4,2.44681 8.4,2.38735 8.4,2.24425 8.4,2.16638 8.4,2.00391 8.4,2.13725 8.4,1.49635 8.4,1.71292 8.4,1.50197 8.4,1.66473 8.4,1.45226 8.4,1.77792 8.4,1.40852 8.4,1.32843 8.4,1.32557 8.4,1.35199 8.4,1.3597 8.4,1.28859 8.4,1.08572 8.4,0.95743 8.4,1.31564 8.4,1.04526 8.4,1.01081 8.4,1.00502 8.4,1.196 8.4,0.76426 8.4,0.99983 8.4,1.03121"
           style="fill:none;stroke:#000000;stroke-width:2;stroke-linecap:butt;stroke-linejoin:round;stroke-miterlimit:10;stroke-dasharray:6, 6;stroke-dashoffset:0;stroke-opacity:1"
           id="path44"
           inkscape:connector-curvature="0" /></g></g><g
       id="g46"><g
         id="g48"
         clip-path="url(#clipPath50)"><path
           d="m 50.4,126.4326 8.4,18.82912 8.4,11.53391 8.4,7.97625 8.4,6.25618 8.4,4.82269 8.4,4.99712 8.4,3.35141 8.4,3.59642 8.4,3.11167 8.4,2.97915 8.4,2.88813 8.4,2.39442 8.4,2.23506 8.4,2.35282 8.4,2.11212 8.4,1.7539 8.4,2.31326 8.4,1.75731 8.4,1.51003 8.4,1.77973 8.4,1.55256 8.4,1.66382 8.4,1.51921 8.4,1.55814 8.4,1.14177 8.4,1.55708 8.4,1.39553 8.4,1.20105 8.4,1.09087 8.4,1.18498 8.4,1.23264 8.4,0.95297 8.4,1.09117 8.4,1.08786 8.4,0.82778 8.4,1.10511 8.4,1.09492 8.4,0.80285 8.4,1.03581"
           style="fill:none;stroke:#b4b4b4;stroke-width:2;stroke-linecap:butt;stroke-linejoin:round;stroke-miterlimit:10;stroke-dasharray:6, 6;stroke-dashoffset:0;stroke-opacity:1"
           id="path54"
           inkscape:connector-curvature="0" /></g></g><g
       id="g56"><g
         id="g58"
         clip-path="url(#clipPath60)"><path
           d="m 50.4,92.687368 8.4,19.070932 8.4,10.9761 8.4,7.38683 8.4,6.05977 8.4,5.34687 8.4,3.97409 8.4,3.46704 8.4,3.24619 8.4,3.04562 8.4,3.0386 8.4,2.95831 8.4,2.64701 8.4,2.01912 8.4,1.8877 8.4,2.18172 8.4,1.99786 8.4,1.87308 8.4,1.77178 8.4,2.06253 8.4,1.60535 8.4,1.17007 8.4,1.45052 8.4,1.64095 8.4,1.48994 8.4,1.68771 8.4,1.37245 8.4,1.29897 8.4,1.35836 8.4,1.49174 8.4,1.16926 8.4,1.32827 8.4,0.88844 8.4,0.94005 8.4,1.16939 8.4,1.01058 8.4,1.16601 8.4,0.80446 8.4,1.33073 8.4,1.19569"
           style="fill:none;stroke:#dcdcdc;stroke-width:2;stroke-linecap:butt;stroke-linejoin:round;stroke-miterlimit:10;stroke-dasharray:6, 6;stroke-dashoffset:0;stroke-opacity:1"
           id="path64"
           inkscape:connector-curvature="0" /></g></g><g
       id="g66"><g
         id="g68"
         clip-path="url(#clipPath70)"><path
           d="m 50.4,237.42912 8.4,13.31899 8.4,8.82082 8.4,6.28508 8.4,4.61896 8.4,3.96741 8.4,3.40593 8.4,3.63596 8.4,2.6179 8.4,2.77569 8.4,2.38277 8.4,2.30332 8.4,2.32614 8.4,2.01415 8.4,1.67087 8.4,1.49869 8.4,1.59291 8.4,1.58168 8.4,1.26539 8.4,1.40866 8.4,1.5027 8.4,1.34355 8.4,1.33955 8.4,1.25798 8.4,0.999 8.4,1.26679 8.4,0.58853 8.4,1.31674 8.4,0.76544 8.4,1.09179 8.4,1.08987 8.4,0.74151 8.4,1.28023 8.4,0.6701 8.4,0.88186 8.4,0.65022 8.4,0.80547 8.4,0.65449 8.4,0.73623 8.4,0.53094"
           style="fill:none;stroke:#dcdcdc;stroke-width:2;stroke-linecap:square;stroke-linejoin:round;stroke-miterlimit:10;stroke-dasharray:none;stroke-opacity:1"
           id="path74"
           inkscape:connector-curvature="0" /></g></g><g
       id="g76"><g
         id="g78"
         clip-path="url(#clipPath80)"><path
           d="m 50.4,193.88421 8.4,15.02372 8.4,8.65104 8.4,6.18341 8.4,5.77143 8.4,3.93338 8.4,3.72993 8.4,3.35922 8.4,2.83522 8.4,2.28347 8.4,2.44355 8.4,2.28719 8.4,1.8196 8.4,2.11068 8.4,1.77469 8.4,1.67137 8.4,1.50719 8.4,1.5204 8.4,1.25033 8.4,1.49028 8.4,1.40087 8.4,1.32685 8.4,1.25691 8.4,1.125 8.4,1.0406 8.4,1.217 8.4,1.04026 8.4,1.37266 8.4,0.77005 8.4,1.01517 8.4,0.91553 8.4,0.75321 8.4,1.16298 8.4,0.87823 8.4,0.86679 8.4,0.76437 8.4,0.82435 8.4,0.60161 8.4,0.78022 8.4,0.72558"
           style="fill:none;stroke:#b4b4b4;stroke-width:2;stroke-linecap:square;stroke-linejoin:round;stroke-miterlimit:10;stroke-dasharray:none;stroke-opacity:1"
           id="path84"
           inkscape:connector-curvature="0" /></g></g><g
       id="g86"><g
         id="g88"
         clip-path="url(#clipPath90)"><path
           d="m 50.4,148.78042 8.4,15.1073 8.4,8.78194 8.4,6.69501 8.4,4.85582 8.4,4.49529 8.4,3.39599 8.4,3.35671 8.4,2.68444 8.4,2.61759 8.4,2.47027 8.4,2.06514 8.4,1.89394 8.4,1.81582 8.4,1.73734 8.4,1.7212 8.4,1.65434 8.4,1.71757 8.4,1.2951 8.4,1.11859 8.4,1.38098 8.4,1.26286 8.4,1.23683 8.4,1.21426 8.4,1.25375 8.4,1.05176 8.4,1.06546 8.4,0.73603 8.4,0.96425 8.4,1.16712 8.4,0.92242 8.4,0.77007 8.4,0.96434 8.4,0.97646 8.4,0.87528 8.4,1.17325 8.4,0.81727 8.4,0.6459 8.4,0.72453 8.4,0.63631"
           style="fill:none;stroke:#000000;stroke-width:2;stroke-linecap:square;stroke-linejoin:round;stroke-miterlimit:10;stroke-dasharray:none;stroke-opacity:1"
           id="path94"
           inkscape:connector-curvature="0" /></g></g><g
       id="g96"><g
         id="g98"
         clip-path="url(#clipPath100)"><path
           d="m 50.4,108.54259 8.4,14.48973 8.4,8.81469 8.4,6.19915 8.4,5.17129 8.4,3.95965 8.4,3.50467 8.4,2.99068 8.4,2.896 8.4,2.22857 8.4,2.1014 8.4,2.15565 8.4,2.07027 8.4,1.57032 8.4,1.82228 8.4,1.51792 8.4,1.72002 8.4,1.60298 8.4,1.16188 8.4,1.22796 8.4,1.48315 8.4,1.15135 8.4,1.05825 8.4,1.3049 8.4,0.90289 8.4,1.29444 8.4,0.99315 8.4,0.78234 8.4,1.26165 8.4,0.85694 8.4,0.99213 8.4,0.7844 8.4,1.03186 8.4,0.77804 8.4,0.91695 8.4,0.90878 8.4,0.83712 8.4,0.74519 8.4,0.6886 8.4,0.82502"
           style="fill:none;stroke:#b4b4b4;stroke-width:2;stroke-linecap:square;stroke-linejoin:round;stroke-miterlimit:10;stroke-dasharray:none;stroke-opacity:1"
           id="path104"
           inkscape:connector-curvature="0" /></g></g><g
       id="g106"><g
         id="g108"
         clip-path="url(#clipPath110)"><path
           d="m 50.4,76.296221 8.4,14.183517 8.4,8.595826 8.4,6.247376 8.4,4.60951 8.4,3.91829 8.4,3.28778 8.4,3.04898 8.4,2.78206 8.4,2.18486 8.4,1.92536 8.4,1.96205 8.4,2.07695 8.4,1.44015 8.4,1.74843 8.4,1.28982 8.4,1.6143 8.4,1.50818 8.4,1.42202 8.4,1.17808 8.4,1.33185 8.4,1.36197 8.4,1.20174 8.4,0.99788 8.4,0.96163 8.4,1.31603 8.4,0.96544 8.4,0.89383 8.4,1.083 8.4,1.0358 8.4,0.89954 8.4,0.93175 8.4,0.69972 8.4,0.85972 8.4,0.69937 8.4,0.82372 8.4,0.9285 8.4,0.66685 8.4,0.67725 8.4,1.04198"
           style="fill:none;stroke:#dcdcdc;stroke-width:2;stroke-linecap:square;stroke-linejoin:round;stroke-miterlimit:10;stroke-dasharray:none;stroke-opacity:1"
           id="path114"
           inkscape:connector-curvature="0" /></g></g><path
       d="m 84,39.6 0,4"
       style="fill:none;stroke:#000000;stroke-width:0.5;stroke-linecap:butt;stroke-linejoin:round;stroke-miterlimit:10;stroke-dasharray:none;stroke-opacity:1"
       id="path116"
       inkscape:connector-curvature="0" /><path
       d="m 84,376.2 0,-4"
       style="fill:none;stroke:#000000;stroke-width:0.5;stroke-linecap:butt;stroke-linejoin:round;stroke-miterlimit:10;stroke-dasharray:none;stroke-opacity:1"
       id="path118"
       inkscape:connector-curvature="0" /><text
       transform="matrix(1,0,0,-1,80.014944,24.752783)"
       style="font-variant:normal;font-size:15.94022369px;font-family:'URW Palladio L';-inkscape-font-specification:URWPalladioL-Roma;writing-mode:lr-tb;fill:#000000;fill-opacity:1;fill-rule:nonzero;stroke:none"
       id="text120"><tspan
         x="0"
         y="0"
         id="tspan122">5</tspan></text>
<path
       d="m 126,39.6 0,4"
       style="fill:none;stroke:#000000;stroke-width:0.5;stroke-linecap:butt;stroke-linejoin:round;stroke-miterlimit:10;stroke-dasharray:none;stroke-opacity:1"
       id="path124"
       inkscape:connector-curvature="0" /><path
       d="m 126,376.2 0,-4"
       style="fill:none;stroke:#000000;stroke-width:0.5;stroke-linecap:butt;stroke-linejoin:round;stroke-miterlimit:10;stroke-dasharray:none;stroke-opacity:1"
       id="path126"
       inkscape:connector-curvature="0" /><text
       transform="matrix(1,0,0,-1,118.02989,24.752783)"
       style="font-variant:normal;font-size:15.94022369px;font-family:'URW Palladio L';-inkscape-font-specification:URWPalladioL-Roma;writing-mode:lr-tb;fill:#000000;fill-opacity:1;fill-rule:nonzero;stroke:none"
       id="text128"><tspan
         x="0 7.9701118"
         y="0"
         sodipodi:role="line"
         id="tspan130">10</tspan></text>
<path
       d="m 168,39.6 0,4"
       style="fill:none;stroke:#000000;stroke-width:0.5;stroke-linecap:butt;stroke-linejoin:round;stroke-miterlimit:10;stroke-dasharray:none;stroke-opacity:1"
       id="path132"
       inkscape:connector-curvature="0" /><path
       d="m 168,376.2 0,-4"
       style="fill:none;stroke:#000000;stroke-width:0.5;stroke-linecap:butt;stroke-linejoin:round;stroke-miterlimit:10;stroke-dasharray:none;stroke-opacity:1"
       id="path134"
       inkscape:connector-curvature="0" /><text
       transform="matrix(1,0,0,-1,160.02989,24.752783)"
       style="font-variant:normal;font-size:15.94022369px;font-family:'URW Palladio L';-inkscape-font-specification:URWPalladioL-Roma;writing-mode:lr-tb;fill:#000000;fill-opacity:1;fill-rule:nonzero;stroke:none"
       id="text136"><tspan
         x="0 7.9701118"
         y="0"
         sodipodi:role="line"
         id="tspan138">15</tspan></text>
<path
       d="m 210,39.6 0,4"
       style="fill:none;stroke:#000000;stroke-width:0.5;stroke-linecap:butt;stroke-linejoin:round;stroke-miterlimit:10;stroke-dasharray:none;stroke-opacity:1"
       id="path140"
       inkscape:connector-curvature="0" /><path
       d="m 210,376.2 0,-4"
       style="fill:none;stroke:#000000;stroke-width:0.5;stroke-linecap:butt;stroke-linejoin:round;stroke-miterlimit:10;stroke-dasharray:none;stroke-opacity:1"
       id="path142"
       inkscape:connector-curvature="0" /><text
       transform="matrix(1,0,0,-1,202.02989,24.752783)"
       style="font-variant:normal;font-size:15.94022369px;font-family:'URW Palladio L';-inkscape-font-specification:URWPalladioL-Roma;writing-mode:lr-tb;fill:#000000;fill-opacity:1;fill-rule:nonzero;stroke:none"
       id="text144"><tspan
         x="0 7.9701118"
         y="0"
         sodipodi:role="line"
         id="tspan146">20</tspan></text>
<path
       d="m 252,39.6 0,4"
       style="fill:none;stroke:#000000;stroke-width:0.5;stroke-linecap:butt;stroke-linejoin:round;stroke-miterlimit:10;stroke-dasharray:none;stroke-opacity:1"
       id="path148"
       inkscape:connector-curvature="0" /><path
       d="m 252,376.2 0,-4"
       style="fill:none;stroke:#000000;stroke-width:0.5;stroke-linecap:butt;stroke-linejoin:round;stroke-miterlimit:10;stroke-dasharray:none;stroke-opacity:1"
       id="path150"
       inkscape:connector-curvature="0" /><text
       transform="matrix(1,0,0,-1,244.02989,24.752783)"
       style="font-variant:normal;font-size:15.94022369px;font-family:'URW Palladio L';-inkscape-font-specification:URWPalladioL-Roma;writing-mode:lr-tb;fill:#000000;fill-opacity:1;fill-rule:nonzero;stroke:none"
       id="text152"><tspan
         x="0 7.9701118"
         y="0"
         sodipodi:role="line"
         id="tspan154">25</tspan></text>
<path
       d="m 294,39.6 0,4"
       style="fill:none;stroke:#000000;stroke-width:0.5;stroke-linecap:butt;stroke-linejoin:round;stroke-miterlimit:10;stroke-dasharray:none;stroke-opacity:1"
       id="path156"
       inkscape:connector-curvature="0" /><path
       d="m 294,376.2 0,-4"
       style="fill:none;stroke:#000000;stroke-width:0.5;stroke-linecap:butt;stroke-linejoin:round;stroke-miterlimit:10;stroke-dasharray:none;stroke-opacity:1"
       id="path158"
       inkscape:connector-curvature="0" /><text
       transform="matrix(1,0,0,-1,286.02989,24.752783)"
       style="font-variant:normal;font-size:15.94022369px;font-family:'URW Palladio L';-inkscape-font-specification:URWPalladioL-Roma;writing-mode:lr-tb;fill:#000000;fill-opacity:1;fill-rule:nonzero;stroke:none"
       id="text160"><tspan
         x="0 7.9701118"
         y="0"
         sodipodi:role="line"
         id="tspan162">30</tspan></text>
<path
       d="m 336,39.6 0,4"
       style="fill:none;stroke:#000000;stroke-width:0.5;stroke-linecap:butt;stroke-linejoin:round;stroke-miterlimit:10;stroke-dasharray:none;stroke-opacity:1"
       id="path164"
       inkscape:connector-curvature="0" /><path
       d="m 336,376.2 0,-4"
       style="fill:none;stroke:#000000;stroke-width:0.5;stroke-linecap:butt;stroke-linejoin:round;stroke-miterlimit:10;stroke-dasharray:none;stroke-opacity:1"
       id="path166"
       inkscape:connector-curvature="0" /><text
       transform="matrix(1,0,0,-1,328.02989,24.752783)"
       style="font-variant:normal;font-size:15.94022369px;font-family:'URW Palladio L';-inkscape-font-specification:URWPalladioL-Roma;writing-mode:lr-tb;fill:#000000;fill-opacity:1;fill-rule:nonzero;stroke:none"
       id="text168"><tspan
         x="0 7.9701118"
         y="0"
         sodipodi:role="line"
         id="tspan170">35</tspan></text>
<path
       d="m 378,39.6 0,4"
       style="fill:none;stroke:#000000;stroke-width:0.5;stroke-linecap:butt;stroke-linejoin:round;stroke-miterlimit:10;stroke-dasharray:none;stroke-opacity:1"
       id="path172"
       inkscape:connector-curvature="0" /><path
       d="m 378,376.2 0,-4"
       style="fill:none;stroke:#000000;stroke-width:0.5;stroke-linecap:butt;stroke-linejoin:round;stroke-miterlimit:10;stroke-dasharray:none;stroke-opacity:1"
       id="path174"
       inkscape:connector-curvature="0" /><text
       transform="matrix(1,0,0,-1,370.02989,24.752783)"
       style="font-variant:normal;font-size:15.94022369px;font-family:'URW Palladio L';-inkscape-font-specification:URWPalladioL-Roma;writing-mode:lr-tb;fill:#000000;fill-opacity:1;fill-rule:nonzero;stroke:none"
       id="text176"><tspan
         x="0 7.9701118"
         y="0"
         sodipodi:role="line"
         id="tspan178">40</tspan></text>
<g
       id="g184"><g
         id="g186"
         clip-path="url(#clipPath188)"><path
           d="m 50.4,39.6 327.6,0"
           style="fill:none;stroke:#000000;stroke-width:0.5;stroke-linecap:butt;stroke-linejoin:round;stroke-miterlimit:10;stroke-dasharray:1, 3;stroke-dashoffset:0;stroke-opacity:1"
           id="path192"
           inkscape:connector-curvature="0" /></g></g><path
       d="m 50.4,39.6 4,0"
       style="fill:none;stroke:#000000;stroke-width:0.5;stroke-linecap:butt;stroke-linejoin:round;stroke-miterlimit:10;stroke-dasharray:none;stroke-opacity:1"
       id="path194"
       inkscape:connector-curvature="0" /><path
       d="m 378,39.6 -4,0"
       style="fill:none;stroke:#000000;stroke-width:0.5;stroke-linecap:butt;stroke-linejoin:round;stroke-miterlimit:10;stroke-dasharray:none;stroke-opacity:1"
       id="path196"
       inkscape:connector-curvature="0" /><text
       transform="matrix(1,0,0,-1,30.459776,34.228199)"
       style="font-variant:normal;font-size:15.94022369px;font-family:'URW Palladio L';-inkscape-font-specification:URWPalladioL-Roma;writing-mode:lr-tb;fill:#000000;fill-opacity:1;fill-rule:nonzero;stroke:none"
       id="text198"><tspan
         x="0 7.9701118"
         y="0"
         sodipodi:role="line"
         id="tspan200">20</tspan></text>
<g
       id="g202"><g
         id="g204"
         clip-path="url(#clipPath206)"><path
           d="M 50.4,77 378,77"
           style="fill:none;stroke:#000000;stroke-width:0.5;stroke-linecap:butt;stroke-linejoin:round;stroke-miterlimit:10;stroke-dasharray:1, 3;stroke-dashoffset:0;stroke-opacity:1"
           id="path210"
           inkscape:connector-curvature="0" /></g></g><path
       d="m 50.4,77 4,0"
       style="fill:none;stroke:#000000;stroke-width:0.5;stroke-linecap:butt;stroke-linejoin:round;stroke-miterlimit:10;stroke-dasharray:none;stroke-opacity:1"
       id="path212"
       inkscape:connector-curvature="0" /><path
       d="m 378,77 -4,0"
       style="fill:none;stroke:#000000;stroke-width:0.5;stroke-linecap:butt;stroke-linejoin:round;stroke-miterlimit:10;stroke-dasharray:none;stroke-opacity:1"
       id="path214"
       inkscape:connector-curvature="0" /><text
       transform="matrix(1,0,0,-1,30.459776,71.628199)"
       style="font-variant:normal;font-size:15.94022369px;font-family:'URW Palladio L';-inkscape-font-specification:URWPalladioL-Roma;writing-mode:lr-tb;fill:#000000;fill-opacity:1;fill-rule:nonzero;stroke:none"
       id="text216"><tspan
         x="0 7.9701118"
         y="0"
         sodipodi:role="line"
         id="tspan218">25</tspan></text>
<g
       id="g220"><g
         id="g222"
         clip-path="url(#clipPath224)"><path
           d="m 50.4,114.4 327.6,0"
           style="fill:none;stroke:#000000;stroke-width:0.5;stroke-linecap:butt;stroke-linejoin:round;stroke-miterlimit:10;stroke-dasharray:1, 3;stroke-dashoffset:0;stroke-opacity:1"
           id="path228"
           inkscape:connector-curvature="0" /></g></g><path
       d="m 50.4,114.4 4,0"
       style="fill:none;stroke:#000000;stroke-width:0.5;stroke-linecap:butt;stroke-linejoin:round;stroke-miterlimit:10;stroke-dasharray:none;stroke-opacity:1"
       id="path230"
       inkscape:connector-curvature="0" /><path
       d="m 378,114.4 -4,0"
       style="fill:none;stroke:#000000;stroke-width:0.5;stroke-linecap:butt;stroke-linejoin:round;stroke-miterlimit:10;stroke-dasharray:none;stroke-opacity:1"
       id="path232"
       inkscape:connector-curvature="0" /><text
       transform="matrix(1,0,0,-1,30.459776,109.0282)"
       style="font-variant:normal;font-size:15.94022369px;font-family:'URW Palladio L';-inkscape-font-specification:URWPalladioL-Roma;writing-mode:lr-tb;fill:#000000;fill-opacity:1;fill-rule:nonzero;stroke:none"
       id="text234"><tspan
         x="0 7.9701118"
         y="0"
         sodipodi:role="line"
         id="tspan236">30</tspan></text>
<g
       id="g238"><g
         id="g240"
         clip-path="url(#clipPath242)"><path
           d="m 50.4,151.8 327.6,0"
           style="fill:none;stroke:#000000;stroke-width:0.5;stroke-linecap:butt;stroke-linejoin:round;stroke-miterlimit:10;stroke-dasharray:1, 3;stroke-dashoffset:0;stroke-opacity:1"
           id="path246"
           inkscape:connector-curvature="0" /></g></g><path
       d="m 50.4,151.8 4,0"
       style="fill:none;stroke:#000000;stroke-width:0.5;stroke-linecap:butt;stroke-linejoin:round;stroke-miterlimit:10;stroke-dasharray:none;stroke-opacity:1"
       id="path248"
       inkscape:connector-curvature="0" /><path
       d="m 378,151.8 -4,0"
       style="fill:none;stroke:#000000;stroke-width:0.5;stroke-linecap:butt;stroke-linejoin:round;stroke-miterlimit:10;stroke-dasharray:none;stroke-opacity:1"
       id="path250"
       inkscape:connector-curvature="0" /><text
       transform="matrix(1,0,0,-1,30.459776,146.4282)"
       style="font-variant:normal;font-size:15.94022369px;font-family:'URW Palladio L';-inkscape-font-specification:URWPalladioL-Roma;writing-mode:lr-tb;fill:#000000;fill-opacity:1;fill-rule:nonzero;stroke:none"
       id="text252"><tspan
         x="0 7.9701118"
         y="0"
         sodipodi:role="line"
         id="tspan254">35</tspan></text>
<g
       id="g256"><g
         id="g258"
         clip-path="url(#clipPath260)"><path
           d="m 50.4,189.2 327.6,0"
           style="fill:none;stroke:#000000;stroke-width:0.5;stroke-linecap:butt;stroke-linejoin:round;stroke-miterlimit:10;stroke-dasharray:1, 3;stroke-dashoffset:0;stroke-opacity:1"
           id="path264"
           inkscape:connector-curvature="0" /></g></g><path
       d="m 50.4,189.2 4,0"
       style="fill:none;stroke:#000000;stroke-width:0.5;stroke-linecap:butt;stroke-linejoin:round;stroke-miterlimit:10;stroke-dasharray:none;stroke-opacity:1"
       id="path266"
       inkscape:connector-curvature="0" /><path
       d="m 378,189.2 -4,0"
       style="fill:none;stroke:#000000;stroke-width:0.5;stroke-linecap:butt;stroke-linejoin:round;stroke-miterlimit:10;stroke-dasharray:none;stroke-opacity:1"
       id="path268"
       inkscape:connector-curvature="0" /><text
       transform="matrix(1,0,0,-1,30.459776,183.8282)"
       style="font-variant:normal;font-size:15.94022369px;font-family:'URW Palladio L';-inkscape-font-specification:URWPalladioL-Roma;writing-mode:lr-tb;fill:#000000;fill-opacity:1;fill-rule:nonzero;stroke:none"
       id="text270"><tspan
         x="0 7.9701118"
         y="0"
         sodipodi:role="line"
         id="tspan272">40</tspan></text>
<g
       id="g274"><g
         id="g276"
         clip-path="url(#clipPath278)"><path
           d="m 50.4,226.6 327.6,0"
           style="fill:none;stroke:#000000;stroke-width:0.5;stroke-linecap:butt;stroke-linejoin:round;stroke-miterlimit:10;stroke-dasharray:1, 3;stroke-dashoffset:0;stroke-opacity:1"
           id="path282"
           inkscape:connector-curvature="0" /></g></g><path
       d="m 50.4,226.6 4,0"
       style="fill:none;stroke:#000000;stroke-width:0.5;stroke-linecap:butt;stroke-linejoin:round;stroke-miterlimit:10;stroke-dasharray:none;stroke-opacity:1"
       id="path284"
       inkscape:connector-curvature="0" /><path
       d="m 378,226.6 -4,0"
       style="fill:none;stroke:#000000;stroke-width:0.5;stroke-linecap:butt;stroke-linejoin:round;stroke-miterlimit:10;stroke-dasharray:none;stroke-opacity:1"
       id="path286"
       inkscape:connector-curvature="0" /><text
       transform="matrix(1,0,0,-1,30.459776,221.2282)"
       style="font-variant:normal;font-size:15.94022369px;font-family:'URW Palladio L';-inkscape-font-specification:URWPalladioL-Roma;writing-mode:lr-tb;fill:#000000;fill-opacity:1;fill-rule:nonzero;stroke:none"
       id="text288"><tspan
         x="0 7.9701118"
         y="0"
         sodipodi:role="line"
         id="tspan290">45</tspan></text>
<g
       id="g292"><g
         id="g294"
         clip-path="url(#clipPath296)"><path
           d="M 50.4,264 378,264"
           style="fill:none;stroke:#000000;stroke-width:0.5;stroke-linecap:butt;stroke-linejoin:round;stroke-miterlimit:10;stroke-dasharray:1, 3;stroke-dashoffset:0;stroke-opacity:1"
           id="path300"
           inkscape:connector-curvature="0" /></g></g><path
       d="m 50.4,264 4,0"
       style="fill:none;stroke:#000000;stroke-width:0.5;stroke-linecap:butt;stroke-linejoin:round;stroke-miterlimit:10;stroke-dasharray:none;stroke-opacity:1"
       id="path302"
       inkscape:connector-curvature="0" /><path
       d="m 378,264 -4,0"
       style="fill:none;stroke:#000000;stroke-width:0.5;stroke-linecap:butt;stroke-linejoin:round;stroke-miterlimit:10;stroke-dasharray:none;stroke-opacity:1"
       id="path304"
       inkscape:connector-curvature="0" /><text
       transform="matrix(1,0,0,-1,30.459776,258.6282)"
       style="font-variant:normal;font-size:15.94022369px;font-family:'URW Palladio L';-inkscape-font-specification:URWPalladioL-Roma;writing-mode:lr-tb;fill:#000000;fill-opacity:1;fill-rule:nonzero;stroke:none"
       id="text306"><tspan
         x="0 7.9701118"
         y="0"
         sodipodi:role="line"
         id="tspan308">50</tspan></text>
<g
       id="g310"><g
         id="g312"
         clip-path="url(#clipPath314)"><path
           d="m 50.4,301.4 327.6,0"
           style="fill:none;stroke:#000000;stroke-width:0.5;stroke-linecap:butt;stroke-linejoin:round;stroke-miterlimit:10;stroke-dasharray:1, 3;stroke-dashoffset:0;stroke-opacity:1"
           id="path318"
           inkscape:connector-curvature="0" /></g></g><path
       d="m 50.4,301.4 4,0"
       style="fill:none;stroke:#000000;stroke-width:0.5;stroke-linecap:butt;stroke-linejoin:round;stroke-miterlimit:10;stroke-dasharray:none;stroke-opacity:1"
       id="path320"
       inkscape:connector-curvature="0" /><path
       d="m 378,301.4 -4,0"
       style="fill:none;stroke:#000000;stroke-width:0.5;stroke-linecap:butt;stroke-linejoin:round;stroke-miterlimit:10;stroke-dasharray:none;stroke-opacity:1"
       id="path322"
       inkscape:connector-curvature="0" /><text
       transform="matrix(1,0,0,-1,30.459776,296.0282)"
       style="font-variant:normal;font-size:15.94022369px;font-family:'URW Palladio L';-inkscape-font-specification:URWPalladioL-Roma;writing-mode:lr-tb;fill:#000000;fill-opacity:1;fill-rule:nonzero;stroke:none"
       id="text324"><tspan
         x="0 7.9701118"
         y="0"
         sodipodi:role="line"
         id="tspan326">55</tspan></text>
<g
       id="g328"><g
         id="g330"
         clip-path="url(#clipPath332)"><path
           d="m 50.4,338.8 327.6,0"
           style="fill:none;stroke:#000000;stroke-width:0.5;stroke-linecap:butt;stroke-linejoin:round;stroke-miterlimit:10;stroke-dasharray:1, 3;stroke-dashoffset:0;stroke-opacity:1"
           id="path336"
           inkscape:connector-curvature="0" /></g></g><path
       d="m 50.4,338.8 4,0"
       style="fill:none;stroke:#000000;stroke-width:0.5;stroke-linecap:butt;stroke-linejoin:round;stroke-miterlimit:10;stroke-dasharray:none;stroke-opacity:1"
       id="path338"
       inkscape:connector-curvature="0" /><path
       d="m 378,338.8 -4,0"
       style="fill:none;stroke:#000000;stroke-width:0.5;stroke-linecap:butt;stroke-linejoin:round;stroke-miterlimit:10;stroke-dasharray:none;stroke-opacity:1"
       id="path340"
       inkscape:connector-curvature="0" /><text
       transform="matrix(1,0,0,-1,30.459776,333.4282)"
       style="font-variant:normal;font-size:15.94022369px;font-family:'URW Palladio L';-inkscape-font-specification:URWPalladioL-Roma;writing-mode:lr-tb;fill:#000000;fill-opacity:1;fill-rule:nonzero;stroke:none"
       id="text342"><tspan
         x="0 7.9701118"
         y="0"
         sodipodi:role="line"
         id="tspan344">60</tspan></text>
<g
       id="g346"><g
         id="g348"
         clip-path="url(#clipPath350)"><path
           d="m 50.4,376.2 327.6,0"
           style="fill:none;stroke:#000000;stroke-width:0.5;stroke-linecap:butt;stroke-linejoin:round;stroke-miterlimit:10;stroke-dasharray:1, 3;stroke-dashoffset:0;stroke-opacity:1"
           id="path354"
           inkscape:connector-curvature="0" /></g></g><path
       d="m 50.4,376.2 4,0"
       style="fill:none;stroke:#000000;stroke-width:0.5;stroke-linecap:butt;stroke-linejoin:round;stroke-miterlimit:10;stroke-dasharray:none;stroke-opacity:1"
       id="path356"
       inkscape:connector-curvature="0" /><path
       d="m 378,376.2 -4,0"
       style="fill:none;stroke:#000000;stroke-width:0.5;stroke-linecap:butt;stroke-linejoin:round;stroke-miterlimit:10;stroke-dasharray:none;stroke-opacity:1"
       id="path358"
       inkscape:connector-curvature="0" /><text
       transform="matrix(1,0,0,-1,30.459776,370.8282)"
       style="font-variant:normal;font-size:15.94022369px;font-family:'URW Palladio L';-inkscape-font-specification:URWPalladioL-Roma;writing-mode:lr-tb;fill:#000000;fill-opacity:1;fill-rule:nonzero;stroke:none"
       id="text360"><tspan
         x="0 7.9701118"
         y="0"
         sodipodi:role="line"
         id="tspan362">65</tspan></text>
<path
       d="m 50.4,376.2 327.6,0"
       style="fill:none;stroke:#000000;stroke-width:1;stroke-linecap:square;stroke-linejoin:round;stroke-miterlimit:10;stroke-dasharray:none;stroke-opacity:1"
       id="path376"
       inkscape:connector-curvature="0" /><path
       d="m 378,39.6 0,336.6"
       style="fill:none;stroke:#000000;stroke-width:1;stroke-linecap:square;stroke-linejoin:round;stroke-miterlimit:10;stroke-dasharray:none;stroke-opacity:1"
       id="path378"
       inkscape:connector-curvature="0" /><path
       d="m 50.4,39.6 327.6,0"
       style="fill:none;stroke:#000000;stroke-width:1;stroke-linecap:square;stroke-linejoin:round;stroke-miterlimit:10;stroke-dasharray:none;stroke-opacity:1"
       id="path380"
       inkscape:connector-curvature="0" /><path
       d="m 50.4,39.6 0,336.6"
       style="fill:none;stroke:#000000;stroke-width:1;stroke-linecap:square;stroke-linejoin:round;stroke-miterlimit:10;stroke-dasharray:none;stroke-opacity:1"
       id="path382"
       inkscape:connector-curvature="0" /><path
       d="m 393.8816,342.03309 18.6592,0"
       style="fill:none;stroke:#dcdcdc;stroke-width:2;stroke-linecap:butt;stroke-linejoin:round;stroke-miterlimit:10;stroke-dasharray:6, 6;stroke-dashoffset:0;stroke-opacity:1"
       id="path386"
       inkscape:connector-curvature="0" /><text
       transform="scale(1,-1)"
       style="font-variant:normal;font-size:13.27820969px;font-family:'URW Palladio L';-inkscape-font-specification:URWPalladioL-Roma;writing-mode:lr-tb;fill:#000000;fill-opacity:1;fill-rule:nonzero;stroke:none"
       id="text388"
       x="396.80148"
       y="-337.36826"><tspan
         x="421.11389 428.53641 435.17551 441.81461"
         sodipodi:role="line"
         id="tspan390">q90%</tspan></text>
<path
       d="m 393.8816,322.12421 18.6592,0"
       style="fill:none;stroke:#b4b4b4;stroke-width:2;stroke-linecap:butt;stroke-linejoin:round;stroke-miterlimit:10;stroke-dasharray:6, 6;stroke-dashoffset:0;stroke-opacity:1"
       id="path392"
       inkscape:connector-curvature="0" /><text
       transform="scale(1,-1)"
       style="font-variant:normal;font-size:13.27820969px;font-family:'URW Palladio L';-inkscape-font-specification:URWPalladioL-Roma;writing-mode:lr-tb;fill:#000000;fill-opacity:1;fill-rule:nonzero;stroke:none"
       id="text394"
       x="396.80148"
       y="-317.45938"><tspan
         x="421.11389 428.53641 435.17551 441.81461"
         sodipodi:role="line"
         id="tspan396">q75%</tspan></text>
<path
       d="m 393.8816,302.21532 18.6592,0"
       style="fill:none;stroke:#000000;stroke-width:2;stroke-linecap:butt;stroke-linejoin:round;stroke-miterlimit:10;stroke-dasharray:6, 6;stroke-dashoffset:0;stroke-opacity:1"
       id="path398"
       inkscape:connector-curvature="0" /><text
       transform="scale(1,-1)"
       style="font-variant:normal;font-size:13.27820969px;font-family:'URW Palladio L';-inkscape-font-specification:URWPalladioL-Roma;writing-mode:lr-tb;fill:#000000;fill-opacity:1;fill-rule:nonzero;stroke:none"
       id="text400"
       x="396.80148"
       y="-297.55048"><tspan
         x="421.11389 428.53641 435.17551 441.81461"
         sodipodi:role="line"
         id="tspan402">q50%</tspan></text>
<path
       d="m 393.8816,282.30643 18.6592,0"
       style="fill:none;stroke:#b4b4b4;stroke-width:2;stroke-linecap:butt;stroke-linejoin:round;stroke-miterlimit:10;stroke-dasharray:6, 6;stroke-dashoffset:0;stroke-opacity:1"
       id="path404"
       inkscape:connector-curvature="0" /><text
       transform="scale(1,-1)"
       style="font-variant:normal;font-size:13.27820969px;font-family:'URW Palladio L';-inkscape-font-specification:URWPalladioL-Roma;writing-mode:lr-tb;fill:#000000;fill-opacity:1;fill-rule:nonzero;stroke:none"
       id="text406"
       x="396.80148"
       y="-277.6416"><tspan
         x="421.11389 428.53641 435.17551 441.81461"
         sodipodi:role="line"
         id="tspan408">q25%</tspan></text>
<path
       d="m 393.8816,262.39754 18.6592,0"
       style="fill:none;stroke:#dcdcdc;stroke-width:2;stroke-linecap:butt;stroke-linejoin:round;stroke-miterlimit:10;stroke-dasharray:6, 6;stroke-dashoffset:0;stroke-opacity:1"
       id="path410"
       inkscape:connector-curvature="0" /><text
       transform="scale(1,-1)"
       style="font-variant:normal;font-size:13.27820969px;font-family:'URW Palladio L';-inkscape-font-specification:URWPalladioL-Roma;writing-mode:lr-tb;fill:#000000;fill-opacity:1;fill-rule:nonzero;stroke:none"
       id="text412"
       x="396.80148"
       y="-257.7327"><tspan
         x="421.11389 428.53641 435.17551 441.81461"
         sodipodi:role="line"
         id="tspan414">q10%</tspan></text>
<path
       d="m 393.8816,194.48866 18.6592,0"
       style="fill:none;stroke:#dcdcdc;stroke-width:2;stroke-linecap:square;stroke-linejoin:round;stroke-miterlimit:10;stroke-dasharray:none;stroke-opacity:1"
       id="path416"
       inkscape:connector-curvature="0" /><text
       transform="scale(1,-1)"
       style="font-variant:normal;font-size:13.27820969px;font-family:'URW Palladio L';-inkscape-font-specification:URWPalladioL-Roma;writing-mode:lr-tb;fill:#000000;fill-opacity:1;fill-rule:nonzero;stroke:none"
       id="text418"
       x="396.80148"
       y="-189.82382"><tspan
         x="421.11389 428.53641 435.17551 441.81461"
         sodipodi:role="line"
         id="tspan420">q90%</tspan></text>
<path
       d="m 393.8816,174.57977 18.6592,0"
       style="fill:none;stroke:#b4b4b4;stroke-width:2;stroke-linecap:square;stroke-linejoin:round;stroke-miterlimit:10;stroke-dasharray:none;stroke-opacity:1"
       id="path422"
       inkscape:connector-curvature="0" /><text
       transform="scale(1,-1)"
       style="font-variant:normal;font-size:13.27820969px;font-family:'URW Palladio L';-inkscape-font-specification:URWPalladioL-Roma;writing-mode:lr-tb;fill:#000000;fill-opacity:1;fill-rule:nonzero;stroke:none"
       id="text424"
       x="396.80148"
       y="-169.91493"><tspan
         x="421.11389 428.53641 435.17551 441.81461"
         sodipodi:role="line"
         id="tspan426">q75%</tspan></text>
<path
       d="m 393.8816,154.67088 18.6592,0"
       style="fill:none;stroke:#000000;stroke-width:2;stroke-linecap:square;stroke-linejoin:round;stroke-miterlimit:10;stroke-dasharray:none;stroke-opacity:1"
       id="path428"
       inkscape:connector-curvature="0" /><text
       transform="scale(1,-1)"
       style="font-variant:normal;font-size:13.27820969px;font-family:'URW Palladio L';-inkscape-font-specification:URWPalladioL-Roma;writing-mode:lr-tb;fill:#000000;fill-opacity:1;fill-rule:nonzero;stroke:none"
       id="text430"
       x="396.80148"
       y="-150.00604"><tspan
         x="421.11389 428.53641 435.17551 441.81461"
         sodipodi:role="line"
         id="tspan432">q50%</tspan></text>
<path
       d="m 393.8816,134.762 18.6592,0"
       style="fill:none;stroke:#b4b4b4;stroke-width:2;stroke-linecap:square;stroke-linejoin:round;stroke-miterlimit:10;stroke-dasharray:none;stroke-opacity:1"
       id="path434"
       inkscape:connector-curvature="0" /><text
       transform="scale(1,-1)"
       style="font-variant:normal;font-size:13.27820969px;font-family:'URW Palladio L';-inkscape-font-specification:URWPalladioL-Roma;writing-mode:lr-tb;fill:#000000;fill-opacity:1;fill-rule:nonzero;stroke:none"
       id="text436"
       x="396.80148"
       y="-130.09717"><tspan
         x="421.11389 428.53641 435.17551 441.81461"
         sodipodi:role="line"
         id="tspan438">q25%</tspan></text>
<path
       d="m 393.8816,114.85311 18.6592,0"
       style="fill:none;stroke:#dcdcdc;stroke-width:2;stroke-linecap:square;stroke-linejoin:round;stroke-miterlimit:10;stroke-dasharray:none;stroke-opacity:1"
       id="path440"
       inkscape:connector-curvature="0" /><text
       transform="scale(1,-1)"
       style="font-variant:normal;font-size:13.27820969px;font-family:'URW Palladio L';-inkscape-font-specification:URWPalladioL-Roma;writing-mode:lr-tb;fill:#000000;fill-opacity:1;fill-rule:nonzero;stroke:none"
       id="text442"
       x="396.80148"
       y="-110.18831"><tspan
         x="421.11389 428.53641 435.17551 441.81461"
         sodipodi:role="line"
         id="tspan444">q10%</tspan></text>
<text
       xml:space="preserve"
       style="font-style:normal;font-variant:normal;font-weight:normal;font-stretch:normal;font-size:40px;line-height:125%;font-family:'Palatino Linotype';-inkscape-font-specification:'Palatino Linotype';letter-spacing:0px;word-spacing:0px;fill:#000000;fill-opacity:1;stroke:none;stroke-width:1px;stroke-linecap:butt;stroke-linejoin:miter;stroke-opacity:1"
       x="161.08475"
       y="-7.5508575"
       id="text4572"
       sodipodi:linespacing="125%"
       transform="scale(1,-1)"><tspan
         sodipodi:role="line"
         id="tspan4574"
         x="161.08475"
         y="-7.5508575"
         style="font-size:16px">Analogue rank</tspan></text>
<text
       xml:space="preserve"
       style="font-style:normal;font-variant:normal;font-weight:normal;font-stretch:normal;font-size:16px;line-height:125%;font-family:'Palatino Linotype';-inkscape-font-specification:'Palatino Linotype';letter-spacing:0px;word-spacing:0px;fill:#000000;fill-opacity:1;stroke:none;stroke-width:1px;stroke-linecap:butt;stroke-linejoin:miter;stroke-opacity:1"
       x="173.22141"
       y="23.837523"
       id="text4576"
       sodipodi:linespacing="125%"
       transform="matrix(0,1,1,0,0,0)"><tspan
         sodipodi:role="line"
         id="tspan4578"
         x="173.22141"
         y="23.837523">S1 criteria</tspan></text>
<text
       xml:space="preserve"
       style="font-style:normal;font-weight:normal;font-size:16px;line-height:125%;font-family:sans-serif;letter-spacing:0px;word-spacing:0px;fill:#000000;fill-opacity:1;stroke:none;stroke-width:1px;stroke-linecap:butt;stroke-linejoin:miter;stroke-opacity:1"
       x="385.93222"
       y="-358.71353"
       id="text4344"
       sodipodi:linespacing="125%"
       transform="scale(1,-1)"><tspan
         sodipodi:role="line"
         id="tspan4346"
         x="385.93222"
         y="-358.71353"
         style="font-style:normal;font-variant:normal;font-weight:normal;font-stretch:normal;font-size:14px;font-family:'URW Palladio L';-inkscape-font-specification:'URW Palladio L'">standard</tspan></text>
<text
       xml:space="preserve"
       style="font-style:normal;font-weight:normal;font-size:16px;line-height:125%;font-family:sans-serif;letter-spacing:0px;word-spacing:0px;fill:#000000;fill-opacity:1;stroke:none;stroke-width:1px;stroke-linecap:butt;stroke-linejoin:miter;stroke-opacity:1"
       x="385.93222"
       y="-208.31351"
       id="text4344-7"
       sodipodi:linespacing="125%"
       transform="scale(1,-1)"><tspan
         sodipodi:role="line"
         id="tspan4346-6"
         x="385.93222"
         y="-208.31351"
         style="font-style:normal;font-variant:normal;font-weight:normal;font-stretch:normal;font-size:14px;font-family:'URW Palladio L';-inkscape-font-specification:'URW Palladio L'">with STW</tspan></text>
</g></svg>