<?xml version="1.0" encoding="UTF-8" standalone="no"?>
<!-- Created with Inkscape (http://www.inkscape.org/) -->

<svg
   xmlns:dc="http://purl.org/dc/elements/1.1/"
   xmlns:cc="http://creativecommons.org/ns#"
   xmlns:rdf="http://www.w3.org/1999/02/22-rdf-syntax-ns#"
   xmlns:svg="http://www.w3.org/2000/svg"
   xmlns="http://www.w3.org/2000/svg"
   xmlns:sodipodi="http://sodipodi.sourceforge.net/DTD/sodipodi-0.dtd"
   xmlns:inkscape="http://www.inkscape.org/namespaces/inkscape"
   id="svg2"
   version="1.1"
   inkscape:version="0.91 r13725"
   xml:space="preserve"
   width="540"
   height="630"
   viewBox="0 0 540 630"
   sodipodi:docname="changes_S1_seasons.svg"><metadata
     id="metadata8"><rdf:RDF><cc:Work
         rdf:about=""><dc:format>image/svg+xml</dc:format><dc:type
           rdf:resource="http://purl.org/dc/dcmitype/StillImage" /><dc:title /></cc:Work></rdf:RDF></metadata><defs
     id="defs6"><clipPath
       clipPathUnits="userSpaceOnUse"
       id="clipPath20"><path
         d="m 51.84,50.4 280.8,0 0,428.4 -280.8,0 0,-428.4 z"
         id="path22"
         inkscape:connector-curvature="0" /></clipPath><clipPath
       clipPathUnits="userSpaceOnUse"
       id="clipPath30"><path
         d="m 51.84,50.4 280.8,0 0,428.4 -280.8,0 0,-428.4 z"
         id="path32"
         inkscape:connector-curvature="0" /></clipPath><clipPath
       clipPathUnits="userSpaceOnUse"
       id="clipPath40"><path
         d="m 51.84,50.4 280.8,0 0,428.4 -280.8,0 0,-428.4 z"
         id="path42"
         inkscape:connector-curvature="0" /></clipPath><clipPath
       clipPathUnits="userSpaceOnUse"
       id="clipPath50"><path
         d="m 51.84,50.4 280.8,0 0,428.4 -280.8,0 0,-428.4 z"
         id="path52"
         inkscape:connector-curvature="0" /></clipPath><clipPath
       clipPathUnits="userSpaceOnUse"
       id="clipPath128"><path
         d="m 51.84,50.4 280.8,0 0,428.4 -280.8,0 0,-428.4 z"
         id="path130"
         inkscape:connector-curvature="0" /></clipPath><clipPath
       clipPathUnits="userSpaceOnUse"
       id="clipPath146"><path
         d="m 51.84,50.4 280.8,0 0,428.4 -280.8,0 0,-428.4 z"
         id="path148"
         inkscape:connector-curvature="0" /></clipPath><clipPath
       clipPathUnits="userSpaceOnUse"
       id="clipPath164"><path
         d="m 51.84,50.4 280.8,0 0,428.4 -280.8,0 0,-428.4 z"
         id="path166"
         inkscape:connector-curvature="0" /></clipPath><clipPath
       clipPathUnits="userSpaceOnUse"
       id="clipPath182"><path
         d="m 51.84,50.4 280.8,0 0,428.4 -280.8,0 0,-428.4 z"
         id="path184"
         inkscape:connector-curvature="0" /></clipPath><clipPath
       clipPathUnits="userSpaceOnUse"
       id="clipPath200"><path
         d="m 51.84,50.4 280.8,0 0,428.4 -280.8,0 0,-428.4 z"
         id="path202"
         inkscape:connector-curvature="0" /></clipPath><clipPath
       clipPathUnits="userSpaceOnUse"
       id="clipPath218"><path
         d="m 51.84,50.4 280.8,0 0,428.4 -280.8,0 0,-428.4 z"
         id="path220"
         inkscape:connector-curvature="0" /></clipPath></defs><sodipodi:namedview
     pagecolor="#ffffff"
     bordercolor="#666666"
     borderopacity="1"
     objecttolerance="10"
     gridtolerance="10"
     guidetolerance="10"
     inkscape:pageopacity="0"
     inkscape:pageshadow="2"
     inkscape:window-width="1126"
     inkscape:window-height="969"
     id="namedview4"
     showgrid="false"
     inkscape:zoom="2.1190756"
     inkscape:cx="62.201205"
     inkscape:cy="337.61929"
     inkscape:window-x="0"
     inkscape:window-y="0"
     inkscape:window-maximized="0"
     inkscape:current-layer="g10" /><g
     id="g10"
     inkscape:groupmode="layer"
     inkscape:label="changes_S1_seasons"
     transform="matrix(1.25,0,0,-1.25,0,630)"><path
   d="m 51.84,50.4 280.8,0 0,428.4 -280.8,0 0,-428.4 z"
   style="fill:#ffffff;fill-opacity:1;fill-rule:nonzero;stroke:none"
   id="path14"
   inkscape:connector-curvature="0" /><g
   id="g16"><g
     id="g18"
     clip-path="url(#clipPath20)"><path
       d="m 51.84,143.37218 7.2,83.37745 7.2,32.9536 7.2,21.18517 7.2,14.41448 7.2,7.04453 7.2,9.1568 7.2,6.07332 7.2,9.22176 7.2,5.00083 7.2,2.8734 7.2,6.94562 7.2,3.52272 7.2,-1.43227 7.2,4.59162 7.2,2.47714 7.2,2.58125 7.2,3.72658 7.2,4.77853 7.2,3.76708 7.2,0.38939 7.2,4.1418 7.2,3.04753 7.2,3.23865 7.2,-0.69075 7.2,3.12336 7.2,0.17278 7.2,1.13022 7.2,3.98418 7.2,1.15923 7.2,6.24152 7.2,2.73617 7.2,1.07474 7.2,2.71517 7.2,0.14884 7.2,1.49351 7.2,3.93392 7.2,1.06179 7.2,0.0416 7.2,3.1723"
       style="fill:none;stroke:#416fa6;stroke-width:2;stroke-linecap:square;stroke-linejoin:round;stroke-miterlimit:10;stroke-dasharray:none;stroke-opacity:1"
       id="path24"
       inkscape:connector-curvature="0" /></g></g><g
   id="g26"><g
     id="g28"
     clip-path="url(#clipPath30)"><path
       d="m 51.84,79.204421 7.2,91.787469 7.2,28.73597 7.2,21.36765 7.2,12.64683 7.2,4.77931 7.2,11.15796 7.2,4.30995 7.2,1.16195 7.2,7.1906 7.2,7.98798 7.2,4.33182 7.2,3.40244 7.2,3.72797 7.2,2.58862 7.2,2.18785 7.2,1.07676 7.2,4.73131 7.2,2.33809 7.2,1.51279 7.2,3.30811 7.2,3.79122 7.2,1.77512 7.2,2.61126 7.2,4.57466 7.2,1.34003 7.2,0.46708 7.2,-0.6011 7.2,2.76963 7.2,1.93844 7.2,1.96098 7.2,4.18286 7.2,0.0911 7.2,3.33915 7.2,0.70621 7.2,2.825 7.2,0.26583 7.2,0.45245 7.2,0.60509 7.2,3.31391"
       style="fill:none;stroke:#77933c;stroke-width:2;stroke-linecap:square;stroke-linejoin:round;stroke-miterlimit:10;stroke-dasharray:none;stroke-opacity:1"
       id="path34"
       inkscape:connector-curvature="0" /></g></g><g
   id="g36"><g
     id="g38"
     clip-path="url(#clipPath40)"><path
       d="m 51.84,42.495709 7.2,104.500691 7.2,33.22469 7.2,12.08265 7.2,5.90446 7.2,14.52969 7.2,9.48935 7.2,2.02376 7.2,8.55669 7.2,1.69227 7.2,3.96788 7.2,6.19129 7.2,4.01609 7.2,1.47604 7.2,2.44264 7.2,3.68257 7.2,2.35535 7.2,1.87616 7.2,2.13625 7.2,1.45098 7.2,1.18902 7.2,2.72756 7.2,4.39925 7.2,2.13067 7.2,0.54073 7.2,2.85264 7.2,2.39466 7.2,-0.0334 7.2,1.00218 7.2,1.07769 7.2,2.43862 7.2,2.89191 7.2,0.85099 7.2,3.00467 7.2,-0.85565 7.2,2.37247 7.2,1.99883 7.2,1.34852 7.2,2.54972 7.2,1.21275"
       style="fill:none;stroke:#da8137;stroke-width:2;stroke-linecap:square;stroke-linejoin:round;stroke-miterlimit:10;stroke-dasharray:none;stroke-opacity:1"
       id="path44"
       inkscape:connector-curvature="0" /></g></g><g
   id="g46"><g
     id="g48"
     clip-path="url(#clipPath50)"><path
       d="m 51.84,117.80288 7.2,89.17324 7.2,26.01611 7.2,17.08349 7.2,13.69459 7.2,4.69087 7.2,6.79199 7.2,8.02515 7.2,5.26038 7.2,9.19587 7.2,4.67286 7.2,6.02043 7.2,1.82211 7.2,6.64336 7.2,3.55424 7.2,4.00824 7.2,4.55589 7.2,3.11099 7.2,3.11641 7.2,5.25407 7.2,-1.82804 7.2,3.09719 7.2,1.56973 7.2,1.04279 7.2,5.86866 7.2,2.86674 7.2,0.13729 7.2,1.20324 7.2,2.98926 7.2,4.34557 7.2,-0.49119 7.2,2.96627 7.2,2.93687 7.2,0.63461 7.2,1.92253 7.2,1.47997 7.2,1.3527 7.2,0.11417 7.2,2.0148 7.2,1.80447"
       style="fill:none;stroke:#a8423f;stroke-width:2;stroke-linecap:square;stroke-linejoin:round;stroke-miterlimit:10;stroke-dasharray:none;stroke-opacity:1"
       id="path54"
       inkscape:connector-curvature="0" /></g></g><path
   d="m 80.64,50.4 0,4"
   style="fill:none;stroke:#000000;stroke-width:0.5;stroke-linecap:butt;stroke-linejoin:round;stroke-miterlimit:10;stroke-dasharray:none;stroke-opacity:1"
   id="path56"
   inkscape:connector-curvature="0" /><path
   d="m 80.64,478.8 0,-4"
   style="fill:none;stroke:#000000;stroke-width:0.5;stroke-linecap:butt;stroke-linejoin:round;stroke-miterlimit:10;stroke-dasharray:none;stroke-opacity:1"
   id="path58"
   inkscape:connector-curvature="0" /><text
   transform="matrix(1,0,0,-1,76.654944,35.552783)"
   style="font-variant:normal;font-size:15.94022369px;font-family:'URW Palladio L';-inkscape-font-specification:URWPalladioL-Roma;writing-mode:lr-tb;fill:#000000;fill-opacity:1;fill-rule:nonzero;stroke:none"
   id="text60"><tspan
     x="0"
     y="0"
     id="tspan62">5</tspan></text>


<path
   d="m 116.64,50.4 0,4"
   style="fill:none;stroke:#000000;stroke-width:0.5;stroke-linecap:butt;stroke-linejoin:round;stroke-miterlimit:10;stroke-dasharray:none;stroke-opacity:1"
   id="path64"
   inkscape:connector-curvature="0" /><path
   d="m 116.64,478.8 0,-4"
   style="fill:none;stroke:#000000;stroke-width:0.5;stroke-linecap:butt;stroke-linejoin:round;stroke-miterlimit:10;stroke-dasharray:none;stroke-opacity:1"
   id="path66"
   inkscape:connector-curvature="0" /><text
   transform="matrix(1,0,0,-1,108.66989,35.552783)"
   style="font-variant:normal;font-size:15.94022369px;font-family:'URW Palladio L';-inkscape-font-specification:URWPalladioL-Roma;writing-mode:lr-tb;fill:#000000;fill-opacity:1;fill-rule:nonzero;stroke:none"
   id="text68"><tspan
     x="0 7.9701118"
     y="0"
     sodipodi:role="line"
     id="tspan70">10</tspan></text>


<path
   d="m 152.64,50.4 0,4"
   style="fill:none;stroke:#000000;stroke-width:0.5;stroke-linecap:butt;stroke-linejoin:round;stroke-miterlimit:10;stroke-dasharray:none;stroke-opacity:1"
   id="path72"
   inkscape:connector-curvature="0" /><path
   d="m 152.64,478.8 0,-4"
   style="fill:none;stroke:#000000;stroke-width:0.5;stroke-linecap:butt;stroke-linejoin:round;stroke-miterlimit:10;stroke-dasharray:none;stroke-opacity:1"
   id="path74"
   inkscape:connector-curvature="0" /><text
   transform="matrix(1,0,0,-1,144.66989,35.552783)"
   style="font-variant:normal;font-size:15.94022369px;font-family:'URW Palladio L';-inkscape-font-specification:URWPalladioL-Roma;writing-mode:lr-tb;fill:#000000;fill-opacity:1;fill-rule:nonzero;stroke:none"
   id="text76"><tspan
     x="0 7.9701118"
     y="0"
     sodipodi:role="line"
     id="tspan78">15</tspan></text>


<path
   d="m 188.64,50.4 0,4"
   style="fill:none;stroke:#000000;stroke-width:0.5;stroke-linecap:butt;stroke-linejoin:round;stroke-miterlimit:10;stroke-dasharray:none;stroke-opacity:1"
   id="path80"
   inkscape:connector-curvature="0" /><path
   d="m 188.64,478.8 0,-4"
   style="fill:none;stroke:#000000;stroke-width:0.5;stroke-linecap:butt;stroke-linejoin:round;stroke-miterlimit:10;stroke-dasharray:none;stroke-opacity:1"
   id="path82"
   inkscape:connector-curvature="0" /><text
   transform="matrix(1,0,0,-1,180.66989,35.552783)"
   style="font-variant:normal;font-size:15.94022369px;font-family:'URW Palladio L';-inkscape-font-specification:URWPalladioL-Roma;writing-mode:lr-tb;fill:#000000;fill-opacity:1;fill-rule:nonzero;stroke:none"
   id="text84"><tspan
     x="0 7.9701118"
     y="0"
     sodipodi:role="line"
     id="tspan86">20</tspan></text>


<path
   d="m 224.64,50.4 0,4"
   style="fill:none;stroke:#000000;stroke-width:0.5;stroke-linecap:butt;stroke-linejoin:round;stroke-miterlimit:10;stroke-dasharray:none;stroke-opacity:1"
   id="path88"
   inkscape:connector-curvature="0" /><path
   d="m 224.64,478.8 0,-4"
   style="fill:none;stroke:#000000;stroke-width:0.5;stroke-linecap:butt;stroke-linejoin:round;stroke-miterlimit:10;stroke-dasharray:none;stroke-opacity:1"
   id="path90"
   inkscape:connector-curvature="0" /><text
   transform="matrix(1,0,0,-1,216.66989,35.552783)"
   style="font-variant:normal;font-size:15.94022369px;font-family:'URW Palladio L';-inkscape-font-specification:URWPalladioL-Roma;writing-mode:lr-tb;fill:#000000;fill-opacity:1;fill-rule:nonzero;stroke:none"
   id="text92"><tspan
     x="0 7.9701118"
     y="0"
     sodipodi:role="line"
     id="tspan94">25</tspan></text>


<path
   d="m 260.64,50.4 0,4"
   style="fill:none;stroke:#000000;stroke-width:0.5;stroke-linecap:butt;stroke-linejoin:round;stroke-miterlimit:10;stroke-dasharray:none;stroke-opacity:1"
   id="path96"
   inkscape:connector-curvature="0" /><path
   d="m 260.64,478.8 0,-4"
   style="fill:none;stroke:#000000;stroke-width:0.5;stroke-linecap:butt;stroke-linejoin:round;stroke-miterlimit:10;stroke-dasharray:none;stroke-opacity:1"
   id="path98"
   inkscape:connector-curvature="0" /><text
   transform="matrix(1,0,0,-1,252.66989,35.552783)"
   style="font-variant:normal;font-size:15.94022369px;font-family:'URW Palladio L';-inkscape-font-specification:URWPalladioL-Roma;writing-mode:lr-tb;fill:#000000;fill-opacity:1;fill-rule:nonzero;stroke:none"
   id="text100"><tspan
     x="0 7.9701118"
     y="0"
     sodipodi:role="line"
     id="tspan102">30</tspan></text>


<path
   d="m 296.64,50.4 0,4"
   style="fill:none;stroke:#000000;stroke-width:0.5;stroke-linecap:butt;stroke-linejoin:round;stroke-miterlimit:10;stroke-dasharray:none;stroke-opacity:1"
   id="path104"
   inkscape:connector-curvature="0" /><path
   d="m 296.64,478.8 0,-4"
   style="fill:none;stroke:#000000;stroke-width:0.5;stroke-linecap:butt;stroke-linejoin:round;stroke-miterlimit:10;stroke-dasharray:none;stroke-opacity:1"
   id="path106"
   inkscape:connector-curvature="0" /><text
   transform="matrix(1,0,0,-1,288.66989,35.552783)"
   style="font-variant:normal;font-size:15.94022369px;font-family:'URW Palladio L';-inkscape-font-specification:URWPalladioL-Roma;writing-mode:lr-tb;fill:#000000;fill-opacity:1;fill-rule:nonzero;stroke:none"
   id="text108"><tspan
     x="0 7.9701118"
     y="0"
     sodipodi:role="line"
     id="tspan110">35</tspan></text>


<path
   d="m 332.64,50.4 0,4"
   style="fill:none;stroke:#000000;stroke-width:0.5;stroke-linecap:butt;stroke-linejoin:round;stroke-miterlimit:10;stroke-dasharray:none;stroke-opacity:1"
   id="path112"
   inkscape:connector-curvature="0" /><path
   d="m 332.64,478.8 0,-4"
   style="fill:none;stroke:#000000;stroke-width:0.5;stroke-linecap:butt;stroke-linejoin:round;stroke-miterlimit:10;stroke-dasharray:none;stroke-opacity:1"
   id="path114"
   inkscape:connector-curvature="0" /><text
   transform="matrix(1,0,0,-1,324.66989,35.552783)"
   style="font-variant:normal;font-size:15.94022369px;font-family:'URW Palladio L';-inkscape-font-specification:URWPalladioL-Roma;writing-mode:lr-tb;fill:#000000;fill-opacity:1;fill-rule:nonzero;stroke:none"
   id="text116"><tspan
     x="0 7.9701118"
     y="0"
     sodipodi:role="line"
     id="tspan118">40</tspan></text>


<g
   id="g124"><g
     id="g126"
     clip-path="url(#clipPath128)"><path
       d="m 51.84,50.4 280.8,0"
       style="fill:none;stroke:#000000;stroke-width:0.5;stroke-linecap:butt;stroke-linejoin:round;stroke-miterlimit:10;stroke-dasharray:1, 3;stroke-dashoffset:0;stroke-opacity:1"
       id="path132"
       inkscape:connector-curvature="0" /></g></g><path
   d="m 51.84,50.4 4,0"
   style="fill:none;stroke:#000000;stroke-width:0.5;stroke-linecap:butt;stroke-linejoin:round;stroke-miterlimit:10;stroke-dasharray:none;stroke-opacity:1"
   id="path134"
   inkscape:connector-curvature="0" /><path
   d="m 332.64,50.4 -4,0"
   style="fill:none;stroke:#000000;stroke-width:0.5;stroke-linecap:butt;stroke-linejoin:round;stroke-miterlimit:10;stroke-dasharray:none;stroke-opacity:1"
   id="path136"
   inkscape:connector-curvature="0" /><text
   transform="matrix(1,0,0,-1,39.869888,45.028199)"
   style="font-variant:normal;font-size:15.94022369px;font-family:'URW Palladio L';-inkscape-font-specification:URWPalladioL-Roma;writing-mode:lr-tb;fill:#000000;fill-opacity:1;fill-rule:nonzero;stroke:none"
   id="text138"><tspan
     x="0"
     y="0"
     id="tspan140">4</tspan></text>


<g
   id="g142"><g
     id="g144"
     clip-path="url(#clipPath146)"><path
       d="m 51.84,136.08 280.8,0"
       style="fill:none;stroke:#000000;stroke-width:0.5;stroke-linecap:butt;stroke-linejoin:round;stroke-miterlimit:10;stroke-dasharray:1, 3;stroke-dashoffset:0;stroke-opacity:1"
       id="path150"
       inkscape:connector-curvature="0" /></g></g><path
   d="m 51.84,136.08 4,0"
   style="fill:none;stroke:#000000;stroke-width:0.5;stroke-linecap:butt;stroke-linejoin:round;stroke-miterlimit:10;stroke-dasharray:none;stroke-opacity:1"
   id="path152"
   inkscape:connector-curvature="0" /><path
   d="m 332.64,136.08 -4,0"
   style="fill:none;stroke:#000000;stroke-width:0.5;stroke-linecap:butt;stroke-linejoin:round;stroke-miterlimit:10;stroke-dasharray:none;stroke-opacity:1"
   id="path154"
   inkscape:connector-curvature="0" /><text
   transform="matrix(1,0,0,-1,39.869888,130.7082)"
   style="font-variant:normal;font-size:15.94022369px;font-family:'URW Palladio L';-inkscape-font-specification:URWPalladioL-Roma;writing-mode:lr-tb;fill:#000000;fill-opacity:1;fill-rule:nonzero;stroke:none"
   id="text156"><tspan
     x="0"
     y="0"
     id="tspan158">6</tspan></text>


<g
   id="g160"><g
     id="g162"
     clip-path="url(#clipPath164)"><path
       d="m 51.84,221.76 280.8,0"
       style="fill:none;stroke:#000000;stroke-width:0.5;stroke-linecap:butt;stroke-linejoin:round;stroke-miterlimit:10;stroke-dasharray:1, 3;stroke-dashoffset:0;stroke-opacity:1"
       id="path168"
       inkscape:connector-curvature="0" /></g></g><path
   d="m 51.84,221.76 4,0"
   style="fill:none;stroke:#000000;stroke-width:0.5;stroke-linecap:butt;stroke-linejoin:round;stroke-miterlimit:10;stroke-dasharray:none;stroke-opacity:1"
   id="path170"
   inkscape:connector-curvature="0" /><path
   d="m 332.64,221.76 -4,0"
   style="fill:none;stroke:#000000;stroke-width:0.5;stroke-linecap:butt;stroke-linejoin:round;stroke-miterlimit:10;stroke-dasharray:none;stroke-opacity:1"
   id="path172"
   inkscape:connector-curvature="0" /><text
   transform="matrix(1,0,0,-1,39.869888,216.3882)"
   style="font-variant:normal;font-size:15.94022369px;font-family:'URW Palladio L';-inkscape-font-specification:URWPalladioL-Roma;writing-mode:lr-tb;fill:#000000;fill-opacity:1;fill-rule:nonzero;stroke:none"
   id="text174"><tspan
     x="0"
     y="0"
     id="tspan176">8</tspan></text>


<g
   id="g178"><g
     id="g180"
     clip-path="url(#clipPath182)"><path
       d="m 51.84,307.44 280.8,0"
       style="fill:none;stroke:#000000;stroke-width:0.5;stroke-linecap:butt;stroke-linejoin:round;stroke-miterlimit:10;stroke-dasharray:1, 3;stroke-dashoffset:0;stroke-opacity:1"
       id="path186"
       inkscape:connector-curvature="0" /></g></g><path
   d="m 51.84,307.44 4,0"
   style="fill:none;stroke:#000000;stroke-width:0.5;stroke-linecap:butt;stroke-linejoin:round;stroke-miterlimit:10;stroke-dasharray:none;stroke-opacity:1"
   id="path188"
   inkscape:connector-curvature="0" /><path
   d="m 332.64,307.44 -4,0"
   style="fill:none;stroke:#000000;stroke-width:0.5;stroke-linecap:butt;stroke-linejoin:round;stroke-miterlimit:10;stroke-dasharray:none;stroke-opacity:1"
   id="path190"
   inkscape:connector-curvature="0" /><text
   transform="matrix(1,0,0,-1,31.899776,302.0682)"
   style="font-variant:normal;font-size:15.94022369px;font-family:'URW Palladio L';-inkscape-font-specification:URWPalladioL-Roma;writing-mode:lr-tb;fill:#000000;fill-opacity:1;fill-rule:nonzero;stroke:none"
   id="text192"><tspan
     x="0 7.9701118"
     y="0"
     sodipodi:role="line"
     id="tspan194">10</tspan></text>


<g
   id="g196"><g
     id="g198"
     clip-path="url(#clipPath200)"><path
       d="m 51.84,393.12 280.8,0"
       style="fill:none;stroke:#000000;stroke-width:0.5;stroke-linecap:butt;stroke-linejoin:round;stroke-miterlimit:10;stroke-dasharray:1, 3;stroke-dashoffset:0;stroke-opacity:1"
       id="path204"
       inkscape:connector-curvature="0" /></g></g><path
   d="m 51.84,393.12 4,0"
   style="fill:none;stroke:#000000;stroke-width:0.5;stroke-linecap:butt;stroke-linejoin:round;stroke-miterlimit:10;stroke-dasharray:none;stroke-opacity:1"
   id="path206"
   inkscape:connector-curvature="0" /><path
   d="m 332.64,393.12 -4,0"
   style="fill:none;stroke:#000000;stroke-width:0.5;stroke-linecap:butt;stroke-linejoin:round;stroke-miterlimit:10;stroke-dasharray:none;stroke-opacity:1"
   id="path208"
   inkscape:connector-curvature="0" /><text
   transform="matrix(1,0,0,-1,31.899776,387.7482)"
   style="font-variant:normal;font-size:15.94022369px;font-family:'URW Palladio L';-inkscape-font-specification:URWPalladioL-Roma;writing-mode:lr-tb;fill:#000000;fill-opacity:1;fill-rule:nonzero;stroke:none"
   id="text210"><tspan
     x="0 7.9701118"
     y="0"
     sodipodi:role="line"
     id="tspan212">12</tspan></text>


<g
   id="g214"><g
     id="g216"
     clip-path="url(#clipPath218)"><path
       d="m 51.84,478.8 280.8,0"
       style="fill:none;stroke:#000000;stroke-width:0.5;stroke-linecap:butt;stroke-linejoin:round;stroke-miterlimit:10;stroke-dasharray:1, 3;stroke-dashoffset:0;stroke-opacity:1"
       id="path222"
       inkscape:connector-curvature="0" /></g></g><path
   d="m 51.84,478.8 4,0"
   style="fill:none;stroke:#000000;stroke-width:0.5;stroke-linecap:butt;stroke-linejoin:round;stroke-miterlimit:10;stroke-dasharray:none;stroke-opacity:1"
   id="path224"
   inkscape:connector-curvature="0" /><path
   d="m 332.64,478.8 -4,0"
   style="fill:none;stroke:#000000;stroke-width:0.5;stroke-linecap:butt;stroke-linejoin:round;stroke-miterlimit:10;stroke-dasharray:none;stroke-opacity:1"
   id="path226"
   inkscape:connector-curvature="0" /><text
   transform="matrix(1,0,0,-1,31.899776,473.4282)"
   style="font-variant:normal;font-size:15.94022369px;font-family:'URW Palladio L';-inkscape-font-specification:URWPalladioL-Roma;writing-mode:lr-tb;fill:#000000;fill-opacity:1;fill-rule:nonzero;stroke:none"
   id="text228"><tspan
     x="0 7.9701118"
     y="0"
     sodipodi:role="line"
     id="tspan230">14</tspan></text>


<path
   d="m 51.84,478.8 280.8,0"
   style="fill:none;stroke:#000000;stroke-width:1;stroke-linecap:square;stroke-linejoin:round;stroke-miterlimit:10;stroke-dasharray:none;stroke-opacity:1"
   id="path252"
   inkscape:connector-curvature="0" /><path
   d="m 332.64,50.4 0,428.4"
   style="fill:none;stroke:#000000;stroke-width:1;stroke-linecap:square;stroke-linejoin:round;stroke-miterlimit:10;stroke-dasharray:none;stroke-opacity:1"
   id="path254"
   inkscape:connector-curvature="0" /><path
   d="m 51.84,50.4 280.8,0"
   style="fill:none;stroke:#000000;stroke-width:1;stroke-linecap:square;stroke-linejoin:round;stroke-miterlimit:10;stroke-dasharray:none;stroke-opacity:1"
   id="path256"
   inkscape:connector-curvature="0" /><path
   d="m 51.84,50.4 0,428.4"
   style="fill:none;stroke:#000000;stroke-width:1;stroke-linecap:square;stroke-linejoin:round;stroke-miterlimit:10;stroke-dasharray:none;stroke-opacity:1"
   id="path258"
   inkscape:connector-curvature="0" /><path
   d="m 347.5856,468.63309 18.6592,0"
   style="fill:none;stroke:#416fa6;stroke-width:2;stroke-linecap:square;stroke-linejoin:round;stroke-miterlimit:10;stroke-dasharray:none;stroke-opacity:1"
   id="path262"
   inkscape:connector-curvature="0" /><text
   transform="scale(1,-1)"
   style="font-variant:normal;font-size:13.27820969px;font-family:'URW Palladio L';-inkscape-font-specification:URWPalladioL-Roma;writing-mode:lr-tb;fill:#000000;fill-opacity:1;fill-rule:nonzero;stroke:none"
   id="text264"
   x="377.7056"
   y="-463.96829"><tspan
     x="377.7056 387.96964 392.37802"
     y="-463.96829"
     sodipodi:role="line"
     id="tspan266">DJF</tspan></text>


<path
   d="m 347.5856,448.72421 18.6592,0"
   style="fill:none;stroke:#77933c;stroke-width:2;stroke-linecap:square;stroke-linejoin:round;stroke-miterlimit:10;stroke-dasharray:none;stroke-opacity:1"
   id="path268"
   inkscape:connector-curvature="0" /><text
   transform="scale(1,-1)"
   style="font-variant:normal;font-size:13.27820969px;font-family:'URW Palladio L';-inkscape-font-specification:URWPalladioL-Roma;writing-mode:lr-tb;fill:#000000;fill-opacity:1;fill-rule:nonzero;stroke:none"
   id="text270"
   x="377.7056"
   y="-444.05942"><tspan
     x="377.7056 390.25351 400.57068"
     y="-444.05942"
     sodipodi:role="line"
     id="tspan272">MAM</tspan></text>


<path
   d="m 347.5856,428.81532 18.6592,0"
   style="fill:none;stroke:#da8137;stroke-width:2;stroke-linecap:square;stroke-linejoin:round;stroke-miterlimit:10;stroke-dasharray:none;stroke-opacity:1"
   id="path274"
   inkscape:connector-curvature="0" /><text
   transform="scale(1,-1)"
   style="font-variant:normal;font-size:13.27820969px;font-family:'URW Palladio L';-inkscape-font-specification:URWPalladioL-Roma;writing-mode:lr-tb;fill:#000000;fill-opacity:1;fill-rule:nonzero;stroke:none"
   id="text276"
   x="377.7056"
   y="-424.15051"><tspan
     x="377.7056 382.11395 386.52234"
     y="-424.15051"
     sodipodi:role="line"
     id="tspan278">JJA</tspan></text>


<path
   d="m 347.5856,408.90643 18.6592,0"
   style="fill:none;stroke:#a8423f;stroke-width:2;stroke-linecap:square;stroke-linejoin:round;stroke-miterlimit:10;stroke-dasharray:none;stroke-opacity:1"
   id="path280"
   inkscape:connector-curvature="0" /><text
   transform="scale(1,-1)"
   style="font-variant:normal;font-size:13.27820969px;font-family:'URW Palladio L';-inkscape-font-specification:URWPalladioL-Roma;writing-mode:lr-tb;fill:#000000;fill-opacity:1;fill-rule:nonzero;stroke:none"
   id="text282"
   x="377.7056"
   y="-404.24164"><tspan
     x="377.7056 384.66336 395.08676"
     y="-404.24164"
     sodipodi:role="line"
     id="tspan284">SON</tspan></text>


<text
   xml:space="preserve"
   style="font-style:normal;font-variant:normal;font-weight:normal;font-stretch:normal;font-size:16px;line-height:125%;font-family:'Palatino Linotype';-inkscape-font-specification:'Palatino Linotype';letter-spacing:0px;word-spacing:0px;fill:#000000;fill-opacity:1;stroke:none;stroke-width:1px;stroke-linecap:butt;stroke-linejoin:miter;stroke-opacity:1"
   x="135.67494"
   y="-18.789152"
   id="text4412"
   sodipodi:linespacing="125%"
   transform="scale(1,-1)"><tspan
     sodipodi:role="line"
     id="tspan4414"
     x="135.67494"
     y="-18.789152">Analogue rank</tspan></text>


<text
   xml:space="preserve"
   style="font-style:normal;font-variant:normal;font-weight:normal;font-stretch:normal;font-size:16px;line-height:125%;font-family:'Palatino Linotype';-inkscape-font-specification:'Palatino Linotype';letter-spacing:0px;word-spacing:0px;fill:#000000;fill-opacity:1;stroke:none;stroke-width:1px;stroke-linecap:butt;stroke-linejoin:miter;stroke-opacity:1"
   x="158.31825"
   y="23.510078"
   id="text4416"
   sodipodi:linespacing="125%"
   transform="matrix(0,1,1,0,0,0)"><tspan
     sodipodi:role="line"
     id="tspan4418"
     x="158.31825"
     y="23.510078">Reduction of the <tspan
   style="font-style:italic"
   id="tspan4262">S</tspan><tspan
   style="font-size:52%;baseline-shift:sub;font-style:normal"
   id="tspan4260">TW</tspan> criteria [%]</tspan></text>


</g></svg>