<?xml version="1.0" encoding="UTF-8" standalone="no"?>
<!-- Created with Inkscape (http://www.inkscape.org/) -->

<svg
   xmlns:dc="http://purl.org/dc/elements/1.1/"
   xmlns:cc="http://creativecommons.org/ns#"
   xmlns:rdf="http://www.w3.org/1999/02/22-rdf-syntax-ns#"
   xmlns:svg="http://www.w3.org/2000/svg"
   xmlns="http://www.w3.org/2000/svg"
   xmlns:sodipodi="http://sodipodi.sourceforge.net/DTD/sodipodi-0.dtd"
   xmlns:inkscape="http://www.inkscape.org/namespaces/inkscape"
   id="svg2"
   version="1.1"
   inkscape:version="0.91 r13725"
   xml:space="preserve"
   width="630"
   height="495"
   viewBox="0 0 630 495"
   sodipodi:docname="changes_S1_gain.svg"><metadata
     id="metadata8"><rdf:RDF><cc:Work
         rdf:about=""><dc:format>image/svg+xml</dc:format><dc:type
           rdf:resource="http://purl.org/dc/dcmitype/StillImage" /><dc:title /></cc:Work></rdf:RDF></metadata><defs
     id="defs6"><clipPath
       clipPathUnits="userSpaceOnUse"
       id="clipPath20"><path
         d="m 50.4,39.6 327.6,0 0,336.6 -327.6,0 0,-336.6 z"
         id="path22"
         inkscape:connector-curvature="0" /></clipPath><clipPath
       clipPathUnits="userSpaceOnUse"
       id="clipPath30"><path
         d="m 50.4,39.6 327.6,0 0,336.6 -327.6,0 0,-336.6 z"
         id="path32"
         inkscape:connector-curvature="0" /></clipPath><clipPath
       clipPathUnits="userSpaceOnUse"
       id="clipPath40"><path
         d="m 50.4,39.6 327.6,0 0,336.6 -327.6,0 0,-336.6 z"
         id="path42"
         inkscape:connector-curvature="0" /></clipPath><clipPath
       clipPathUnits="userSpaceOnUse"
       id="clipPath50"><path
         d="m 50.4,39.6 327.6,0 0,336.6 -327.6,0 0,-336.6 z"
         id="path52"
         inkscape:connector-curvature="0" /></clipPath><clipPath
       clipPathUnits="userSpaceOnUse"
       id="clipPath60"><path
         d="m 50.4,39.6 327.6,0 0,336.6 -327.6,0 0,-336.6 z"
         id="path62"
         inkscape:connector-curvature="0" /></clipPath><clipPath
       clipPathUnits="userSpaceOnUse"
       id="clipPath70"><path
         d="m 50.4,39.6 327.6,0 0,336.6 -327.6,0 0,-336.6 z"
         id="path72"
         inkscape:connector-curvature="0" /></clipPath><clipPath
       clipPathUnits="userSpaceOnUse"
       id="clipPath80"><path
         d="m 50.4,39.6 327.6,0 0,336.6 -327.6,0 0,-336.6 z"
         id="path82"
         inkscape:connector-curvature="0" /></clipPath><clipPath
       clipPathUnits="userSpaceOnUse"
       id="clipPath158"><path
         d="m 50.4,39.6 327.6,0 0,336.6 -327.6,0 0,-336.6 z"
         id="path160"
         inkscape:connector-curvature="0" /></clipPath><clipPath
       clipPathUnits="userSpaceOnUse"
       id="clipPath176"><path
         d="m 50.4,39.6 327.6,0 0,336.6 -327.6,0 0,-336.6 z"
         id="path178"
         inkscape:connector-curvature="0" /></clipPath><clipPath
       clipPathUnits="userSpaceOnUse"
       id="clipPath194"><path
         d="m 50.4,39.6 327.6,0 0,336.6 -327.6,0 0,-336.6 z"
         id="path196"
         inkscape:connector-curvature="0" /></clipPath><clipPath
       clipPathUnits="userSpaceOnUse"
       id="clipPath212"><path
         d="m 50.4,39.6 327.6,0 0,336.6 -327.6,0 0,-336.6 z"
         id="path214"
         inkscape:connector-curvature="0" /></clipPath><clipPath
       clipPathUnits="userSpaceOnUse"
       id="clipPath230"><path
         d="m 50.4,39.6 327.6,0 0,336.6 -327.6,0 0,-336.6 z"
         id="path232"
         inkscape:connector-curvature="0" /></clipPath><clipPath
       clipPathUnits="userSpaceOnUse"
       id="clipPath248"><path
         d="m 50.4,39.6 327.6,0 0,336.6 -327.6,0 0,-336.6 z"
         id="path250"
         inkscape:connector-curvature="0" /></clipPath></defs><sodipodi:namedview
     pagecolor="#ffffff"
     bordercolor="#666666"
     borderopacity="1"
     objecttolerance="10"
     gridtolerance="10"
     guidetolerance="10"
     inkscape:pageopacity="0"
     inkscape:pageshadow="2"
     inkscape:window-width="1307"
     inkscape:window-height="774"
     id="namedview4"
     showgrid="false"
     inkscape:zoom="0.47676767"
     inkscape:cx="-60.056843"
     inkscape:cy="240.03055"
     inkscape:window-x="16"
     inkscape:window-y="106"
     inkscape:window-maximized="0"
     inkscape:current-layer="g10" /><g
     id="g10"
     inkscape:groupmode="layer"
     inkscape:label="changes_S1_gain"
     transform="matrix(1.25,0,0,-1.25,0,495)"><path
   d="m 50.4,39.6 327.6,0 0,336.6 -327.6,0 0,-336.6 z"
   style="fill:#ffffff;fill-opacity:1;fill-rule:nonzero;stroke:none"
   id="path14"
   inkscape:connector-curvature="0" /><g
   id="g16"><g
     id="g18"
     clip-path="url(#clipPath20)"><path
       d="m 50.4,39.6 8.4,0 8.4,0 8.4,0 8.4,0 8.4,0 8.4,0 8.4,1.574739 8.4,-0.230386 8.4,2.214141 8.4,0.155957 8.4,-0.532373 8.4,-2.39875 8.4,6.088198 8.4,3.769529 8.4,0.473348 8.4,0.377819 8.4,-2.23057 8.4,4.464296 8.4,-0.675241 8.4,-0.53412 8.4,-0.593858 8.4,1.007423 8.4,0.950817 8.4,1.533229 8.4,-1.266275 8.4,0.638829 8.4,0.832666 8.4,-2.281858 8.4,2.575645 8.4,0.123009 8.4,0.256466 8.4,-1.161186 8.4,0.993907 8.4,-0.648473 8.4,1.357011 8.4,1.130136 8.4,-0.16906 8.4,-0.36357 8.4,-0.0319"
       style="fill:none;stroke:#dcdcdc;stroke-width:2;stroke-linecap:square;stroke-linejoin:round;stroke-miterlimit:10;stroke-dasharray:none;stroke-opacity:1"
       id="path24"
       inkscape:connector-curvature="0" /></g></g><g
   id="g26"><g
     id="g28"
     clip-path="url(#clipPath30)"><path
       d="m 50.4,155.11017 8.4,-7.02338 8.4,-4.08485 8.4,-2.40404 8.4,-1.76411 8.4,0.0916 8.4,-1.06003 8.4,0.21728 8.4,-0.13893 8.4,-0.14599 8.4,-0.15745 8.4,-0.28 8.4,0.48482 8.4,-0.31104 8.4,0.79564 8.4,0.26855 8.4,0.28843 8.4,0.14891 8.4,0.049 8.4,0.19041 8.4,0.12155 8.4,0.12623 8.4,0.2031 8.4,0.67029 8.4,0.14233 8.4,-0.27726 8.4,0.4977 8.4,0.31496 8.4,0.22256 8.4,0.25113 8.4,0.34104 8.4,-0.0746 8.4,0.25157 8.4,0.33079 8.4,0.44226 8.4,0.20973 8.4,0.15959 8.4,0.64395 8.4,-0.24415 8.4,0.12545"
       style="fill:none;stroke:#646464;stroke-width:2;stroke-linecap:butt;stroke-linejoin:round;stroke-miterlimit:10;stroke-dasharray:1, 3;stroke-dashoffset:0;stroke-opacity:1"
       id="path34"
       inkscape:connector-curvature="0" /></g></g><g
   id="g36"><g
     id="g38"
     clip-path="url(#clipPath40)"><path
       d="m 50.4,115.25715 8.4,2.82579 8.4,0.93721 8.4,-0.50889 8.4,0.49845 8.4,0.5973 8.4,0.45449 8.4,0.0831 8.4,0.28047 8.4,0.79234 8.4,0.35016 8.4,0.47157 8.4,0.11638 8.4,0.46312 8.4,0.11307 8.4,0.43187 8.4,0.25765 8.4,0.36919 8.4,0.18825 8.4,0.36443 8.4,0.6487 8.4,0.48753 8.4,0.27971 8.4,0.30896 8.4,-0.0282 8.4,0.4814 8.4,0.46294 8.4,0.0607 8.4,0.26771 8.4,0.52146 8.4,0.13008 8.4,0.19332 8.4,0.27947 8.4,0.26934 8.4,0.18834 8.4,0.26752 8.4,0.15918 8.4,0.37458 8.4,0.29953 8.4,0.15625"
       style="fill:none;stroke:#646464;stroke-width:2;stroke-linecap:butt;stroke-linejoin:round;stroke-miterlimit:10;stroke-dasharray:6, 6;stroke-dashoffset:0;stroke-opacity:1"
       id="path44"
       inkscape:connector-curvature="0" /></g></g><g
   id="g46"><g
     id="g48"
     clip-path="url(#clipPath50)"><path
       d="m 50.4,73.343295 8.4,14.22459 8.4,5.158001 8.4,2.795427 8.4,1.83022 8.4,1.501714 8.4,1.211303 8.4,1.2807 8.4,0.65027 8.4,0.64247 8.4,1.06062 8.4,0.74846 8.4,0.65669 8.4,0.54108 8.4,0.6457 8.4,0.42612 8.4,0.32955 8.4,0.61683 8.4,0.31463 8.4,0.51629 8.4,0.28529 8.4,0.30284 8.4,0.26441 8.4,0.37843 8.4,0.32396 8.4,0.48287 8.4,0.37727 8.4,0.15997 8.4,0.45055 8.4,0.18906 8.4,0.38553 8.4,0.33748 8.4,0.33989 8.4,0.3566 8.4,0.25453 8.4,0.16475 8.4,0.16725 8.4,0.18937 8.4,0.21409 8.4,0.22092"
       style="fill:none;stroke:#000000;stroke-width:2;stroke-linecap:square;stroke-linejoin:round;stroke-miterlimit:10;stroke-dasharray:none;stroke-opacity:1"
       id="path54"
       inkscape:connector-curvature="0" /></g></g><g
   id="g56"><g
     id="g58"
     clip-path="url(#clipPath60)"><path
       d="m 50.4,39.6 8.4,22.341808 8.4,9.832896 8.4,4.014684 8.4,2.804415 8.4,2.539877 8.4,1.492167 8.4,1.374737 8.4,1.539183 8.4,1.203443 8.4,0.783051 8.4,1.111979 8.4,0.895675 8.4,0.367314 8.4,0.870862 8.4,0.635517 8.4,0.538539 8.4,0.67733 8.4,0.425208 8.4,0.381199 8.4,0.46854 8.4,0.511073 8.4,0.406946 8.4,0.256328 8.4,0.258822 8.4,0.414048 8.4,0.408023 8.4,0.392432 8.4,0.251799 8.4,0.28906 8.4,0.397231 8.4,0.237939 8.4,0.193119 8.4,0.01211 8.4,0.403152 8.4,0.394914 8.4,0.420944 8.4,0.333989 8.4,0.150973 8.4,0.314137"
       style="fill:none;stroke:#646464;stroke-width:2;stroke-linecap:butt;stroke-linejoin:round;stroke-miterlimit:10;stroke-dasharray:6, 6;stroke-dashoffset:0;stroke-opacity:1"
       id="path64"
       inkscape:connector-curvature="0" /></g></g><g
   id="g66"><g
     id="g68"
     clip-path="url(#clipPath70)"><path
       d="m 50.4,39.6 8.4,2.193556 8.4,12.363996 8.4,6.68104 8.4,3.397362 8.4,2.458567 8.4,2.550565 8.4,1.718491 8.4,1.613466 8.4,1.120662 8.4,1.309282 8.4,1.172554 8.4,1.064072 8.4,0.751658 8.4,0.5655 8.4,0.70976 8.4,0.588335 8.4,0.546717 8.4,0.513832 8.4,0.642025 8.4,0.586513 8.4,0.448274 8.4,0.529005 8.4,0.351048 8.4,0.456596 8.4,0.07546 8.4,0.429665 8.4,0.396934 8.4,0.39691 8.4,0.0045 8.4,0.182627 8.4,0.21469 8.4,0.315705 8.4,0.345943 8.4,0.06277 8.4,0.485994 8.4,0.320174 8.4,0.211409 8.4,0.277098 8.4,0.356665"
       style="fill:none;stroke:#646464;stroke-width:2;stroke-linecap:butt;stroke-linejoin:round;stroke-miterlimit:10;stroke-dasharray:1, 3;stroke-dashoffset:0;stroke-opacity:1"
       id="path74"
       inkscape:connector-curvature="0" /></g></g><g
   id="g76"><g
     id="g78"
     clip-path="url(#clipPath80)"><path
       d="m 50.4,375.30729 8.4,-72.90957 8.4,-4.00994 8.4,-7.52422 8.4,-22.20109 8.4,-14.87555 8.4,-14.30938 8.4,0.74274 8.4,15.32216 8.4,-17.30352 8.4,6.71023 8.4,-1.93487 8.4,1.27057 8.4,-21.84539 8.4,4.19854 8.4,-5.71699 8.4,-7.51597 8.4,0.63012 8.4,-0.85204 8.4,4.26792 8.4,2.19837 8.4,-0.12754 8.4,-3.66491 8.4,-1.92716 8.4,-3.19386 8.4,-0.12089 8.4,0.7561 8.4,0.50855 8.4,3.70568 8.4,1.46283 8.4,1.96463 8.4,-1.56716 8.4,-3.99927 8.4,-3.15861 8.4,0.35633 8.4,-0.0408 8.4,-2.18467 8.4,3.63788 8.4,-2.9561 8.4,-3.92289"
       style="fill:none;stroke:#dcdcdc;stroke-width:2;stroke-linecap:square;stroke-linejoin:round;stroke-miterlimit:10;stroke-dasharray:none;stroke-opacity:1"
       id="path84"
       inkscape:connector-curvature="0" /></g></g><path
   d="m 84,39.6 0,4"
   style="fill:none;stroke:#000000;stroke-width:0.5;stroke-linecap:butt;stroke-linejoin:round;stroke-miterlimit:10;stroke-dasharray:none;stroke-opacity:1"
   id="path86"
   inkscape:connector-curvature="0" /><path
   d="m 84,376.2 0,-4"
   style="fill:none;stroke:#000000;stroke-width:0.5;stroke-linecap:butt;stroke-linejoin:round;stroke-miterlimit:10;stroke-dasharray:none;stroke-opacity:1"
   id="path88"
   inkscape:connector-curvature="0" /><text
   transform="matrix(1,0,0,-1,80.014944,24.752783)"
   style="font-variant:normal;font-size:15.94022369px;font-family:'URW Palladio L';-inkscape-font-specification:URWPalladioL-Roma;writing-mode:lr-tb;fill:#000000;fill-opacity:1;fill-rule:nonzero;stroke:none"
   id="text90"><tspan
     x="0"
     y="0"
     id="tspan92">5</tspan></text>


<path
   d="m 126,39.6 0,4"
   style="fill:none;stroke:#000000;stroke-width:0.5;stroke-linecap:butt;stroke-linejoin:round;stroke-miterlimit:10;stroke-dasharray:none;stroke-opacity:1"
   id="path94"
   inkscape:connector-curvature="0" /><path
   d="m 126,376.2 0,-4"
   style="fill:none;stroke:#000000;stroke-width:0.5;stroke-linecap:butt;stroke-linejoin:round;stroke-miterlimit:10;stroke-dasharray:none;stroke-opacity:1"
   id="path96"
   inkscape:connector-curvature="0" /><text
   transform="matrix(1,0,0,-1,118.02989,24.752783)"
   style="font-variant:normal;font-size:15.94022369px;font-family:'URW Palladio L';-inkscape-font-specification:URWPalladioL-Roma;writing-mode:lr-tb;fill:#000000;fill-opacity:1;fill-rule:nonzero;stroke:none"
   id="text98"><tspan
     x="0 7.9701118"
     y="0"
     sodipodi:role="line"
     id="tspan100">10</tspan></text>


<path
   d="m 168,39.6 0,4"
   style="fill:none;stroke:#000000;stroke-width:0.5;stroke-linecap:butt;stroke-linejoin:round;stroke-miterlimit:10;stroke-dasharray:none;stroke-opacity:1"
   id="path102"
   inkscape:connector-curvature="0" /><path
   d="m 168,376.2 0,-4"
   style="fill:none;stroke:#000000;stroke-width:0.5;stroke-linecap:butt;stroke-linejoin:round;stroke-miterlimit:10;stroke-dasharray:none;stroke-opacity:1"
   id="path104"
   inkscape:connector-curvature="0" /><text
   transform="matrix(1,0,0,-1,160.02989,24.752783)"
   style="font-variant:normal;font-size:15.94022369px;font-family:'URW Palladio L';-inkscape-font-specification:URWPalladioL-Roma;writing-mode:lr-tb;fill:#000000;fill-opacity:1;fill-rule:nonzero;stroke:none"
   id="text106"><tspan
     x="0 7.9701118"
     y="0"
     sodipodi:role="line"
     id="tspan108">15</tspan></text>


<path
   d="m 210,39.6 0,4"
   style="fill:none;stroke:#000000;stroke-width:0.5;stroke-linecap:butt;stroke-linejoin:round;stroke-miterlimit:10;stroke-dasharray:none;stroke-opacity:1"
   id="path110"
   inkscape:connector-curvature="0" /><path
   d="m 210,376.2 0,-4"
   style="fill:none;stroke:#000000;stroke-width:0.5;stroke-linecap:butt;stroke-linejoin:round;stroke-miterlimit:10;stroke-dasharray:none;stroke-opacity:1"
   id="path112"
   inkscape:connector-curvature="0" /><text
   transform="matrix(1,0,0,-1,202.02989,24.752783)"
   style="font-variant:normal;font-size:15.94022369px;font-family:'URW Palladio L';-inkscape-font-specification:URWPalladioL-Roma;writing-mode:lr-tb;fill:#000000;fill-opacity:1;fill-rule:nonzero;stroke:none"
   id="text114"><tspan
     x="0 7.9701118"
     y="0"
     sodipodi:role="line"
     id="tspan116">20</tspan></text>


<path
   d="m 252,39.6 0,4"
   style="fill:none;stroke:#000000;stroke-width:0.5;stroke-linecap:butt;stroke-linejoin:round;stroke-miterlimit:10;stroke-dasharray:none;stroke-opacity:1"
   id="path118"
   inkscape:connector-curvature="0" /><path
   d="m 252,376.2 0,-4"
   style="fill:none;stroke:#000000;stroke-width:0.5;stroke-linecap:butt;stroke-linejoin:round;stroke-miterlimit:10;stroke-dasharray:none;stroke-opacity:1"
   id="path120"
   inkscape:connector-curvature="0" /><text
   transform="matrix(1,0,0,-1,244.02989,24.752783)"
   style="font-variant:normal;font-size:15.94022369px;font-family:'URW Palladio L';-inkscape-font-specification:URWPalladioL-Roma;writing-mode:lr-tb;fill:#000000;fill-opacity:1;fill-rule:nonzero;stroke:none"
   id="text122"><tspan
     x="0 7.9701118"
     y="0"
     sodipodi:role="line"
     id="tspan124">25</tspan></text>


<path
   d="m 294,39.6 0,4"
   style="fill:none;stroke:#000000;stroke-width:0.5;stroke-linecap:butt;stroke-linejoin:round;stroke-miterlimit:10;stroke-dasharray:none;stroke-opacity:1"
   id="path126"
   inkscape:connector-curvature="0" /><path
   d="m 294,376.2 0,-4"
   style="fill:none;stroke:#000000;stroke-width:0.5;stroke-linecap:butt;stroke-linejoin:round;stroke-miterlimit:10;stroke-dasharray:none;stroke-opacity:1"
   id="path128"
   inkscape:connector-curvature="0" /><text
   transform="matrix(1,0,0,-1,286.02989,24.752783)"
   style="font-variant:normal;font-size:15.94022369px;font-family:'URW Palladio L';-inkscape-font-specification:URWPalladioL-Roma;writing-mode:lr-tb;fill:#000000;fill-opacity:1;fill-rule:nonzero;stroke:none"
   id="text130"><tspan
     x="0 7.9701118"
     y="0"
     sodipodi:role="line"
     id="tspan132">30</tspan></text>


<path
   d="m 336,39.6 0,4"
   style="fill:none;stroke:#000000;stroke-width:0.5;stroke-linecap:butt;stroke-linejoin:round;stroke-miterlimit:10;stroke-dasharray:none;stroke-opacity:1"
   id="path134"
   inkscape:connector-curvature="0" /><path
   d="m 336,376.2 0,-4"
   style="fill:none;stroke:#000000;stroke-width:0.5;stroke-linecap:butt;stroke-linejoin:round;stroke-miterlimit:10;stroke-dasharray:none;stroke-opacity:1"
   id="path136"
   inkscape:connector-curvature="0" /><text
   transform="matrix(1,0,0,-1,328.02989,24.752783)"
   style="font-variant:normal;font-size:15.94022369px;font-family:'URW Palladio L';-inkscape-font-specification:URWPalladioL-Roma;writing-mode:lr-tb;fill:#000000;fill-opacity:1;fill-rule:nonzero;stroke:none"
   id="text138"><tspan
     x="0 7.9701118"
     y="0"
     sodipodi:role="line"
     id="tspan140">35</tspan></text>


<path
   d="m 378,39.6 0,4"
   style="fill:none;stroke:#000000;stroke-width:0.5;stroke-linecap:butt;stroke-linejoin:round;stroke-miterlimit:10;stroke-dasharray:none;stroke-opacity:1"
   id="path142"
   inkscape:connector-curvature="0" /><path
   d="m 378,376.2 0,-4"
   style="fill:none;stroke:#000000;stroke-width:0.5;stroke-linecap:butt;stroke-linejoin:round;stroke-miterlimit:10;stroke-dasharray:none;stroke-opacity:1"
   id="path144"
   inkscape:connector-curvature="0" /><text
   transform="matrix(1,0,0,-1,370.02989,24.752783)"
   style="font-variant:normal;font-size:15.94022369px;font-family:'URW Palladio L';-inkscape-font-specification:URWPalladioL-Roma;writing-mode:lr-tb;fill:#000000;fill-opacity:1;fill-rule:nonzero;stroke:none"
   id="text146"><tspan
     x="0 7.9701118"
     y="0"
     sodipodi:role="line"
     id="tspan148">40</tspan></text>


<g
   id="g154"><g
     id="g156"
     clip-path="url(#clipPath158)"><path
       d="m 50.4,39.6 327.6,0"
       style="fill:none;stroke:#000000;stroke-width:0.5;stroke-linecap:butt;stroke-linejoin:round;stroke-miterlimit:10;stroke-dasharray:1, 3;stroke-dashoffset:0;stroke-opacity:1"
       id="path162"
       inkscape:connector-curvature="0" /></g></g><path
   d="m 50.4,39.6 4,0"
   style="fill:none;stroke:#000000;stroke-width:0.5;stroke-linecap:butt;stroke-linejoin:round;stroke-miterlimit:10;stroke-dasharray:none;stroke-opacity:1"
   id="path164"
   inkscape:connector-curvature="0" /><path
   d="m 378,39.6 -4,0"
   style="fill:none;stroke:#000000;stroke-width:0.5;stroke-linecap:butt;stroke-linejoin:round;stroke-miterlimit:10;stroke-dasharray:none;stroke-opacity:1"
   id="path166"
   inkscape:connector-curvature="0" /><text
   transform="matrix(1,0,0,-1,38.429888,34.228199)"
   style="font-variant:normal;font-size:15.94022369px;font-family:'URW Palladio L';-inkscape-font-specification:URWPalladioL-Roma;writing-mode:lr-tb;fill:#000000;fill-opacity:1;fill-rule:nonzero;stroke:none"
   id="text168"><tspan
     x="0"
     y="0"
     id="tspan170">0</tspan></text>


<g
   id="g172"><g
     id="g174"
     clip-path="url(#clipPath176)"><path
       d="m 50.4,106.92 327.6,0"
       style="fill:none;stroke:#000000;stroke-width:0.5;stroke-linecap:butt;stroke-linejoin:round;stroke-miterlimit:10;stroke-dasharray:1, 3;stroke-dashoffset:0;stroke-opacity:1"
       id="path180"
       inkscape:connector-curvature="0" /></g></g><path
   d="m 50.4,106.92 4,0"
   style="fill:none;stroke:#000000;stroke-width:0.5;stroke-linecap:butt;stroke-linejoin:round;stroke-miterlimit:10;stroke-dasharray:none;stroke-opacity:1"
   id="path182"
   inkscape:connector-curvature="0" /><path
   d="m 378,106.92 -4,0"
   style="fill:none;stroke:#000000;stroke-width:0.5;stroke-linecap:butt;stroke-linejoin:round;stroke-miterlimit:10;stroke-dasharray:none;stroke-opacity:1"
   id="path184"
   inkscape:connector-curvature="0" /><text
   transform="matrix(1,0,0,-1,30.459776,101.5482)"
   style="font-variant:normal;font-size:15.94022369px;font-family:'URW Palladio L';-inkscape-font-specification:URWPalladioL-Roma;writing-mode:lr-tb;fill:#000000;fill-opacity:1;fill-rule:nonzero;stroke:none"
   id="text186"><tspan
     x="0 7.9701118"
     y="0"
     sodipodi:role="line"
     id="tspan188">10</tspan></text>


<g
   id="g190"><g
     id="g192"
     clip-path="url(#clipPath194)"><path
       d="m 50.4,174.24 327.6,0"
       style="fill:none;stroke:#000000;stroke-width:0.5;stroke-linecap:butt;stroke-linejoin:round;stroke-miterlimit:10;stroke-dasharray:1, 3;stroke-dashoffset:0;stroke-opacity:1"
       id="path198"
       inkscape:connector-curvature="0" /></g></g><path
   d="m 50.4,174.24 4,0"
   style="fill:none;stroke:#000000;stroke-width:0.5;stroke-linecap:butt;stroke-linejoin:round;stroke-miterlimit:10;stroke-dasharray:none;stroke-opacity:1"
   id="path200"
   inkscape:connector-curvature="0" /><path
   d="m 378,174.24 -4,0"
   style="fill:none;stroke:#000000;stroke-width:0.5;stroke-linecap:butt;stroke-linejoin:round;stroke-miterlimit:10;stroke-dasharray:none;stroke-opacity:1"
   id="path202"
   inkscape:connector-curvature="0" /><text
   transform="matrix(1,0,0,-1,30.459776,168.8682)"
   style="font-variant:normal;font-size:15.94022369px;font-family:'URW Palladio L';-inkscape-font-specification:URWPalladioL-Roma;writing-mode:lr-tb;fill:#000000;fill-opacity:1;fill-rule:nonzero;stroke:none"
   id="text204"><tspan
     x="0 7.9701118"
     y="0"
     sodipodi:role="line"
     id="tspan206">20</tspan></text>


<g
   id="g208"><g
     id="g210"
     clip-path="url(#clipPath212)"><path
       d="m 50.4,241.56 327.6,0"
       style="fill:none;stroke:#000000;stroke-width:0.5;stroke-linecap:butt;stroke-linejoin:round;stroke-miterlimit:10;stroke-dasharray:1, 3;stroke-dashoffset:0;stroke-opacity:1"
       id="path216"
       inkscape:connector-curvature="0" /></g></g><path
   d="m 50.4,241.56 4,0"
   style="fill:none;stroke:#000000;stroke-width:0.5;stroke-linecap:butt;stroke-linejoin:round;stroke-miterlimit:10;stroke-dasharray:none;stroke-opacity:1"
   id="path218"
   inkscape:connector-curvature="0" /><path
   d="m 378,241.56 -4,0"
   style="fill:none;stroke:#000000;stroke-width:0.5;stroke-linecap:butt;stroke-linejoin:round;stroke-miterlimit:10;stroke-dasharray:none;stroke-opacity:1"
   id="path220"
   inkscape:connector-curvature="0" /><text
   transform="matrix(1,0,0,-1,30.459776,236.1882)"
   style="font-variant:normal;font-size:15.94022369px;font-family:'URW Palladio L';-inkscape-font-specification:URWPalladioL-Roma;writing-mode:lr-tb;fill:#000000;fill-opacity:1;fill-rule:nonzero;stroke:none"
   id="text222"><tspan
     x="0 7.9701118"
     y="0"
     sodipodi:role="line"
     id="tspan224">30</tspan></text>


<g
   id="g226"><g
     id="g228"
     clip-path="url(#clipPath230)"><path
       d="m 50.4,308.88 327.6,0"
       style="fill:none;stroke:#000000;stroke-width:0.5;stroke-linecap:butt;stroke-linejoin:round;stroke-miterlimit:10;stroke-dasharray:1, 3;stroke-dashoffset:0;stroke-opacity:1"
       id="path234"
       inkscape:connector-curvature="0" /></g></g><path
   d="m 50.4,308.88 4,0"
   style="fill:none;stroke:#000000;stroke-width:0.5;stroke-linecap:butt;stroke-linejoin:round;stroke-miterlimit:10;stroke-dasharray:none;stroke-opacity:1"
   id="path236"
   inkscape:connector-curvature="0" /><path
   d="m 378,308.88 -4,0"
   style="fill:none;stroke:#000000;stroke-width:0.5;stroke-linecap:butt;stroke-linejoin:round;stroke-miterlimit:10;stroke-dasharray:none;stroke-opacity:1"
   id="path238"
   inkscape:connector-curvature="0" /><text
   transform="matrix(1,0,0,-1,30.459776,303.5082)"
   style="font-variant:normal;font-size:15.94022369px;font-family:'URW Palladio L';-inkscape-font-specification:URWPalladioL-Roma;writing-mode:lr-tb;fill:#000000;fill-opacity:1;fill-rule:nonzero;stroke:none"
   id="text240"><tspan
     x="0 7.9701118"
     y="0"
     sodipodi:role="line"
     id="tspan242">40</tspan></text>


<g
   id="g244"><g
     id="g246"
     clip-path="url(#clipPath248)"><path
       d="m 50.4,376.2 327.6,0"
       style="fill:none;stroke:#000000;stroke-width:0.5;stroke-linecap:butt;stroke-linejoin:round;stroke-miterlimit:10;stroke-dasharray:1, 3;stroke-dashoffset:0;stroke-opacity:1"
       id="path252"
       inkscape:connector-curvature="0" /></g></g><path
   d="m 50.4,376.2 4,0"
   style="fill:none;stroke:#000000;stroke-width:0.5;stroke-linecap:butt;stroke-linejoin:round;stroke-miterlimit:10;stroke-dasharray:none;stroke-opacity:1"
   id="path254"
   inkscape:connector-curvature="0" /><path
   d="m 378,376.2 -4,0"
   style="fill:none;stroke:#000000;stroke-width:0.5;stroke-linecap:butt;stroke-linejoin:round;stroke-miterlimit:10;stroke-dasharray:none;stroke-opacity:1"
   id="path256"
   inkscape:connector-curvature="0" /><text
   transform="matrix(1,0,0,-1,30.459776,370.8282)"
   style="font-variant:normal;font-size:15.94022369px;font-family:'URW Palladio L';-inkscape-font-specification:URWPalladioL-Roma;writing-mode:lr-tb;fill:#000000;fill-opacity:1;fill-rule:nonzero;stroke:none"
   id="text258"><tspan
     x="0 7.9701118"
     y="0"
     sodipodi:role="line"
     id="tspan260">50</tspan></text>


<path
   d="m 50.4,376.2 327.6,0"
   style="fill:none;stroke:#000000;stroke-width:1;stroke-linecap:square;stroke-linejoin:round;stroke-miterlimit:10;stroke-dasharray:none;stroke-opacity:1"
   id="path282"
   inkscape:connector-curvature="0" /><path
   d="m 378,39.6 0,336.6"
   style="fill:none;stroke:#000000;stroke-width:1;stroke-linecap:square;stroke-linejoin:round;stroke-miterlimit:10;stroke-dasharray:none;stroke-opacity:1"
   id="path284"
   inkscape:connector-curvature="0" /><path
   d="m 50.4,39.6 327.6,0"
   style="fill:none;stroke:#000000;stroke-width:1;stroke-linecap:square;stroke-linejoin:round;stroke-miterlimit:10;stroke-dasharray:none;stroke-opacity:1"
   id="path286"
   inkscape:connector-curvature="0" /><path
   d="m 50.4,39.6 0,336.6"
   style="fill:none;stroke:#000000;stroke-width:1;stroke-linecap:square;stroke-linejoin:round;stroke-miterlimit:10;stroke-dasharray:none;stroke-opacity:1"
   id="path288"
   inkscape:connector-curvature="0" /><path
   d="m 393.8816,366.03309 18.6592,0"
   style="fill:none;stroke:#dcdcdc;stroke-width:2;stroke-linecap:square;stroke-linejoin:round;stroke-miterlimit:10;stroke-dasharray:none;stroke-opacity:1"
   id="path292"
   inkscape:connector-curvature="0" /><text
   transform="matrix(1,0,0,-1,427.2016,361.36829)"
   style="font-variant:normal;font-size:13.27820969px;font-family:'URW Palladio L';-inkscape-font-specification:URWPalladioL-Roma;writing-mode:lr-tb;fill:#000000;fill-opacity:1;fill-rule:nonzero;stroke:none"
   id="text294"><tspan
     x="0 11.711381 18.350485"
     y="0"
     sodipodi:role="line"
     id="tspan296">max</tspan></text>


<path
   d="m 393.8816,346.12421 18.6592,0"
   style="fill:none;stroke:#646464;stroke-width:2;stroke-linecap:butt;stroke-linejoin:round;stroke-miterlimit:10;stroke-dasharray:1, 3;stroke-dashoffset:0;stroke-opacity:1"
   id="path298"
   inkscape:connector-curvature="0" /><text
   transform="matrix(1,0,0,-1,427.2016,341.45941)"
   style="font-variant:normal;font-size:13.27820969px;font-family:'URW Palladio L';-inkscape-font-specification:URWPalladioL-Roma;writing-mode:lr-tb;fill:#000000;fill-opacity:1;fill-rule:nonzero;stroke:none"
   id="text300"><tspan
     x="0 7.4225192 14.061624 20.700729"
     y="0"
     sodipodi:role="line"
     id="tspan302">q90%</tspan></text>


<path
   d="m 393.8816,326.21532 18.6592,0"
   style="fill:none;stroke:#646464;stroke-width:2;stroke-linecap:butt;stroke-linejoin:round;stroke-miterlimit:10;stroke-dasharray:6, 6;stroke-dashoffset:0;stroke-opacity:1"
   id="path304"
   inkscape:connector-curvature="0" /><text
   transform="matrix(1,0,0,-1,427.2016,321.55052)"
   style="font-variant:normal;font-size:13.27820969px;font-family:'URW Palladio L';-inkscape-font-specification:URWPalladioL-Roma;writing-mode:lr-tb;fill:#000000;fill-opacity:1;fill-rule:nonzero;stroke:none"
   id="text306"><tspan
     x="0 7.4225192 14.061624 20.700729"
     y="0"
     sodipodi:role="line"
     id="tspan308">q75%</tspan></text>


<path
   d="m 393.8816,306.30643 18.6592,0"
   style="fill:none;stroke:#000000;stroke-width:2;stroke-linecap:square;stroke-linejoin:round;stroke-miterlimit:10;stroke-dasharray:none;stroke-opacity:1"
   id="path310"
   inkscape:connector-curvature="0" /><text
   transform="matrix(1,0,0,-1,427.2016,301.64163)"
   style="font-variant:normal;font-size:13.27820969px;font-family:'URW Palladio L';-inkscape-font-specification:URWPalladioL-Roma;writing-mode:lr-tb;fill:#000000;fill-opacity:1;fill-rule:nonzero;stroke:none"
   id="text312"><tspan
     x="0 7.4225192 14.061624 20.700729"
     y="0"
     sodipodi:role="line"
     id="tspan314">q50%</tspan></text>


<path
   d="m 393.8816,286.39754 18.6592,0"
   style="fill:none;stroke:#646464;stroke-width:2;stroke-linecap:butt;stroke-linejoin:round;stroke-miterlimit:10;stroke-dasharray:6, 6;stroke-dashoffset:0;stroke-opacity:1"
   id="path316"
   inkscape:connector-curvature="0" /><text
   transform="matrix(1,0,0,-1,427.2016,281.73274)"
   style="font-variant:normal;font-size:13.27820969px;font-family:'URW Palladio L';-inkscape-font-specification:URWPalladioL-Roma;writing-mode:lr-tb;fill:#000000;fill-opacity:1;fill-rule:nonzero;stroke:none"
   id="text318"><tspan
     x="0 7.4225192 14.061624 20.700729"
     y="0"
     sodipodi:role="line"
     id="tspan320">q25%</tspan></text>


<path
   d="m 393.8816,266.48866 18.6592,0"
   style="fill:none;stroke:#646464;stroke-width:2;stroke-linecap:butt;stroke-linejoin:round;stroke-miterlimit:10;stroke-dasharray:1, 3;stroke-dashoffset:0;stroke-opacity:1"
   id="path322"
   inkscape:connector-curvature="0" /><text
   transform="matrix(1,0,0,-1,427.2016,261.82386)"
   style="font-variant:normal;font-size:13.27820969px;font-family:'URW Palladio L';-inkscape-font-specification:URWPalladioL-Roma;writing-mode:lr-tb;fill:#000000;fill-opacity:1;fill-rule:nonzero;stroke:none"
   id="text324"><tspan
     x="0 7.4225192 14.061624 20.700729"
     y="0"
     sodipodi:role="line"
     id="tspan326">q10%</tspan></text>


<path
   d="m 393.8816,246.57977 18.6592,0"
   style="fill:none;stroke:#dcdcdc;stroke-width:2;stroke-linecap:square;stroke-linejoin:round;stroke-miterlimit:10;stroke-dasharray:none;stroke-opacity:1"
   id="path328"
   inkscape:connector-curvature="0" /><text
   transform="matrix(1,0,0,-1,427.2016,241.91497)"
   style="font-variant:normal;font-size:13.27820969px;font-family:'URW Palladio L';-inkscape-font-specification:URWPalladioL-Roma;writing-mode:lr-tb;fill:#000000;fill-opacity:1;fill-rule:nonzero;stroke:none"
   id="text330"><tspan
     x="0 11.711381 15.562061"
     y="0"
     sodipodi:role="line"
     id="tspan332">min</tspan></text>


<text
   xml:space="preserve"
   style="font-style:normal;font-variant:normal;font-weight:normal;font-stretch:normal;font-size:16px;line-height:125%;font-family:'Palatino Linotype';-inkscape-font-specification:'Palatino Linotype';letter-spacing:0px;word-spacing:0px;fill:#000000;fill-opacity:1;stroke:none;stroke-width:1px;stroke-linecap:butt;stroke-linejoin:miter;stroke-opacity:1"
   x="160.24576"
   y="-7.6101694"
   id="text4460"
   sodipodi:linespacing="125%"
   transform="scale(1,-1)"><tspan
     sodipodi:role="line"
     id="tspan4462"
     x="160.24576"
     y="-7.6101694">Analogue rank</tspan></text>


<text
   xml:space="preserve"
   style="font-style:normal;font-variant:normal;font-weight:normal;font-stretch:normal;font-size:16px;line-height:125%;font-family:'Palatino Linotype';-inkscape-font-specification:'Palatino Linotype';letter-spacing:0px;word-spacing:0px;fill:#000000;fill-opacity:1;stroke:none;stroke-width:1px;stroke-linecap:butt;stroke-linejoin:miter;stroke-opacity:1"
   x="102.00603"
   y="22.288095"
   id="text4464"
   sodipodi:linespacing="125%"
   transform="matrix(0,1,1,0,0,0)"><tspan
     sodipodi:role="line"
     id="tspan4466"
     x="102.00603"
     y="22.288095">Reduction of the <tspan
   style="font-style:italic"
   id="tspan4286">S</tspan><tspan
   style="font-size:52%;baseline-shift:sub;font-style:normal"
   id="tspan4284">TW</tspan> criteria [%]</tspan></text>


</g></svg>