<?xml version="1.0" encoding="UTF-8" standalone="no"?>
<!-- Created with Inkscape (http://www.inkscape.org/) -->

<svg
   xmlns:dc="http://purl.org/dc/elements/1.1/"
   xmlns:cc="http://creativecommons.org/ns#"
   xmlns:rdf="http://www.w3.org/1999/02/22-rdf-syntax-ns#"
   xmlns:svg="http://www.w3.org/2000/svg"
   xmlns="http://www.w3.org/2000/svg"
   xmlns:sodipodi="http://sodipodi.sourceforge.net/DTD/sodipodi-0.dtd"
   xmlns:inkscape="http://www.inkscape.org/namespaces/inkscape"
   id="svg4284"
   version="1.1"
   inkscape:version="0.91 r13725"
   xml:space="preserve"
   width="630"
   height="495"
   viewBox="0 0 630 495"
   sodipodi:docname="changes_RMSE_gain.svg"><metadata
     id="metadata4290"><rdf:RDF><cc:Work
         rdf:about=""><dc:format>image/svg+xml</dc:format><dc:type
           rdf:resource="http://purl.org/dc/dcmitype/StillImage" /><dc:title></dc:title></cc:Work></rdf:RDF></metadata><defs
     id="defs4288"><clipPath
       clipPathUnits="userSpaceOnUse"
       id="clipPath4302"><path
         d="m 60.48,39.6 327.6,0 0,336.6 -327.6,0 0,-336.6 z"
         id="path4304"
         inkscape:connector-curvature="0" /></clipPath><clipPath
       clipPathUnits="userSpaceOnUse"
       id="clipPath4312"><path
         d="m 60.48,39.6 327.6,0 0,336.6 -327.6,0 0,-336.6 z"
         id="path4314"
         inkscape:connector-curvature="0" /></clipPath><clipPath
       clipPathUnits="userSpaceOnUse"
       id="clipPath4322"><path
         d="m 60.48,39.6 327.6,0 0,336.6 -327.6,0 0,-336.6 z"
         id="path4324"
         inkscape:connector-curvature="0" /></clipPath><clipPath
       clipPathUnits="userSpaceOnUse"
       id="clipPath4332"><path
         d="m 60.48,39.6 327.6,0 0,336.6 -327.6,0 0,-336.6 z"
         id="path4334"
         inkscape:connector-curvature="0" /></clipPath><clipPath
       clipPathUnits="userSpaceOnUse"
       id="clipPath4342"><path
         d="m 60.48,39.6 327.6,0 0,336.6 -327.6,0 0,-336.6 z"
         id="path4344"
         inkscape:connector-curvature="0" /></clipPath><clipPath
       clipPathUnits="userSpaceOnUse"
       id="clipPath4396"><path
         d="m 60.48,39.6 327.6,0 0,336.6 -327.6,0 0,-336.6 z"
         id="path4398"
         inkscape:connector-curvature="0" /></clipPath><clipPath
       clipPathUnits="userSpaceOnUse"
       id="clipPath4418"><path
         d="m 60.48,39.6 327.6,0 0,336.6 -327.6,0 0,-336.6 z"
         id="path4420"
         inkscape:connector-curvature="0" /></clipPath><clipPath
       clipPathUnits="userSpaceOnUse"
       id="clipPath4440"><path
         d="m 60.48,39.6 327.6,0 0,336.6 -327.6,0 0,-336.6 z"
         id="path4442"
         inkscape:connector-curvature="0" /></clipPath><clipPath
       clipPathUnits="userSpaceOnUse"
       id="clipPath4458"><path
         d="m 60.48,39.6 327.6,0 0,336.6 -327.6,0 0,-336.6 z"
         id="path4460"
         inkscape:connector-curvature="0" /></clipPath><clipPath
       clipPathUnits="userSpaceOnUse"
       id="clipPath4476"><path
         d="m 60.48,39.6 327.6,0 0,336.6 -327.6,0 0,-336.6 z"
         id="path4478"
         inkscape:connector-curvature="0" /></clipPath></defs><sodipodi:namedview
     pagecolor="#ffffff"
     bordercolor="#666666"
     borderopacity="1"
     objecttolerance="10"
     gridtolerance="10"
     guidetolerance="10"
     inkscape:pageopacity="0"
     inkscape:pageshadow="2"
     inkscape:window-width="1191"
     inkscape:window-height="749"
     id="namedview4286"
     showgrid="false"
     inkscape:zoom="0.67425131"
     inkscape:cx="218.54671"
     inkscape:cy="375.17509"
     inkscape:window-x="0"
     inkscape:window-y="0"
     inkscape:window-maximized="0"
     inkscape:current-layer="g4292" /><g
     id="g4292"
     inkscape:groupmode="layer"
     inkscape:label="changes_RMSE_gain"
     transform="matrix(1.25,0,0,-1.25,0,495)"><path
       d="m 60.48,39.6 327.6,0 0,336.6 -327.6,0 0,-336.6 z"
       style="fill:#ffffff;fill-opacity:1;fill-rule:nonzero;stroke:none"
       id="path4296"
       inkscape:connector-curvature="0" /><g
       id="g4298"><g
         id="g4300"
         clip-path="url(#clipPath4302)"><path
           d="m 60.48,365.54657 13.65,-31.87529 13.65,-13.25245 13.65,-8.08836 13.65,-4.62205 13.65,-2.36326 13.65,-2.52904 13.65,-1.37284 13.65,-2.58699 13.65,-1.47254 13.65,0.38401 13.65,-3.23355 13.65,0.35245 13.65,-0.24552 13.65,-0.46836 13.65,-0.62658 13.65,-0.49563 13.65,-0.40542 13.65,-0.66602 13.65,-0.39946 13.65,0.11509 13.65,-0.95556 13.65,1.23845 13.65,-0.41405 13.65,0.0388"
           style="fill:none;stroke:#646464;stroke-width:2;stroke-linecap:butt;stroke-linejoin:round;stroke-miterlimit:10;stroke-dasharray:1, 3;stroke-dashoffset:0;stroke-opacity:1"
           id="path4306"
           inkscape:connector-curvature="0" /></g></g><g
       id="g4308"><g
         id="g4310"
         clip-path="url(#clipPath4312)"><path
           d="m 60.48,274.30113 13.65,-3.54587 13.65,-4.4659 13.65,-3.41142 13.65,-1.48692 13.65,-1.14407 13.65,-0.20141 13.65,-0.7299 13.65,-1.11278 13.65,0.64012 13.65,-1.57838 13.65,0.0771 13.65,-0.86526 13.65,-0.77231 13.65,0.22804 13.65,-0.13413 13.65,-0.45687 13.65,0.51907 13.65,0.13545 13.65,-0.19937 13.65,0.41162 13.65,-0.456 13.65,-0.14691 13.65,0.71193 13.65,0.5195"
           style="fill:none;stroke:#646464;stroke-width:2;stroke-linecap:butt;stroke-linejoin:round;stroke-miterlimit:10;stroke-dasharray:6, 6;stroke-dashoffset:0;stroke-opacity:1"
           id="path4316"
           inkscape:connector-curvature="0" /></g></g><g
       id="g4318"><g
         id="g4320"
         clip-path="url(#clipPath4322)"><path
           d="m 60.48,207.9 13.65,0 13.65,0 13.65,0.21884 13.65,1.83153 13.65,0.62604 13.65,1.07739 13.65,0.40665 13.65,0.78669 13.65,0.98996 13.65,0.37071 13.65,-1.12788 13.65,0.90029 13.65,0.77989 13.65,-0.0875 13.65,-0.21038 13.65,0.62284 13.65,0.57754 13.65,-0.0326 13.65,0.48538 13.65,-0.066 13.65,0.3854 13.65,-0.40939 13.65,-0.10094 13.65,0.35965"
           style="fill:none;stroke:#000000;stroke-width:2;stroke-linecap:square;stroke-linejoin:round;stroke-miterlimit:10;stroke-dasharray:none;stroke-opacity:1"
           id="path4326"
           inkscape:connector-curvature="0" /></g></g><g
       id="g4328"><g
         id="g4330"
         clip-path="url(#clipPath4332)"><path
           d="m 60.48,133.94082 13.65,9.9862 13.65,10.54786 13.65,4.89286 13.65,3.15687 13.65,3.1869 13.65,0.3051 13.65,2.83789 13.65,0.94189 13.65,1.24115 13.65,1.13295 13.65,0.0743 13.65,0.77025 13.65,0.79663 13.65,-0.0173 13.65,0.76713 13.65,0.93062 13.65,0.65219 13.65,0.29313 13.65,0.66963 13.65,-1.05694 13.65,0.55569 13.65,0.43247 13.65,-0.32996 13.65,0.45417"
           style="fill:none;stroke:#646464;stroke-width:2;stroke-linecap:butt;stroke-linejoin:round;stroke-miterlimit:10;stroke-dasharray:6, 6;stroke-dashoffset:0;stroke-opacity:1"
           id="path4336"
           inkscape:connector-curvature="0" /></g></g><g
       id="g4338"><g
         id="g4340"
         clip-path="url(#clipPath4342)"><path
           d="M 60.533949,-1 74.13,59.937986 l 13.65,20.331288 13.65,10.141769 13.65,9.069548 13.65,5.358899 13.65,6.44578 13.65,3.61668 13.65,0.86675 13.65,3.05801 13.65,1.03031 13.65,2.74338 13.65,0.38738 13.65,1.97632 13.65,0.0787 13.65,0.87404 13.65,1.04375 13.65,0.76099 13.65,-0.90108 13.65,0.97763 13.65,-0.0179 13.65,0.39064 13.65,1.08129 13.65,0.79236 13.65,-0.93419"
           style="fill:none;stroke:#646464;stroke-width:2;stroke-linecap:butt;stroke-linejoin:round;stroke-miterlimit:10;stroke-dasharray:1, 3;stroke-dashoffset:0;stroke-opacity:1"
           id="path4346"
           inkscape:connector-curvature="0" /></g></g><path
       d="m 115.08,39.6 0,4"
       style="fill:none;stroke:#000000;stroke-width:0.5;stroke-linecap:butt;stroke-linejoin:round;stroke-miterlimit:10;stroke-dasharray:none;stroke-opacity:1"
       id="path4348"
       inkscape:connector-curvature="0" /><path
       d="m 115.08,376.2 0,-4"
       style="fill:none;stroke:#000000;stroke-width:0.5;stroke-linecap:butt;stroke-linejoin:round;stroke-miterlimit:10;stroke-dasharray:none;stroke-opacity:1"
       id="path4350"
       inkscape:connector-curvature="0" /><text
       transform="matrix(1,0,0,-1,111.09494,24.752783)"
       style="font-variant:normal;font-size:15.94022369px;font-family:'URW Palladio L';-inkscape-font-specification:URWPalladioL-Roma;writing-mode:lr-tb;fill:#000000;fill-opacity:1;fill-rule:nonzero;stroke:none"
       id="text4352"><tspan
         x="0"
         y="0"
         id="tspan4354">5</tspan></text>
<path
       d="m 183.33,39.6 0,4"
       style="fill:none;stroke:#000000;stroke-width:0.5;stroke-linecap:butt;stroke-linejoin:round;stroke-miterlimit:10;stroke-dasharray:none;stroke-opacity:1"
       id="path4356"
       inkscape:connector-curvature="0" /><path
       d="m 183.33,376.2 0,-4"
       style="fill:none;stroke:#000000;stroke-width:0.5;stroke-linecap:butt;stroke-linejoin:round;stroke-miterlimit:10;stroke-dasharray:none;stroke-opacity:1"
       id="path4358"
       inkscape:connector-curvature="0" /><text
       transform="matrix(1,0,0,-1,175.35989,24.752783)"
       style="font-variant:normal;font-size:15.94022369px;font-family:'URW Palladio L';-inkscape-font-specification:URWPalladioL-Roma;writing-mode:lr-tb;fill:#000000;fill-opacity:1;fill-rule:nonzero;stroke:none"
       id="text4360"><tspan
         x="0 7.9701118"
         y="0"
         sodipodi:role="line"
         id="tspan4362">10</tspan></text>
<path
       d="m 251.58,39.6 0,4"
       style="fill:none;stroke:#000000;stroke-width:0.5;stroke-linecap:butt;stroke-linejoin:round;stroke-miterlimit:10;stroke-dasharray:none;stroke-opacity:1"
       id="path4364"
       inkscape:connector-curvature="0" /><path
       d="m 251.58,376.2 0,-4"
       style="fill:none;stroke:#000000;stroke-width:0.5;stroke-linecap:butt;stroke-linejoin:round;stroke-miterlimit:10;stroke-dasharray:none;stroke-opacity:1"
       id="path4366"
       inkscape:connector-curvature="0" /><text
       transform="matrix(1,0,0,-1,243.60989,24.752783)"
       style="font-variant:normal;font-size:15.94022369px;font-family:'URW Palladio L';-inkscape-font-specification:URWPalladioL-Roma;writing-mode:lr-tb;fill:#000000;fill-opacity:1;fill-rule:nonzero;stroke:none"
       id="text4368"><tspan
         x="0 7.9701118"
         y="0"
         sodipodi:role="line"
         id="tspan4370">15</tspan></text>
<path
       d="m 319.83,39.6 0,4"
       style="fill:none;stroke:#000000;stroke-width:0.5;stroke-linecap:butt;stroke-linejoin:round;stroke-miterlimit:10;stroke-dasharray:none;stroke-opacity:1"
       id="path4372"
       inkscape:connector-curvature="0" /><path
       d="m 319.83,376.2 0,-4"
       style="fill:none;stroke:#000000;stroke-width:0.5;stroke-linecap:butt;stroke-linejoin:round;stroke-miterlimit:10;stroke-dasharray:none;stroke-opacity:1"
       id="path4374"
       inkscape:connector-curvature="0" /><text
       transform="matrix(1,0,0,-1,311.85989,24.752783)"
       style="font-variant:normal;font-size:15.94022369px;font-family:'URW Palladio L';-inkscape-font-specification:URWPalladioL-Roma;writing-mode:lr-tb;fill:#000000;fill-opacity:1;fill-rule:nonzero;stroke:none"
       id="text4376"><tspan
         x="0 7.9701118"
         y="0"
         sodipodi:role="line"
         id="tspan4378">20</tspan></text>
<path
       d="m 388.08,39.6 0,4"
       style="fill:none;stroke:#000000;stroke-width:0.5;stroke-linecap:butt;stroke-linejoin:round;stroke-miterlimit:10;stroke-dasharray:none;stroke-opacity:1"
       id="path4380"
       inkscape:connector-curvature="0" /><path
       d="m 388.08,376.2 0,-4"
       style="fill:none;stroke:#000000;stroke-width:0.5;stroke-linecap:butt;stroke-linejoin:round;stroke-miterlimit:10;stroke-dasharray:none;stroke-opacity:1"
       id="path4382"
       inkscape:connector-curvature="0" /><text
       transform="matrix(1,0,0,-1,380.10989,24.752783)"
       style="font-variant:normal;font-size:15.94022369px;font-family:'URW Palladio L';-inkscape-font-specification:URWPalladioL-Roma;writing-mode:lr-tb;fill:#000000;fill-opacity:1;fill-rule:nonzero;stroke:none"
       id="text4384"><tspan
         x="0 7.9701118"
         y="0"
         sodipodi:role="line"
         id="tspan4386">25</tspan></text>
<g
       id="g4392"><g
         id="g4394"
         clip-path="url(#clipPath4396)"><path
           d="m 60.48,73.26 327.6,0"
           style="fill:none;stroke:#000000;stroke-width:0.5;stroke-linecap:butt;stroke-linejoin:round;stroke-miterlimit:10;stroke-dasharray:1, 3;stroke-dashoffset:0;stroke-opacity:1"
           id="path4400"
           inkscape:connector-curvature="0" /></g></g><path
       d="m 60.48,73.26 4,0"
       style="fill:none;stroke:#000000;stroke-width:0.5;stroke-linecap:butt;stroke-linejoin:round;stroke-miterlimit:10;stroke-dasharray:none;stroke-opacity:1"
       id="path4402"
       inkscape:connector-curvature="0" /><path
       d="m 388.08,73.26 -4,0"
       style="fill:none;stroke:#000000;stroke-width:0.5;stroke-linecap:butt;stroke-linejoin:round;stroke-miterlimit:10;stroke-dasharray:none;stroke-opacity:1"
       id="path4404"
       inkscape:connector-curvature="0" /><text
       transform="matrix(1,0,0,-1,27.429105,68.528468)"
       style="font-style:italic;font-variant:normal;font-weight:normal;font-size:16.60971069px;font-family:'Computer Modern';-inkscape-font-specification:CMSY10;writing-mode:lr-tb;fill:#000000;fill-opacity:1;fill-rule:nonzero;stroke:none"
       id="text4406"><tspan
         x="0"
         y="0"
         id="tspan4408">−</tspan></text>
<text
       transform="matrix(1,0,0,-1,40.539776,68.528468)"
       style="font-variant:normal;font-size:15.94022369px;font-family:'URW Palladio L';-inkscape-font-specification:URWPalladioL-Roma;writing-mode:lr-tb;fill:#000000;fill-opacity:1;fill-rule:nonzero;stroke:none"
       id="text4410"><tspan
         x="0 7.9701118"
         y="0"
         sodipodi:role="line"
         id="tspan4412">20</tspan></text>
<g
       id="g4414"><g
         id="g4416"
         clip-path="url(#clipPath4418)"><path
           d="m 60.48,140.58 327.6,0"
           style="fill:none;stroke:#000000;stroke-width:0.5;stroke-linecap:butt;stroke-linejoin:round;stroke-miterlimit:10;stroke-dasharray:1, 3;stroke-dashoffset:0;stroke-opacity:1"
           id="path4422"
           inkscape:connector-curvature="0" /></g></g><path
       d="m 60.48,140.58 4,0"
       style="fill:none;stroke:#000000;stroke-width:0.5;stroke-linecap:butt;stroke-linejoin:round;stroke-miterlimit:10;stroke-dasharray:none;stroke-opacity:1"
       id="path4424"
       inkscape:connector-curvature="0" /><path
       d="m 388.08,140.58 -4,0"
       style="fill:none;stroke:#000000;stroke-width:0.5;stroke-linecap:butt;stroke-linejoin:round;stroke-miterlimit:10;stroke-dasharray:none;stroke-opacity:1"
       id="path4426"
       inkscape:connector-curvature="0" /><text
       transform="matrix(1,0,0,-1,27.429105,135.84847)"
       style="font-style:italic;font-variant:normal;font-weight:normal;font-size:16.60971069px;font-family:'Computer Modern';-inkscape-font-specification:CMSY10;writing-mode:lr-tb;fill:#000000;fill-opacity:1;fill-rule:nonzero;stroke:none"
       id="text4428"><tspan
         x="0"
         y="0"
         id="tspan4430">−</tspan></text>
<text
       transform="matrix(1,0,0,-1,40.539776,135.84847)"
       style="font-variant:normal;font-size:15.94022369px;font-family:'URW Palladio L';-inkscape-font-specification:URWPalladioL-Roma;writing-mode:lr-tb;fill:#000000;fill-opacity:1;fill-rule:nonzero;stroke:none"
       id="text4432"><tspan
         x="0 7.9701118"
         y="0"
         sodipodi:role="line"
         id="tspan4434">10</tspan></text>
<g
       id="g4436"><g
         id="g4438"
         clip-path="url(#clipPath4440)"><path
           d="m 60.48,207.9 327.6,0"
           style="fill:none;stroke:#000000;stroke-width:0.5;stroke-linecap:butt;stroke-linejoin:round;stroke-miterlimit:10;stroke-dasharray:1, 3;stroke-dashoffset:0;stroke-opacity:1"
           id="path4444"
           inkscape:connector-curvature="0" /></g></g><path
       d="m 60.48,207.9 4,0"
       style="fill:none;stroke:#000000;stroke-width:0.5;stroke-linecap:butt;stroke-linejoin:round;stroke-miterlimit:10;stroke-dasharray:none;stroke-opacity:1"
       id="path4446"
       inkscape:connector-curvature="0" /><path
       d="m 388.08,207.9 -4,0"
       style="fill:none;stroke:#000000;stroke-width:0.5;stroke-linecap:butt;stroke-linejoin:round;stroke-miterlimit:10;stroke-dasharray:none;stroke-opacity:1"
       id="path4448"
       inkscape:connector-curvature="0" /><text
       transform="matrix(1,0,0,-1,48.509888,202.5282)"
       style="font-variant:normal;font-size:15.94022369px;font-family:'URW Palladio L';-inkscape-font-specification:URWPalladioL-Roma;writing-mode:lr-tb;fill:#000000;fill-opacity:1;fill-rule:nonzero;stroke:none"
       id="text4450"><tspan
         x="0"
         y="0"
         id="tspan4452">0</tspan></text>
<g
       id="g4454"><g
         id="g4456"
         clip-path="url(#clipPath4458)"><path
           d="m 60.48,275.22 327.6,0"
           style="fill:none;stroke:#000000;stroke-width:0.5;stroke-linecap:butt;stroke-linejoin:round;stroke-miterlimit:10;stroke-dasharray:1, 3;stroke-dashoffset:0;stroke-opacity:1"
           id="path4462"
           inkscape:connector-curvature="0" /></g></g><path
       d="m 60.48,275.22 4,0"
       style="fill:none;stroke:#000000;stroke-width:0.5;stroke-linecap:butt;stroke-linejoin:round;stroke-miterlimit:10;stroke-dasharray:none;stroke-opacity:1"
       id="path4464"
       inkscape:connector-curvature="0" /><path
       d="m 388.08,275.22 -4,0"
       style="fill:none;stroke:#000000;stroke-width:0.5;stroke-linecap:butt;stroke-linejoin:round;stroke-miterlimit:10;stroke-dasharray:none;stroke-opacity:1"
       id="path4466"
       inkscape:connector-curvature="0" /><text
       transform="matrix(1,0,0,-1,40.539776,269.8482)"
       style="font-variant:normal;font-size:15.94022369px;font-family:'URW Palladio L';-inkscape-font-specification:URWPalladioL-Roma;writing-mode:lr-tb;fill:#000000;fill-opacity:1;fill-rule:nonzero;stroke:none"
       id="text4468"><tspan
         x="0 7.9701118"
         y="0"
         sodipodi:role="line"
         id="tspan4470">10</tspan></text>
<g
       id="g4472"><g
         id="g4474"
         clip-path="url(#clipPath4476)"><path
           d="m 60.48,342.54 327.6,0"
           style="fill:none;stroke:#000000;stroke-width:0.5;stroke-linecap:butt;stroke-linejoin:round;stroke-miterlimit:10;stroke-dasharray:1, 3;stroke-dashoffset:0;stroke-opacity:1"
           id="path4480"
           inkscape:connector-curvature="0" /></g></g><path
       d="m 60.48,342.54 4,0"
       style="fill:none;stroke:#000000;stroke-width:0.5;stroke-linecap:butt;stroke-linejoin:round;stroke-miterlimit:10;stroke-dasharray:none;stroke-opacity:1"
       id="path4482"
       inkscape:connector-curvature="0" /><path
       d="m 388.08,342.54 -4,0"
       style="fill:none;stroke:#000000;stroke-width:0.5;stroke-linecap:butt;stroke-linejoin:round;stroke-miterlimit:10;stroke-dasharray:none;stroke-opacity:1"
       id="path4484"
       inkscape:connector-curvature="0" /><text
       transform="matrix(1,0,0,-1,40.539776,337.1682)"
       style="font-variant:normal;font-size:15.94022369px;font-family:'URW Palladio L';-inkscape-font-specification:URWPalladioL-Roma;writing-mode:lr-tb;fill:#000000;fill-opacity:1;fill-rule:nonzero;stroke:none"
       id="text4486"><tspan
         x="0 7.9701118"
         y="0"
         sodipodi:role="line"
         id="tspan4488">20</tspan></text>
<path
       d="m 60.48,376.2 327.6,0"
       style="fill:none;stroke:#000000;stroke-width:1;stroke-linecap:square;stroke-linejoin:round;stroke-miterlimit:10;stroke-dasharray:none;stroke-opacity:1"
       id="path4510"
       inkscape:connector-curvature="0" /><path
       d="m 388.08,39.6 0,336.6"
       style="fill:none;stroke:#000000;stroke-width:1;stroke-linecap:square;stroke-linejoin:round;stroke-miterlimit:10;stroke-dasharray:none;stroke-opacity:1"
       id="path4512"
       inkscape:connector-curvature="0" /><path
       d="m 60.48,39.6 327.6,0"
       style="fill:none;stroke:#000000;stroke-width:1;stroke-linecap:square;stroke-linejoin:round;stroke-miterlimit:10;stroke-dasharray:none;stroke-opacity:1"
       id="path4514"
       inkscape:connector-curvature="0" /><path
       d="m 60.48,39.6 0,336.6"
       style="fill:none;stroke:#000000;stroke-width:1;stroke-linecap:square;stroke-linejoin:round;stroke-miterlimit:10;stroke-dasharray:none;stroke-opacity:1"
       id="path4516"
       inkscape:connector-curvature="0" /><path
       d="m 403.9616,366.03309 18.6592,0"
       style="fill:none;stroke:#646464;stroke-width:2;stroke-linecap:butt;stroke-linejoin:round;stroke-miterlimit:10;stroke-dasharray:1, 3;stroke-dashoffset:0;stroke-opacity:1"
       id="path4520"
       inkscape:connector-curvature="0" /><text
       transform="matrix(1,0,0,-1,437.2816,361.36829)"
       style="font-variant:normal;font-size:13.27820969px;font-family:'URW Palladio L';-inkscape-font-specification:URWPalladioL-Roma;writing-mode:lr-tb;fill:#000000;fill-opacity:1;fill-rule:nonzero;stroke:none"
       id="text4522"><tspan
         x="0 7.4225192 14.061624 20.700729"
         y="0"
         sodipodi:role="line"
         id="tspan4524">q90%</tspan></text>
<path
       d="m 403.9616,346.12421 18.6592,0"
       style="fill:none;stroke:#646464;stroke-width:2;stroke-linecap:butt;stroke-linejoin:round;stroke-miterlimit:10;stroke-dasharray:6, 6;stroke-dashoffset:0;stroke-opacity:1"
       id="path4526"
       inkscape:connector-curvature="0" /><text
       transform="matrix(1,0,0,-1,437.2816,341.45941)"
       style="font-variant:normal;font-size:13.27820969px;font-family:'URW Palladio L';-inkscape-font-specification:URWPalladioL-Roma;writing-mode:lr-tb;fill:#000000;fill-opacity:1;fill-rule:nonzero;stroke:none"
       id="text4528"><tspan
         x="0 7.4225192 14.061624 20.700729"
         y="0"
         sodipodi:role="line"
         id="tspan4530">q75%</tspan></text>
<path
       d="m 403.9616,326.21532 18.6592,0"
       style="fill:none;stroke:#000000;stroke-width:2;stroke-linecap:square;stroke-linejoin:round;stroke-miterlimit:10;stroke-dasharray:none;stroke-opacity:1"
       id="path4532"
       inkscape:connector-curvature="0" /><text
       transform="matrix(1,0,0,-1,437.2816,321.55052)"
       style="font-variant:normal;font-size:13.27820969px;font-family:'URW Palladio L';-inkscape-font-specification:URWPalladioL-Roma;writing-mode:lr-tb;fill:#000000;fill-opacity:1;fill-rule:nonzero;stroke:none"
       id="text4534"><tspan
         x="0 7.4225192 14.061624 20.700729"
         y="0"
         sodipodi:role="line"
         id="tspan4536">q50%</tspan></text>
<path
       d="m 403.9616,306.30643 18.6592,0"
       style="fill:none;stroke:#646464;stroke-width:2;stroke-linecap:butt;stroke-linejoin:round;stroke-miterlimit:10;stroke-dasharray:6, 6;stroke-dashoffset:0;stroke-opacity:1"
       id="path4538"
       inkscape:connector-curvature="0" /><text
       transform="matrix(1,0,0,-1,437.2816,301.64163)"
       style="font-variant:normal;font-size:13.27820969px;font-family:'URW Palladio L';-inkscape-font-specification:URWPalladioL-Roma;writing-mode:lr-tb;fill:#000000;fill-opacity:1;fill-rule:nonzero;stroke:none"
       id="text4540"><tspan
         x="0 7.4225192 14.061624 20.700729"
         y="0"
         sodipodi:role="line"
         id="tspan4542">q25%</tspan></text>
<path
       d="m 403.9616,286.39754 18.6592,0"
       style="fill:none;stroke:#646464;stroke-width:2;stroke-linecap:butt;stroke-linejoin:round;stroke-miterlimit:10;stroke-dasharray:1, 3;stroke-dashoffset:0;stroke-opacity:1"
       id="path4544"
       inkscape:connector-curvature="0" /><text
       transform="matrix(1,0,0,-1,437.2816,281.73274)"
       style="font-variant:normal;font-size:13.27820969px;font-family:'URW Palladio L';-inkscape-font-specification:URWPalladioL-Roma;writing-mode:lr-tb;fill:#000000;fill-opacity:1;fill-rule:nonzero;stroke:none"
       id="text4546"><tspan
         x="0 7.4225192 14.061624 20.700729"
         y="0"
         sodipodi:role="line"
         id="tspan4548">q10%</tspan></text>
<text
       xml:space="preserve"
       style="font-style:normal;font-variant:normal;font-weight:normal;font-stretch:normal;font-size:16px;line-height:125%;font-family:'Palatino Linotype';-inkscape-font-specification:'Palatino Linotype';letter-spacing:0px;word-spacing:0px;fill:#000000;fill-opacity:1;stroke:none;stroke-width:1px;stroke-linecap:butt;stroke-linejoin:miter;stroke-opacity:1"
       x="160.24577"
       y="-7.6101727"
       id="text4460"
       sodipodi:linespacing="125%"
       transform="scale(1,-1)"><tspan
         sodipodi:role="line"
         id="tspan4462"
         x="160.24577"
         y="-7.6101727">Analogue rank</tspan></text>
<text
       xml:space="preserve"
       style="font-style:normal;font-variant:normal;font-weight:normal;font-stretch:normal;font-size:16px;line-height:125%;font-family:'Palatino Linotype';-inkscape-font-specification:'Palatino Linotype';letter-spacing:0px;word-spacing:0px;fill:#000000;fill-opacity:1;stroke:none;stroke-width:1px;stroke-linecap:butt;stroke-linejoin:miter;stroke-opacity:1"
       x="92.406036"
       y="22.288095"
       id="text4464"
       sodipodi:linespacing="125%"
       transform="matrix(0,1,1,0,0,0)"><tspan
         sodipodi:role="line"
         id="tspan4466"
         x="92.406036"
         y="22.288095">Reduction of the RMSE criteria [%]</tspan></text>
</g></svg>