<?xml version="1.0" encoding="UTF-8" standalone="no"?>
<!-- Created with Inkscape (http://www.inkscape.org/) -->

<svg
   xmlns:dc="http://purl.org/dc/elements/1.1/"
   xmlns:cc="http://creativecommons.org/ns#"
   xmlns:rdf="http://www.w3.org/1999/02/22-rdf-syntax-ns#"
   xmlns:svg="http://www.w3.org/2000/svg"
   xmlns="http://www.w3.org/2000/svg"
   xmlns:sodipodi="http://sodipodi.sourceforge.net/DTD/sodipodi-0.dtd"
   xmlns:inkscape="http://www.inkscape.org/namespaces/inkscape"
   id="svg2"
   version="1.1"
   inkscape:version="0.91 r13725"
   xml:space="preserve"
   width="598.73193"
   height="472.3916"
   viewBox="0 0 598.73193 472.3916"
   sodipodi:docname="changes_S1_precip_threshold.svg"><metadata
     id="metadata8"><rdf:RDF><cc:Work
         rdf:about=""><dc:format>image/svg+xml</dc:format><dc:type
           rdf:resource="http://purl.org/dc/dcmitype/StillImage" /><dc:title></dc:title></cc:Work></rdf:RDF></metadata><defs
     id="defs6"><clipPath
       clipPathUnits="userSpaceOnUse"
       id="clipPath20"><path
         d="m 72,39.6 432,0 0,336.6 -432,0 0,-336.6 z"
         id="path22"
         inkscape:connector-curvature="0" /></clipPath><clipPath
       clipPathUnits="userSpaceOnUse"
       id="clipPath30"><path
         d="m 72,39.6 432,0 0,336.6 -432,0 0,-336.6 z"
         id="path32"
         inkscape:connector-curvature="0" /></clipPath><clipPath
       clipPathUnits="userSpaceOnUse"
       id="clipPath40"><path
         d="m 72,39.6 432,0 0,336.6 -432,0 0,-336.6 z"
         id="path42"
         inkscape:connector-curvature="0" /></clipPath><clipPath
       clipPathUnits="userSpaceOnUse"
       id="clipPath50"><path
         d="m 72,39.6 432,0 0,336.6 -432,0 0,-336.6 z"
         id="path52"
         inkscape:connector-curvature="0" /></clipPath><clipPath
       clipPathUnits="userSpaceOnUse"
       id="clipPath60"><path
         d="m 72,39.6 432,0 0,336.6 -432,0 0,-336.6 z"
         id="path62"
         inkscape:connector-curvature="0" /></clipPath><clipPath
       clipPathUnits="userSpaceOnUse"
       id="clipPath138"><path
         d="m 72,39.6 432,0 0,336.6 -432,0 0,-336.6 z"
         id="path140"
         inkscape:connector-curvature="0" /></clipPath><clipPath
       clipPathUnits="userSpaceOnUse"
       id="clipPath156"><path
         d="m 72,39.6 432,0 0,336.6 -432,0 0,-336.6 z"
         id="path158"
         inkscape:connector-curvature="0" /></clipPath><clipPath
       clipPathUnits="userSpaceOnUse"
       id="clipPath174"><path
         d="m 72,39.6 432,0 0,336.6 -432,0 0,-336.6 z"
         id="path176"
         inkscape:connector-curvature="0" /></clipPath><clipPath
       clipPathUnits="userSpaceOnUse"
       id="clipPath192"><path
         d="m 72,39.6 432,0 0,336.6 -432,0 0,-336.6 z"
         id="path194"
         inkscape:connector-curvature="0" /></clipPath><clipPath
       clipPathUnits="userSpaceOnUse"
       id="clipPath210"><path
         d="m 72,39.6 432,0 0,336.6 -432,0 0,-336.6 z"
         id="path212"
         inkscape:connector-curvature="0" /></clipPath><clipPath
       clipPathUnits="userSpaceOnUse"
       id="clipPath228"><path
         d="m 72,39.6 432,0 0,336.6 -432,0 0,-336.6 z"
         id="path230"
         inkscape:connector-curvature="0" /></clipPath></defs><sodipodi:namedview
     pagecolor="#ffffff"
     bordercolor="#666666"
     borderopacity="1"
     objecttolerance="10"
     gridtolerance="10"
     guidetolerance="10"
     inkscape:pageopacity="0"
     inkscape:pageshadow="2"
     inkscape:window-width="1268"
     inkscape:window-height="880"
     id="namedview4"
     showgrid="false"
     inkscape:zoom="0.67425131"
     inkscape:cx="454.76148"
     inkscape:cy="167.4611"
     inkscape:window-x="295"
     inkscape:window-y="93"
     inkscape:window-maximized="0"
     inkscape:current-layer="g10"
     fit-margin-top="0"
     fit-margin-left="0"
     fit-margin-right="0"
     fit-margin-bottom="0" /><g
     id="g10"
     inkscape:groupmode="layer"
     inkscape:label="changes_S1_precip_threshold"
     transform="matrix(1.25,0,0,-1.25,-40.533328,477.36339)"><path
   d="m 72,39.6 432,0 0,336.6 -432,0 0,-336.6 z"
   style="fill:#ffffff;fill-opacity:1;fill-rule:nonzero;stroke:none"
   id="path14"
   inkscape:connector-curvature="0" /><g
   id="g16"><g
     id="g18"
     clip-path="url(#clipPath20)"><path
       d="m 72,74.480355 11.076923,68.101895 11.076923,27.61154 11.076924,14.89059 11.07692,8.42145 11.07693,7.24715 11.07692,4.68262 11.07692,7.27722 11.07692,2.8481 11.07693,4.58902 11.07692,4.73559 11.07692,2.98437 11.07693,4.4132 11.07692,2.59161 11.07692,5.27508 11.07693,2.10933 11.07692,1.00295 11.07692,3.36399 11.07693,1.85103 11.07692,1.8471 11.07692,2.21659 11.07692,1.69751 11.07693,1.23588 11.07692,1.78553 11.07692,0.97076 11.07693,2.56099 11.07692,1.89741 11.07692,0.60532 11.07693,2.2369 11.07692,1.06986 11.07692,1.46462 11.07693,1.98007 11.07692,1.52475 11.07692,2.28537 11.07692,1.7458 11.07693,0.79748 11.07692,0.21144 11.07692,0.58051 11.07693,1.62385 L 504,279.24507"
       style="fill:none;stroke:#000000;stroke-width:2;stroke-linecap:butt;stroke-linejoin:round;stroke-miterlimit:10;stroke-dasharray:6, 6;stroke-dashoffset:0;stroke-opacity:1"
       id="path24"
       inkscape:connector-curvature="0" /></g></g><g
   id="g26"><g
     id="g28"
     clip-path="url(#clipPath30)"><path
       d="m 72,76.190214 11.076923,73.795576 11.076923,17.54905 11.076924,16.58687 11.07692,6.57711 11.07693,10.96489 11.07692,5.8707 11.07692,4.28711 11.07692,4.66666 11.07693,-2.55463 11.07692,6.18384 11.07692,2.7101 11.07693,2.88701 11.07692,4.64262 11.07692,-3.1301 11.07693,4.57315 11.07692,2.06726 11.07692,4.96844 11.07693,0.79597 11.07692,0.52093 11.07692,4.15877 11.07692,0.0283 11.07693,3.46171 11.07692,2.39185 11.07692,0.92184 11.07693,0.0678 11.07692,2.75469 11.07692,0.11926 11.07693,1.28287 11.07692,2.06799 11.07692,1.0737 11.07693,2.08455 11.07692,1.11615 11.07692,3.46128 11.07692,0.46749 11.07693,0.74752 11.07692,0.78156 11.07692,3.85869 11.07693,2.28817 L 504,273.03253"
       style="fill:none;stroke:#77933c;stroke-width:2;stroke-linecap:square;stroke-linejoin:round;stroke-miterlimit:10;stroke-dasharray:none;stroke-opacity:1"
       id="path34"
       inkscape:connector-curvature="0" /></g></g><g
   id="g36"><g
     id="g38"
     clip-path="url(#clipPath40)"><path
       d="m 72,88.667025 11.076923,74.022685 11.076923,23.99669 11.076924,15.44819 11.07692,7.62593 11.07693,1.95638 11.07692,7.92733 11.07692,6.1526 11.07692,3.72997 11.07693,7.68465 11.07692,5.24461 11.07692,0.0994 11.07693,-1.31988 11.07692,3.48228 11.07692,0.71113 11.07693,0.64101 11.07692,4.83199 11.07692,2.92672 11.07693,8.97971 11.07692,0.28172 11.07692,2.1137 11.07692,-3.1303 11.07693,0.2578 11.07692,0.73453 11.07692,4.323 11.07693,4.65363 11.07692,3.54074 11.07692,2.62256 11.07693,4.07258 11.07692,3.84117 11.07692,4.55595 11.07693,2.66465 11.07692,1.42151 11.07692,-1.82338 11.07692,-0.55993 11.07693,0.23436 11.07692,1.60658 11.07692,6.04443 11.07693,-0.0593 L 504,301.46946"
       style="fill:none;stroke:#416fa6;stroke-width:2;stroke-linecap:square;stroke-linejoin:round;stroke-miterlimit:10;stroke-dasharray:none;stroke-opacity:1"
       id="path44"
       inkscape:connector-curvature="0" /></g></g><g
   id="g46"><g
     id="g48"
     clip-path="url(#clipPath50)"><path
       d="m 72,86.598698 11.076923,84.966092 11.076923,31.09778 11.076924,16.87985 11.07692,-13.34361 11.07693,20.79522 11.07692,-6.82496 11.07692,16.82573 11.07692,14.35236 11.07693,7.32369 11.07692,-1.31584 11.07692,3.50644 11.07693,0.38163 11.07692,6.23932 11.07692,7.10693 11.07693,-3.60405 11.07692,1.03253 11.07692,0.1081 11.07693,2.45781 11.07692,-1.14702 11.07692,-1.48527 11.07692,5.86693 11.07693,0.40941 11.07692,-5.49228 11.07692,0.32933 11.07693,4.89139 11.07692,-0.35463 11.07692,2.56534 11.07693,7.24123 11.07692,-0.31127 11.07692,5.80289 11.07693,5.06558 11.07692,1.97468 11.07692,-3.27638 11.07692,1.46437 11.07693,-1.30328 11.07692,-0.48185 11.07692,-3.50552 11.07693,-0.58202 L 504,292.94206"
       style="fill:none;stroke:#da8137;stroke-width:2;stroke-linecap:square;stroke-linejoin:round;stroke-miterlimit:10;stroke-dasharray:none;stroke-opacity:1"
       id="path54"
       inkscape:connector-curvature="0" /></g></g><g
   id="g56"><g
     id="g58"
     clip-path="url(#clipPath60)"><path
       d="m 72,76.841601 11.076923,112.728109 11.076923,17.63265 11.076924,12.48061 11.07692,19.96017 11.07693,2.92498 11.07692,19.04941 11.07692,-10.7875 11.07692,27.43642 11.07693,-12.43115 11.07692,7.49012 11.07692,16.10911 11.07693,1.16205 11.07692,-7.73322 11.07692,-13.88884 11.07693,24.57888 11.07692,3.18089 11.07692,9.95095 11.07693,0.0808 11.07692,4.36416 11.07692,3.58529 11.07692,4.48125 11.07693,-5.62529 11.07692,3.66632 11.07692,3.55691 11.07693,-1.05746 11.07692,4.74085 11.07692,-3.02356 11.07693,3.37693 11.07692,4.02703 11.07692,2.9158 11.07693,-6.25148 11.07692,1.98504 11.07692,4.35436 11.07692,2.51079 11.07693,3.25103 11.07692,-5.04122 11.07692,0.47878 11.07693,2.69594 11.07692,0.4654"
       style="fill:none;stroke:#a8423f;stroke-width:2;stroke-linecap:square;stroke-linejoin:round;stroke-miterlimit:10;stroke-dasharray:none;stroke-opacity:1"
       id="path64"
       inkscape:connector-curvature="0" /></g></g><path
   d="m 116.30769,39.6 0,4"
   style="fill:none;stroke:#000000;stroke-width:0.5;stroke-linecap:butt;stroke-linejoin:round;stroke-miterlimit:10;stroke-dasharray:none;stroke-opacity:1"
   id="path66"
   inkscape:connector-curvature="0" /><path
   d="m 116.30769,376.2 0,-4"
   style="fill:none;stroke:#000000;stroke-width:0.5;stroke-linecap:butt;stroke-linejoin:round;stroke-miterlimit:10;stroke-dasharray:none;stroke-opacity:1"
   id="path68"
   inkscape:connector-curvature="0" /><text
   transform="matrix(1,0,0,-1,112.32264,24.752783)"
   style="font-variant:normal;font-size:15.94022369px;font-family:'URW Palladio L';-inkscape-font-specification:URWPalladioL-Roma;writing-mode:lr-tb;fill:#000000;fill-opacity:1;fill-rule:nonzero;stroke:none"
   id="text70"><tspan
     x="0"
     y="0"
     id="tspan72">5</tspan></text>



<path
   d="m 171.69231,39.6 0,4"
   style="fill:none;stroke:#000000;stroke-width:0.5;stroke-linecap:butt;stroke-linejoin:round;stroke-miterlimit:10;stroke-dasharray:none;stroke-opacity:1"
   id="path74"
   inkscape:connector-curvature="0" /><path
   d="m 171.69231,376.2 0,-4"
   style="fill:none;stroke:#000000;stroke-width:0.5;stroke-linecap:butt;stroke-linejoin:round;stroke-miterlimit:10;stroke-dasharray:none;stroke-opacity:1"
   id="path76"
   inkscape:connector-curvature="0" /><text
   transform="matrix(1,0,0,-1,163.7222,24.752783)"
   style="font-variant:normal;font-size:15.94022369px;font-family:'URW Palladio L';-inkscape-font-specification:URWPalladioL-Roma;writing-mode:lr-tb;fill:#000000;fill-opacity:1;fill-rule:nonzero;stroke:none"
   id="text78"><tspan
     x="0 7.9701118"
     y="0"
     sodipodi:role="line"
     id="tspan80">10</tspan></text>



<path
   d="m 227.07692,39.6 0,4"
   style="fill:none;stroke:#000000;stroke-width:0.5;stroke-linecap:butt;stroke-linejoin:round;stroke-miterlimit:10;stroke-dasharray:none;stroke-opacity:1"
   id="path82"
   inkscape:connector-curvature="0" /><path
   d="m 227.07692,376.2 0,-4"
   style="fill:none;stroke:#000000;stroke-width:0.5;stroke-linecap:butt;stroke-linejoin:round;stroke-miterlimit:10;stroke-dasharray:none;stroke-opacity:1"
   id="path84"
   inkscape:connector-curvature="0" /><text
   transform="matrix(1,0,0,-1,219.10681,24.752783)"
   style="font-variant:normal;font-size:15.94022369px;font-family:'URW Palladio L';-inkscape-font-specification:URWPalladioL-Roma;writing-mode:lr-tb;fill:#000000;fill-opacity:1;fill-rule:nonzero;stroke:none"
   id="text86"><tspan
     x="0 7.9701118"
     y="0"
     sodipodi:role="line"
     id="tspan88">15</tspan></text>



<path
   d="m 282.46154,39.6 0,4"
   style="fill:none;stroke:#000000;stroke-width:0.5;stroke-linecap:butt;stroke-linejoin:round;stroke-miterlimit:10;stroke-dasharray:none;stroke-opacity:1"
   id="path90"
   inkscape:connector-curvature="0" /><path
   d="m 282.46154,376.2 0,-4"
   style="fill:none;stroke:#000000;stroke-width:0.5;stroke-linecap:butt;stroke-linejoin:round;stroke-miterlimit:10;stroke-dasharray:none;stroke-opacity:1"
   id="path92"
   inkscape:connector-curvature="0" /><text
   transform="matrix(1,0,0,-1,274.49143,24.752783)"
   style="font-variant:normal;font-size:15.94022369px;font-family:'URW Palladio L';-inkscape-font-specification:URWPalladioL-Roma;writing-mode:lr-tb;fill:#000000;fill-opacity:1;fill-rule:nonzero;stroke:none"
   id="text94"><tspan
     x="0 7.9701118"
     y="0"
     sodipodi:role="line"
     id="tspan96">20</tspan></text>



<path
   d="m 337.84615,39.6 0,4"
   style="fill:none;stroke:#000000;stroke-width:0.5;stroke-linecap:butt;stroke-linejoin:round;stroke-miterlimit:10;stroke-dasharray:none;stroke-opacity:1"
   id="path98"
   inkscape:connector-curvature="0" /><path
   d="m 337.84615,376.2 0,-4"
   style="fill:none;stroke:#000000;stroke-width:0.5;stroke-linecap:butt;stroke-linejoin:round;stroke-miterlimit:10;stroke-dasharray:none;stroke-opacity:1"
   id="path100"
   inkscape:connector-curvature="0" /><text
   transform="matrix(1,0,0,-1,329.87604,24.752783)"
   style="font-variant:normal;font-size:15.94022369px;font-family:'URW Palladio L';-inkscape-font-specification:URWPalladioL-Roma;writing-mode:lr-tb;fill:#000000;fill-opacity:1;fill-rule:nonzero;stroke:none"
   id="text102"><tspan
     x="0 7.9701118"
     y="0"
     sodipodi:role="line"
     id="tspan104">25</tspan></text>



<path
   d="m 393.23077,39.6 0,4"
   style="fill:none;stroke:#000000;stroke-width:0.5;stroke-linecap:butt;stroke-linejoin:round;stroke-miterlimit:10;stroke-dasharray:none;stroke-opacity:1"
   id="path106"
   inkscape:connector-curvature="0" /><path
   d="m 393.23077,376.2 0,-4"
   style="fill:none;stroke:#000000;stroke-width:0.5;stroke-linecap:butt;stroke-linejoin:round;stroke-miterlimit:10;stroke-dasharray:none;stroke-opacity:1"
   id="path108"
   inkscape:connector-curvature="0" /><text
   transform="matrix(1,0,0,-1,385.26066,24.752783)"
   style="font-variant:normal;font-size:15.94022369px;font-family:'URW Palladio L';-inkscape-font-specification:URWPalladioL-Roma;writing-mode:lr-tb;fill:#000000;fill-opacity:1;fill-rule:nonzero;stroke:none"
   id="text110"><tspan
     x="0 7.9701118"
     y="0"
     sodipodi:role="line"
     id="tspan112">30</tspan></text>



<path
   d="m 448.61538,39.6 0,4"
   style="fill:none;stroke:#000000;stroke-width:0.5;stroke-linecap:butt;stroke-linejoin:round;stroke-miterlimit:10;stroke-dasharray:none;stroke-opacity:1"
   id="path114"
   inkscape:connector-curvature="0" /><path
   d="m 448.61538,376.2 0,-4"
   style="fill:none;stroke:#000000;stroke-width:0.5;stroke-linecap:butt;stroke-linejoin:round;stroke-miterlimit:10;stroke-dasharray:none;stroke-opacity:1"
   id="path116"
   inkscape:connector-curvature="0" /><text
   transform="matrix(1,0,0,-1,440.64527,24.752783)"
   style="font-variant:normal;font-size:15.94022369px;font-family:'URW Palladio L';-inkscape-font-specification:URWPalladioL-Roma;writing-mode:lr-tb;fill:#000000;fill-opacity:1;fill-rule:nonzero;stroke:none"
   id="text118"><tspan
     x="0 7.9701118"
     y="0"
     sodipodi:role="line"
     id="tspan120">35</tspan></text>



<path
   d="m 504,39.6 0,4"
   style="fill:none;stroke:#000000;stroke-width:0.5;stroke-linecap:butt;stroke-linejoin:round;stroke-miterlimit:10;stroke-dasharray:none;stroke-opacity:1"
   id="path122"
   inkscape:connector-curvature="0" /><path
   d="m 504,376.2 0,-4"
   style="fill:none;stroke:#000000;stroke-width:0.5;stroke-linecap:butt;stroke-linejoin:round;stroke-miterlimit:10;stroke-dasharray:none;stroke-opacity:1"
   id="path124"
   inkscape:connector-curvature="0" /><text
   transform="matrix(1,0,0,-1,496.02989,24.752783)"
   style="font-variant:normal;font-size:15.94022369px;font-family:'URW Palladio L';-inkscape-font-specification:URWPalladioL-Roma;writing-mode:lr-tb;fill:#000000;fill-opacity:1;fill-rule:nonzero;stroke:none"
   id="text126"><tspan
     x="0 7.9701118"
     y="0"
     sodipodi:role="line"
     id="tspan128">40</tspan></text>



<g
   id="g134"><g
     id="g136"
     clip-path="url(#clipPath138)"><path
       d="m 72,39.6 432,0"
       style="fill:none;stroke:#000000;stroke-width:0.5;stroke-linecap:butt;stroke-linejoin:round;stroke-miterlimit:10;stroke-dasharray:1, 3;stroke-dashoffset:0;stroke-opacity:1"
       id="path142"
       inkscape:connector-curvature="0" /></g></g><path
   d="m 72,39.6 4,0"
   style="fill:none;stroke:#000000;stroke-width:0.5;stroke-linecap:butt;stroke-linejoin:round;stroke-miterlimit:10;stroke-dasharray:none;stroke-opacity:1"
   id="path144"
   inkscape:connector-curvature="0" /><path
   d="m 504,39.6 -4,0"
   style="fill:none;stroke:#000000;stroke-width:0.5;stroke-linecap:butt;stroke-linejoin:round;stroke-miterlimit:10;stroke-dasharray:none;stroke-opacity:1"
   id="path146"
   inkscape:connector-curvature="0" /><text
   transform="matrix(1,0,0,-1,60.029888,34.228199)"
   style="font-variant:normal;font-size:15.94022369px;font-family:'URW Palladio L';-inkscape-font-specification:URWPalladioL-Roma;writing-mode:lr-tb;fill:#000000;fill-opacity:1;fill-rule:nonzero;stroke:none"
   id="text148"><tspan
     x="0"
     y="0"
     id="tspan150">4</tspan></text>



<g
   id="g152"><g
     id="g154"
     clip-path="url(#clipPath156)"><path
       d="m 72,106.92 432,0"
       style="fill:none;stroke:#000000;stroke-width:0.5;stroke-linecap:butt;stroke-linejoin:round;stroke-miterlimit:10;stroke-dasharray:1, 3;stroke-dashoffset:0;stroke-opacity:1"
       id="path160"
       inkscape:connector-curvature="0" /></g></g><path
   d="m 72,106.92 4,0"
   style="fill:none;stroke:#000000;stroke-width:0.5;stroke-linecap:butt;stroke-linejoin:round;stroke-miterlimit:10;stroke-dasharray:none;stroke-opacity:1"
   id="path162"
   inkscape:connector-curvature="0" /><path
   d="m 504,106.92 -4,0"
   style="fill:none;stroke:#000000;stroke-width:0.5;stroke-linecap:butt;stroke-linejoin:round;stroke-miterlimit:10;stroke-dasharray:none;stroke-opacity:1"
   id="path164"
   inkscape:connector-curvature="0" /><text
   transform="matrix(1,0,0,-1,60.029888,101.5482)"
   style="font-variant:normal;font-size:15.94022369px;font-family:'URW Palladio L';-inkscape-font-specification:URWPalladioL-Roma;writing-mode:lr-tb;fill:#000000;fill-opacity:1;fill-rule:nonzero;stroke:none"
   id="text166"><tspan
     x="0"
     y="0"
     id="tspan168">6</tspan></text>



<g
   id="g170"><g
     id="g172"
     clip-path="url(#clipPath174)"><path
       d="m 72,174.24 432,0"
       style="fill:none;stroke:#000000;stroke-width:0.5;stroke-linecap:butt;stroke-linejoin:round;stroke-miterlimit:10;stroke-dasharray:1, 3;stroke-dashoffset:0;stroke-opacity:1"
       id="path178"
       inkscape:connector-curvature="0" /></g></g><path
   d="m 72,174.24 4,0"
   style="fill:none;stroke:#000000;stroke-width:0.5;stroke-linecap:butt;stroke-linejoin:round;stroke-miterlimit:10;stroke-dasharray:none;stroke-opacity:1"
   id="path180"
   inkscape:connector-curvature="0" /><path
   d="m 504,174.24 -4,0"
   style="fill:none;stroke:#000000;stroke-width:0.5;stroke-linecap:butt;stroke-linejoin:round;stroke-miterlimit:10;stroke-dasharray:none;stroke-opacity:1"
   id="path182"
   inkscape:connector-curvature="0" /><text
   transform="matrix(1,0,0,-1,60.029888,168.8682)"
   style="font-variant:normal;font-size:15.94022369px;font-family:'URW Palladio L';-inkscape-font-specification:URWPalladioL-Roma;writing-mode:lr-tb;fill:#000000;fill-opacity:1;fill-rule:nonzero;stroke:none"
   id="text184"><tspan
     x="0"
     y="0"
     id="tspan186">8</tspan></text>



<g
   id="g188"><g
     id="g190"
     clip-path="url(#clipPath192)"><path
       d="m 72,241.56 432,0"
       style="fill:none;stroke:#000000;stroke-width:0.5;stroke-linecap:butt;stroke-linejoin:round;stroke-miterlimit:10;stroke-dasharray:1, 3;stroke-dashoffset:0;stroke-opacity:1"
       id="path196"
       inkscape:connector-curvature="0" /></g></g><path
   d="m 72,241.56 4,0"
   style="fill:none;stroke:#000000;stroke-width:0.5;stroke-linecap:butt;stroke-linejoin:round;stroke-miterlimit:10;stroke-dasharray:none;stroke-opacity:1"
   id="path198"
   inkscape:connector-curvature="0" /><path
   d="m 504,241.56 -4,0"
   style="fill:none;stroke:#000000;stroke-width:0.5;stroke-linecap:butt;stroke-linejoin:round;stroke-miterlimit:10;stroke-dasharray:none;stroke-opacity:1"
   id="path200"
   inkscape:connector-curvature="0" /><text
   transform="matrix(1,0,0,-1,52.059776,236.1882)"
   style="font-variant:normal;font-size:15.94022369px;font-family:'URW Palladio L';-inkscape-font-specification:URWPalladioL-Roma;writing-mode:lr-tb;fill:#000000;fill-opacity:1;fill-rule:nonzero;stroke:none"
   id="text202"><tspan
     x="0 7.9701118"
     y="0"
     sodipodi:role="line"
     id="tspan204">10</tspan></text>



<g
   id="g206"><g
     id="g208"
     clip-path="url(#clipPath210)"><path
       d="m 72,308.88 432,0"
       style="fill:none;stroke:#000000;stroke-width:0.5;stroke-linecap:butt;stroke-linejoin:round;stroke-miterlimit:10;stroke-dasharray:1, 3;stroke-dashoffset:0;stroke-opacity:1"
       id="path214"
       inkscape:connector-curvature="0" /></g></g><path
   d="m 72,308.88 4,0"
   style="fill:none;stroke:#000000;stroke-width:0.5;stroke-linecap:butt;stroke-linejoin:round;stroke-miterlimit:10;stroke-dasharray:none;stroke-opacity:1"
   id="path216"
   inkscape:connector-curvature="0" /><path
   d="m 504,308.88 -4,0"
   style="fill:none;stroke:#000000;stroke-width:0.5;stroke-linecap:butt;stroke-linejoin:round;stroke-miterlimit:10;stroke-dasharray:none;stroke-opacity:1"
   id="path218"
   inkscape:connector-curvature="0" /><text
   transform="matrix(1,0,0,-1,52.059776,303.5082)"
   style="font-variant:normal;font-size:15.94022369px;font-family:'URW Palladio L';-inkscape-font-specification:URWPalladioL-Roma;writing-mode:lr-tb;fill:#000000;fill-opacity:1;fill-rule:nonzero;stroke:none"
   id="text220"><tspan
     x="0 7.9701118"
     y="0"
     sodipodi:role="line"
     id="tspan222">12</tspan></text>



<path
   d="m 72,376.2 4,0"
   style="fill:none;stroke:#000000;stroke-width:0.5;stroke-linecap:butt;stroke-linejoin:round;stroke-miterlimit:10;stroke-dasharray:none;stroke-opacity:1"
   id="path234"
   inkscape:connector-curvature="0" /><path
   d="m 504,376.2 -4,0"
   style="fill:none;stroke:#000000;stroke-width:0.5;stroke-linecap:butt;stroke-linejoin:round;stroke-miterlimit:10;stroke-dasharray:none;stroke-opacity:1"
   id="path236"
   inkscape:connector-curvature="0" /><text
   transform="matrix(1,0,0,-1,52.059776,370.8282)"
   style="font-variant:normal;font-size:15.94022369px;font-family:'URW Palladio L';-inkscape-font-specification:URWPalladioL-Roma;writing-mode:lr-tb;fill:#000000;fill-opacity:1;fill-rule:nonzero;stroke:none"
   id="text238"><tspan
     x="0 7.9701118"
     y="0"
     sodipodi:role="line"
     id="tspan240">14</tspan></text>



<path
   d="m 72,376.2 432,0"
   style="fill:none;stroke:#000000;stroke-width:1;stroke-linecap:square;stroke-linejoin:round;stroke-miterlimit:10;stroke-dasharray:none;stroke-opacity:1"
   id="path262"
   inkscape:connector-curvature="0" /><path
   d="m 504,39.6 0,336.6"
   style="fill:none;stroke:#000000;stroke-width:1;stroke-linecap:square;stroke-linejoin:round;stroke-miterlimit:10;stroke-dasharray:none;stroke-opacity:1"
   id="path264"
   inkscape:connector-curvature="0" /><path
   d="m 72,39.6 432,0"
   style="fill:none;stroke:#000000;stroke-width:1;stroke-linecap:square;stroke-linejoin:round;stroke-miterlimit:10;stroke-dasharray:none;stroke-opacity:1"
   id="path266"
   inkscape:connector-curvature="0" /><path
   d="m 72,39.6 0,336.6"
   style="fill:none;stroke:#000000;stroke-width:1;stroke-linecap:square;stroke-linejoin:round;stroke-miterlimit:10;stroke-dasharray:none;stroke-opacity:1"
   id="path268"
   inkscape:connector-curvature="0" /><path
   d="m 314.64,58.062653 171.54714,0 0,101.679717 -171.54714,0 0,-101.679717 z"
   style="fill:#ffffff;fill-opacity:1;fill-rule:nonzero;stroke:#000000;stroke-width:1;stroke-linecap:square;stroke-linejoin:round;stroke-miterlimit:10;stroke-dasharray:none;stroke-opacity:1"
   id="path270"
   inkscape:connector-curvature="0" /><path
   d="m 323.9696,149.57546 18.6592,0"
   style="fill:none;stroke:#000000;stroke-width:2;stroke-linecap:butt;stroke-linejoin:round;stroke-miterlimit:10;stroke-dasharray:6, 6;stroke-dashoffset:0;stroke-opacity:1"
   id="path272"
   inkscape:connector-curvature="0" /><text
   transform="scale(1,-1)"
   style="font-variant:normal;font-size:13.27820969px;font-family:'URW Palladio L';-inkscape-font-specification:URWPalladioL-Roma;writing-mode:lr-tb;fill:#000000;fill-opacity:1;fill-rule:nonzero;stroke:none"
   id="text274"
   x="357.28961"
   y="-144.91066"><tspan
     x="357.28961 368.61591 379.96878 389.92743 401.63882"
     y="-144.91066"
     sodipodi:role="line"
     id="tspan276">P=0mm</tspan></text>



<path
   d="m 323.9696,129.66658 18.6592,0"
   style="fill:none;stroke:#77933c;stroke-width:2;stroke-linecap:square;stroke-linejoin:round;stroke-miterlimit:10;stroke-dasharray:none;stroke-opacity:1"
   id="path278"
   inkscape:connector-curvature="0" /><text
   transform="scale(1,-1)"
   style="font-variant:normal;font-size:13.27820969px;font-family:'URW Palladio L';-inkscape-font-specification:URWPalladioL-Roma;writing-mode:lr-tb;fill:#000000;fill-opacity:1;fill-rule:nonzero;stroke:none"
   id="text280"
   x="357.28961"
   y="-125.00179"><tspan
     x="357.28961 367.24826 378.95963"
     y="-125.00179"
     sodipodi:role="line"
     id="tspan282">2mm</tspan></text>



<text
   transform="scale(1,-1)"
   style="font-style:italic;font-variant:normal;font-weight:normal;font-size:13.83588696px;font-family:'Computer Modern';-inkscape-font-specification:CMMI10;writing-mode:lr-tb;fill:#000000;fill-opacity:1;fill-rule:nonzero;stroke:none"
   id="text284"
   x="394.18295"
   y="-125.00179"><tspan
     x="394.18295"
     y="-125.00179"
     id="tspan286">&lt;</tspan></text>



<text
   transform="scale(1,-1)"
   style="font-variant:normal;font-size:13.27820969px;font-family:'URW Palladio L';-inkscape-font-specification:URWPalladioL-Roma;writing-mode:lr-tb;fill:#000000;fill-opacity:1;fill-rule:nonzero;stroke:none"
   id="text288"
   x="408.42371"
   y="-125.00179"><tspan
     x="408.42371"
     y="-125.00179"
     id="tspan290">P</tspan></text>



<text
   transform="scale(1,-1)"
   style="font-style:italic;font-variant:normal;font-weight:normal;font-size:13.83588696px;font-family:'Computer Modern';-inkscape-font-specification:CMSY10;writing-mode:lr-tb;fill:#000000;fill-opacity:1;fill-rule:nonzero;stroke:none"
   id="text292"
   x="419.92914"
   y="-125.00179"><tspan
     x="419.92914"
     y="-125.00179"
     id="tspan294">≥</tspan></text>



<text
   transform="scale(1,-1)"
   style="font-variant:normal;font-size:13.27820969px;font-family:'URW Palladio L';-inkscape-font-specification:URWPalladioL-Roma;writing-mode:lr-tb;fill:#000000;fill-opacity:1;fill-rule:nonzero;stroke:none"
   id="text296"
   x="434.16989"
   y="-125.00179"><tspan
     x="434.16989 440.80899 450.76764 462.47903"
     y="-125.00179"
     sodipodi:role="line"
     id="tspan298">10mm</tspan></text>



<path
   d="m 323.9696,109.75769 18.6592,0"
   style="fill:none;stroke:#416fa6;stroke-width:2;stroke-linecap:square;stroke-linejoin:round;stroke-miterlimit:10;stroke-dasharray:none;stroke-opacity:1"
   id="path300"
   inkscape:connector-curvature="0" /><text
   transform="scale(1,-1)"
   style="font-variant:normal;font-size:13.27820969px;font-family:'URW Palladio L';-inkscape-font-specification:URWPalladioL-Roma;writing-mode:lr-tb;fill:#000000;fill-opacity:1;fill-rule:nonzero;stroke:none"
   id="text302"
   x="357.28961"
   y="-105.0929"><tspan
     x="357.28961 363.92871 373.88736 385.59875"
     y="-105.0929"
     sodipodi:role="line"
     id="tspan304">10mm</tspan></text>



<text
   transform="scale(1,-1)"
   style="font-style:italic;font-variant:normal;font-weight:normal;font-size:13.83588696px;font-family:'Computer Modern';-inkscape-font-specification:CMMI10;writing-mode:lr-tb;fill:#000000;fill-opacity:1;fill-rule:nonzero;stroke:none"
   id="text306"
   x="400.82205"
   y="-105.0929"><tspan
     x="400.82205"
     y="-105.0929"
     id="tspan308">&lt;</tspan></text>



<text
   transform="scale(1,-1)"
   style="font-variant:normal;font-size:13.27820969px;font-family:'URW Palladio L';-inkscape-font-specification:URWPalladioL-Roma;writing-mode:lr-tb;fill:#000000;fill-opacity:1;fill-rule:nonzero;stroke:none"
   id="text310"
   x="415.06281"
   y="-105.0929"><tspan
     x="415.06281"
     y="-105.0929"
     id="tspan312">P</tspan></text>



<text
   transform="scale(1,-1)"
   style="font-style:italic;font-variant:normal;font-weight:normal;font-size:13.83588696px;font-family:'Computer Modern';-inkscape-font-specification:CMSY10;writing-mode:lr-tb;fill:#000000;fill-opacity:1;fill-rule:nonzero;stroke:none"
   id="text314"
   x="426.56827"
   y="-105.0929"><tspan
     x="426.56827"
     y="-105.0929"
     id="tspan316">≥</tspan></text>



<text
   transform="scale(1,-1)"
   style="font-variant:normal;font-size:13.27820969px;font-family:'URW Palladio L';-inkscape-font-specification:URWPalladioL-Roma;writing-mode:lr-tb;fill:#000000;fill-opacity:1;fill-rule:nonzero;stroke:none"
   id="text318"
   x="440.80899"
   y="-105.0929"><tspan
     x="440.80899 447.44809 457.40677 469.11813"
     y="-105.0929"
     sodipodi:role="line"
     id="tspan320">20mm</tspan></text>



<path
   d="m 323.9696,89.848803 18.6592,0"
   style="fill:none;stroke:#da8137;stroke-width:2;stroke-linecap:square;stroke-linejoin:round;stroke-miterlimit:10;stroke-dasharray:none;stroke-opacity:1"
   id="path322"
   inkscape:connector-curvature="0" /><text
   transform="scale(1,-1)"
   style="font-variant:normal;font-size:13.27820969px;font-family:'URW Palladio L';-inkscape-font-specification:URWPalladioL-Roma;writing-mode:lr-tb;fill:#000000;fill-opacity:1;fill-rule:nonzero;stroke:none"
   id="text324"
   x="357.28961"
   y="-85.184006"><tspan
     x="357.28961 363.92871 373.88736 385.59875"
     y="-85.184006"
     sodipodi:role="line"
     id="tspan326">20mm</tspan></text>



<text
   transform="scale(1,-1)"
   style="font-style:italic;font-variant:normal;font-weight:normal;font-size:13.83588696px;font-family:'Computer Modern';-inkscape-font-specification:CMMI10;writing-mode:lr-tb;fill:#000000;fill-opacity:1;fill-rule:nonzero;stroke:none"
   id="text328"
   x="400.82205"
   y="-85.184006"><tspan
     x="400.82205"
     y="-85.184006"
     id="tspan330">&lt;</tspan></text>



<text
   transform="scale(1,-1)"
   style="font-variant:normal;font-size:13.27820969px;font-family:'URW Palladio L';-inkscape-font-specification:URWPalladioL-Roma;writing-mode:lr-tb;fill:#000000;fill-opacity:1;fill-rule:nonzero;stroke:none"
   id="text332"
   x="415.06281"
   y="-85.184006"><tspan
     x="415.06281"
     y="-85.184006"
     id="tspan334">P</tspan></text>



<text
   transform="scale(1,-1)"
   style="font-style:italic;font-variant:normal;font-weight:normal;font-size:13.83588696px;font-family:'Computer Modern';-inkscape-font-specification:CMSY10;writing-mode:lr-tb;fill:#000000;fill-opacity:1;fill-rule:nonzero;stroke:none"
   id="text336"
   x="426.56827"
   y="-85.184006"><tspan
     x="426.56827"
     y="-85.184006"
     id="tspan338">≥</tspan></text>



<text
   transform="scale(1,-1)"
   style="font-variant:normal;font-size:13.27820969px;font-family:'URW Palladio L';-inkscape-font-specification:URWPalladioL-Roma;writing-mode:lr-tb;fill:#000000;fill-opacity:1;fill-rule:nonzero;stroke:none"
   id="text340"
   x="440.80899"
   y="-85.184006"><tspan
     x="440.80899 447.44809 457.40677 469.11813"
     y="-85.184006"
     sodipodi:role="line"
     id="tspan342">30mm</tspan></text>



<path
   d="m 323.9696,69.939913 18.6592,0"
   style="fill:none;stroke:#a8423f;stroke-width:2;stroke-linecap:square;stroke-linejoin:round;stroke-miterlimit:10;stroke-dasharray:none;stroke-opacity:1"
   id="path344"
   inkscape:connector-curvature="0" /><text
   transform="scale(1,-1)"
   style="font-variant:normal;font-size:13.27820969px;font-family:'URW Palladio L';-inkscape-font-specification:URWPalladioL-Roma;writing-mode:lr-tb;fill:#000000;fill-opacity:1;fill-rule:nonzero;stroke:none"
   id="text346"
   x="357.28961"
   y="-65.275116"><tspan
     x="357.28961"
     y="-65.275116"
     id="tspan348">P</tspan></text>



<text
   transform="scale(1,-1)"
   style="font-style:italic;font-variant:normal;font-weight:normal;font-size:13.83588696px;font-family:'Computer Modern';-inkscape-font-specification:CMSY10;writing-mode:lr-tb;fill:#000000;fill-opacity:1;fill-rule:nonzero;stroke:none"
   id="text350"
   x="368.79504"
   y="-65.275116"><tspan
     x="368.79504"
     y="-65.275116"
     id="tspan352">≥</tspan></text>



<text
   transform="scale(1,-1)"
   style="font-variant:normal;font-size:13.27820969px;font-family:'URW Palladio L';-inkscape-font-specification:URWPalladioL-Roma;writing-mode:lr-tb;fill:#000000;fill-opacity:1;fill-rule:nonzero;stroke:none"
   id="text354"
   x="383.0358"
   y="-65.275116"><tspan
     x="383.0358 389.6749 399.63354 411.34494"
     y="-65.275116"
     sodipodi:role="line"
     id="tspan356">30mm</tspan></text>



<text
   xml:space="preserve"
   style="font-style:normal;font-variant:normal;font-weight:normal;font-stretch:normal;font-size:16px;line-height:125%;font-family:'Palatino Linotype';-inkscape-font-specification:'Palatino Linotype';letter-spacing:0px;word-spacing:0px;fill:#000000;fill-opacity:1;stroke:none;stroke-width:1px;stroke-linecap:butt;stroke-linejoin:miter;stroke-opacity:1"
   x="233.66876"
   y="-8.4618196"
   id="text4484"
   sodipodi:linespacing="125%"
   transform="scale(1,-1)"><tspan
     sodipodi:role="line"
     id="tspan4486"
     x="233.66876"
     y="-8.4618196">Analogue rank</tspan></text>



<text
   xml:space="preserve"
   style="font-style:normal;font-variant:normal;font-weight:normal;font-stretch:normal;font-size:16px;line-height:125%;font-family:'Palatino Linotype';-inkscape-font-specification:'Palatino Linotype';letter-spacing:0px;word-spacing:0px;fill:#000000;fill-opacity:1;stroke:none;stroke-width:1px;stroke-linecap:butt;stroke-linejoin:miter;stroke-opacity:1"
   x="97.085533"
   y="44.004787"
   id="text4488"
   sodipodi:linespacing="125%"
   transform="matrix(0,1,1,0,0,0)"><tspan
     sodipodi:role="line"
     id="tspan4490"
     x="97.085533"
     y="44.004787">Reduction of the S1 criteria [%]</tspan></text>



</g></svg>