<?xml version="1.0" encoding="UTF-8" standalone="no"?>
<!-- Created with Inkscape (http://www.inkscape.org/) -->

<svg
   xmlns:dc="http://purl.org/dc/elements/1.1/"
   xmlns:cc="http://creativecommons.org/ns#"
   xmlns:rdf="http://www.w3.org/1999/02/22-rdf-syntax-ns#"
   xmlns:svg="http://www.w3.org/2000/svg"
   xmlns="http://www.w3.org/2000/svg"
   xmlns:sodipodi="http://sodipodi.sourceforge.net/DTD/sodipodi-0.dtd"
   xmlns:inkscape="http://www.inkscape.org/namespaces/inkscape"
   width="210mm"
   height="297mm"
   viewBox="0 0 744.09448819 1052.3622047"
   id="svg2"
   version="1.1"
   inkscape:version="0.91 r13725"
   sodipodi:docname="figure_levels_weights_average.svg">
  <defs
     id="defs4">
    <clipPath
       id="clipPath4152"
       clipPathUnits="userSpaceOnUse">
      <path
         style="clip-rule:evenodd"
         inkscape:connector-curvature="0"
         id="path4154"
         d="m 828,419.922 3301,0 0,6177 -3301,0 0,-6177 z" />
    </clipPath>
  </defs>
  <sodipodi:namedview
     id="base"
     pagecolor="#ffffff"
     bordercolor="#666666"
     borderopacity="1.0"
     inkscape:pageopacity="0.0"
     inkscape:pageshadow="2"
     inkscape:zoom="0.35"
     inkscape:cx="-60.714286"
     inkscape:cy="517.14286"
     inkscape:document-units="px"
     inkscape:current-layer="layer1"
     showgrid="false"
     inkscape:window-width="1920"
     inkscape:window-height="1137"
     inkscape:window-x="-8"
     inkscape:window-y="-8"
     inkscape:window-maximized="1" />
  <metadata
     id="metadata7">
    <rdf:RDF>
      <cc:Work
         rdf:about="">
        <dc:format>image/svg+xml</dc:format>
        <dc:type
           rdf:resource="http://purl.org/dc/dcmitype/StillImage" />
        <dc:title></dc:title>
      </cc:Work>
    </rdf:RDF>
  </metadata>
  <g
     inkscape:label="Layer 1"
     inkscape:groupmode="layer"
     id="layer1">
    <g
       transform="matrix(0,1.25,1.25,0,-134.90973,169.15863)"
       inkscape:label="figure_levels_weights_average_orig"
       id="g4144">
      <g
         transform="scale(0.12,0.12)"
         id="g4146">
        <g
           id="g4148">
          <g
             clip-path="url(#clipPath4152)"
             id="g4150">
            <path
               inkscape:connector-curvature="0"
               id="path4156"
               style="fill:#ffffff;fill-opacity:1;fill-rule:evenodd;stroke:none"
               d="m 829,420.922 3299,0 0,6176 -3299,0 0,-6176 z" />
          </g>
        </g>
        <path
           inkscape:connector-curvature="0"
           id="path4158"
           style="fill:#d9d9d9;fill-opacity:1;fill-rule:nonzero;stroke:none"
           d="m 3111,900.922 0,5521.998 12,0 0,-5521.998 -12,0 z m -284,0 0,5521.998 12,0 0,-5521.998 -12,0 z m -283,0 0,5521.998 11,0 0,-5521.998 -11,0 z m -284,0 0,5521.998 12,0 0,-5521.998 -12,0 z m -284,0 0,5521.998 12,0 0,-5521.998 -12,0 z m -284,0 0,5521.998 12,0 0,-5521.998 -12,0 z m -283,0 0,5521.998 11,0 0,-5521.998" />
        <path
           inkscape:connector-curvature="0"
           id="path4160"
           style="fill:#4f81bd;fill-opacity:1;fill-rule:nonzero;stroke:none"
           d="m 1777,1164.92 0,240 1624,0 0,-240 -1624,0 z m 131,1380 0,242 1493,0 0,-242 -1493,0 z m 62,1381 0,240 1431,0 0,-240 -1431,0 z m 301,1380 0,242 1130,0 0,-242" />
        <path
           inkscape:connector-curvature="0"
           id="path4162"
           style="fill:#c0504d;fill-opacity:1;fill-rule:nonzero;stroke:none"
           d="m 1738,1471.92 0,240 1663,0 0,-240 -1663,0 z m 147,1379 0,240 1516,0 0,-240 -1516,0 z m 278,1382 0,240 1238,0 0,-240 -1238,0 z m -22,1379 0,241 1260,0 0,-241" />
        <path
           inkscape:connector-curvature="0"
           id="path4164"
           style="fill:#9bbb59;fill-opacity:1;fill-rule:nonzero;stroke:none"
           d="m 1863,1775.92 0,242 1538,0 0,-242 -1538,0 z m 11,1382 0,240 1527,0 0,-240 -1527,0 z m 108,1379 0,243 1419,0 0,-243 -1419,0 z m 227,1382 0,240 1192,0 0,-240" />
        <path
           inkscape:connector-curvature="0"
           id="path4166"
           style="fill:#d9d9d9;fill-opacity:1;fill-rule:evenodd;stroke:none"
           d="m 3396,900.922 11,0 0,5522 -11,0 0,-5522 z" />
        <g
           transform="scale(8.33333,8.33333)"
           id="g4168">
          <text
             id="text4170"
             style="font-variant:normal;font-weight:normal;font-size:17.03210068px;font-family:Calibri;-inkscape-font-specification:Calibri;writing-mode:lr-tb;fill:#595959;fill-opacity:1;fill-rule:nonzero;stroke:none"
             transform="matrix(0,1,1,0,413.04,71.3906)">
            <tspan
               id="tspan4172"
               sodipodi:role="line"
               y="0"
               x="0 8.6400137">0%</tspan>
            <tspan
               id="tspan4174"
               sodipodi:role="line"
               y="-34.080002"
               x="0 8.6400137">5%</tspan>
            <tspan
               id="tspan4176"
               sodipodi:role="line"
               y="-68.160004"
               x="-8.5200005 1.337e-005 8.640027">10%</tspan>
            <tspan
               id="tspan4178"
               sodipodi:role="line"
               y="-102.24"
               x="-8.5200005 1.337e-005 8.640027">15%</tspan>
            <tspan
               id="tspan4180"
               sodipodi:role="line"
               y="-136.32001"
               x="-8.5200005 1.337e-005 8.640027">20%</tspan>
            <tspan
               id="tspan4182"
               sodipodi:role="line"
               y="-170.39999"
               x="-8.5200005 1.337e-005 8.640027">25%</tspan>
            <tspan
               id="tspan4184"
               sodipodi:role="line"
               y="-204.36"
               x="-8.5200005 1.337e-005 8.640027">30%</tspan>
            <tspan
               id="tspan4186"
               sodipodi:role="line"
               y="-238.44"
               x="-8.5200005 1.337e-005 8.640027">35%</tspan>
            <tspan
               id="tspan4188"
               sodipodi:role="line"
               y="22.08"
               x="111.24 119.16002 276.84012 284.76016 442.56033 450.48032 608.16046 616.08044">Z1Z2Z3Z4</tspan>
          </text>
          <text
             id="text4190"
             style="font-variant:normal;font-weight:normal;font-size:26.57019997px;font-family:Calibri;-inkscape-font-specification:Calibri;writing-mode:lr-tb;fill:#595959;fill-opacity:1;fill-rule:nonzero;stroke:none"
             transform="matrix(0,1,1,0,138.96,183.4706)">
            <tspan
               id="tspan4192"
               sodipodi:role="line"
               y="0"
               x="0 15.00002 26.760038 39.960064 48.840076 61.560097 73.800117 86.880142 92.400146 111.24017 124.44019 130.56018 143.04021 156.60023 165.48024 171.60023 185.52026 198.00029 203.88029 217.92032 226.20033 232.08034 240.96034 254.76035 267.96039 274.08038 286.56039 295.4404 316.56046 330.60046 341.0405 354.96051 368.7605 381.96054 391.20053 397.32056 408.48059 414.3606 420.48062 433.44064 445.32065 458.52069 464.64072">Average weighting of the atmospheric levels</tspan>
          </text>
        </g>
        <path
           inkscape:connector-curvature="0"
           id="path4194"
           style="fill:#4f81bd;fill-opacity:1;fill-rule:evenodd;stroke:none"
           d="m 3861,2365.92 78,0 0,78 -78,0 0,-78 z" />
        <g
           transform="scale(8.33333,8.33333)"
           id="g4196">
          <text
             id="text4198"
             style="font-variant:normal;font-weight:normal;font-size:17.03210068px;font-family:Calibri;-inkscape-font-specification:Calibri;writing-mode:lr-tb;fill:#595959;fill-opacity:1;fill-rule:nonzero;stroke:none"
             transform="matrix(0,1,1,0,472.92,297.231)">
            <tspan
               id="tspan4200"
               sodipodi:role="line"
               y="0"
               x="0 14.520023 22.920036 28.800049 37.680058 46.800056 55.560059 59.400059">Method 1</tspan>
          </text>
        </g>
        <path
           inkscape:connector-curvature="0"
           id="path4202"
           style="fill:#c0504d;fill-opacity:1;fill-rule:evenodd;stroke:none"
           d="m 3861,3197.92 78,0 0,78 -78,0 0,-78 z" />
        <g
           transform="scale(8.33333,8.33333)"
           id="g4204">
          <text
             id="text4206"
             style="font-variant:normal;font-weight:normal;font-size:17.03210068px;font-family:Calibri;-inkscape-font-specification:Calibri;writing-mode:lr-tb;fill:#595959;fill-opacity:1;fill-rule:nonzero;stroke:none"
             transform="matrix(0,1,1,0,472.92,397.071)">
            <tspan
               id="tspan4208"
               sodipodi:role="line"
               y="0"
               x="0 14.520023 22.920036 28.800049 37.680058 46.800056 55.560059 59.400059">Method 2</tspan>
          </text>
        </g>
        <path
           inkscape:connector-curvature="0"
           id="path4210"
           style="fill:#9bbb59;fill-opacity:1;fill-rule:evenodd;stroke:none"
           d="m 3861,4029.92 78,0 0,78 -78,0 0,-78 z" />
        <g
           transform="scale(8.33333,8.33333)"
           id="g4212">
          <text
             id="text4214"
             style="font-variant:normal;font-weight:normal;font-size:17.03210068px;font-family:Calibri;-inkscape-font-specification:Calibri;writing-mode:lr-tb;fill:#595959;fill-opacity:1;fill-rule:nonzero;stroke:none"
             transform="matrix(0,1,1,0,472.92,496.911)">
            <tspan
               id="tspan4216"
               sodipodi:role="line"
               y="0"
               x="0 14.520023 22.920036 28.800049 37.680084 46.800083 55.56012 59.400116">Method 3</tspan>
          </text>
        </g>
      </g>
    </g>
  </g>
</svg>
