<?xml version="1.0" encoding="UTF-8" standalone="no"?>
<!-- Created with Inkscape (http://www.inkscape.org/) -->

<svg
   xmlns:dc="http://purl.org/dc/elements/1.1/"
   xmlns:cc="http://creativecommons.org/ns#"
   xmlns:rdf="http://www.w3.org/1999/02/22-rdf-syntax-ns#"
   xmlns:svg="http://www.w3.org/2000/svg"
   xmlns="http://www.w3.org/2000/svg"
   xmlns:sodipodi="http://sodipodi.sourceforge.net/DTD/sodipodi-0.dtd"
   xmlns:inkscape="http://www.inkscape.org/namespaces/inkscape"
   id="svg2"
   version="1.1"
   inkscape:version="0.91 r13725"
   xml:space="preserve"
   width="625.27039"
   height="651.90082"
   viewBox="0 0 625.27039 651.90082"
   sodipodi:docname="gas_evolution_bad.svg"><metadata
     id="metadata8"><rdf:RDF><cc:Work
         rdf:about=""><dc:format>image/svg+xml</dc:format><dc:type
           rdf:resource="http://purl.org/dc/dcmitype/StillImage" /><dc:title /></cc:Work></rdf:RDF></metadata><defs
     id="defs6"><clipPath
       clipPathUnits="userSpaceOnUse"
       id="clipPath20"><path
         d="m 72,57.6 446.4,0 0,460.8 -446.4,0 0,-460.8 z"
         id="path22"
         inkscape:connector-curvature="0" /></clipPath><clipPath
       clipPathUnits="userSpaceOnUse"
       id="clipPath30"><path
         d="m 72,57.6 446.4,0 0,460.8 -446.4,0 0,-460.8 z"
         id="path32"
         inkscape:connector-curvature="0" /></clipPath><clipPath
       clipPathUnits="userSpaceOnUse"
       id="clipPath40"><path
         d="m 72,57.6 446.4,0 0,460.8 -446.4,0 0,-460.8 z"
         id="path42"
         inkscape:connector-curvature="0" /></clipPath><clipPath
       clipPathUnits="userSpaceOnUse"
       id="clipPath50"><path
         d="m 72,57.6 446.4,0 0,460.8 -446.4,0 0,-460.8 z"
         id="path52"
         inkscape:connector-curvature="0" /></clipPath><clipPath
       clipPathUnits="userSpaceOnUse"
       id="clipPath60"><path
         d="m 72,57.6 446.4,0 0,460.8 -446.4,0 0,-460.8 z"
         id="path62"
         inkscape:connector-curvature="0" /></clipPath><clipPath
       clipPathUnits="userSpaceOnUse"
       id="clipPath70"><path
         d="m 72,57.6 446.4,0 0,460.8 -446.4,0 0,-460.8 z"
         id="path72"
         inkscape:connector-curvature="0" /></clipPath><clipPath
       clipPathUnits="userSpaceOnUse"
       id="clipPath80"><path
         d="m 72,57.6 446.4,0 0,460.8 -446.4,0 0,-460.8 z"
         id="path82"
         inkscape:connector-curvature="0" /></clipPath><clipPath
       clipPathUnits="userSpaceOnUse"
       id="clipPath90"><path
         d="m 72,57.6 446.4,0 0,460.8 -446.4,0 0,-460.8 z"
         id="path92"
         inkscape:connector-curvature="0" /></clipPath><clipPath
       clipPathUnits="userSpaceOnUse"
       id="clipPath100"><path
         d="m 72,57.6 446.4,0 0,460.8 -446.4,0 0,-460.8 z"
         id="path102"
         inkscape:connector-curvature="0" /></clipPath><clipPath
       clipPathUnits="userSpaceOnUse"
       id="clipPath110"><path
         d="m 72,57.6 446.4,0 0,460.8 -446.4,0 0,-460.8 z"
         id="path112"
         inkscape:connector-curvature="0" /></clipPath><clipPath
       clipPathUnits="userSpaceOnUse"
       id="clipPath120"><path
         d="m 72,57.6 446.4,0 0,460.8 -446.4,0 0,-460.8 z"
         id="path122"
         inkscape:connector-curvature="0" /></clipPath><clipPath
       clipPathUnits="userSpaceOnUse"
       id="clipPath130"><path
         d="m 72,57.6 446.4,0 0,460.8 -446.4,0 0,-460.8 z"
         id="path132"
         inkscape:connector-curvature="0" /></clipPath><clipPath
       clipPathUnits="userSpaceOnUse"
       id="clipPath140"><path
         d="m 72,57.6 446.4,0 0,460.8 -446.4,0 0,-460.8 z"
         id="path142"
         inkscape:connector-curvature="0" /></clipPath><clipPath
       clipPathUnits="userSpaceOnUse"
       id="clipPath150"><path
         d="m 72,57.6 446.4,0 0,460.8 -446.4,0 0,-460.8 z"
         id="path152"
         inkscape:connector-curvature="0" /></clipPath><clipPath
       clipPathUnits="userSpaceOnUse"
       id="clipPath160"><path
         d="m 72,57.6 446.4,0 0,460.8 -446.4,0 0,-460.8 z"
         id="path162"
         inkscape:connector-curvature="0" /></clipPath><clipPath
       clipPathUnits="userSpaceOnUse"
       id="clipPath170"><path
         d="m 72,57.6 446.4,0 0,460.8 -446.4,0 0,-460.8 z"
         id="path172"
         inkscape:connector-curvature="0" /></clipPath><clipPath
       clipPathUnits="userSpaceOnUse"
       id="clipPath180"><path
         d="m 72,57.6 446.4,0 0,460.8 -446.4,0 0,-460.8 z"
         id="path182"
         inkscape:connector-curvature="0" /></clipPath><clipPath
       clipPathUnits="userSpaceOnUse"
       id="clipPath190"><path
         d="m 72,57.6 446.4,0 0,460.8 -446.4,0 0,-460.8 z"
         id="path192"
         inkscape:connector-curvature="0" /></clipPath><clipPath
       clipPathUnits="userSpaceOnUse"
       id="clipPath200"><path
         d="m 72,57.6 446.4,0 0,460.8 -446.4,0 0,-460.8 z"
         id="path202"
         inkscape:connector-curvature="0" /></clipPath><clipPath
       clipPathUnits="userSpaceOnUse"
       id="clipPath210"><path
         d="m 72,57.6 446.4,0 0,460.8 -446.4,0 0,-460.8 z"
         id="path212"
         inkscape:connector-curvature="0" /></clipPath><clipPath
       clipPathUnits="userSpaceOnUse"
       id="clipPath220"><path
         d="m 72,57.6 446.4,0 0,460.8 -446.4,0 0,-460.8 z"
         id="path222"
         inkscape:connector-curvature="0" /></clipPath><clipPath
       clipPathUnits="userSpaceOnUse"
       id="clipPath230"><path
         d="m 72,57.6 446.4,0 0,460.8 -446.4,0 0,-460.8 z"
         id="path232"
         inkscape:connector-curvature="0" /></clipPath></defs><sodipodi:namedview
     pagecolor="#ffffff"
     bordercolor="#666666"
     borderopacity="1"
     objecttolerance="10"
     gridtolerance="10"
     guidetolerance="10"
     inkscape:pageopacity="0"
     inkscape:pageshadow="2"
     inkscape:window-width="1418"
     inkscape:window-height="925"
     id="namedview4"
     showgrid="false"
     fit-margin-top="0"
     fit-margin-left="0"
     fit-margin-right="0"
     fit-margin-bottom="0"
     inkscape:zoom="0.65555556"
     inkscape:cx="21.471471"
     inkscape:cy="227.38563"
     inkscape:window-x="-40"
     inkscape:window-y="84"
     inkscape:window-maximized="0"
     inkscape:current-layer="g10" /><g
     id="g10"
     inkscape:groupmode="layer"
     inkscape:label="gas_evolution_bad"
     transform="matrix(1.25,0,0,-1.25,-23.354603,686.07879)"><path
       d="m 72,57.6 446.4,0 0,460.8 -446.4,0 0,-460.8 z"
       style="fill:#ffffff;fill-opacity:1;fill-rule:nonzero;stroke:none"
       id="path14"
       inkscape:connector-curvature="0" /><g
       id="g16"><g
         id="g18"
         clip-path="url(#clipPath20)"><path
           d="m 428.92442,395.01071 c 1.05801,0 2.07283,0.42036 2.82095,1.16848 0.74813,0.74812 1.16848,1.76294 1.16848,2.82095 0,1.058 -0.42035,2.07282 -1.16848,2.82095 -0.74812,0.74812 -1.76294,1.16847 -2.82095,1.16847 -1.058,0 -2.07282,-0.42035 -2.82094,-1.16847 -0.74813,-0.74813 -1.16848,-1.76295 -1.16848,-2.82095 0,-1.05801 0.42035,-2.07283 1.16848,-2.82095 0.74812,-0.74812 1.76294,-1.16848 2.82094,-1.16848 z"
           style="fill:none;stroke:#808080;stroke-width:2;stroke-linecap:butt;stroke-linejoin:round;stroke-miterlimit:10;stroke-dasharray:none;stroke-opacity:1"
           id="path24"
           inkscape:connector-curvature="0" /></g></g><g
       id="g26"><g
         id="g28"
         clip-path="url(#clipPath30)"><path
           d="m 399.58817,430.47915 c 1.05801,0 2.07282,0.42035 2.82095,1.16847 0.74812,0.74813 1.16847,1.76294 1.16847,2.82095 0,1.05801 -0.42035,2.07283 -1.16847,2.82095 -0.74813,0.74812 -1.76294,1.16847 -2.82095,1.16847 -1.05801,0 -2.07282,-0.42035 -2.82095,-1.16847 -0.74812,-0.74812 -1.16847,-1.76294 -1.16847,-2.82095 0,-1.05801 0.42035,-2.07282 1.16847,-2.82095 0.74813,-0.74812 1.76294,-1.16847 2.82095,-1.16847 z"
           style="fill:none;stroke:#808080;stroke-width:2;stroke-linecap:butt;stroke-linejoin:round;stroke-miterlimit:10;stroke-dasharray:none;stroke-opacity:1"
           id="path34"
           inkscape:connector-curvature="0" /></g></g><g
       id="g36"><g
         id="g38"
         clip-path="url(#clipPath40)"><path
           d="m 370.25192,346.91636 c 1.058,0 2.07282,0.42035 2.82094,1.16847 0.74813,0.74813 1.16848,1.76295 1.16848,2.82095 0,1.05801 -0.42035,2.07283 -1.16848,2.82095 -0.74812,0.74812 -1.76294,1.16848 -2.82094,1.16848 -1.05801,0 -2.07283,-0.42036 -2.82095,-1.16848 -0.74813,-0.74812 -1.16848,-1.76294 -1.16848,-2.82095 0,-1.058 0.42035,-2.07282 1.16848,-2.82095 0.74812,-0.74812 1.76294,-1.16847 2.82095,-1.16847 z"
           style="fill:none;stroke:#808080;stroke-width:2;stroke-linecap:butt;stroke-linejoin:round;stroke-miterlimit:10;stroke-dasharray:none;stroke-opacity:1"
           id="path44"
           inkscape:connector-curvature="0" /></g></g><g
       id="g46"><g
         id="g48"
         clip-path="url(#clipPath50)"><path
           d="m 477.81818,403.17346 c 1.05801,0 2.07283,0.42035 2.82095,1.16847 0.74812,0.74813 1.16847,1.76294 1.16847,2.82095 0,1.05801 -0.42035,2.07282 -1.16847,2.82095 -0.74812,0.74812 -1.76294,1.16847 -2.82095,1.16847 -1.05801,0 -2.07282,-0.42035 -2.82095,-1.16847 -0.74812,-0.74813 -1.16847,-1.76294 -1.16847,-2.82095 0,-1.05801 0.42035,-2.07282 1.16847,-2.82095 0.74813,-0.74812 1.76294,-1.16847 2.82095,-1.16847 z"
           style="fill:none;stroke:#808080;stroke-width:2;stroke-linecap:butt;stroke-linejoin:round;stroke-miterlimit:10;stroke-dasharray:none;stroke-opacity:1"
           id="path54"
           inkscape:connector-curvature="0" /></g></g><g
       id="g56"><g
         id="g58"
         clip-path="url(#clipPath60)"><path
           d="m 433.8138,403.4631 c 1.05801,0 2.07282,0.42035 2.82095,1.16848 0.74812,0.74812 1.16847,1.76294 1.16847,2.82095 0,1.058 -0.42035,2.07282 -1.16847,2.82094 -0.74813,0.74813 -1.76294,1.16848 -2.82095,1.16848 -1.05801,0 -2.07282,-0.42035 -2.82095,-1.16848 -0.74812,-0.74812 -1.16847,-1.76294 -1.16847,-2.82094 0,-1.05801 0.42035,-2.07283 1.16847,-2.82095 0.74813,-0.74813 1.76294,-1.16848 2.82095,-1.16848 z"
           style="fill:none;stroke:#808080;stroke-width:2;stroke-linecap:butt;stroke-linejoin:round;stroke-miterlimit:10;stroke-dasharray:none;stroke-opacity:1"
           id="path64"
           inkscape:connector-curvature="0" /></g></g><g
       id="g66"><g
         id="g68"
         clip-path="url(#clipPath70)"><path
           d="m 331.13691,385.86054 c 1.05801,0 2.07283,0.42035 2.82095,1.16848 0.74812,0.74812 1.16847,1.76294 1.16847,2.82095 0,1.058 -0.42035,2.07282 -1.16847,2.82094 -0.74812,0.74813 -1.76294,1.16848 -2.82095,1.16848 -1.05801,0 -2.07282,-0.42035 -2.82095,-1.16848 -0.74812,-0.74812 -1.16847,-1.76294 -1.16847,-2.82094 0,-1.05801 0.42035,-2.07283 1.16847,-2.82095 0.74813,-0.74813 1.76294,-1.16848 2.82095,-1.16848 z"
           style="fill:none;stroke:#808080;stroke-width:2;stroke-linecap:butt;stroke-linejoin:round;stroke-miterlimit:10;stroke-dasharray:none;stroke-opacity:1"
           id="path74"
           inkscape:connector-curvature="0" /></g></g><g
       id="g76"><g
         id="g78"
         clip-path="url(#clipPath80)"><path
           d="m 419.14567,338.5693 c 1.05801,0 2.07283,0.42035 2.82095,1.16847 0.74813,0.74813 1.16848,1.76294 1.16848,2.82095 0,1.05801 -0.42035,2.07282 -1.16848,2.82095 -0.74812,0.74812 -1.76294,1.16847 -2.82095,1.16847 -1.058,0 -2.07282,-0.42035 -2.82094,-1.16847 -0.74813,-0.74813 -1.16848,-1.76294 -1.16848,-2.82095 0,-1.05801 0.42035,-2.07282 1.16848,-2.82095 0.74812,-0.74812 1.76294,-1.16847 2.82094,-1.16847 z"
           style="fill:none;stroke:#808080;stroke-width:2;stroke-linecap:butt;stroke-linejoin:round;stroke-miterlimit:10;stroke-dasharray:none;stroke-opacity:1"
           id="path84"
           inkscape:connector-curvature="0" /></g></g><g
       id="g86"><g
         id="g88"
         clip-path="url(#clipPath90)"><path
           d="m 277.35378,340.25451 c 1.05801,0 2.07282,0.42035 2.82095,1.16847 0.74812,0.74813 1.16847,1.76294 1.16847,2.82095 0,1.05801 -0.42035,2.07283 -1.16847,2.82095 -0.74813,0.74812 -1.76294,1.16847 -2.82095,1.16847 -1.05801,0 -2.07283,-0.42035 -2.82095,-1.16847 -0.74812,-0.74812 -1.16847,-1.76294 -1.16847,-2.82095 0,-1.05801 0.42035,-2.07282 1.16847,-2.82095 0.74812,-0.74812 1.76294,-1.16847 2.82095,-1.16847 z"
           style="fill:none;stroke:#808080;stroke-width:2;stroke-linecap:butt;stroke-linejoin:round;stroke-miterlimit:10;stroke-dasharray:none;stroke-opacity:1"
           id="path94"
           inkscape:connector-curvature="0" /></g></g><g
       id="g96"><g
         id="g98"
         clip-path="url(#clipPath100)"><path
           d="m 267.57503,346.00793 c 1.058,0 2.07282,0.42035 2.82095,1.16847 0.74812,0.74812 1.16847,1.76294 1.16847,2.82095 0,1.05801 -0.42035,2.07282 -1.16847,2.82095 -0.74813,0.74812 -1.76295,1.16847 -2.82095,1.16847 -1.05801,0 -2.07283,-0.42035 -2.82095,-1.16847 -0.74812,-0.74813 -1.16848,-1.76294 -1.16848,-2.82095 0,-1.05801 0.42036,-2.07283 1.16848,-2.82095 0.74812,-0.74812 1.76294,-1.16847 2.82095,-1.16847 z"
           style="fill:none;stroke:#808080;stroke-width:2;stroke-linecap:butt;stroke-linejoin:round;stroke-miterlimit:10;stroke-dasharray:none;stroke-opacity:1"
           id="path104"
           inkscape:connector-curvature="0" /></g></g><g
       id="g106"><g
         id="g108"
         clip-path="url(#clipPath110)"><path
           d="m 345.80504,345.52079 c 1.05801,0 2.07282,0.42036 2.82095,1.16848 0.74812,0.74812 1.16847,1.76294 1.16847,2.82095 0,1.058 -0.42035,2.07282 -1.16847,2.82095 -0.74813,0.74812 -1.76294,1.16847 -2.82095,1.16847 -1.05801,0 -2.07283,-0.42035 -2.82095,-1.16847 -0.74812,-0.74813 -1.16847,-1.76295 -1.16847,-2.82095 0,-1.05801 0.42035,-2.07283 1.16847,-2.82095 0.74812,-0.74812 1.76294,-1.16848 2.82095,-1.16848 z"
           style="fill:none;stroke:#808080;stroke-width:2;stroke-linecap:butt;stroke-linejoin:round;stroke-miterlimit:10;stroke-dasharray:none;stroke-opacity:1"
           id="path114"
           inkscape:connector-curvature="0" /></g></g><g
       id="g116"><g
         id="g118"
         clip-path="url(#clipPath120)"><path
           d="m 72,76.691602 446.4,0"
           style="fill:none;stroke:#404040;stroke-width:2;stroke-linecap:square;stroke-linejoin:round;stroke-miterlimit:10;stroke-dasharray:none;stroke-opacity:1"
           id="path124"
           inkscape:connector-curvature="0" /></g></g><g
       id="g126"><g
         id="g128"
         clip-path="url(#clipPath130)"><path
           d="m 72,469.7382 446.4,0"
           style="fill:none;stroke:#a0a0a0;stroke-width:2;stroke-linecap:square;stroke-linejoin:round;stroke-miterlimit:10;stroke-dasharray:2,6;stroke-opacity:1;stroke-dashoffset:0"
           id="path134"
           inkscape:connector-curvature="0" /></g></g><g
       id="g136"><g
         id="g138"
         clip-path="url(#clipPath140)"><path
           d="m 80.221142,-1 1.557609,121.2293 4.889376,113.27781 4.889376,0 4.889375,0 4.889372,0 4.88938,0 4.88938,0 4.88937,0 4.88938,0 4.88937,0 4.88938,0 4.88937,0 4.88938,1.81687 4.88938,30.20215 4.88937,50.71433 4.88938,0 4.88937,42.41993 4.88938,0 4.88937,0 4.88938,0 4.88938,0 4.88937,0 4.88938,0 4.88937,0 4.88938,0 4.88937,0 4.88938,0 4.88937,0 4.88938,0 4.88938,0 4.88937,0 4.88938,11.9018 4.88937,0 4.88938,0 4.88937,0 4.88938,0 4.88938,0 4.88937,0 4.88938,0 4.88937,0 4.88938,0 4.88937,0 4.88938,0 4.88938,0 4.88937,0 4.88938,0 4.88937,0 4.88938,0 4.88937,0 4.88938,5.62176 4.88938,0 4.88937,0 4.88938,22.81619 4.88937,0 4.88938,0 4.88937,0 4.88938,0 4.88938,0 4.88937,0 4.88938,0 4.88937,0 4.88938,0 4.88937,0 4.88938,0 4.88938,0 4.88937,0 4.88938,0 4.88937,0 4.88938,0 4.88937,0 4.88938,0 4.88937,0"
           style="fill:none;stroke:#000000;stroke-width:0.5;stroke-linecap:square;stroke-linejoin:round;stroke-miterlimit:10;stroke-dasharray:none;stroke-opacity:1"
           id="path144"
           inkscape:connector-curvature="0" /></g></g><g
       id="g146"><g
         id="g148"
         clip-path="url(#clipPath150)"><path
           d="m 83.701574,-1 2.966553,114.76494 4.889376,0 4.889375,0 4.889372,102.83739 4.88938,0 4.88938,0 4.88937,0 4.88938,0 4.88937,25.54149 4.88938,0 4.88937,2.69897 4.88938,47.29124 4.88938,0 4.88937,0 4.88938,57.94231 4.88937,0 4.88938,0 4.88937,0 4.88938,0 4.88938,0 4.88937,0 4.88938,0 4.88937,17.5104 4.88938,0 4.88937,0 4.88938,0 4.88937,0 4.88938,0 4.88938,0 4.88937,0 4.88938,0 4.88937,0 4.88938,0 4.88937,21.53911 4.88938,0 4.88938,0 4.88937,23.42181 4.88938,0 4.88937,0 4.88938,0 4.88937,0 4.88938,0 4.88938,0 4.88937,0 4.88938,0 4.88937,21.92091 4.88938,0 4.88937,0 4.88938,0 4.88938,0 4.88937,0 4.88938,0 4.88937,0 4.88938,0 4.88937,0 4.88938,0 4.88938,0 4.88937,0 4.88938,0 4.88937,0 4.88938,0 4.88937,0 4.88938,0 4.88938,0 4.88937,0"
           style="fill:none;stroke:#000000;stroke-width:0.5;stroke-linecap:square;stroke-linejoin:round;stroke-miterlimit:10;stroke-dasharray:none;stroke-opacity:1"
           id="path154"
           inkscape:connector-curvature="0" /></g></g><g
       id="g156"><g
         id="g158"
         clip-path="url(#clipPath160)"><path
           d="m 88.469932,-1 3.087571,88.552 4.889375,15.82519 4.889372,80.85065 4.88938,27.92448 4.88938,0 4.88937,0 4.88938,43.17038 4.88937,0 4.88938,55.83579 4.88937,0 4.88938,0 4.88938,0 4.88937,0 4.88938,0 4.88937,0 4.88938,0 4.88937,0 4.88938,0 4.88938,0 4.88937,0 4.88938,0 4.88937,0 4.88938,0 4.88937,0 4.88938,0 4.88937,13.24471 4.88938,0 4.88938,0 4.88937,0 4.88938,0 4.88937,0 4.88938,0 4.88937,0 4.88938,0 4.88938,0 4.88937,0 4.88938,0 4.88937,0 4.88938,26.50258 4.88937,0 4.88938,0 4.88938,0 4.88937,0 4.88938,0 4.88937,0 4.88938,0 4.88937,0 4.88938,0 4.88938,0 4.88937,0 4.88938,0 4.88937,0 4.88938,0 4.88937,0 4.88938,0 4.88938,0 4.88937,0 4.88938,0"
           style="fill:none;stroke:#000000;stroke-width:0.5;stroke-linecap:square;stroke-linejoin:round;stroke-miterlimit:10;stroke-dasharray:none;stroke-opacity:1"
           id="path164"
           inkscape:connector-curvature="0" /></g></g><g
       id="g166"><g
         id="g168"
         clip-path="url(#clipPath170)"><path
           d="m 84.759039,-1 1.909088,41.392411 4.889376,50.556343 4.889375,1.342903 4.889372,0 4.88938,0 4.88938,0 4.88937,42.972893 4.88938,0 4.88937,85.57714 4.88938,0 4.88937,98.83502 4.88938,0 4.88938,0 4.88937,0 4.88938,0 4.88937,0 4.88938,0 4.88937,0 4.88938,3.44942 4.88938,0 4.88937,0 4.88938,0 4.88937,0 4.88938,0 4.88937,0 4.88938,0 4.88937,0 4.88938,0 4.88938,0 4.88937,0 4.88938,0 4.88937,0 4.88938,0 4.88937,11.07236 4.88938,0 4.88938,0 4.88937,0 4.88938,0 4.88937,0 4.88938,0 4.88937,0 4.88938,0 4.88938,0 4.88937,0 4.88938,4.75282 4.88937,0 4.88938,0 4.88937,11.69116 4.88938,0 4.88938,0 4.88937,0 4.88938,0 4.88937,0 4.88938,0 4.88937,0 4.88938,0 4.88938,0 4.88937,0 4.88938,0 4.88937,0 4.88938,0 4.88937,56.52041 4.88938,0 4.88938,0 4.88937,0 4.88938,0 4.88937,0 4.88938,0 4.88937,0 4.88938,0 4.88937,0 4.88938,0 4.88938,0 4.88937,0 4.88938,0 4.88937,0 4.88938,0 4.88937,0 4.88938,0 4.88938,0 4.88937,0"
           style="fill:none;stroke:#000000;stroke-width:0.5;stroke-linecap:square;stroke-linejoin:round;stroke-miterlimit:10;stroke-dasharray:none;stroke-opacity:1"
           id="path174"
           inkscape:connector-curvature="0" /></g></g><g
       id="g176"><g
         id="g178"
         clip-path="url(#clipPath180)"><path
           d="m 82.871894,-1 3.796233,180.83049 4.889376,0 4.889375,16.0885 4.889372,0 4.88938,0 4.88938,0 4.88937,13.37637 4.88938,0 4.88937,28.54327 4.88938,4.87131 4.88937,0 4.88938,0 4.88938,0 4.88937,0 4.88938,0 4.88937,0 4.88938,0 4.88937,0 4.88938,0 4.88938,31.95319 4.88937,0 4.88938,0 4.88937,0 4.88938,15.1669 4.88937,0 4.88938,0 4.88937,0 4.88938,0 4.88938,0 4.88937,0 4.88938,0 4.88937,0 4.88938,0 4.88937,0 4.88938,9.47932 4.88938,0 4.88937,0 4.88938,0 4.88937,0 4.88938,0 4.88937,0 4.88938,0 4.88938,0 4.88937,23.48763 4.88938,0 4.88937,0 4.88938,14.37696 4.88937,30.01783 4.88938,0 4.88938,0 4.88937,0 4.88938,0 4.88937,40.26076 4.88938,0 4.88937,0 4.88938,0 4.88938,0 4.88937,0 4.88938,0 4.88937,0 4.88938,0 4.88937,0 4.88938,0 4.88938,0 4.88937,0 4.88938,0 4.88937,0 4.88938,0 4.88937,0 4.88938,0 4.88937,0 4.88938,0"
           style="fill:none;stroke:#000000;stroke-width:0.5;stroke-linecap:square;stroke-linejoin:round;stroke-miterlimit:10;stroke-dasharray:none;stroke-opacity:1"
           id="path184"
           inkscape:connector-curvature="0" /></g></g><g
       id="g186"><g
         id="g188"
         clip-path="url(#clipPath190)"><path
           d="m 80.547031,-1 1.23172,84.668114 4.889376,0 4.889376,0 4.889375,0 4.889372,148.509256 4.88938,27.34519 4.88938,0 4.88937,34.90231 4.88938,0 4.88937,2.33033 4.88938,0 4.88937,1.02693 4.88938,0 4.88938,0 4.88937,0 4.88938,0 4.88937,5.60859 4.88938,0 4.88937,0 4.88938,0 4.88938,0 4.88937,0 4.88938,0 4.88937,0 4.88938,20.57801 4.88937,11.84914 4.88938,0 4.88937,0 4.88938,0 4.88938,0 4.88937,0 4.88938,0 4.88937,54.0321 4.88938,0 4.88937,0 4.88938,0 4.88938,0 4.88937,0 4.88938,0 4.88937,0 4.88938,0 4.88937,0 4.88938,0 4.88938,0 4.88937,0 4.88938,0 4.88937,0 4.88938,0 4.88937,0 4.88938,0 4.88938,0 4.88937,0"
           style="fill:none;stroke:#000000;stroke-width:0.5;stroke-linecap:square;stroke-linejoin:round;stroke-miterlimit:10;stroke-dasharray:none;stroke-opacity:1"
           id="path194"
           inkscape:connector-curvature="0" /></g></g><g
       id="g196"><g
         id="g198"
         clip-path="url(#clipPath200)"><path
           d="m 90.151272,-1 1.406231,16.180069 4.889375,29.978331 4.889372,118.39927 4.88938,3.33092 4.88938,0 4.88937,88.07863 4.88938,0 4.88937,3.44942 4.88938,0 4.88937,0 4.88938,0 4.88938,0 4.88937,0 4.88938,0 4.88937,0 4.88938,0 4.88937,0 4.88938,31.59771 4.88938,0 4.88937,0 4.88938,40.70839 4.88937,0 4.88938,0 4.88937,0 4.88938,0 4.88937,0 4.88938,0 4.88938,0 4.88937,0 4.88938,0 4.88937,0 4.88938,9.6768 4.88937,0 4.88938,0 4.88938,0 4.88937,0 4.88938,0 4.88937,0 4.88938,0 4.88937,0 4.88938,0 4.88938,0 4.88937,0 4.88938,0 4.88937,0 4.88938,0 4.88937,0 4.88938,0 4.88938,2.15918 4.88937,0 4.88938,0 4.88937,0 4.88938,0 4.88937,0 4.88938,0 4.88938,0 4.88937,0 4.88938,0 4.88937,0 4.88938,0 4.88937,0 4.88938,0 4.88938,0 4.88937,0 4.88938,0 4.88937,0 4.88938,0 4.88937,0"
           style="fill:none;stroke:#000000;stroke-width:0.5;stroke-linecap:square;stroke-linejoin:round;stroke-miterlimit:10;stroke-dasharray:none;stroke-opacity:1"
           id="path204"
           inkscape:connector-curvature="0" /></g></g><g
       id="g206"><g
         id="g208"
         clip-path="url(#clipPath210)"><path
           d="m 86.3495,-1 0.318627,3.0011886 4.889376,0 4.889375,195.6161814 4.889372,21.17047 4.88938,0 4.88938,0 4.88937,0 4.88938,4.68699 4.88937,0 4.88938,0 4.88937,65.59159 4.88938,0 4.88938,0 4.88937,0 4.88938,0 4.88937,0 4.88938,0 4.88937,0 4.88938,0 4.88938,0 4.88937,55.17751 4.88938,0 4.88937,0 4.88938,0 4.88937,0 4.88938,0 4.88937,0 4.88938,0 4.88938,0 4.88937,0 4.88938,0 4.88937,0 4.88938,0 4.88937,0 4.88938,0 4.88938,0 4.88937,0 4.88938,0 4.88937,0 4.88938,0"
           style="fill:none;stroke:#000000;stroke-width:0.5;stroke-linecap:square;stroke-linejoin:round;stroke-miterlimit:10;stroke-dasharray:none;stroke-opacity:1"
           id="path214"
           inkscape:connector-curvature="0" /></g></g><g
       id="g216"><g
         id="g218"
         clip-path="url(#clipPath220)"><path
           d="m 82.911654,-1 3.756473,146.50747 4.889376,0 4.889375,19.73541 4.889372,44.64494 4.88938,59.91716 4.88938,0 4.88937,0 4.88938,0 4.88937,0 4.88938,0 4.88937,0 4.88938,0 4.88938,48.93696 4.88937,0 4.88938,0 4.88937,0 4.88938,0 4.88937,0 4.88938,31.25541 4.88938,0 4.88937,0 4.88938,0 4.88937,0 4.88938,0 4.88937,0 4.88938,0 4.88937,0 4.88938,0 4.88938,0 4.88937,0 4.88938,0 4.88937,0 4.88938,0 4.88937,0 4.88938,0 4.88938,0 4.88937,0 4.88938,0"
           style="fill:none;stroke:#000000;stroke-width:0.5;stroke-linecap:square;stroke-linejoin:round;stroke-miterlimit:10;stroke-dasharray:none;stroke-opacity:1"
           id="path224"
           inkscape:connector-curvature="0" /></g></g><g
       id="g226"><g
         id="g228"
         clip-path="url(#clipPath230)"><path
           d="m 76.889376,31.663543 4.889375,80.521507 4.889376,0 4.889376,27.20037 4.889375,67.48745 4.889372,0 4.88938,53.97943 4.88938,0 4.88937,7.03049 4.88938,0 4.88937,0 4.88938,0 4.88937,17.4314 4.88938,0 4.88938,0 4.88937,0 4.88938,19.06396 4.88937,3.23876 4.88938,0 4.88937,0 4.88938,0 4.88938,0 4.88937,0 4.88938,0 4.88937,0 4.88938,0 4.88937,0 4.88938,0 4.88937,0 4.88938,0 4.88938,30.34698 4.88937,0 4.88938,0 4.88937,0 4.88938,0 4.88937,0 4.88938,11.54633 4.88938,0 4.88937,0 4.88938,0 4.88937,0 4.88938,0 4.88937,0 4.88938,0 4.88938,0 4.88937,0 4.88938,0 4.88937,0 4.88938,0 4.88937,0 4.88938,0 4.88938,0 4.88937,0 4.88938,0 4.88937,0 4.88938,0"
           style="fill:none;stroke:#000000;stroke-width:0.5;stroke-linecap:square;stroke-linejoin:round;stroke-miterlimit:10;stroke-dasharray:none;stroke-opacity:1"
           id="path234"
           inkscape:connector-curvature="0" /></g></g><path
       d="m 72,57.6 0,4"
       style="fill:none;stroke:#000000;stroke-width:0.5;stroke-linecap:butt;stroke-linejoin:round;stroke-miterlimit:10;stroke-dasharray:none;stroke-opacity:1"
       id="path236"
       inkscape:connector-curvature="0" /><path
       d="m 72,518.4 0,-4"
       style="fill:none;stroke:#000000;stroke-width:0.5;stroke-linecap:butt;stroke-linejoin:round;stroke-miterlimit:10;stroke-dasharray:none;stroke-opacity:1"
       id="path238"
       inkscape:connector-curvature="0" /><text
       transform="matrix(1,0,0,-1,68.26401,43.430737)"
       style="font-variant:normal;font-size:14.94396019px;font-family:'URW Palladio L';-inkscape-font-specification:URWPalladioL-Roma;writing-mode:lr-tb;fill:#000000;fill-opacity:1;fill-rule:nonzero;stroke:none"
       id="text240"><tspan
         x="0"
         y="0"
         id="tspan242">0</tspan></text>
<path
       d="m 169.78751,57.6 0,4"
       style="fill:none;stroke:#000000;stroke-width:0.5;stroke-linecap:butt;stroke-linejoin:round;stroke-miterlimit:10;stroke-dasharray:none;stroke-opacity:1"
       id="path244"
       inkscape:connector-curvature="0" /><path
       d="m 169.78751,518.4 0,-4"
       style="fill:none;stroke:#000000;stroke-width:0.5;stroke-linecap:butt;stroke-linejoin:round;stroke-miterlimit:10;stroke-dasharray:none;stroke-opacity:1"
       id="path246"
       inkscape:connector-curvature="0" /><text
       transform="matrix(1,0,0,-1,162.31553,43.430737)"
       style="font-variant:normal;font-size:14.94396019px;font-family:'URW Palladio L';-inkscape-font-specification:URWPalladioL-Roma;writing-mode:lr-tb;fill:#000000;fill-opacity:1;fill-rule:nonzero;stroke:none"
       id="text248"><tspan
         x="0 7.4719801"
         y="0"
         sodipodi:role="line"
         id="tspan250">20</tspan></text>
<path
       d="m 267.57503,57.6 0,4"
       style="fill:none;stroke:#000000;stroke-width:0.5;stroke-linecap:butt;stroke-linejoin:round;stroke-miterlimit:10;stroke-dasharray:none;stroke-opacity:1"
       id="path252"
       inkscape:connector-curvature="0" /><path
       d="m 267.57503,518.4 0,-4"
       style="fill:none;stroke:#000000;stroke-width:0.5;stroke-linecap:butt;stroke-linejoin:round;stroke-miterlimit:10;stroke-dasharray:none;stroke-opacity:1"
       id="path254"
       inkscape:connector-curvature="0" /><text
       transform="matrix(1,0,0,-1,260.10305,43.430737)"
       style="font-variant:normal;font-size:14.94396019px;font-family:'URW Palladio L';-inkscape-font-specification:URWPalladioL-Roma;writing-mode:lr-tb;fill:#000000;fill-opacity:1;fill-rule:nonzero;stroke:none"
       id="text256"><tspan
         x="0 7.4719801"
         y="0"
         sodipodi:role="line"
         id="tspan258">40</tspan></text>
<path
       d="m 365.36254,57.6 0,4"
       style="fill:none;stroke:#000000;stroke-width:0.5;stroke-linecap:butt;stroke-linejoin:round;stroke-miterlimit:10;stroke-dasharray:none;stroke-opacity:1"
       id="path260"
       inkscape:connector-curvature="0" /><path
       d="m 365.36254,518.4 0,-4"
       style="fill:none;stroke:#000000;stroke-width:0.5;stroke-linecap:butt;stroke-linejoin:round;stroke-miterlimit:10;stroke-dasharray:none;stroke-opacity:1"
       id="path262"
       inkscape:connector-curvature="0" /><text
       transform="matrix(1,0,0,-1,357.89056,43.430737)"
       style="font-variant:normal;font-size:14.94396019px;font-family:'URW Palladio L';-inkscape-font-specification:URWPalladioL-Roma;writing-mode:lr-tb;fill:#000000;fill-opacity:1;fill-rule:nonzero;stroke:none"
       id="text264"><tspan
         x="0 7.4719801"
         y="0"
         sodipodi:role="line"
         id="tspan266">60</tspan></text>
<path
       d="m 463.15005,57.6 0,4"
       style="fill:none;stroke:#000000;stroke-width:0.5;stroke-linecap:butt;stroke-linejoin:round;stroke-miterlimit:10;stroke-dasharray:none;stroke-opacity:1"
       id="path268"
       inkscape:connector-curvature="0" /><path
       d="m 463.15005,518.4 0,-4"
       style="fill:none;stroke:#000000;stroke-width:0.5;stroke-linecap:butt;stroke-linejoin:round;stroke-miterlimit:10;stroke-dasharray:none;stroke-opacity:1"
       id="path270"
       inkscape:connector-curvature="0" /><text
       transform="matrix(1,0,0,-1,455.67807,43.430737)"
       style="font-variant:normal;font-size:14.94396019px;font-family:'URW Palladio L';-inkscape-font-specification:URWPalladioL-Roma;writing-mode:lr-tb;fill:#000000;fill-opacity:1;fill-rule:nonzero;stroke:none"
       id="text272"><tspan
         x="0 7.4719801"
         y="0"
         sodipodi:role="line"
         id="tspan274">80</tspan></text>
<path
       d="m 72,57.6 4,0"
       style="fill:none;stroke:#000000;stroke-width:0.5;stroke-linecap:butt;stroke-linejoin:round;stroke-miterlimit:10;stroke-dasharray:none;stroke-opacity:1"
       id="path288"
       inkscape:connector-curvature="0" /><path
       d="m 518.4,57.6 -4,0"
       style="fill:none;stroke:#000000;stroke-width:0.5;stroke-linecap:butt;stroke-linejoin:round;stroke-miterlimit:10;stroke-dasharray:none;stroke-opacity:1"
       id="path290"
       inkscape:connector-curvature="0" /><text
       transform="matrix(1,0,0,-1,34.37609,52.563938)"
       style="font-variant:normal;font-size:14.94396019px;font-family:'URW Palladio L';-inkscape-font-specification:URWPalladioL-Roma;writing-mode:lr-tb;fill:#000000;fill-opacity:1;fill-rule:nonzero;stroke:none"
       id="text292"><tspan
         x="0 7.4719801 11.20797 18.679951 26.15193"
         y="0"
         sodipodi:role="line"
         id="tspan294">0.340</tspan></text>
<path
       d="m 72,123.42857 4,0"
       style="fill:none;stroke:#000000;stroke-width:0.5;stroke-linecap:butt;stroke-linejoin:round;stroke-miterlimit:10;stroke-dasharray:none;stroke-opacity:1"
       id="path296"
       inkscape:connector-curvature="0" /><path
       d="m 518.4,123.42857 -4,0"
       style="fill:none;stroke:#000000;stroke-width:0.5;stroke-linecap:butt;stroke-linejoin:round;stroke-miterlimit:10;stroke-dasharray:none;stroke-opacity:1"
       id="path298"
       inkscape:connector-curvature="0" /><text
       transform="matrix(1,0,0,-1,34.37609,118.39251)"
       style="font-variant:normal;font-size:14.94396019px;font-family:'URW Palladio L';-inkscape-font-specification:URWPalladioL-Roma;writing-mode:lr-tb;fill:#000000;fill-opacity:1;fill-rule:nonzero;stroke:none"
       id="text300"><tspan
         x="0 7.4719801 11.20797 18.679951 26.15193"
         y="0"
         sodipodi:role="line"
         id="tspan302">0.345</tspan></text>
<path
       d="m 72,189.25714 4,0"
       style="fill:none;stroke:#000000;stroke-width:0.5;stroke-linecap:butt;stroke-linejoin:round;stroke-miterlimit:10;stroke-dasharray:none;stroke-opacity:1"
       id="path304"
       inkscape:connector-curvature="0" /><path
       d="m 518.4,189.25714 -4,0"
       style="fill:none;stroke:#000000;stroke-width:0.5;stroke-linecap:butt;stroke-linejoin:round;stroke-miterlimit:10;stroke-dasharray:none;stroke-opacity:1"
       id="path306"
       inkscape:connector-curvature="0" /><text
       transform="matrix(1,0,0,-1,34.37609,184.22108)"
       style="font-variant:normal;font-size:14.94396019px;font-family:'URW Palladio L';-inkscape-font-specification:URWPalladioL-Roma;writing-mode:lr-tb;fill:#000000;fill-opacity:1;fill-rule:nonzero;stroke:none"
       id="text308"><tspan
         x="0 7.4719801 11.20797 18.679951 26.15193"
         y="0"
         sodipodi:role="line"
         id="tspan310">0.350</tspan></text>
<path
       d="m 72,255.08571 4,0"
       style="fill:none;stroke:#000000;stroke-width:0.5;stroke-linecap:butt;stroke-linejoin:round;stroke-miterlimit:10;stroke-dasharray:none;stroke-opacity:1"
       id="path312"
       inkscape:connector-curvature="0" /><path
       d="m 518.4,255.08571 -4,0"
       style="fill:none;stroke:#000000;stroke-width:0.5;stroke-linecap:butt;stroke-linejoin:round;stroke-miterlimit:10;stroke-dasharray:none;stroke-opacity:1"
       id="path314"
       inkscape:connector-curvature="0" /><text
       transform="matrix(1,0,0,-1,34.37609,250.04965)"
       style="font-variant:normal;font-size:14.94396019px;font-family:'URW Palladio L';-inkscape-font-specification:URWPalladioL-Roma;writing-mode:lr-tb;fill:#000000;fill-opacity:1;fill-rule:nonzero;stroke:none"
       id="text316"><tspan
         x="0 7.4719801 11.20797 18.679951 26.15193"
         y="0"
         sodipodi:role="line"
         id="tspan318">0.355</tspan></text>
<path
       d="m 72,320.91429 4,0"
       style="fill:none;stroke:#000000;stroke-width:0.5;stroke-linecap:butt;stroke-linejoin:round;stroke-miterlimit:10;stroke-dasharray:none;stroke-opacity:1"
       id="path320"
       inkscape:connector-curvature="0" /><path
       d="m 518.4,320.91429 -4,0"
       style="fill:none;stroke:#000000;stroke-width:0.5;stroke-linecap:butt;stroke-linejoin:round;stroke-miterlimit:10;stroke-dasharray:none;stroke-opacity:1"
       id="path322"
       inkscape:connector-curvature="0" /><text
       transform="matrix(1,0,0,-1,34.37609,315.87822)"
       style="font-variant:normal;font-size:14.94396019px;font-family:'URW Palladio L';-inkscape-font-specification:URWPalladioL-Roma;writing-mode:lr-tb;fill:#000000;fill-opacity:1;fill-rule:nonzero;stroke:none"
       id="text324"><tspan
         x="0 7.4719801 11.20797 18.679951 26.15193"
         y="0"
         sodipodi:role="line"
         id="tspan326">0.360</tspan></text>
<path
       d="m 72,386.74286 4,0"
       style="fill:none;stroke:#000000;stroke-width:0.5;stroke-linecap:butt;stroke-linejoin:round;stroke-miterlimit:10;stroke-dasharray:none;stroke-opacity:1"
       id="path328"
       inkscape:connector-curvature="0" /><path
       d="m 518.4,386.74286 -4,0"
       style="fill:none;stroke:#000000;stroke-width:0.5;stroke-linecap:butt;stroke-linejoin:round;stroke-miterlimit:10;stroke-dasharray:none;stroke-opacity:1"
       id="path330"
       inkscape:connector-curvature="0" /><text
       transform="matrix(1,0,0,-1,34.37609,381.7068)"
       style="font-variant:normal;font-size:14.94396019px;font-family:'URW Palladio L';-inkscape-font-specification:URWPalladioL-Roma;writing-mode:lr-tb;fill:#000000;fill-opacity:1;fill-rule:nonzero;stroke:none"
       id="text332"><tspan
         x="0 7.4719801 11.20797 18.679951 26.15193"
         y="0"
         sodipodi:role="line"
         id="tspan334">0.365</tspan></text>
<path
       d="m 72,452.57143 4,0"
       style="fill:none;stroke:#000000;stroke-width:0.5;stroke-linecap:butt;stroke-linejoin:round;stroke-miterlimit:10;stroke-dasharray:none;stroke-opacity:1"
       id="path336"
       inkscape:connector-curvature="0" /><path
       d="m 518.4,452.57143 -4,0"
       style="fill:none;stroke:#000000;stroke-width:0.5;stroke-linecap:butt;stroke-linejoin:round;stroke-miterlimit:10;stroke-dasharray:none;stroke-opacity:1"
       id="path338"
       inkscape:connector-curvature="0" /><text
       transform="matrix(1,0,0,-1,34.37609,447.53537)"
       style="font-variant:normal;font-size:14.94396019px;font-family:'URW Palladio L';-inkscape-font-specification:URWPalladioL-Roma;writing-mode:lr-tb;fill:#000000;fill-opacity:1;fill-rule:nonzero;stroke:none"
       id="text340"><tspan
         x="0 7.4719801 11.20797 18.679951 26.15193"
         y="0"
         sodipodi:role="line"
         id="tspan342">0.370</tspan></text>
<path
       d="m 72,518.4 4,0"
       style="fill:none;stroke:#000000;stroke-width:0.5;stroke-linecap:butt;stroke-linejoin:round;stroke-miterlimit:10;stroke-dasharray:none;stroke-opacity:1"
       id="path344"
       inkscape:connector-curvature="0" /><path
       d="m 518.4,518.4 -4,0"
       style="fill:none;stroke:#000000;stroke-width:0.5;stroke-linecap:butt;stroke-linejoin:round;stroke-miterlimit:10;stroke-dasharray:none;stroke-opacity:1"
       id="path346"
       inkscape:connector-curvature="0" /><text
       transform="matrix(1,0,0,-1,34.37609,513.36394)"
       style="font-variant:normal;font-size:14.94396019px;font-family:'URW Palladio L';-inkscape-font-specification:URWPalladioL-Roma;writing-mode:lr-tb;fill:#000000;fill-opacity:1;fill-rule:nonzero;stroke:none"
       id="text348"><tspan
         x="0 7.4719801 11.20797 18.679951 26.15193"
         y="0"
         sodipodi:role="line"
         id="tspan350">0.375</tspan></text>
<text
       transform="matrix(0,1,1,0,29.27895,265.35259)"
       style="font-variant:normal;font-size:14.94396019px;font-family:'URW Palladio L';-inkscape-font-specification:URWPalladioL-Roma;writing-mode:lr-tb;fill:#000000;fill-opacity:1;fill-rule:nonzero;stroke:none"
       id="text352"><tspan
         x="0 10.580324 20.547945 29.559153 37.38979"
         y="0"
         sodipodi:role="line"
         id="tspan354">CRPSS</tspan></text>
<path
       d="m 72,518.4 446.4,0"
       style="fill:none;stroke:#000000;stroke-width:1;stroke-linecap:square;stroke-linejoin:round;stroke-miterlimit:10;stroke-dasharray:none;stroke-opacity:1"
       id="path356"
       inkscape:connector-curvature="0" /><path
       d="m 518.4,57.6 0,460.8"
       style="fill:none;stroke:#000000;stroke-width:1;stroke-linecap:square;stroke-linejoin:round;stroke-miterlimit:10;stroke-dasharray:none;stroke-opacity:1"
       id="path358"
       inkscape:connector-curvature="0" /><path
       d="m 72,57.6 446.4,0"
       style="fill:none;stroke:#000000;stroke-width:1;stroke-linecap:square;stroke-linejoin:round;stroke-miterlimit:10;stroke-dasharray:none;stroke-opacity:1"
       id="path360"
       inkscape:connector-curvature="0" /><path
       d="m 72,57.6 0,460.8"
       style="fill:none;stroke:#000000;stroke-width:1;stroke-linecap:square;stroke-linejoin:round;stroke-miterlimit:10;stroke-dasharray:none;stroke-opacity:1"
       id="path362"
       inkscape:connector-curvature="0" /><text
       xml:space="preserve"
       style="font-style:normal;font-weight:normal;font-size:32px;line-height:125%;font-family:sans-serif;letter-spacing:0px;word-spacing:0px;fill:#000000;fill-opacity:1;stroke:none;stroke-width:1px;stroke-linecap:butt;stroke-linejoin:miter;stroke-opacity:1"
       x="172.15022"
       y="-532.7807"
       id="text3523"
       sodipodi:linespacing="125%"
       transform="scale(1,-1)"><tspan
         sodipodi:role="line"
         id="tspan3525"
         x="172.15022"
         y="-532.7807"
         style="font-style:normal;font-variant:normal;font-weight:normal;font-stretch:normal;font-size:18px;font-family:'URW Palladio L';-inkscape-font-specification:'URW Palladio L'">Evolution of the best individuals</tspan></text>
<text
       xml:space="preserve"
       style="font-style:normal;font-weight:normal;font-size:32px;line-height:125%;font-family:sans-serif;letter-spacing:0px;word-spacing:0px;fill:#000000;fill-opacity:1;stroke:none;stroke-width:1px;stroke-linecap:butt;stroke-linejoin:miter;stroke-opacity:1"
       x="252.17062"
       y="-28.215248"
       id="text3527"
       sodipodi:linespacing="125%"
       transform="scale(1,-1)"><tspan
         sodipodi:role="line"
         id="tspan3529"
         x="252.17062"
         y="-28.215248"
         style="font-style:normal;font-variant:normal;font-weight:normal;font-stretch:normal;font-size:15px;font-family:'URW Palladio L';-inkscape-font-specification:'URW Palladio L'">Generations</tspan></text>
</g></svg>